<svg width="248" height="284" viewBox="0 0 248 284" fill="none" xmlns="http://www.w3.org/2000/svg">
<path d="M167.478 283.247H167.543H167.789C180.588 283.182 191.374 274.69 194.9 263.071C206.041 267.929 219.491 265.214 227.831 255.521C236.127 245.871 236.8 232.269 230.458 222.003C240.239 217.515 247.043 207.605 247.043 196.138C247.043 187.321 243.04 179.437 236.735 174.21C243.04 169.005 247.043 161.108 247.043 152.312C247.043 143.487 243.04 135.59 236.735 130.385C243.04 125.172 247.043 117.274 247.043 108.457C247.043 99.2055 242.598 90.9528 235.729 85.7696C243.474 78.6101 246.928 67.4328 243.692 56.6682C240.014 44.4123 228.815 36.4709 216.646 36.4058C218.137 24.3525 211.723 12.2052 200.061 6.97855C189.166 2.07764 176.824 4.59687 168.708 12.4079C163.569 4.92263 154.969 0 145.21 0C136.386 0 128.509 4.03221 123.304 10.3086C118.071 4.02497 110.194 0 101.377 0C91.597 0 82.9535 4.94434 77.8354 12.4948C69.6551 4.70545 57.2255 2.25862 46.3523 7.26812C34.7335 12.6034 28.4282 24.7941 30.028 36.8256C17.859 37.0211 6.72517 45.0493 3.15627 57.3486C0.021718 68.0916 3.52547 79.1892 11.2497 86.2546C4.42313 91.4596 0 99.6616 0 108.92C0 117.738 4.01049 125.614 10.3086 130.819C4.00326 136.053 0 143.929 0 152.746C0 161.571 4.01049 169.447 10.3086 174.674C4.00326 179.886 0 187.762 0 196.579C0 208.133 6.89168 218.065 16.7586 222.532C10.4751 232.862 11.2858 246.472 19.6688 256.056C28.0952 265.677 41.5527 268.262 52.6431 263.317C56.2772 274.864 67.0635 283.247 79.7972 283.247C88.6145 283.247 96.4979 279.215 101.725 272.916C106.93 279.222 114.806 283.247 123.623 283.247C132.448 283.247 140.345 279.215 145.55 272.916C150.763 279.222 158.661 283.247 167.478 283.247Z" fill="white"/>
</svg>
