<svg width="500" height="500" viewBox="0 0 500 500" fill="none" xmlns="http://www.w3.org/2000/svg">
<path d="M347 428V467.148C347 472.592 353.72 477 362 477C370.289 477 377 472.587 377 467.148V428" fill="#DECAAD"/>
<path d="M347 425V466.545C347 472.323 353.72 477 362 477C370.289 477 377 472.316 377 466.545V425" stroke="#603813" stroke-width="6.63305" stroke-miterlimit="10"/>
<path d="M257 428V467.148C257 472.592 263.943 477 272.5 477C281.066 477 288 472.587 288 467.148V428" fill="#DECAAD"/>
<path d="M257 425V466.545C257 472.323 263.943 477 272.5 477C281.066 477 288 472.316 288 466.545V425" stroke="#603813" stroke-width="6.63305" stroke-miterlimit="10"/>
<path d="M252.264 268.641V318.663C252.264 325.62 257.903 331.252 264.853 331.252C271.809 331.252 277.441 325.613 277.441 318.663V268.641" fill="#DECAAD"/>
<path d="M252.264 268.641V318.663C252.264 325.62 257.903 331.252 264.853 331.252C271.809 331.252 277.441 325.613 277.441 318.663V268.641" stroke="#603813" stroke-width="6.63305" stroke-miterlimit="10"/>
<path d="M282.084 261.156C281.75 263.39 280.413 265.434 278.206 267.083C275.999 268.731 273.001 269.926 269.513 270.547C266.025 271.168 262.169 271.193 258.334 270.62C254.499 270.047 250.819 268.896 247.664 267.282" stroke="#603813" stroke-width="6.63305" stroke-linecap="round"/>
<path d="M380.676 268.645V318.667C380.676 325.624 375.037 331.256 368.087 331.256C361.13 331.256 355.498 325.617 355.498 318.667V268.645" fill="#DECAAD"/>
<path d="M380.676 268.645V318.667C380.676 325.624 375.037 331.256 368.087 331.256C361.13 331.256 355.498 325.617 355.498 318.667V268.645" stroke="#603813" stroke-width="6.63305" stroke-miterlimit="10"/>
<path d="M350.852 261.156C351.186 263.39 352.524 265.434 354.73 267.083C356.937 268.731 359.935 269.926 363.424 270.547C366.912 271.168 370.768 271.193 374.603 270.62C378.438 270.047 382.118 268.896 385.272 267.282" stroke="#603813" stroke-width="6.63305" stroke-linecap="round"/>
</svg>
