<svg width="500" height="500" viewBox="0 0 500 500" fill="none" xmlns="http://www.w3.org/2000/svg">
<rect width="500" height="500" fill="white"/>
<path d="M324.297 154.23C324.292 152.625 325.631 151.321 327.288 151.316L366.882 151.2C368.539 151.195 369.885 152.491 369.89 154.096L369.953 175.591C369.965 179.762 366.484 183.154 362.177 183.166L333.381 183.251C328.411 183.266 324.371 179.376 324.357 174.563L324.297 154.23Z" fill="#CFF0F2" fill-opacity="0.33"/>
<path d="M312.899 154.263C312.894 152.659 311.547 151.362 309.891 151.367L270.296 151.483C268.64 151.488 267.301 152.793 267.305 154.397L267.369 175.892C267.381 180.063 270.882 183.435 275.19 183.422L303.985 183.337C308.955 183.323 312.972 179.409 312.958 174.597L312.899 154.263Z" fill="#CFF0F2" fill-opacity="0.33"/>
<path d="M324.297 154.23L324.357 174.563C324.371 179.376 328.411 183.266 333.381 183.251L362.177 183.166C366.484 183.154 369.965 179.762 369.953 175.591L369.89 154.096C369.885 152.491 368.539 151.195 366.882 151.2L327.288 151.316C325.631 151.321 324.292 152.625 324.297 154.23ZM324.297 154.23C324.297 154.23 321.593 152.785 318.547 152.794C315.501 152.803 312.899 154.263 312.899 154.263M312.899 154.263L312.958 174.597C312.972 179.409 308.955 183.323 303.985 183.337L275.19 183.422C270.882 183.435 267.381 180.063 267.369 175.892L267.305 154.397C267.301 152.793 268.64 151.488 270.296 151.483L309.891 151.367C311.547 151.362 312.894 152.659 312.899 154.263Z" stroke="black" stroke-width="10"/>
<path d="M258.904 156.276C262.783 153.455 268.266 155.836 268.851 160.597L269.011 161.901L259.483 161.6L258.904 156.276Z" fill="black"/>
<path d="M378.028 155.924C374.133 153.126 368.664 155.54 368.107 160.303L367.954 161.609L377.481 161.252L378.028 155.924Z" fill="black"/>
</svg>
