<svg width="500" height="500" viewBox="0 0 500 500" fill="none" xmlns="http://www.w3.org/2000/svg">
<rect width="500" height="500" fill="white"/>
<path d="M286.584 389.922V466.557C286.584 477.214 295.26 485.843 305.953 485.843C316.656 485.843 325.321 477.203 325.321 466.557V389.922" fill="#DECAAD"/>
<path d="M286.584 389.922V466.557C286.584 477.214 295.26 485.843 305.953 485.843C316.656 485.843 325.321 477.203 325.321 466.557V389.922" stroke="#603813" stroke-width="6.63305" stroke-miterlimit="10"/>
<path d="M173.141 389.922V466.557C173.141 477.214 181.817 485.843 192.509 485.843C203.213 485.843 211.878 477.203 211.878 466.557V389.922" fill="#DECAAD"/>
<path d="M173.141 389.922V466.557C173.141 477.214 181.817 485.843 192.509 485.843C203.213 485.843 211.878 477.203 211.878 466.557V389.922" stroke="#603813" stroke-width="6.63305" stroke-miterlimit="10"/>
<path d="M304.377 420.324H304.46H304.774C321.081 420.241 334.823 409.422 339.315 394.619C353.509 400.807 370.646 397.349 381.271 384.999C391.841 372.705 392.698 355.374 384.619 342.296C397.079 336.577 405.749 323.951 405.749 309.341C405.749 298.108 400.649 288.064 392.615 281.404C400.649 274.773 405.749 264.711 405.749 253.504C405.749 242.261 400.649 232.199 392.615 225.568C400.649 218.927 405.749 208.864 405.749 197.631C405.749 185.843 400.086 175.329 391.333 168.725C401.202 159.603 405.601 145.363 401.479 131.648C396.793 116.033 382.525 105.915 367.021 105.832C368.921 90.4759 360.749 74.9995 345.891 68.3403C332.01 62.0963 316.285 65.3059 305.945 75.2577C299.397 65.721 288.44 59.4492 276.007 59.4492C264.764 59.4492 254.729 64.5865 248.098 72.583C241.429 64.5773 231.395 59.4492 220.161 59.4492C207.7 59.4492 196.688 65.7486 190.167 75.3684C179.745 65.4443 163.909 62.3268 150.056 68.7093C135.253 75.5067 127.219 91.0385 129.258 106.367C113.754 106.616 99.5683 116.845 95.0213 132.515C91.0277 146.202 95.4917 160.341 105.333 169.343C96.6353 175.975 91 186.424 91 198.221C91 209.455 96.1096 219.489 104.134 226.121C96.1004 232.789 91 242.824 91 254.058C91 265.301 96.1096 275.336 104.134 281.995C96.1004 288.635 91 298.67 91 309.904C91 324.624 99.7804 337.278 112.352 342.969C104.346 356.13 105.379 373.47 116.059 385.682C126.795 397.939 143.941 401.232 158.071 394.932C162.701 409.643 176.443 420.324 192.667 420.324C203.901 420.324 213.945 415.186 220.604 407.162C227.235 415.196 237.27 420.324 248.504 420.324C259.747 420.324 269.809 415.186 276.441 407.162C283.081 415.196 293.144 420.324 304.377 420.324Z" fill="#FBF0D4"/>
<path opacity="0.1" d="M397.423 225.579C404.551 232.722 408.949 242.605 408.949 253.498C408.949 264.361 404.549 274.241 397.421 281.383C404.547 288.539 408.949 298.406 408.949 309.297C408.949 323.965 400.938 336.793 389.074 343.606C395.96 357.416 394.398 374.605 383.688 387.064L383.687 387.065C372.912 399.59 356.002 403.726 341.236 398.822C335.395 413.23 321.285 423.434 304.751 423.519H304.338C293.447 423.519 283.567 419.095 276.422 411.965C269.283 419.088 259.405 423.519 248.507 423.519C237.613 423.519 227.756 419.094 220.622 411.963C213.47 419.084 203.608 423.519 192.712 423.519C176.257 423.518 162.156 413.449 156.195 399.15C141.485 404.174 124.556 400.201 113.668 387.77L113.667 387.768C102.845 375.393 101.108 358.195 107.913 344.307C106.183 343.327 104.535 342.219 102.979 340.998L106.682 337.196C174.472 368.555 368.158 405.447 387.526 225.596L397.739 225.254C397.634 225.362 397.53 225.472 397.423 225.579Z" fill="black"/>
<path d="M304.377 420.324H304.46H304.774C321.081 420.241 334.823 409.422 339.315 394.619C353.509 400.807 370.646 397.349 381.271 384.999C391.841 372.705 392.698 355.374 384.619 342.296C397.079 336.577 405.749 323.951 405.749 309.341C405.749 298.108 400.649 288.064 392.615 281.404C400.649 274.773 405.749 264.711 405.749 253.504C405.749 242.261 400.649 232.199 392.615 225.568C400.649 218.927 405.749 208.864 405.749 197.631C405.749 185.843 400.086 175.329 391.333 168.725C401.202 159.603 405.601 145.363 401.479 131.648C396.793 116.033 382.525 105.915 367.021 105.832C368.921 90.4759 360.749 74.9995 345.891 68.3403C332.01 62.0963 316.285 65.3059 305.945 75.2577C299.397 65.721 288.44 59.4492 276.007 59.4492C264.764 59.4492 254.729 64.5865 248.098 72.583C241.43 64.5773 231.395 59.4492 220.161 59.4492C207.7 59.4492 196.688 65.7486 190.167 75.3684C179.745 65.4443 163.909 62.3268 150.056 68.7093C135.253 75.5067 127.219 91.0385 129.258 106.367C113.754 106.616 99.5683 116.845 95.0213 132.515C91.0277 146.202 95.4917 160.341 105.333 169.343C96.6353 175.975 91 186.424 91 198.221C91 209.455 96.1096 219.489 104.134 226.121C96.1004 232.789 91 242.824 91 254.058C91 265.301 96.1096 275.336 104.134 281.995C96.1004 288.635 91 298.67 91 309.904C91 324.624 99.7804 337.278 112.352 342.969C104.346 356.13 105.379 373.47 116.059 385.682C126.795 397.939 143.941 401.232 158.071 394.932C162.701 409.643 176.443 420.324 192.667 420.324C203.901 420.324 213.945 415.186 220.604 407.162C227.235 415.196 237.27 420.324 248.504 420.324C259.747 420.324 269.809 415.186 276.441 407.162C283.081 415.196 293.144 420.324 304.377 420.324Z" stroke="#603813" stroke-width="6.63305" stroke-miterlimit="10"/>
<path d="M166.502 220.586V284.318C166.502 293.181 173.687 300.357 182.541 300.357C191.404 300.357 198.58 293.172 198.58 284.318V220.586" fill="#DECAAD"/>
<path d="M166.502 220.586V284.318C166.502 293.181 173.687 300.357 182.541 300.357C191.404 300.357 198.58 293.172 198.58 284.318V220.586" stroke="#603813" stroke-width="6.63305" stroke-miterlimit="10"/>
<path d="M204.501 211.048C204.075 213.895 202.371 216.499 199.56 218.599C196.748 220.7 192.928 222.222 188.484 223.013C184.04 223.804 179.127 223.836 174.241 223.106C169.355 222.375 164.666 220.909 160.647 218.853" stroke="#603813" stroke-width="6.63305" stroke-linecap="round"/>
<path d="M330.111 220.586V284.318C330.111 293.181 322.926 300.357 314.072 300.357C305.209 300.357 298.033 293.172 298.033 284.318V220.586" fill="#DECAAD"/>
<path d="M330.111 220.586V284.318C330.111 293.181 322.926 300.357 314.072 300.357C305.209 300.357 298.033 293.172 298.033 284.318V220.586" stroke="#603813" stroke-width="6.63305" stroke-miterlimit="10"/>
<path d="M292.113 211.048C292.538 213.895 294.242 216.499 297.054 218.599C299.865 220.7 303.685 222.222 308.129 223.013C312.574 223.804 317.486 223.836 322.372 223.106C327.259 222.375 331.947 220.909 335.966 218.853" stroke="#603813" stroke-width="6.63305" stroke-linecap="round"/>
<path d="M303.117 94.589C310.844 94.589 317.108 86.4088 317.108 76.3179C317.108 66.2271 310.844 58.0469 303.117 58.0469C295.389 58.0469 289.125 66.2271 289.125 76.3179C289.125 86.4088 295.389 94.589 303.117 94.589Z" fill="#D9AD7A" stroke="#603813" stroke-width="6.63305" stroke-miterlimit="10" stroke-linecap="round"/>
<path d="M192.695 94.589C200.422 94.589 206.686 86.4088 206.686 76.3179C206.686 66.2271 200.422 58.0469 192.695 58.0469C184.967 58.0469 178.703 66.2271 178.703 76.3179C178.703 86.4088 184.967 94.589 192.695 94.589Z" fill="#D9AD7A" stroke="#603813" stroke-width="6.63305" stroke-miterlimit="10" stroke-linecap="round"/>
<path d="M258.113 64.2941C259.183 47.3327 267.898 28.8403 285.118 19.2205C305.492 7.08286 339.147 13.124 349.56 32.963C353.628 40.2586 354.882 47.6832 355.362 55.4399C355.86 61.9606 355.989 68.5275 355.611 75.242C354.476 89.8791 351.543 116.755 329.583 118.305C322.896 118.305 317.482 113.537 317.482 107.652C317.482 101.768 322.905 96.9994 329.583 96.9994C328.91 96.9441 328.181 97.0363 327.545 97.2577C327 97.4237 326.733 97.4606 326.364 97.6727C325.847 98.0324 325.801 97.9125 325.626 98.1523C325.672 98.0785 326.133 97.645 326.576 96.9072C332.894 83.9855 334.628 65.6407 327.342 53.2355C317.62 36.6707 296.841 46.106 300.17 64.3033C301.683 74.5134 293.511 83.8749 281.899 85.2122C268.295 86.9462 261.682 76.2196 263.536 64.3033H258.104L258.113 64.2941Z" fill="#C69C6D" stroke="#603813" stroke-width="6.63305" stroke-miterlimit="10" stroke-linecap="round"/>
<path d="M338.717 37.2539C326.022 37.2539 314.792 43.832 307.83 53.9377C306.14 56.3966 306.14 59.8205 307.83 62.2795C314.792 72.3956 326.022 78.9633 338.717 78.9633C351.412 78.9633 362.642 72.3852 369.604 62.2795C371.294 59.8205 371.294 56.3966 369.604 53.9377C362.642 43.8216 351.412 37.2539 338.717 37.2539Z" fill="#DECAAD" stroke="#603813" stroke-width="6.63305" stroke-miterlimit="10"/>
<path d="M237.692 64.2941C236.622 47.3327 227.906 28.8403 210.686 19.2205C190.312 7.08286 156.657 13.124 146.244 32.963C142.177 40.2586 140.922 47.6832 140.443 55.4399C139.945 61.9606 139.816 68.5275 140.194 75.242C141.328 89.8791 144.261 116.755 166.222 118.305C172.908 118.305 178.322 113.537 178.322 107.652C178.322 101.768 172.899 96.9994 166.222 96.9994C166.895 96.9441 167.623 97.0363 168.26 97.2577C168.804 97.4237 169.071 97.4606 169.44 97.6727C169.957 98.0324 170.003 97.9125 170.178 98.1523C170.132 98.0785 169.671 97.645 169.228 96.9072C162.91 83.9855 161.176 65.6407 168.463 53.2355C178.184 36.6708 198.964 46.106 195.634 64.3033C194.122 74.5134 202.293 83.8749 213.905 85.2122C227.509 86.9462 234.122 76.2196 232.268 64.3033H237.701L237.692 64.2941Z" fill="#C69C6D" stroke="#603813" stroke-width="6.63305" stroke-miterlimit="10" stroke-linecap="round"/>
<path d="M157.171 37.2539C169.899 37.2539 181.158 43.832 188.138 53.9377C189.832 56.3966 189.832 59.8205 188.138 62.2795C181.158 72.3956 169.899 78.9633 157.171 78.9633C144.444 78.9633 133.184 72.3852 126.204 62.2795C124.51 59.8205 124.51 56.3966 126.204 53.9377C133.184 43.8216 144.444 37.2539 157.171 37.2539Z" fill="#DECAAD" stroke="#603813" stroke-width="6.63305" stroke-miterlimit="10"/>
<path d="M260.365 180.636H235.444C217.911 180.636 203.107 167.613 200.875 150.228L188.064 50.5898H307.753L294.942 150.228C292.71 167.613 277.898 180.636 260.374 180.636H260.365Z" fill="#DECAAD" stroke="#603813" stroke-width="6.63305" stroke-miterlimit="10"/>
<path d="M305.576 27.2172C303.537 27.2172 301.591 27.5676 299.774 28.1948C296.38 19.193 287.701 12.7737 277.51 12.7737C274.088 12.7737 270.841 13.5116 267.899 14.812C262.633 9.97908 255.623 7 247.913 7C240.202 7 233.193 9.97908 227.926 14.812C224.984 13.5116 221.737 12.7737 218.316 12.7737C208.124 12.7737 199.445 19.193 196.051 28.1948C194.225 27.5676 192.279 27.2172 190.25 27.2172C180.344 27.2172 172.311 35.2505 172.311 45.1562C172.311 55.0619 180.344 63.0952 190.25 63.0952C196.079 63.0952 201.253 60.3006 204.527 55.9842C208.419 58.7604 213.178 60.4113 218.325 60.4113C221.747 60.4113 224.993 59.6735 227.935 58.373C233.202 63.2059 240.211 66.185 247.922 66.185C255.632 66.185 262.642 63.2059 267.908 58.373C270.851 59.6735 274.097 60.4113 277.519 60.4113C282.665 60.4113 287.415 58.7604 291.317 55.9842C294.591 60.3006 299.756 63.0952 305.594 63.0952C315.5 63.0952 323.533 55.0619 323.533 45.1562C323.533 35.2505 315.5 27.2172 305.594 27.2172H305.576Z" fill="#D9AD7A" stroke="#603813" stroke-width="6.63305" stroke-miterlimit="10" stroke-linecap="round" stroke-linejoin="round"/>
<path d="M309.566 97.8582C309.747 93.9983 308.659 90.462 306.774 87.9165C298.203 78.5 289.691 90.6423 289.342 98.0666C289.18 101.527 291.174 105.986 291.174 105.986C285.792 108.764 282.37 114.973 282.029 122.241C281.68 129.656 288.037 132.824 293.201 133.067C302.913 133.523 308.696 127.676 309.045 120.252C309.272 115.418 308.415 110.917 305.588 108.414C308.345 106.104 309.352 102.396 309.566 97.8582Z" fill="#D9AD7A" stroke="#603813" stroke-width="6.63305" stroke-miterlimit="10" stroke-linecap="round" stroke-linejoin="round"/>
<path d="M186.356 97.8582C186.175 93.9983 187.263 90.462 189.148 87.9165C197.719 78.5 206.231 90.6423 206.58 98.0666C206.742 101.527 204.748 105.986 204.748 105.986C210.129 108.764 213.552 114.973 213.893 122.241C214.242 129.656 207.885 132.824 202.72 133.067C193.009 133.523 187.226 127.676 186.877 120.252C186.65 115.418 187.507 110.917 190.334 108.414C187.577 106.104 186.57 102.396 186.356 97.8582Z" fill="#D9AD7A" stroke="#603813" stroke-width="6.63305" stroke-miterlimit="10" stroke-linecap="round" stroke-linejoin="round"/>
<path d="M225.003 87.9433C225.003 91.9462 223.048 93.7723 220.632 93.7723C218.215 93.7723 216.26 91.9462 216.26 87.9433C216.26 83.9405 218.215 80.7031 220.632 80.7031C223.048 80.7031 225.003 83.9497 225.003 87.9433Z" fill="black" stroke="black" stroke-width="6.63305" stroke-miterlimit="10" stroke-linecap="round"/>
<path d="M270.816 87.9394C270.816 91.9423 272.772 93.7684 275.188 93.7684C277.605 93.7684 279.56 91.9423 279.56 87.9394C279.56 83.9366 277.605 80.6992 275.188 80.6992C272.772 80.6992 270.816 83.9458 270.816 87.9394Z" fill="black" stroke="black" stroke-width="6.63305" stroke-miterlimit="10" stroke-linecap="round"/>
<path d="M249.332 125.085C248.04 126.422 245.919 126.422 244.628 125.085C237.176 117.365 229.834 117.411 229.834 123.083C229.834 129.355 237.517 134.428 246.98 134.428C256.443 134.428 264.135 129.346 264.135 123.083C264.135 117.411 256.793 117.365 249.332 125.085Z" fill="black" stroke="black" stroke-width="6.63305" stroke-miterlimit="10" stroke-linecap="round"/>
<path d="M246.875 137.969L246.875 157.337" stroke="black" stroke-width="6.63305" stroke-miterlimit="10" stroke-linecap="round"/>
<path d="M232.643 154.803C236.645 157.966 244.854 158.916 253.681 156.795C262.507 154.673 269.388 150.108 271.518 145.469" stroke="black" stroke-width="9.47951" stroke-miterlimit="10" stroke-linecap="round"/>
<path d="M336.223 99.2846C335.808 94.4517 337.072 89.1115 338.556 84.2509C341.231 75.9777 345.751 67.9166 352.004 60.8794C353.36 59.3483 353.397 57.1348 351.939 55.5576C350.251 53.7314 347.189 53.4547 345.114 54.9397C336.214 61.3129 328.697 69.3186 322.969 78.431C315.517 89.7386 305.27 115.84 328.66 118.303" fill="#C69C6D"/>
<path d="M336.223 99.2846C335.808 94.4517 337.072 89.1115 338.556 84.2509C341.231 75.9777 345.751 67.9166 352.004 60.8794C353.36 59.3483 353.397 57.1348 351.939 55.5576C350.251 53.7314 347.189 53.4547 345.114 54.9397C336.214 61.3129 328.697 69.3186 322.969 78.431C315.517 89.7386 305.27 115.84 328.66 118.303" stroke="#603813" stroke-width="6.63305" stroke-miterlimit="10" stroke-linecap="round"/>
<path d="M167.152 118.303C190.541 115.849 180.295 89.7386 172.842 78.431C167.115 69.3186 159.598 61.3036 150.697 54.9397C148.613 53.4547 145.56 53.7314 143.872 55.5576C142.415 57.1348 142.452 59.3391 143.808 60.8794C150.061 67.9166 154.58 75.9777 157.255 84.2509C158.749 89.1207 160.004 94.4609 159.589 99.2846" fill="#C69C6D"/>
<path d="M167.152 118.303C190.541 115.849 180.295 89.7386 172.842 78.431C167.115 69.3186 159.598 61.3036 150.697 54.9397C148.613 53.4547 145.56 53.7314 143.872 55.5576C142.415 57.1348 142.452 59.3391 143.808 60.8794C150.061 67.9166 154.58 75.9777 157.255 84.2509C158.749 89.1207 160.004 94.4609 159.589 99.2846" stroke="#603813" stroke-width="6.63305" stroke-miterlimit="10" stroke-linecap="round"/>
</svg>
