<svg width="386" height="500" viewBox="0 0 386 500" fill="none" xmlns="http://www.w3.org/2000/svg">
<path d="M282.35 422.098V479.196C282.35 487.137 288.813 493.566 296.779 493.566C304.753 493.566 311.209 487.129 311.209 479.196V422.098" fill="#DECAAD"/>
<path d="M282.35 422.098V479.196C282.35 487.137 288.813 493.566 296.779 493.566C304.753 493.566 311.209 487.129 311.209 479.196V422.098" stroke="#603813" stroke-width="6.63305" stroke-miterlimit="10"/>
<path d="M197.832 422.098V479.196C197.832 487.137 204.296 493.566 212.262 493.566C220.236 493.566 226.691 487.129 226.691 479.196V422.098" fill="#DECAAD"/>
<path d="M197.832 422.098V479.196C197.832 487.137 204.296 493.566 212.262 493.566C220.236 493.566 226.691 487.129 226.691 479.196V422.098" stroke="#603813" stroke-width="6.63305" stroke-miterlimit="10"/>
<path d="M295.605 444.741H295.667H295.9C308.049 444.679 318.287 436.618 321.633 425.589C332.208 430.2 344.975 427.623 352.89 418.422C360.765 409.261 361.404 396.349 355.385 386.605C364.668 382.344 371.127 372.936 371.127 362.051C371.127 353.681 367.327 346.198 361.342 341.236C367.327 336.295 371.127 328.798 371.127 320.449C371.127 312.072 367.327 304.574 361.342 299.634C367.327 294.686 371.127 287.188 371.127 278.818C371.127 270.036 366.908 262.202 360.387 257.282C367.739 250.486 371.017 239.875 367.945 229.657C364.455 218.023 353.825 210.484 342.274 210.422C343.69 198.98 337.602 187.449 326.532 182.488C316.191 177.836 304.476 180.227 296.773 187.642C291.894 180.536 283.731 175.863 274.469 175.863C266.093 175.863 258.617 179.691 253.677 185.649C248.709 179.684 241.233 175.863 232.864 175.863C223.58 175.863 215.376 180.557 210.518 187.724C202.754 180.33 190.956 178.007 180.635 182.763C169.607 187.827 163.622 199.4 165.141 210.821C153.59 211.006 143.022 218.627 139.635 230.303C136.659 240.501 139.985 251.035 147.317 257.742C140.837 262.683 136.639 270.469 136.639 279.258C136.639 287.628 140.445 295.105 146.423 300.046C140.438 305.014 136.639 312.491 136.639 320.861C136.639 329.238 140.445 336.714 146.423 341.676C140.438 346.624 136.639 354.1 136.639 362.47C136.639 373.438 143.18 382.866 152.546 387.106C146.581 396.912 147.351 409.832 155.308 418.93C163.306 428.063 176.08 430.516 186.606 425.823C190.056 436.783 200.294 444.741 212.38 444.741C220.75 444.741 228.232 440.913 233.193 434.935C238.134 440.92 245.61 444.741 253.979 444.741C262.355 444.741 269.851 440.913 274.792 434.935C279.739 440.92 287.236 444.741 295.605 444.741Z" fill="#FBF0D4"/>
<path opacity="0.1" d="M366.1 299.649C369.848 303.618 372.53 308.61 373.699 314.156V326.729C372.53 332.268 369.847 337.259 366.098 341.229C369.846 345.204 372.529 350.192 373.699 355.737V368.314C371.947 376.604 366.804 383.651 359.801 387.92C364.679 398.377 363.357 411.181 355.33 420.52V420.521C347.254 429.909 334.679 433.148 323.543 429.77C318.894 440.429 308.279 447.912 295.886 447.976H295.573C287.525 447.975 280.198 444.823 274.775 439.699C269.358 444.817 262.032 447.976 253.979 447.976C245.93 447.976 238.617 444.821 233.204 439.697C227.779 444.814 220.464 447.976 212.412 447.976C200.077 447.975 189.47 440.592 184.736 430.018C173.64 433.487 161.05 430.37 152.889 421.051L152.887 421.049C144.776 411.774 143.325 398.964 148.141 388.448C147.034 387.783 145.974 387.049 144.965 386.252L148.322 382.806C198.826 406.17 343.122 433.658 357.552 299.655L366.366 299.359C366.277 299.456 366.19 299.554 366.1 299.649Z" fill="black"/>
<path d="M295.605 444.741H295.667H295.9C308.049 444.679 318.287 436.618 321.633 425.589C332.208 430.2 344.975 427.623 352.89 418.422C360.765 409.261 361.404 396.349 355.385 386.605C364.668 382.344 371.127 372.936 371.127 362.051C371.127 353.681 367.327 346.198 361.342 341.236C367.327 336.295 371.127 328.798 371.127 320.449C371.127 312.072 367.327 304.574 361.342 299.634C367.327 294.686 371.127 287.188 371.127 278.818C371.127 270.036 366.908 262.202 360.387 257.282C367.739 250.486 371.017 239.875 367.945 229.657C364.455 218.023 353.825 210.484 342.274 210.422C343.69 198.98 337.602 187.449 326.532 182.488C316.191 177.836 304.476 180.227 296.773 187.642C291.894 180.536 283.731 175.863 274.469 175.863C266.093 175.863 258.617 179.691 253.677 185.649C248.709 179.684 241.233 175.863 232.864 175.863C223.58 175.863 215.376 180.557 210.518 187.724C202.754 180.33 190.956 178.007 180.635 182.763C169.607 187.827 163.622 199.4 165.141 210.821C153.59 211.006 143.022 218.627 139.635 230.303C136.659 240.501 139.985 251.035 147.317 257.742C140.837 262.683 136.639 270.469 136.639 279.258C136.639 287.628 140.445 295.105 146.423 300.046C140.438 305.014 136.639 312.491 136.639 320.861C136.639 329.238 140.445 336.714 146.423 341.676C140.438 346.624 136.639 354.1 136.639 362.47C136.639 373.438 143.18 382.866 152.546 387.106C146.581 396.912 147.351 409.832 155.308 418.93C163.306 428.063 176.08 430.516 186.606 425.823C190.056 436.783 200.294 444.741 212.38 444.741C220.75 444.741 228.232 440.913 233.193 434.935C238.134 440.92 245.61 444.741 253.979 444.741C262.355 444.741 269.851 440.913 274.792 434.935C279.739 440.92 287.236 444.741 295.605 444.741Z" stroke="#603813" stroke-width="6.63305" stroke-miterlimit="10"/>
<path d="M192.887 295.926V343.411C192.887 350.015 198.24 355.361 204.836 355.361C211.439 355.361 216.785 350.008 216.785 343.411V295.926" fill="#DECAAD"/>
<path d="M192.887 295.926V343.411C192.887 350.015 198.24 355.361 204.836 355.361C211.439 355.361 216.785 350.008 216.785 343.411V295.926" stroke="#603813" stroke-width="6.63305" stroke-miterlimit="10"/>
<path d="M224.477 289.311C224.748 287.499 223.499 285.811 221.687 285.54C219.876 285.27 218.188 286.519 217.917 288.33L221.197 288.821L224.477 289.311ZM190.037 291.683C188.406 290.849 186.408 291.495 185.574 293.126C184.74 294.756 185.385 296.755 187.016 297.589L188.526 294.636L190.037 291.683ZM221.197 288.821L217.917 288.33C217.757 289.404 217.088 290.626 215.531 291.79L217.516 294.447L219.501 297.104C222.133 295.138 224.004 292.479 224.477 289.311L221.197 288.821ZM217.516 294.447L215.531 291.79C213.952 292.97 211.626 293.946 208.683 294.47L209.264 297.735L209.846 301C213.525 300.346 216.891 299.054 219.501 297.104L217.516 294.447ZM209.264 297.735L208.683 294.47C205.758 294.991 202.462 295.02 199.144 294.524L198.654 297.804L198.163 301.085C202.126 301.677 206.149 301.658 209.846 301L209.264 297.735ZM198.654 297.804L199.144 294.524C195.825 294.028 192.682 293.037 190.037 291.683L188.526 294.636L187.016 297.589C190.359 299.299 194.201 300.492 198.163 301.085L198.654 297.804Z" fill="#603813"/>
<path d="M314.777 295.926V343.411C314.777 350.015 309.424 355.361 302.828 355.361C296.225 355.361 290.879 350.008 290.879 343.411V295.926" fill="#DECAAD"/>
<path d="M314.777 295.926V343.411C314.777 350.015 309.424 355.361 302.828 355.361C296.225 355.361 290.879 350.008 290.879 343.411V295.926" stroke="#603813" stroke-width="6.63305" stroke-miterlimit="10"/>
<path d="M283.185 289.311C282.914 287.499 284.163 285.811 285.975 285.54C287.787 285.27 289.474 286.519 289.745 288.33L286.465 288.821L283.185 289.311ZM317.625 291.683C319.256 290.849 321.254 291.495 322.088 293.126C322.923 294.756 322.277 296.755 320.646 297.589L319.136 294.636L317.625 291.683ZM286.465 288.821L289.745 288.33C289.906 289.404 290.574 290.626 292.131 291.79L290.146 294.447L288.161 297.104C285.529 295.138 283.658 292.479 283.185 289.311L286.465 288.821ZM290.146 294.447L292.131 291.79C293.71 292.97 296.036 293.946 298.979 294.47L298.398 297.735L297.816 301C294.137 300.346 290.771 299.054 288.161 297.104L290.146 294.447ZM298.398 297.735L298.979 294.47C301.904 294.991 305.2 295.02 308.518 294.524L309.009 297.804L309.499 301.085C305.536 301.677 301.513 301.658 297.816 301L298.398 297.735ZM309.009 297.804L308.518 294.524C311.837 294.028 314.98 293.037 317.625 291.683L319.136 294.636L320.646 297.589C317.303 299.299 313.461 300.492 309.499 301.085L309.009 297.804Z" fill="#603813"/>
<path d="M294.662 202.046C300.418 202.046 305.085 195.951 305.085 188.433C305.085 180.915 300.418 174.82 294.662 174.82C288.905 174.82 284.238 180.915 284.238 188.433C284.238 195.951 288.905 202.046 294.662 202.046Z" fill="#D9AD7A" stroke="#603813" stroke-width="6.63305" stroke-miterlimit="10" stroke-linecap="round"/>
<path d="M212.406 202.046C218.162 202.046 222.829 195.951 222.829 188.433C222.829 180.915 218.162 174.82 212.406 174.82C206.649 174.82 201.982 180.915 201.982 188.433C201.982 195.951 206.649 202.046 212.406 202.046Z" fill="#D9AD7A" stroke="#603813" stroke-width="6.63305" stroke-miterlimit="10" stroke-linecap="round"/>
<path d="M261.142 179.483C261.939 166.846 268.432 153.068 281.261 145.9C296.439 136.857 321.512 141.358 329.27 156.139C332.3 161.575 333.235 167.107 333.592 172.886C333.963 177.745 334.059 182.638 333.778 187.64C332.932 198.546 330.747 218.571 314.387 219.725C309.405 219.725 305.372 216.173 305.372 211.788C305.372 207.404 309.412 203.851 314.387 203.851C313.885 203.81 313.342 203.879 312.868 204.044C312.463 204.167 312.264 204.195 311.989 204.353C311.604 204.621 311.57 204.531 311.439 204.71C311.473 204.655 311.817 204.332 312.147 203.782C316.854 194.155 318.145 180.487 312.717 171.244C305.475 158.902 289.994 165.932 292.474 179.49C293.601 187.097 287.513 194.072 278.863 195.069C268.727 196.361 263.801 188.369 265.182 179.49H261.135L261.142 179.483Z" fill="#C69C6D" stroke="#603813" stroke-width="6.63305" stroke-miterlimit="10" stroke-linecap="round"/>
<path d="M321.185 159.332C311.728 159.332 303.362 164.233 298.174 171.763C296.916 173.595 296.916 176.146 298.174 177.978C303.362 185.515 311.728 190.409 321.185 190.409C330.643 190.409 339.009 185.507 344.197 177.978C345.455 176.146 345.455 173.595 344.197 171.763C339.009 164.225 330.643 159.332 321.185 159.332Z" fill="#DECAAD" stroke="#603813" stroke-width="6.63305" stroke-miterlimit="10"/>
<path d="M245.924 179.483C245.127 166.846 238.634 153.068 225.805 145.9C210.627 136.857 185.553 141.358 177.796 156.139C174.766 161.575 173.831 167.107 173.474 172.886C173.103 177.745 173.007 182.638 173.288 187.64C174.133 198.546 176.319 218.571 192.679 219.725C197.661 219.725 201.694 216.173 201.694 211.788C201.694 207.404 197.654 203.851 192.679 203.851C193.181 203.81 193.723 203.879 194.197 204.044C194.603 204.167 194.802 204.195 195.077 204.353C195.462 204.621 195.496 204.531 195.627 204.71C195.592 204.655 195.249 204.332 194.919 203.782C190.212 194.155 188.92 180.487 194.349 171.244C201.591 158.902 217.072 165.932 214.591 179.49C213.464 187.097 219.552 194.072 228.203 195.069C238.338 196.361 243.265 188.369 241.884 179.49H245.931L245.924 179.483Z" fill="#C69C6D" stroke="#603813" stroke-width="6.63305" stroke-miterlimit="10" stroke-linecap="round"/>
<path d="M185.933 159.332C195.415 159.332 203.803 164.233 209.003 171.763C210.265 173.595 210.265 176.146 209.003 177.978C203.803 185.515 195.415 190.409 185.933 190.409C176.451 190.409 168.063 185.507 162.862 177.978C161.601 176.146 161.601 173.595 162.862 171.763C168.063 164.225 176.451 159.332 185.933 159.332Z" fill="#DECAAD" stroke="#603813" stroke-width="6.63305" stroke-miterlimit="10"/>
<path d="M262.815 266.164H244.249C231.187 266.164 220.158 256.461 218.495 243.507L208.951 169.27H298.119L288.575 243.507C286.912 256.461 275.877 266.164 262.822 266.164H262.815Z" fill="#DECAAD" stroke="#603813" stroke-width="6.63305" stroke-miterlimit="10"/>
<path d="M296.497 151.856C294.979 151.856 293.529 152.117 292.175 152.585C289.647 145.878 283.181 141.095 275.588 141.095C273.039 141.095 270.62 141.645 268.428 142.613C264.505 139.013 259.283 136.793 253.538 136.793C247.794 136.793 242.572 139.013 238.648 142.613C236.456 141.645 234.038 141.095 231.489 141.095C223.896 141.095 217.43 145.878 214.901 152.585C213.541 152.117 212.091 151.856 210.579 151.856C203.2 151.856 197.215 157.842 197.215 165.222C197.215 172.603 203.2 178.588 210.579 178.588C214.922 178.588 218.777 176.506 221.216 173.29C224.116 175.358 227.661 176.588 231.495 176.588C234.045 176.588 236.463 176.039 238.655 175.07C242.579 178.67 247.801 180.89 253.545 180.89C259.29 180.89 264.512 178.67 268.435 175.07C270.627 176.039 273.046 176.588 275.595 176.588C279.429 176.588 282.968 175.358 285.874 173.29C288.314 176.506 292.162 178.588 296.511 178.588C303.891 178.588 309.876 172.603 309.876 165.222C309.876 157.842 303.891 151.856 296.511 151.856H296.497Z" fill="#D9AD7A" stroke="#603813" stroke-width="6.63305" stroke-miterlimit="10" stroke-linecap="round" stroke-linejoin="round"/>
<path d="M299.47 204.48C299.606 201.604 298.795 198.969 297.391 197.073C291.005 190.057 284.664 199.104 284.404 204.635C284.283 207.213 285.769 210.536 285.769 210.536C281.759 212.606 279.21 217.232 278.955 222.647C278.696 228.172 283.431 230.532 287.279 230.713C294.514 231.053 298.822 226.697 299.082 221.165C299.252 217.564 298.613 214.21 296.507 212.345C298.561 210.624 299.311 207.861 299.47 204.48Z" fill="#D9AD7A" stroke="#603813" stroke-width="6.63305" stroke-miterlimit="10" stroke-linecap="round" stroke-linejoin="round"/>
<path d="M207.68 204.48C207.545 201.604 208.356 198.969 209.76 197.073C216.145 190.057 222.487 199.104 222.746 204.635C222.868 207.213 221.382 210.536 221.382 210.536C225.391 212.606 227.941 217.232 228.195 222.647C228.455 228.172 223.719 230.532 219.871 230.713C212.637 231.053 208.328 226.697 208.068 221.165C207.899 217.564 208.537 214.21 210.643 212.345C208.589 210.624 207.839 207.861 207.68 204.48Z" fill="#D9AD7A" stroke="#603813" stroke-width="6.63305" stroke-miterlimit="10" stroke-linecap="round" stroke-linejoin="round"/>
<path d="M236.473 197.097C236.473 200.08 235.016 201.44 233.216 201.44C231.416 201.44 229.959 200.08 229.959 197.097C229.959 194.115 231.416 191.703 233.216 191.703C235.016 191.703 236.473 194.122 236.473 197.097Z" fill="black" stroke="black" stroke-width="6.63305" stroke-miterlimit="10" stroke-linecap="round"/>
<path d="M270.605 197.093C270.605 200.076 272.062 201.436 273.862 201.436C275.663 201.436 277.119 200.076 277.119 197.093C277.119 194.111 275.663 191.699 273.862 191.699C272.062 191.699 270.605 194.118 270.605 197.093Z" fill="black" stroke="black" stroke-width="6.63305" stroke-miterlimit="10" stroke-linecap="round"/>
<path d="M254.596 224.773C253.634 225.769 252.053 225.769 251.091 224.773C245.54 219.021 240.07 219.056 240.07 223.282C240.07 227.954 245.794 231.734 252.843 231.734C259.893 231.734 265.624 227.948 265.624 223.282C265.624 219.056 260.154 219.021 254.596 224.773Z" fill="black" stroke="black" stroke-width="6.63305" stroke-miterlimit="10" stroke-linecap="round"/>
<path d="M252.766 234.363L252.766 248.794" stroke="black" stroke-width="6.63305" stroke-miterlimit="10" stroke-linecap="round"/>
<path d="M242.16 246.908C245.142 249.265 251.258 249.972 257.833 248.392C264.409 246.811 269.535 243.41 271.122 239.953" stroke="black" stroke-width="9.47951" stroke-miterlimit="10" stroke-linecap="round"/>
<path d="M319.331 205.549C319.021 201.948 319.963 197.969 321.069 194.348C323.062 188.183 326.429 182.177 331.087 176.934C332.097 175.793 332.125 174.144 331.039 172.969C329.782 171.608 327.5 171.402 325.954 172.509C319.324 177.257 313.724 183.222 309.457 190.011C303.905 198.436 296.271 217.884 313.696 219.719" fill="#C69C6D"/>
<path d="M319.331 205.549C319.021 201.948 319.963 197.969 321.069 194.348C323.062 188.183 326.429 182.177 331.087 176.934C332.097 175.793 332.125 174.144 331.039 172.969C329.782 171.608 327.5 171.402 325.954 172.509C319.324 177.257 313.724 183.222 309.457 190.011C303.905 198.436 296.271 217.884 313.696 219.719" stroke="#603813" stroke-width="6.63305" stroke-miterlimit="10" stroke-linecap="round"/>
<path d="M193.374 219.719C210.799 217.891 203.165 198.436 197.613 190.011C193.346 183.222 187.746 177.25 181.115 172.509C179.562 171.402 177.288 171.608 176.031 172.969C174.945 174.144 174.972 175.787 175.983 176.934C180.641 182.177 184.008 188.183 186.001 194.348C187.114 197.976 188.048 201.955 187.739 205.549" fill="#C69C6D"/>
<path d="M193.374 219.719C210.799 217.891 203.165 198.436 197.613 190.011C193.346 183.222 187.746 177.25 181.115 172.509C179.562 171.402 177.288 171.608 176.031 172.969C174.945 174.144 174.972 175.787 175.983 176.934C180.641 182.177 184.008 188.183 186.001 194.348C187.114 197.976 188.048 201.955 187.739 205.549" stroke="#603813" stroke-width="6.63305" stroke-miterlimit="10" stroke-linecap="round"/>
<path d="M278.547 425.209C287.492 427.539 302.452 430.25 312.116 428.117C313.77 427.752 315.518 428.937 315.518 430.63V438.76C315.518 439.816 314.819 440.748 313.795 441.002L313.699 441.026C312.789 451.507 313.392 473.241 322.794 475.601C334.659 478.58 342.263 477.399 344.623 484.59C346.025 488.861 346.443 497.287 340.076 498.973C333.991 500.584 310.462 503.221 298.861 494.821C298.136 494.295 297.062 494.627 296.842 495.496C296.603 496.44 295.674 497.039 294.72 496.842C289.572 495.782 281.606 493.71 280.955 491.782C280.046 489.085 280.955 479.197 280.955 477.399C280.955 475.601 281.865 470.701 281.865 467.511C281.865 462.928 277.317 446.028 277.317 439.69C277.113 439.594 276.91 439.495 276.709 439.394C275.95 439.013 275.498 438.222 275.498 437.372V427.531C275.498 425.95 277.017 424.81 278.547 425.209Z" fill="#F7D724"/>
<path d="M313.699 441.026C313.731 441.018 313.763 441.01 313.795 441.002C314.819 440.748 315.518 439.816 315.518 438.76V430.63C315.518 428.937 313.77 427.752 312.116 428.117C302.452 430.25 287.492 427.539 278.547 425.209C277.017 424.81 275.498 425.95 275.498 427.531V437.372C275.498 438.222 275.95 439.013 276.709 439.394C276.91 439.495 277.113 439.594 277.317 439.69M313.699 441.026C312.789 451.507 313.392 473.241 322.794 475.601C334.659 478.58 342.263 477.399 344.623 484.59C346.025 488.861 346.443 497.287 340.076 498.973C333.991 500.584 310.462 503.221 298.861 494.821C298.136 494.295 297.062 494.627 296.842 495.496C296.603 496.44 295.674 497.039 294.72 496.842C289.572 495.782 281.606 493.71 280.955 491.782C280.046 489.085 280.955 479.197 280.955 477.399C280.955 475.601 281.865 470.701 281.865 467.511C281.865 462.928 277.317 446.028 277.317 439.69M313.699 441.026C305.18 443.123 288.818 445.11 277.317 439.69" stroke="black" stroke-width="4.7302"/>
<path d="M281.929 484.806L298.632 489.743L310.663 492.552L328.531 493.093L338.819 490.384L344.234 487.677L345.858 490.386L342.068 497.423L330.157 500.131L320.41 500.131L304.708 496.432L300.376 495.799L296.655 496.432L279.952 491.494L281.929 484.806Z" fill="#A6994F"/>
<path d="M313.699 441.026C313.731 441.018 313.763 441.01 313.795 441.002C314.819 440.748 315.518 439.816 315.518 438.76V430.63C315.518 428.937 313.77 427.752 312.116 428.117C302.452 430.25 287.492 427.539 278.547 425.209C277.017 424.81 275.498 425.95 275.498 427.531V437.372C275.498 438.222 275.95 439.013 276.709 439.394C276.91 439.495 277.113 439.594 277.317 439.69M313.699 441.026C312.789 451.507 313.392 473.241 322.794 475.601C334.659 478.58 342.263 477.399 344.623 484.59C346.025 488.861 346.443 497.287 340.076 498.973C333.991 500.584 310.462 503.221 298.861 494.821C298.136 494.295 297.062 494.627 296.842 495.496C296.603 496.44 295.674 497.039 294.72 496.842C289.572 495.782 281.606 493.71 280.955 491.782C280.046 489.085 280.955 479.197 280.955 477.399C280.955 475.601 281.865 470.701 281.865 467.511C281.865 462.928 277.317 446.028 277.317 439.69M313.699 441.026C305.18 443.123 288.818 445.11 277.317 439.69" stroke="black" stroke-width="4.7302"/>
<path d="M280.699 483.34C294.572 489.699 326.654 499.469 343.996 487.676" stroke="black" stroke-width="2.3651"/>
<path d="M294.574 488.542C294.574 484.206 292.146 474.841 282.436 472.066" stroke="black" stroke-width="2.3651"/>
<path d="M282.436 426.102V440.843" stroke="black" stroke-width="2.3651"/>
<path d="M287.635 426.102V440.843" stroke="black" stroke-width="2.3651"/>
<path d="M292.836 427.84V442.581" stroke="black" stroke-width="2.3651"/>
<path d="M298.041 427.84V442.581" stroke="black" stroke-width="2.3651"/>
<path d="M303.244 427.84V442.581" stroke="black" stroke-width="2.3651"/>
<path d="M308.447 427.84V442.581" stroke="black" stroke-width="2.3651"/>
<path d="M231.301 425.209C222.356 427.539 207.396 430.25 197.731 428.117C196.078 427.752 194.33 428.937 194.33 430.63V438.76C194.33 439.816 195.028 440.748 196.053 441.002L196.149 441.026C197.058 451.507 196.455 473.241 187.053 475.601C175.189 478.58 167.585 477.399 165.224 484.59C163.822 488.861 163.405 497.287 169.772 498.973C175.857 500.584 199.386 503.221 210.986 494.821C211.712 494.295 212.785 494.627 213.005 495.496C213.244 496.44 214.173 497.039 215.128 496.842C220.276 495.782 228.242 493.71 228.892 491.782C229.802 489.085 228.892 479.197 228.892 477.399C228.892 475.601 227.983 470.701 227.983 467.511C227.983 462.928 232.531 446.028 232.531 439.69C232.735 439.594 232.938 439.495 233.139 439.394C233.898 439.013 234.35 438.222 234.35 437.372V427.531C234.35 425.95 232.831 424.81 231.301 425.209Z" fill="#F7D724"/>
<path d="M196.149 441.026C196.117 441.018 196.085 441.01 196.053 441.002C195.028 440.748 194.33 439.816 194.33 438.76V430.63C194.33 428.937 196.078 427.752 197.731 428.117C207.396 430.25 222.356 427.539 231.301 425.209C232.831 424.81 234.35 425.95 234.35 427.531V437.372C234.35 438.222 233.898 439.013 233.139 439.394C232.938 439.495 232.735 439.594 232.531 439.69M196.149 441.026C197.058 451.507 196.455 473.241 187.053 475.601C175.189 478.58 167.585 477.399 165.224 484.59C163.822 488.861 163.405 497.287 169.772 498.973C175.857 500.584 199.386 503.221 210.986 494.821C211.712 494.295 212.785 494.627 213.005 495.496C213.244 496.44 214.173 497.039 215.128 496.842C220.276 495.782 228.242 493.71 228.892 491.782C229.802 489.085 228.892 479.197 228.892 477.399C228.892 475.601 227.983 470.701 227.983 467.511C227.983 462.928 232.531 446.028 232.531 439.69M196.149 441.026C204.668 443.123 221.03 445.11 232.531 439.69" stroke="black" stroke-width="4.7302"/>
<path d="M227.921 484.806L211.218 489.743L199.187 492.552L181.319 493.093L171.031 490.384L165.616 487.677L163.992 490.386L167.782 497.423L179.693 500.131L189.44 500.131L205.142 496.432L209.473 495.799L213.195 496.432L229.898 491.494L227.921 484.806Z" fill="#A6994F"/>
<path d="M196.149 441.026C196.117 441.018 196.085 441.01 196.053 441.002C195.028 440.748 194.33 439.816 194.33 438.76V430.63C194.33 428.937 196.078 427.752 197.731 428.117C207.396 430.25 222.356 427.539 231.301 425.209C232.831 424.81 234.35 425.95 234.35 427.531V437.372C234.35 438.222 233.898 439.013 233.139 439.394C232.938 439.495 232.735 439.594 232.531 439.69M196.149 441.026C197.058 451.507 196.455 473.241 187.053 475.601C175.189 478.58 167.585 477.399 165.224 484.59C163.822 488.861 163.405 497.287 169.772 498.973C175.857 500.584 199.386 503.221 210.986 494.821C211.712 494.295 212.785 494.627 213.005 495.496C213.244 496.44 214.173 497.039 215.128 496.842C220.276 495.782 228.242 493.71 228.892 491.782C229.802 489.085 228.892 479.197 228.892 477.399C228.892 475.601 227.983 470.701 227.983 467.511C227.983 462.928 232.531 446.028 232.531 439.69M196.149 441.026C204.668 443.123 221.03 445.11 232.531 439.69" stroke="black" stroke-width="4.7302"/>
<path d="M229.148 483.34C215.275 489.699 183.193 499.469 165.852 487.676" stroke="black" stroke-width="2.3651"/>
<path d="M215.274 488.542C215.274 484.206 217.701 474.841 227.412 472.066" stroke="black" stroke-width="2.3651"/>
<path d="M227.412 426.102V440.843" stroke="black" stroke-width="2.3651"/>
<path d="M222.215 426.102V440.843" stroke="black" stroke-width="2.3651"/>
<path d="M217.008 427.84V442.581" stroke="black" stroke-width="2.3651"/>
<path d="M211.809 427.84V442.581" stroke="black" stroke-width="2.3651"/>
<path d="M206.607 427.84V442.581" stroke="black" stroke-width="2.3651"/>
<path d="M201.402 427.84V442.581" stroke="black" stroke-width="2.3651"/>
<path d="M128.402 205.174C128.402 193.24 146.952 171.993 163.929 171.993L340.88 166.129C362.134 166.129 370.805 185.8 376.942 196.125C383.08 206.449 382.861 219.004 383.002 247.474C383.143 275.944 376.942 323.794 376.942 323.794C376.942 323.794 372.991 362.734 372.991 387.763C372.991 398.702 373.746 412.299 374.596 424.141C375.48 436.464 375.922 442.626 372.686 446.142C372.367 446.49 372.068 446.777 371.708 447.083C368.065 450.176 361.876 449.483 349.496 448.097C336.511 446.644 321.514 445.382 310.674 445.72C287.247 446.452 276.108 451.343 252.672 451.732C229.237 452.121 215.539 445.72 190.537 445.72C179.982 445.72 167.265 446.792 156.093 448.03C143.582 449.417 137.327 450.11 133.692 447.026C133.33 446.72 133.036 446.438 132.714 446.089C129.483 442.584 129.913 436.355 130.773 423.896C131.553 412.586 132.225 399.453 132.225 387.763C132.225 359.879 128.402 324.008 128.402 324.008C128.402 324.008 122.707 287.61 122.707 247.474C122.707 207.338 128.402 217.108 128.402 205.174Z" fill="#FFF47B" stroke="#9B9444" stroke-width="5.33175" stroke-miterlimit="10" stroke-linejoin="round"/>
<path d="M219.469 269.126C219.687 267.67 218.683 266.313 217.227 266.096C215.771 265.878 214.414 266.882 214.196 268.338L216.833 268.732L219.469 269.126ZM182.035 272.768C180.725 272.097 179.119 272.616 178.448 273.927C177.778 275.238 178.297 276.844 179.608 277.514L180.822 275.141L182.035 272.768ZM216.833 268.732L214.196 268.338C213.973 269.834 213.057 271.395 211.18 272.797L212.775 274.932L214.37 277.068C217.111 275.021 218.994 272.305 219.469 269.126L216.833 268.732ZM212.775 274.932L211.18 272.797C209.285 274.212 206.567 275.335 203.213 275.932L203.68 278.556L204.147 281.18C208.092 280.478 211.647 279.102 214.37 277.068L212.775 274.932ZM203.68 278.556L203.213 275.932C199.873 276.526 196.132 276.557 192.378 275.996L191.984 278.632L191.59 281.269C195.862 281.907 200.187 281.885 204.147 281.18L203.68 278.556ZM191.984 278.632L192.378 275.996C188.625 275.435 185.055 274.312 182.035 272.768L180.822 275.141L179.608 277.514C183.188 279.345 187.319 280.631 191.59 281.269L191.984 278.632Z" fill="#9B9444"/>
<path d="M286.134 269.126C285.917 267.67 286.921 266.313 288.377 266.096C289.833 265.878 291.19 266.882 291.407 268.338L288.771 268.732L286.134 269.126ZM323.568 272.768C324.879 272.097 326.485 272.616 327.155 273.927C327.826 275.238 327.307 276.844 325.996 277.514L324.782 275.141L323.568 272.768ZM288.771 268.732L291.407 268.338C291.631 269.834 292.547 271.395 294.424 272.797L292.828 274.932L291.233 277.068C288.493 275.021 286.61 272.305 286.134 269.126L288.771 268.732ZM292.828 274.932L294.424 272.797C296.318 274.212 299.037 275.335 302.39 275.932L301.924 278.556L301.457 281.18C297.511 280.478 293.956 279.102 291.233 277.068L292.828 274.932ZM301.924 278.556L302.39 275.932C305.73 276.526 309.472 276.557 313.225 275.996L313.619 278.632L314.013 281.269C309.742 281.907 305.416 281.885 301.457 281.18L301.924 278.556ZM313.619 278.632L313.225 275.996C316.979 275.435 320.548 274.312 323.568 272.768L324.782 275.141L325.996 277.514C322.415 279.345 318.285 280.631 314.013 281.269L313.619 278.632Z" fill="#9B9444"/>
<path d="M251.711 269.277L252.826 266.855C251.711 269.277 251.71 269.277 251.709 269.276C251.708 269.276 251.707 269.275 251.706 269.274C251.704 269.273 251.701 269.272 251.697 269.271C251.69 269.267 251.681 269.262 251.669 269.257C251.645 269.245 251.61 269.23 251.565 269.209C251.476 269.167 251.348 269.105 251.181 269.024C250.847 268.863 250.361 268.624 249.738 268.307C248.492 267.672 246.698 266.724 244.475 265.459C240.03 262.93 233.865 259.128 226.946 254.019C213.131 243.815 196.213 228.325 184.041 207.253C178.586 197.957 174.987 185.642 172.745 174.368C170.498 163.068 169.563 152.54 169.563 146.662C169.563 100.715 210.825 71.8066 252.356 71.8066C272.998 71.8067 292.734 76.7882 307.358 88.7764C322.072 100.838 331.256 119.7 331.256 146.662C331.257 152.343 330.974 162.828 329.362 174.173C327.766 185.412 324.828 197.775 319.373 207.134C309.544 228.295 293.151 243.819 279.324 254.02C272.385 259.139 266.053 262.947 261.448 265.479C259.145 266.745 257.271 267.693 255.966 268.328C255.313 268.646 254.803 268.885 254.451 269.047C254.275 269.128 254.139 269.189 254.045 269.231C253.998 269.252 253.961 269.268 253.936 269.279C253.923 269.285 253.913 269.29 253.905 269.293C253.902 269.295 253.899 269.296 253.896 269.297C253.895 269.297 253.894 269.299 253.894 269.299C253.893 269.299 253.891 269.299 252.95 267.14L253.892 269.3L252.796 269.776L251.711 269.277ZM251.732 239.653C252.752 238.882 254.202 237.775 255.964 236.405C259.559 233.61 264.444 229.724 269.61 225.355C274.781 220.983 280.209 216.148 284.898 211.455C289.624 206.726 293.459 202.278 295.575 198.672C304.408 183.618 307.016 171.639 307.03 162.477C305.783 143.379 300.373 131.057 291.5 123.436C282.567 115.762 269.624 112.414 252.356 112.414C234.905 112.414 221.634 114.757 212.693 121.893C203.902 128.91 198.685 141.093 198.685 162.395C198.685 171.659 201.424 183.557 210.292 198.672C214.58 205.981 225.179 216.47 235.016 225.337C239.877 229.719 244.46 233.625 247.829 236.436C249.446 237.784 250.782 238.88 251.732 239.653Z" fill="#FFF47B" stroke="#9B9444" stroke-width="5.33175"/>
<path d="M166.477 408.422L203.895 386.822L208.875 395.446L215.175 406.356L200.758 424.589L177.756 427.956L171.457 417.046L166.477 408.422Z" fill="#FFF47B"/>
<path d="M166.477 408.422L165.775 407.206L164.559 407.908L165.261 409.124L166.477 408.422ZM203.895 386.822L205.111 386.12L204.409 384.904L203.193 385.606L203.895 386.822ZM215.175 406.356L216.276 407.226L216.867 406.479L216.391 405.654L215.175 406.356ZM177.756 427.956L176.541 428.658L177.017 429.483L177.96 429.345L177.756 427.956ZM200.758 424.589L200.961 425.978L201.513 425.897L201.859 425.46L200.758 424.589ZM171.457 417.046L170.241 417.748L170.241 417.748L171.457 417.046ZM166.477 408.422L167.179 409.638L204.597 388.038L203.895 386.822L203.193 385.606L165.775 407.206L166.477 408.422ZM215.175 406.356L214.073 405.485L199.656 423.718L200.758 424.589L201.859 425.46L216.276 407.226L215.175 406.356ZM200.758 424.589L200.554 423.2L177.553 426.566L177.756 427.956L177.96 429.345L200.961 425.978L200.758 424.589ZM203.895 386.822L202.679 387.524L207.659 396.148L208.875 395.446L210.091 394.744L205.111 386.12L203.895 386.822ZM208.875 395.446L207.659 396.148L213.959 407.058L215.175 406.356L216.391 405.654L210.091 394.744L208.875 395.446ZM177.756 427.956L178.972 427.254L172.672 416.344L171.457 417.046L170.241 417.748L176.541 428.658L177.756 427.956ZM171.457 417.046L172.672 416.344L167.693 407.72L166.477 408.422L165.261 409.124L170.241 417.748L171.457 417.046ZM208.875 395.446L208.173 394.23L170.754 415.83L171.457 417.046L172.159 418.262L209.577 396.662L208.875 395.446Z" fill="#9B9444"/>
<path d="M349.347 408.422L311.929 386.822L306.949 395.446L300.649 406.356L315.066 424.589L338.068 427.956L344.368 417.046L349.347 408.422Z" fill="#FFF47B"/>
<path d="M349.347 408.422L350.049 407.206L351.265 407.908L350.563 409.124L349.347 408.422ZM311.929 386.822L310.713 386.12L311.415 384.904L312.631 385.606L311.929 386.822ZM300.649 406.356L299.548 407.226L298.957 406.479L299.434 405.654L300.649 406.356ZM338.068 427.956L339.284 428.658L338.807 429.483L337.864 429.345L338.068 427.956ZM315.066 424.589L314.863 425.978L314.311 425.897L313.965 425.46L315.066 424.589ZM344.368 417.046L345.584 417.748L345.584 417.748L344.368 417.046ZM349.347 408.422L348.645 409.638L311.227 388.038L311.929 386.822L312.631 385.606L350.049 407.206L349.347 408.422ZM300.649 406.356L301.751 405.485L316.168 423.718L315.066 424.589L313.965 425.46L299.548 407.226L300.649 406.356ZM315.066 424.589L315.27 423.2L338.271 426.566L338.068 427.956L337.864 429.345L314.863 425.978L315.066 424.589ZM311.929 386.822L313.145 387.524L308.165 396.148L306.949 395.446L305.733 394.744L310.713 386.12L311.929 386.822ZM306.949 395.446L308.165 396.148L301.865 407.058L300.649 406.356L299.434 405.654L305.734 394.744L306.949 395.446ZM338.068 427.956L336.852 427.254L343.152 416.344L344.368 417.046L345.584 417.748L339.284 428.658L338.068 427.956ZM344.368 417.046L343.152 416.344L348.131 407.72L349.347 408.422L350.563 409.124L345.584 417.748L344.368 417.046ZM306.949 395.446L307.652 394.23L345.07 415.83L344.368 417.046L343.666 418.262L306.247 396.662L306.949 395.446Z" fill="#9B9444"/>
<path d="M259.135 278.91L259.135 461.81" stroke="#9B9444" stroke-width="3.57379" stroke-linecap="round"/>
<path d="M244.763 303.664C249.228 303.664 252.848 307.283 252.848 311.748C252.848 316.213 249.228 319.832 244.763 319.832C240.297 319.832 236.678 316.213 236.678 311.748C236.678 307.283 240.297 303.664 244.763 303.664Z" fill="#1A1A1A" stroke="#9B9444" stroke-width="0.0850901"/>
<path d="M244.763 343.613C249.228 343.613 252.848 347.233 252.848 351.697C252.848 356.162 249.228 359.781 244.763 359.781C240.297 359.781 236.678 356.162 236.678 351.697C236.678 347.233 240.297 343.613 244.763 343.613Z" fill="#1A1A1A" stroke="#9B9444" stroke-width="0.0850901"/>
<path d="M244.763 383.578C249.228 383.578 252.848 387.197 252.848 391.662C252.848 396.127 249.228 399.746 244.763 399.746C240.297 399.746 236.678 396.127 236.678 391.662C236.678 387.197 240.297 383.578 244.763 383.578Z" fill="#1A1A1A" stroke="#9B9444" stroke-width="0.0850901"/>
<path d="M244.763 423.52C249.228 423.52 252.848 427.139 252.848 431.604C252.848 436.068 249.228 439.687 244.763 439.688C240.297 439.688 236.678 436.068 236.678 431.604C236.678 427.139 240.297 423.52 244.763 423.52Z" fill="#1A1A1A" stroke="#9B9444" stroke-width="0.0850901"/>
<path d="M294.404 166.169C300.215 166.169 304.927 160.016 304.927 152.426C304.927 144.836 300.215 138.684 294.404 138.684C288.592 138.684 283.881 144.836 283.881 152.426C283.881 160.016 288.592 166.169 294.404 166.169Z" fill="#D9AD7A" stroke="#603813" stroke-width="10" stroke-miterlimit="10" stroke-linecap="round"/>
<path d="M211.355 166.169C217.167 166.169 221.878 160.016 221.878 152.426C221.878 144.836 217.167 138.684 211.355 138.684C205.543 138.684 200.832 144.836 200.832 152.426C200.832 160.016 205.543 166.169 211.355 166.169Z" fill="#D9AD7A" stroke="#603813" stroke-width="10" stroke-miterlimit="10" stroke-linecap="round"/>
<path d="M260.56 143.376C261.364 130.618 267.92 116.708 280.871 109.472C296.195 100.342 321.507 104.886 329.339 119.809C332.398 125.297 333.342 130.881 333.702 136.716C334.077 141.621 334.174 146.56 333.89 151.611C333.036 162.621 330.83 182.837 314.314 184.003C309.284 184.003 305.212 180.416 305.212 175.99C305.212 171.564 309.291 167.977 314.314 167.977C313.807 167.935 313.259 168.005 312.781 168.171C312.371 168.296 312.17 168.324 311.893 168.483C311.504 168.754 311.47 168.664 311.338 168.844C311.372 168.789 311.719 168.462 312.052 167.907C316.804 158.188 318.108 144.389 312.628 135.058C305.317 122.598 289.688 129.695 292.192 143.383C293.33 151.063 287.183 158.105 278.45 159.111C268.218 160.415 263.244 152.346 264.639 143.383H260.553L260.56 143.376Z" fill="#C69C6D" stroke="#603813" stroke-width="10" stroke-miterlimit="10" stroke-linecap="round"/>
<path d="M321.18 123.035C311.632 123.035 303.186 127.983 297.949 135.585C296.678 137.434 296.678 140.01 297.949 141.859C303.186 149.469 311.632 154.409 321.18 154.409C330.728 154.409 339.174 149.461 344.411 141.859C345.682 140.01 345.682 137.434 344.411 135.585C339.174 127.975 330.728 123.035 321.18 123.035Z" fill="#DECAAD" stroke="#603813" stroke-width="10" stroke-miterlimit="10"/>
<path d="M245.202 143.376C244.397 130.618 237.842 116.708 224.891 109.472C209.567 100.342 184.254 104.886 176.422 119.809C173.363 125.297 172.42 130.882 172.059 136.716C171.685 141.621 171.587 146.56 171.872 151.611C172.725 162.621 174.931 182.837 191.448 184.003C196.477 184.003 200.549 180.416 200.549 175.99C200.549 171.564 196.47 167.977 191.448 167.977C191.954 167.935 192.502 168.005 192.981 168.171C193.39 168.296 193.591 168.324 193.869 168.483C194.257 168.754 194.292 168.664 194.424 168.844C194.389 168.789 194.042 168.462 193.709 167.907C188.957 158.188 187.653 144.389 193.133 135.058C200.445 122.598 216.074 129.695 213.57 143.383C212.432 151.063 218.578 158.105 227.312 159.111C237.544 160.415 242.517 152.346 241.123 143.383H245.209L245.202 143.376Z" fill="#C69C6D" stroke="#603813" stroke-width="10" stroke-miterlimit="10" stroke-linecap="round"/>
<path d="M184.639 123.039C194.212 123.039 202.68 127.987 207.93 135.588C209.204 137.438 209.204 140.014 207.93 141.863C202.68 149.472 194.212 154.413 184.639 154.413C175.066 154.413 166.598 149.465 161.348 141.863C160.074 140.014 160.074 137.438 161.348 135.588C166.598 127.979 175.066 123.039 184.639 123.039Z" fill="#DECAAD" stroke="#603813" stroke-width="10" stroke-miterlimit="10"/>
<path d="M262.251 230.89H243.508C230.321 230.89 219.187 221.095 217.508 208.017L207.873 133.07H297.893L288.258 208.017C286.579 221.095 275.439 230.89 262.258 230.89H262.251Z" fill="#DECAAD" stroke="#603813" stroke-width="10" stroke-miterlimit="10"/>
<path d="M296.255 115.488C294.722 115.488 293.258 115.752 291.891 116.224C289.339 109.453 282.811 104.624 275.146 104.624C272.572 104.624 270.13 105.179 267.918 106.157C263.957 102.522 258.684 100.281 252.885 100.281C247.086 100.281 241.814 102.522 237.853 106.157C235.64 105.179 233.198 104.624 230.625 104.624C222.959 104.624 216.432 109.453 213.879 116.224C212.506 115.752 211.042 115.488 209.516 115.488C202.065 115.488 196.023 121.531 196.023 128.982C196.023 136.433 202.065 142.476 209.516 142.476C213.9 142.476 217.791 140.374 220.254 137.127C223.181 139.215 226.761 140.457 230.632 140.457C233.205 140.457 235.647 139.902 237.86 138.924C241.821 142.559 247.093 144.8 252.892 144.8C258.691 144.8 263.963 142.559 267.924 138.924C270.137 139.902 272.579 140.457 275.153 140.457C279.024 140.457 282.596 139.215 285.53 137.127C287.993 140.374 291.878 142.476 296.269 142.476C303.719 142.476 309.761 136.433 309.761 128.982C309.761 121.531 303.719 115.488 296.269 115.488H296.255Z" fill="#D9AD7A" stroke="#603813" stroke-width="10" stroke-miterlimit="10" stroke-linecap="round" stroke-linejoin="round"/>
<path d="M299.257 168.628C299.393 165.724 298.575 163.064 297.158 161.15C290.711 154.067 284.309 163.2 284.047 168.785C283.924 171.387 285.425 174.741 285.425 174.741C281.377 176.831 278.803 181.501 278.546 186.968C278.284 192.546 283.065 194.929 286.949 195.111C294.253 195.455 298.603 191.057 298.865 185.472C299.036 181.836 298.392 178.451 296.265 176.568C298.339 174.831 299.097 172.041 299.257 168.628Z" fill="#D9AD7A" stroke="#603813" stroke-width="10" stroke-miterlimit="10" stroke-linecap="round" stroke-linejoin="round"/>
<path d="M206.589 168.628C206.452 165.724 207.271 163.064 208.688 161.15C215.135 154.067 221.537 163.2 221.799 168.785C221.921 171.387 220.421 174.741 220.421 174.741C224.469 176.831 227.043 181.501 227.3 186.968C227.562 192.546 222.781 194.929 218.896 195.111C211.593 195.455 207.243 191.057 206.98 185.472C206.81 181.836 207.454 178.451 209.58 176.568C207.507 174.831 206.749 172.041 206.589 168.628Z" fill="#D9AD7A" stroke="#603813" stroke-width="10" stroke-miterlimit="10" stroke-linecap="round" stroke-linejoin="round"/>
<path d="M235.656 161.168C235.656 164.179 234.185 165.553 232.368 165.553C230.551 165.553 229.08 164.179 229.08 161.168C229.08 158.158 230.551 155.723 232.368 155.723C234.185 155.723 235.656 158.165 235.656 161.168Z" fill="black" stroke="black" stroke-width="10" stroke-miterlimit="10" stroke-linecap="round"/>
<path d="M270.111 161.165C270.111 164.175 271.582 165.549 273.399 165.549C275.217 165.549 276.687 164.175 276.687 161.165C276.687 158.154 275.217 155.719 273.399 155.719C271.582 155.719 270.111 158.161 270.111 161.165Z" fill="black" stroke="black" stroke-width="10" stroke-miterlimit="10" stroke-linecap="round"/>
<path d="M253.953 189.105C252.982 190.111 251.387 190.111 250.415 189.105C244.811 183.298 239.289 183.333 239.289 187.6C239.289 192.317 245.067 196.133 252.184 196.133C259.301 196.133 265.086 192.31 265.086 187.6C265.086 183.333 259.565 183.298 253.953 189.105Z" fill="black" stroke="black" stroke-width="10" stroke-miterlimit="10" stroke-linecap="round"/>
<path d="M252.104 198.797L252.104 213.365" stroke="black" stroke-width="10" stroke-miterlimit="10" stroke-linecap="round"/>
<path d="M241.402 211.458C244.413 213.838 250.587 214.553 257.225 212.957C263.864 211.361 269.039 207.927 270.641 204.438" stroke="black" stroke-width="10" stroke-miterlimit="10" stroke-linecap="round"/>
<path d="M319.306 169.7C318.994 166.064 319.944 162.047 321.061 158.391C323.072 152.168 326.472 146.105 331.175 140.811C332.195 139.66 332.222 137.995 331.126 136.808C329.857 135.435 327.554 135.227 325.993 136.344C319.299 141.137 313.645 147.159 309.337 154.014C303.732 162.519 296.026 182.153 313.618 184.005" fill="#C69C6D"/>
<path d="M319.306 169.7C318.994 166.064 319.944 162.047 321.061 158.391C323.072 152.168 326.472 146.105 331.175 140.811C332.195 139.66 332.222 137.995 331.126 136.808C329.857 135.435 327.554 135.227 325.993 136.344C319.299 141.137 313.645 147.159 309.337 154.014C303.732 162.519 296.026 182.153 313.618 184.005" stroke="#603813" stroke-width="10" stroke-miterlimit="10" stroke-linecap="round"/>
<path d="M192.145 184.005C209.737 182.159 202.03 162.519 196.425 154.014C192.117 147.159 186.463 141.131 179.769 136.344C178.202 135.227 175.906 135.435 174.636 136.808C173.54 137.995 173.568 139.653 174.588 140.811C179.291 146.105 182.69 152.168 184.702 158.391C185.825 162.054 186.769 166.071 186.457 169.7" fill="#C69C6D"/>
<path d="M192.145 184.005C209.737 182.159 202.03 162.519 196.425 154.014C192.117 147.159 186.463 141.131 179.769 136.344C178.202 135.227 175.906 135.435 174.636 136.808C173.54 137.995 173.568 139.653 174.588 140.811C179.291 146.105 182.69 152.168 184.702 158.391C185.825 162.054 186.769 166.071 186.457 169.7" stroke="#603813" stroke-width="10" stroke-miterlimit="10" stroke-linecap="round"/>
<path d="M318.93 278.336V325.82C318.93 332.424 313.577 337.771 306.98 337.771C300.377 337.771 295.031 332.417 295.031 325.82V278.336" fill="#DECAAD"/>
<path d="M318.93 278.336V325.82C318.93 332.424 313.577 337.771 306.98 337.771C300.377 337.771 295.031 332.417 295.031 325.82V278.336" stroke="#603813" stroke-width="6.63305" stroke-miterlimit="10"/>
<path d="M287.343 271.729C287.072 269.917 288.321 268.229 290.133 267.958C291.944 267.688 293.632 268.937 293.903 270.748L290.623 271.239L287.343 271.729ZM321.784 274.101C323.414 273.267 325.413 273.913 326.247 275.544C327.081 277.174 326.435 279.172 324.804 280.007L323.294 277.054L321.784 274.101ZM290.623 271.239L293.903 270.748C294.064 271.822 294.732 273.044 296.289 274.208L294.304 276.865L292.319 279.522C289.687 277.556 287.816 274.897 287.343 271.729L290.623 271.239ZM294.304 276.865L296.289 274.208C297.868 275.388 300.194 276.364 303.137 276.888L302.556 280.153L301.974 283.418C298.295 282.763 294.929 281.472 292.319 279.522L294.304 276.865ZM302.556 280.153L303.137 276.888C306.062 277.409 309.358 277.438 312.677 276.942L313.167 280.222L313.657 283.502C309.694 284.095 305.671 284.076 301.974 283.418L302.556 280.153ZM313.167 280.222L312.677 276.942C315.995 276.446 319.138 275.454 321.784 274.101L323.294 277.054L324.804 280.007C321.461 281.717 317.619 282.91 313.657 283.502L313.167 280.222Z" fill="#603813"/>
<path d="M212.795 266.323L181.899 230.266C177.602 225.252 170.059 224.676 165.05 228.968C160.036 233.266 159.46 240.809 163.752 245.819L194.648 281.875" fill="#DECAAD"/>
<path d="M212.795 266.323L210.277 268.481L179.381 232.425L181.899 230.266L184.417 228.108L215.313 264.165L212.795 266.323ZM181.899 230.266L179.381 232.425C176.277 228.802 170.827 228.385 167.208 231.487L165.05 228.968L162.892 226.45C169.291 220.966 178.928 221.702 184.417 228.108L181.899 230.266ZM165.05 228.968L167.208 231.487C163.586 234.591 163.169 240.041 166.271 243.66L163.752 245.819L161.234 247.977C155.751 241.578 156.487 231.94 162.892 226.45L165.05 228.968ZM163.752 245.819L166.271 243.66L197.167 279.717L194.648 281.875L192.13 284.033L161.234 247.977L163.752 245.819Z" fill="#603813"/>
<path d="M193.117 291.913C194.09 293.465 196.137 293.934 197.689 292.961C199.241 291.988 199.709 289.941 198.736 288.389L195.927 290.151L193.117 291.913ZM217.725 267.699C219.506 267.271 220.603 265.481 220.176 263.7C219.748 261.919 217.957 260.822 216.177 261.249L216.951 264.474L217.725 267.699ZM195.927 290.151L198.736 288.389C198.16 287.469 197.872 286.106 198.297 284.209L195.061 283.483L191.825 282.757C191.106 285.963 191.415 289.199 193.117 291.913L195.927 290.151ZM195.061 283.483L198.297 284.209C198.729 282.286 199.859 280.031 201.753 277.718L199.187 275.617L196.621 273.515C194.254 276.407 192.538 279.578 191.825 282.757L195.061 283.483ZM199.187 275.617L201.753 277.718C203.636 275.419 206.119 273.251 208.962 271.469L207.2 268.659L205.437 265.849C202.043 267.978 199 270.61 196.621 273.515L199.187 275.617ZM207.2 268.659L208.962 271.469C211.804 269.686 214.836 268.393 217.725 267.699L216.951 264.474L216.177 261.249C212.525 262.126 208.831 263.72 205.437 265.849L207.2 268.659Z" fill="#603813"/>
<path d="M114.275 25.9288C100.231 31.1001 87.3428 38.9866 76.3468 49.139C65.3507 59.2914 56.4624 71.511 50.1882 85.0989C43.9141 98.6868 40.377 113.377 39.7799 128.332C39.4974 135.407 39.8769 142.474 40.9017 149.446C41.2348 151.711 44.2694 152.329 45.7787 150.607C49.9734 145.822 55.3883 141.986 61.7799 139.632C72.0748 135.841 82.9355 136.619 92.1408 140.936C93.5571 141.6 95.2783 140.966 95.9256 139.542C100.133 130.284 107.896 122.647 118.192 118.856C127.516 115.423 137.305 115.735 145.908 119.032C147.252 119.548 148.79 118.946 149.429 117.655C153.745 108.927 161.281 101.772 171.139 98.1419C181.436 94.3506 192.297 95.1294 201.503 99.4483C202.92 100.113 204.641 99.4789 205.288 98.0547C209.496 88.7971 217.259 81.1607 227.555 77.3695C233.849 75.0518 240.355 74.4426 246.564 75.3054C248.839 75.6214 250.734 73.1538 249.492 71.2225C245.926 65.6768 241.877 60.4377 237.383 55.57C227.232 44.5731 215.014 35.6841 201.427 29.4094C187.84 23.1347 173.15 19.5971 158.197 19C143.243 18.4028 128.319 20.7576 114.275 25.9288Z" fill="#C24D4D"/>
<path d="M145.288 216.69C144.575 214.751 142.424 213.758 140.486 214.472C138.547 215.186 137.554 217.336 138.268 219.275L141.778 217.982L145.288 216.69ZM144.734 99.3341C144.021 97.3954 141.87 96.4025 139.932 97.1164C137.993 97.8302 137 99.9804 137.714 101.919L141.224 100.627L144.734 99.3341ZM179.338 204.152L175.828 205.444C179.995 216.764 175.487 227.472 167.659 230.355L168.951 233.865L170.244 237.375C183.16 232.619 187.952 216.721 182.848 202.859L179.338 204.152ZM168.951 233.865L167.659 230.355C159.832 233.237 149.456 228.009 145.288 216.69L141.778 217.982L138.268 219.275C143.372 233.137 157.327 242.131 170.244 237.375L168.951 233.865ZM179.338 204.152L182.848 202.859L144.734 99.3341L141.224 100.627L137.714 101.919L175.828 205.444L179.338 204.152Z" fill="#5C260B"/>
<path d="M110.319 15.2281C96.2748 20.3994 83.3871 28.2868 72.391 38.4392C61.395 48.5916 52.5054 60.8106 46.2312 74.3985C39.9571 87.9864 36.4212 102.677 35.8241 117.632C35.5265 125.085 35.9633 132.531 37.1156 139.864C37.4076 141.723 39.8908 142.218 41.0891 140.768C45.3804 135.573 51.0611 131.41 57.8394 128.914C68.3144 125.057 79.375 125.93 88.6817 130.449C89.8376 131.01 91.2521 130.489 91.768 129.312C95.9222 119.835 103.776 111.996 114.253 108.139C123.735 104.647 133.698 105.03 142.405 108.485C143.504 108.922 144.769 108.427 145.281 107.36C149.561 98.4394 157.181 91.1098 167.199 87.4209C177.675 83.5635 188.737 84.4364 198.044 88.9563C199.2 89.5176 200.614 88.9968 201.13 87.82C205.285 78.3454 213.138 70.5082 223.612 66.6513C230.28 64.196 237.186 63.6586 243.725 64.7573C245.585 65.0698 247.139 63.0597 246.135 61.4637C242.425 55.569 238.175 50.0124 233.428 44.8702C223.276 33.8732 211.058 24.9834 197.471 18.7087C183.884 12.4341 169.195 8.8973 154.241 8.30013C139.287 7.70296 124.362 10.0569 110.319 15.2281Z" fill="#E46262"/>
<path d="M110.665 16.1761C112.63 15.3736 114.676 14.7544 116.767 14.3254C122.537 13.1337 128.59 13.4333 134.341 14.8156C143.76 17.0841 152.347 22.0178 159.824 28.0481C159.824 28.0484 159.824 28.0486 159.825 28.0488C168.786 35.3062 176.328 44.1543 182.656 53.7073C188.93 63.309 193.92 73.6443 198.073 84.2632C198.839 86.2429 199.569 88.2408 200.252 90.2458C199.472 88.2766 198.65 86.317 197.798 84.3767C193.186 73.9749 187.867 63.8548 181.462 54.5163C174.989 45.2026 167.462 36.5818 158.678 29.4685C158.678 29.4683 158.677 29.4681 158.677 29.4678C151.343 23.5562 143.1 18.6142 134.019 16.0579C128.469 14.5017 122.602 13.9095 116.839 14.7348C114.75 15.032 112.681 15.512 110.665 16.1761Z" fill="black" fill-opacity="0.2"/>
<path d="M142.849 104.571C142.243 103.133 141.64 101.693 141.04 100.252C135.448 86.8176 130.14 73.2787 125.117 59.6349C120.442 46.935 116.046 34.1319 111.932 21.2254C111.458 19.7381 110.987 18.2494 110.52 16.7593C111.131 18.1963 111.738 19.6347 112.342 21.0744C117.579 33.5677 122.535 46.1643 127.21 58.8642C132.233 72.5079 136.972 86.2564 141.426 100.11C141.904 101.596 142.378 103.083 142.849 104.571Z" fill="black" fill-opacity="0.2"/>
<path d="M110.577 16.2106C108.561 16.8742 106.602 17.7299 104.732 18.7594C99.5674 21.5937 95.1539 25.7473 91.6721 30.5295C85.973 38.3648 82.6355 47.6892 80.8539 57.1289C80.8538 57.1293 80.8537 57.1296 80.8537 57.13C78.7376 68.4665 78.7335 80.0932 80.1108 91.4691C81.5607 102.847 84.4637 113.951 88.1882 124.728C88.889 126.731 89.6284 128.726 90.4085 130.695C89.7256 128.69 89.0807 126.665 88.471 124.636C85.2371 113.726 82.7237 102.573 81.5446 91.3104C80.4332 80.0223 80.5727 68.5787 82.6471 57.467C82.6472 57.4666 82.6473 57.4663 82.6473 57.4659C84.3972 48.2094 87.4671 39.1019 92.7225 31.2665C95.9386 26.4824 100.021 22.2269 104.943 19.1172C106.726 17.9887 108.612 17.0126 110.577 16.2106Z" fill="black" fill-opacity="0.2"/>
<path opacity="0.1" d="M72.5384 57.6504C73.0765 56.8103 72.8992 55.7478 72.435 54.8648C72.0396 54.1126 71.3566 53.4011 70.5999 53.7879C66.5769 55.8443 56.4463 62.3302 51.2153 77.4615C44.5943 96.6135 44.5942 119.325 47.9993 117.283C51.4045 115.241 52.4961 113.12 55.4475 110.362C56.8388 109.062 58.1227 108.268 59.0912 107.792C60.0778 107.307 60.8549 106.329 60.8641 105.23C60.8976 101.236 61.176 91.4678 62.9507 81.18C64.7802 70.5739 70.3054 61.1365 72.5384 57.6504Z" fill="white"/>
<path d="M101.563 1.77089C101.515 1.13201 101.759 0.412662 102.146 -0.193862C102.538 -0.80242 103.041 -1.24839 103.639 -1.4687C104.237 -1.68901 104.909 -1.6757 105.602 -1.46673C106.29 -1.25574 106.942 -0.866286 107.32 -0.349017C107.32 -0.349017 107.32 -0.349017 107.32 -0.349017C107.479 -0.129254 107.639 0.0905086 107.798 0.310271C110.667 4.266 113.535 8.22173 116.403 12.1775C116.563 12.3972 116.722 12.617 116.882 12.8367C118.1 14.5036 118.484 16.391 117.642 18.1965C116.819 19.9955 114.839 21.565 112.444 22.4469C110.049 23.3288 107.524 23.4183 105.73 22.5828C103.919 21.7539 102.988 20.0681 102.834 18.0093C102.813 17.7387 102.792 17.468 102.771 17.1974C102.389 12.3259 102.008 7.45434 101.626 2.58281C101.605 2.31217 101.584 2.04153 101.563 1.77089Z" fill="#5C260B"/>
</svg>
