<svg width="269" height="429" viewBox="0 0 269 429" fill="none" xmlns="http://www.w3.org/2000/svg">
<path d="M178.673 357.747H178.738H178.984C191.783 357.682 202.57 349.19 206.095 337.571C217.236 342.429 230.686 339.714 239.026 330.021C247.322 320.371 247.995 306.769 241.654 296.503C251.434 292.015 258.239 282.105 258.239 270.638C258.239 261.821 254.235 253.937 247.93 248.71C254.235 243.505 258.239 235.608 258.239 226.812C258.239 217.987 254.235 210.09 247.93 204.885C254.235 199.672 258.239 191.774 258.239 182.957C258.239 173.705 253.794 165.453 246.924 160.27C254.67 153.11 258.123 141.933 254.887 131.168C251.209 118.912 240.01 110.971 227.841 110.906C229.333 98.8525 222.919 86.7052 211.257 81.4786C200.362 76.5776 188.019 79.0969 179.904 86.9079C174.764 79.4226 166.164 74.5 156.405 74.5C147.581 74.5 139.705 78.5322 134.5 84.8086C129.266 78.525 121.39 74.5 112.572 74.5C102.792 74.5 94.1488 79.4443 89.0307 86.9948C80.8504 79.2055 68.4208 76.7586 57.5476 81.7681C45.9288 87.1034 39.6235 99.2941 41.2233 111.326C29.0543 111.521 17.9205 119.549 14.3516 131.849C11.217 142.592 14.7208 153.689 22.445 160.755C15.6184 165.96 11.1953 174.162 11.1953 183.42C11.1953 192.238 15.2058 200.114 21.5039 205.319C15.1986 210.553 11.1953 218.429 11.1953 227.246C11.1953 236.071 15.2058 243.947 21.5039 249.174C15.1986 254.386 11.1953 262.262 11.1953 271.079C11.1953 282.633 18.087 292.565 27.954 297.032C21.6704 307.362 22.4812 320.972 30.8641 330.556C39.2905 340.177 52.7481 342.762 63.8384 337.817C67.4725 349.364 78.2588 357.747 90.9925 357.747C99.8098 357.747 107.693 353.715 112.92 347.416C118.125 353.722 126.001 357.747 134.818 357.747C143.643 357.747 151.541 353.715 156.746 347.416C161.958 353.722 169.856 357.747 178.673 357.747Z" fill="#FBF0D4"/>
<path opacity="0.1" d="M252.699 204.893C256.882 209.274 259.816 214.863 260.946 221.078V232.519C259.816 238.723 256.881 244.311 252.697 248.692C256.879 253.081 259.815 258.666 260.946 264.879V276.327C259.284 285.438 253.728 293.201 246.079 297.812C251.269 308.793 249.909 322.28 241.463 332.105L241.462 332.106C232.964 341.985 219.712 345.364 208.008 341.749C203.171 352.993 192.009 360.9 178.969 360.967L178.961 360.968H178.642C170.15 360.968 162.424 357.617 156.73 352.182C151.043 357.612 143.318 360.968 134.82 360.968C126.326 360.968 118.616 357.616 112.933 352.181C107.237 357.609 99.5235 360.968 91.0273 360.968C78.0482 360.968 66.895 353.165 61.9678 342.009C50.3053 345.72 37.0378 342.47 28.4502 332.664L28.4482 332.662C19.9139 322.903 18.4167 309.409 23.542 298.366C22.3399 297.651 21.1894 296.858 20.0957 295.996L23.502 292.499C76.71 317.112 228.731 346.068 243.934 204.904L252.97 204.602C252.88 204.699 252.791 204.797 252.699 204.893Z" fill="black"/>
<path d="M178.673 357.747H178.738H178.984C191.783 357.682 202.57 349.19 206.095 337.571C217.236 342.429 230.686 339.714 239.026 330.021C247.322 320.371 247.995 306.769 241.654 296.503C251.434 292.015 258.239 282.105 258.239 270.638C258.239 261.821 254.235 253.937 247.93 248.71C254.235 243.505 258.239 235.608 258.239 226.812C258.239 217.987 254.235 210.09 247.93 204.885C254.235 199.672 258.239 191.774 258.239 182.957C258.239 173.705 253.794 165.453 246.924 160.27C254.67 153.11 258.123 141.933 254.887 131.168C251.209 118.912 240.01 110.971 227.841 110.906C229.333 98.8525 222.919 86.7052 211.257 81.4786C200.362 76.5776 188.019 79.0969 179.904 86.9079C174.764 79.4226 166.164 74.5 156.405 74.5C147.581 74.5 139.705 78.5322 134.5 84.8086C129.266 78.525 121.39 74.5 112.572 74.5C102.792 74.5 94.1488 79.4443 89.0307 86.9948C80.8504 79.2055 68.4208 76.7586 57.5476 81.7681C45.9288 87.1034 39.6235 99.2941 41.2233 111.326C29.0543 111.521 17.9205 119.549 14.3516 131.849C11.217 142.592 14.7208 153.689 22.445 160.755C15.6184 165.96 11.1953 174.162 11.1953 183.42C11.1953 192.238 15.2058 200.114 21.5039 205.319C15.1986 210.553 11.1953 218.429 11.1953 227.246C11.1953 236.071 15.2058 243.947 21.5039 249.174C15.1986 254.386 11.1953 262.262 11.1953 271.079C11.1953 282.633 18.087 292.565 27.954 297.032C21.6704 307.362 22.4812 320.972 30.8641 330.556C39.2905 340.177 52.7481 342.762 63.8384 337.817C67.4725 349.364 78.2588 357.747 90.9925 357.747C99.8098 357.747 107.693 353.715 112.92 347.416C118.125 353.722 126.001 357.747 134.818 357.747C143.643 357.747 151.541 353.715 156.746 347.416C161.958 353.722 169.856 357.747 178.673 357.747Z" stroke="#603813" stroke-width="6.63305" stroke-miterlimit="10"/>
<path d="M70.459 200.973V250.995C70.459 257.952 76.0983 263.584 83.0478 263.584C90.0047 263.584 95.6367 257.945 95.6367 250.995V200.973" fill="#DECAAD"/>
<path d="M70.459 200.973V250.995C70.459 257.952 76.0983 263.584 83.0478 263.584C90.0047 263.584 95.6367 257.945 95.6367 250.995V200.973" stroke="#603813" stroke-width="6.63305" stroke-miterlimit="10"/>
<path d="M100.281 193.487C99.9468 195.721 98.6092 197.766 96.4025 199.414C94.1957 201.062 91.1975 202.257 87.7092 202.878C84.2208 203.499 80.3653 203.524 76.5301 202.951C72.6948 202.378 69.0151 201.227 65.8606 199.613" stroke="#603813" stroke-width="6.63305" stroke-linecap="round"/>
<path d="M198.871 200.977V250.999C198.871 257.956 193.232 263.588 186.282 263.588C179.325 263.588 173.693 257.949 173.693 250.999V200.977" fill="#DECAAD"/>
<path d="M198.871 200.977V250.999C198.871 257.956 193.232 263.588 186.282 263.588C179.325 263.588 173.693 257.949 173.693 250.999V200.977" stroke="#603813" stroke-width="6.63305" stroke-miterlimit="10"/>
<path d="M169.047 193.487C169.381 195.721 170.719 197.766 172.926 199.414C175.132 201.062 178.131 202.257 181.619 202.878C185.107 203.499 188.963 203.524 192.798 202.951C196.633 202.378 200.313 201.227 203.468 199.613" stroke="#603813" stroke-width="6.63305" stroke-linecap="round"/>
<path d="M177.683 102.08C183.748 102.08 188.665 95.6594 188.665 87.7392C188.665 79.819 183.748 73.3984 177.683 73.3984C171.618 73.3984 166.701 79.819 166.701 87.7392C166.701 95.6594 171.618 102.08 177.683 102.08Z" fill="#D9AD7A" stroke="#603813" stroke-width="6.63305" stroke-miterlimit="10" stroke-linecap="round"/>
<path d="M91.015 102.08C97.0801 102.08 101.997 95.6594 101.997 87.7392C101.997 79.819 97.0801 73.3984 91.015 73.3984C84.9499 73.3984 80.0332 79.819 80.0332 87.7392C80.0332 95.6594 84.9499 102.08 91.015 102.08Z" fill="#D9AD7A" stroke="#603813" stroke-width="6.63305" stroke-miterlimit="10" stroke-linecap="round"/>
<path d="M142.361 78.3004C143.2 64.9876 150.041 50.473 163.557 42.9226C179.548 33.3959 205.964 38.1375 214.137 53.7089C217.329 59.4351 218.314 65.2626 218.69 71.3508C219.081 76.4689 219.183 81.6231 218.886 86.8933C217.995 98.3818 215.693 119.477 198.457 120.693C193.209 120.693 188.959 116.95 188.959 112.332C188.959 107.713 193.216 103.97 198.457 103.97C197.928 103.927 197.357 103.999 196.857 104.173C196.43 104.303 196.22 104.332 195.93 104.499C195.525 104.781 195.489 104.687 195.351 104.875C195.388 104.817 195.749 104.477 196.097 103.898C201.056 93.756 202.417 79.3573 196.698 69.6206C189.068 56.6191 172.758 64.0247 175.371 78.3076C176.559 86.3214 170.145 93.6691 161.031 94.7188C150.353 96.0798 145.162 87.6606 146.617 78.3076H142.354L142.361 78.3004Z" fill="#C69C6D" stroke="#603813" stroke-width="6.63305" stroke-miterlimit="10" stroke-linecap="round"/>
<path d="M205.626 57.0742C195.662 57.0742 186.848 62.2373 181.383 70.1691C180.057 72.0992 180.057 74.7865 181.383 76.7166C186.848 84.6566 195.662 89.8115 205.626 89.8115C215.59 89.8115 224.405 84.6484 229.87 76.7166C231.195 74.7865 231.195 72.0992 229.87 70.1691C224.405 62.2291 215.59 57.0742 205.626 57.0742Z" fill="#DECAAD" stroke="#603813" stroke-width="6.63305" stroke-miterlimit="10"/>
<path d="M126.332 78.3004C125.492 64.9876 118.651 50.473 105.136 42.9226C89.1444 33.3959 62.7287 38.1375 54.5557 53.7089C51.3632 59.4351 50.3787 65.2626 50.0023 71.3508C49.6114 76.4689 49.51 81.6232 49.8068 86.8933C50.6972 98.3818 52.9993 119.477 70.2357 120.693C75.4841 120.693 79.7335 116.95 79.7335 112.332C79.7335 107.713 75.4768 103.97 70.2357 103.97C70.7642 103.927 71.3361 103.999 71.8356 104.173C72.2627 104.303 72.4726 104.332 72.7622 104.499C73.1676 104.781 73.2037 104.687 73.3413 104.875C73.3051 104.817 72.9431 104.477 72.5957 103.898C67.6368 93.756 66.2759 79.3573 71.9948 69.6206C79.6249 56.6191 95.9347 64.0247 93.3214 78.3076C92.1341 86.3214 98.548 93.6691 107.662 94.7188C118.34 96.0798 123.53 87.6606 122.075 78.3076H126.339L126.332 78.3004Z" fill="#C69C6D" stroke="#603813" stroke-width="6.63305" stroke-miterlimit="10" stroke-linecap="round"/>
<path d="M63.1329 57.0742C73.1227 57.0742 81.9598 62.2373 87.4388 70.1691C88.7682 72.0992 88.7682 74.7865 87.4388 76.7166C81.9598 84.6566 73.1227 89.8115 63.1329 89.8115C53.1432 89.8115 44.3061 84.6484 38.8271 76.7166C37.4977 74.7865 37.4977 72.0992 38.8271 70.1691C44.3061 62.2291 53.1432 57.0742 63.1329 57.0742Z" fill="#DECAAD" stroke="#603813" stroke-width="6.63305" stroke-miterlimit="10"/>
<path d="M144.129 169.619H124.568C110.807 169.619 99.1879 159.397 97.436 145.752L87.3809 67.5469H181.323L171.268 145.752C169.516 159.397 157.89 169.619 144.136 169.619H144.129Z" fill="#DECAAD" stroke="#603813" stroke-width="6.63305" stroke-miterlimit="10"/>
<path d="M179.614 49.2003C178.014 49.2003 176.487 49.4754 175.061 49.9676C172.397 42.9022 165.585 37.8637 157.585 37.8637C154.9 37.8637 152.351 38.4429 150.042 39.4636C145.909 35.6703 140.407 33.332 134.355 33.332C128.303 33.332 122.801 35.6703 118.668 39.4636C116.358 38.4429 113.81 37.8637 111.125 37.8637C103.125 37.8637 96.3132 42.9022 93.6492 49.9676C92.2158 49.4754 90.6884 49.2003 89.0958 49.2003C81.3209 49.2003 75.0156 55.5056 75.0156 63.2804C75.0156 71.0553 81.3209 77.3606 89.0958 77.3606C93.6709 77.3606 97.7321 75.1672 100.302 71.7792C103.357 73.9582 107.092 75.254 111.132 75.254C113.817 75.254 116.366 74.6749 118.675 73.6542C122.808 77.4475 128.31 79.7857 134.362 79.7857C140.414 79.7857 145.916 77.4475 150.049 73.6542C152.359 74.6749 154.907 75.254 157.593 75.254C161.632 75.254 165.36 73.9582 168.422 71.7792C170.992 75.1672 175.046 77.3606 179.629 77.3606C187.403 77.3606 193.709 71.0553 193.709 63.2804C193.709 55.5056 187.403 49.2003 179.629 49.2003H179.614Z" fill="#D9AD7A" stroke="#603813" stroke-width="6.63305" stroke-miterlimit="10" stroke-linecap="round" stroke-linejoin="round"/>
<path d="M182.745 104.641C182.887 101.612 182.033 98.8362 180.554 96.8383C173.826 89.4473 167.145 98.9777 166.871 104.805C166.744 107.521 168.31 111.02 168.31 111.02C164.085 113.202 161.399 118.075 161.131 123.779C160.858 129.599 165.847 132.086 169.901 132.276C177.523 132.634 182.062 128.045 182.336 122.218C182.514 118.424 181.842 114.891 179.623 112.927C181.787 111.114 182.577 108.203 182.745 104.641Z" fill="#D9AD7A" stroke="#603813" stroke-width="6.63305" stroke-miterlimit="10" stroke-linecap="round" stroke-linejoin="round"/>
<path d="M86.0386 104.641C85.8962 101.612 86.7505 98.8362 88.2295 96.8383C94.9569 89.4473 101.638 98.9777 101.912 104.805C102.039 107.521 100.474 111.02 100.474 111.02C104.698 113.202 107.384 118.075 107.652 123.779C107.926 129.599 102.936 132.086 98.8826 132.276C91.2605 132.634 86.7213 128.045 86.4475 122.218C86.2692 118.424 86.9414 114.891 89.1606 112.927C86.9964 111.114 86.206 108.203 86.0386 104.641Z" fill="#D9AD7A" stroke="#603813" stroke-width="6.63305" stroke-miterlimit="10" stroke-linecap="round" stroke-linejoin="round"/>
<path d="M116.372 96.8624C116.372 100.004 114.838 101.438 112.941 101.438C111.044 101.438 109.51 100.004 109.51 96.8624C109.51 93.7206 111.044 91.1797 112.941 91.1797C114.838 91.1797 116.372 93.7279 116.372 96.8624Z" fill="black" stroke="black" stroke-width="6.63305" stroke-miterlimit="10" stroke-linecap="round"/>
<path d="M152.332 96.8624C152.332 100.004 153.867 101.438 155.763 101.438C157.66 101.438 159.195 100.004 159.195 96.8624C159.195 93.7206 157.66 91.1797 155.763 91.1797C153.867 91.1797 152.332 93.7279 152.332 96.8624Z" fill="black" stroke="black" stroke-width="6.63305" stroke-miterlimit="10" stroke-linecap="round"/>
<path d="M135.468 126.014C134.454 127.064 132.789 127.064 131.776 126.014C125.926 119.955 120.164 119.991 120.164 124.443C120.164 129.366 126.194 133.347 133.622 133.347C141.049 133.347 147.086 129.358 147.086 124.443C147.086 119.991 141.324 119.955 135.468 126.014Z" fill="black" stroke="black" stroke-width="6.63305" stroke-miterlimit="10" stroke-linecap="round"/>
<path d="M133.539 136.125L133.539 151.327" stroke="black" stroke-width="6.63305" stroke-miterlimit="10" stroke-linecap="round"/>
<path d="M122.369 149.342C125.511 151.825 131.954 152.57 138.882 150.905C145.81 149.24 151.21 145.657 152.882 142.016" stroke="black" stroke-width="9.47951" stroke-miterlimit="10" stroke-linecap="round"/>
<path d="M203.668 105.767C203.343 101.973 204.334 97.7818 205.5 93.9668C207.599 87.4733 211.147 81.1462 216.055 75.6228C217.119 74.4211 217.148 72.6837 216.004 71.4458C214.679 70.0124 212.276 69.7952 210.647 70.9607C203.661 75.963 197.761 82.2466 193.266 89.3989C187.417 98.2741 179.374 118.761 197.732 120.694" fill="#C69C6D"/>
<path d="M203.668 105.767C203.343 101.973 204.334 97.7818 205.5 93.9668C207.599 87.4733 211.147 81.1462 216.055 75.6228C217.119 74.4211 217.148 72.6837 216.004 71.4458C214.679 70.0124 212.276 69.7952 210.647 70.9607C203.661 75.963 197.761 82.2466 193.266 89.3989C187.417 98.2741 179.374 118.761 197.732 120.694" stroke="#603813" stroke-width="6.63305" stroke-miterlimit="10" stroke-linecap="round"/>
<path d="M70.9667 120.694C89.3252 118.768 81.2825 98.2741 75.4333 89.3989C70.9378 82.2466 65.0379 75.9558 58.0521 70.9607C56.4161 69.7952 54.0199 70.0124 52.6951 71.4458C51.5513 72.6837 51.5803 74.4138 52.6445 75.6228C57.5526 81.1462 61.0998 87.4733 63.1991 93.9668C64.3719 97.7891 65.3564 101.981 65.0306 105.767" fill="#C69C6D"/>
<path d="M70.9667 120.694C89.3252 118.768 81.2825 98.2741 75.4333 89.3989C70.9378 82.2466 65.0379 75.9558 58.0521 70.9607C56.4161 69.7952 54.0199 70.0124 52.6951 71.4458C51.5513 72.6837 51.5803 74.4138 52.6445 75.6228C57.5526 81.1462 61.0998 87.4733 63.1991 93.9668C64.3719 97.7891 65.3564 101.981 65.0306 105.767" stroke="#603813" stroke-width="6.63305" stroke-miterlimit="10" stroke-linecap="round"/>
<path d="M171.654 353.43V410.528C171.654 418.469 178.118 424.898 186.084 424.898C194.058 424.898 200.513 418.461 200.513 410.528V353.43" fill="#DECAAD"/>
<path d="M171.654 353.43V410.528C171.654 418.469 178.118 424.898 186.084 424.898C194.058 424.898 200.513 418.461 200.513 410.528V353.43" stroke="#603813" stroke-width="6.63305" stroke-miterlimit="10"/>
<path d="M80.1387 353.43V410.528C80.1387 418.469 86.6025 424.898 94.5683 424.898C102.542 424.898 108.998 418.461 108.998 410.528V353.43" fill="#DECAAD"/>
<path d="M80.1387 353.43V410.528C80.1387 418.469 86.6025 424.898 94.5683 424.898C102.542 424.898 108.998 418.461 108.998 410.528V353.43" stroke="#603813" stroke-width="6.63305" stroke-miterlimit="10"/>
<path d="M177.909 376.069H177.971H178.205C190.353 376.007 200.591 367.947 203.938 356.917C214.513 361.528 227.279 358.951 235.195 349.75C243.069 340.589 243.708 327.677 237.689 317.933C246.972 313.672 253.431 304.264 253.431 293.379C253.431 285.009 249.632 277.526 243.647 272.564C249.632 267.623 253.431 260.126 253.431 251.777C253.431 243.4 249.632 235.903 243.647 230.962C249.632 226.014 253.431 218.517 253.431 210.147C253.431 201.364 249.212 193.53 242.692 188.61C250.044 181.814 253.321 171.203 250.25 160.985C246.759 149.351 236.13 141.812 224.579 141.75C225.994 130.309 219.906 118.777 208.837 113.816C198.496 109.164 186.78 111.555 179.078 118.97C174.199 111.864 166.036 107.191 156.774 107.191C148.398 107.191 140.922 111.019 135.981 116.977C131.013 111.012 123.537 107.191 115.168 107.191C105.885 107.191 97.6809 111.885 92.8229 119.052C85.0584 111.658 73.2605 109.335 62.9399 114.091C51.9116 119.155 45.9267 130.728 47.4453 142.149C35.8947 142.334 25.3267 149.955 21.9392 161.631C18.964 171.829 22.2897 182.363 29.6213 189.07C23.1417 194.011 18.9434 201.797 18.9434 210.586C18.9434 218.956 22.75 226.433 28.728 231.374C22.7432 236.342 18.9434 243.819 18.9434 252.189C18.9434 260.566 22.75 268.043 28.728 273.004C22.7432 277.952 18.9434 285.429 18.9434 293.799C18.9434 304.766 25.4848 314.194 34.8503 318.434C28.886 328.241 29.6556 341.16 37.6125 350.258C45.6106 359.391 58.3843 361.844 68.911 357.151C72.3604 368.112 82.5985 376.069 94.685 376.069C103.054 376.069 110.537 372.242 115.498 366.263C120.438 372.248 127.914 376.069 136.284 376.069C144.66 376.069 152.156 372.242 157.097 366.263C162.044 372.248 169.54 376.069 177.909 376.069Z" fill="#FBF0D4"/>
<path opacity="0.1" d="M248.406 230.978C252.155 234.947 254.836 239.938 256.006 245.484V258.057C254.836 263.596 252.154 268.587 248.404 272.557C252.152 276.532 254.836 281.52 256.006 287.065V299.643C254.254 307.932 249.11 314.979 242.107 319.248C246.985 329.705 245.664 342.509 237.637 351.848V351.849C229.56 361.237 216.985 364.476 205.85 361.098C201.201 371.757 190.585 379.241 178.192 379.304H177.88C169.832 379.304 162.505 376.151 157.082 371.027C151.664 376.145 144.339 379.304 136.286 379.304C128.236 379.304 120.924 376.149 115.511 371.025C110.086 376.142 102.771 379.304 94.7188 379.304C82.3841 379.303 71.7767 371.921 67.043 361.346C55.9465 364.815 43.3564 361.698 35.1953 352.379L35.1934 352.377C27.0826 343.102 25.6313 330.292 30.4473 319.776C29.3411 319.111 28.2806 318.377 27.2715 317.58L30.6289 314.134C81.1325 337.498 225.429 364.986 239.858 230.983L248.673 230.688C248.584 230.784 248.496 230.882 248.406 230.978Z" fill="black"/>
<path d="M177.909 376.069H177.971H178.205C190.353 376.007 200.591 367.947 203.938 356.917C214.513 361.528 227.279 358.951 235.195 349.75C243.069 340.589 243.708 327.677 237.689 317.933C246.972 313.672 253.431 304.264 253.431 293.379C253.431 285.009 249.632 277.526 243.647 272.564C249.632 267.623 253.431 260.126 253.431 251.777C253.431 243.4 249.632 235.903 243.647 230.962C249.632 226.014 253.431 218.517 253.431 210.147C253.431 201.364 249.212 193.53 242.692 188.61C250.044 181.814 253.321 171.203 250.25 160.985C246.759 149.351 236.13 141.812 224.579 141.75C225.994 130.309 219.906 118.777 208.837 113.816C198.496 109.164 186.78 111.555 179.078 118.97C174.199 111.864 166.036 107.191 156.774 107.191C148.398 107.191 140.922 111.019 135.981 116.977C131.013 111.012 123.537 107.191 115.168 107.191C105.885 107.191 97.6809 111.885 92.8229 119.052C85.0584 111.658 73.2605 109.335 62.9399 114.091C51.9116 119.155 45.9267 130.728 47.4453 142.149C35.8947 142.334 25.3267 149.955 21.9392 161.631C18.964 171.829 22.2897 182.363 29.6213 189.07C23.1417 194.011 18.9434 201.797 18.9434 210.586C18.9434 218.956 22.75 226.433 28.728 231.374C22.7432 236.342 18.9434 243.819 18.9434 252.189C18.9434 260.566 22.75 268.043 28.728 273.004C22.7432 277.952 18.9434 285.429 18.9434 293.799C18.9434 304.766 25.4848 314.194 34.8503 318.434C28.886 328.241 29.6556 341.16 37.6125 350.258C45.6106 359.391 58.3843 361.844 68.911 357.151C72.3604 368.112 82.5985 376.069 94.685 376.069C103.054 376.069 110.537 372.242 115.498 366.263C120.438 372.248 127.914 376.069 136.284 376.069C144.66 376.069 152.156 372.242 157.097 366.263C162.044 372.248 169.54 376.069 177.909 376.069Z" stroke="#603813" stroke-width="6.63305" stroke-miterlimit="10"/>
<path d="M75.1917 227.254V274.739C75.1917 281.343 80.5444 286.689 87.1408 286.689C93.744 286.689 99.0898 281.336 99.0898 274.739V227.254" fill="#DECAAD"/>
<path d="M75.1917 227.254V274.739C75.1917 281.343 80.5444 286.689 87.1408 286.689C93.744 286.689 99.0898 281.336 99.0898 274.739V227.254" stroke="#603813" stroke-width="6.63305" stroke-miterlimit="10"/>
<path d="M106.782 220.639C107.053 218.827 105.803 217.139 103.992 216.869C102.18 216.598 100.492 217.847 100.222 219.659L103.502 220.149L106.782 220.639ZM72.3414 223.012C70.7107 222.177 68.7125 222.823 67.8784 224.454C67.0443 226.084 67.69 228.083 69.3207 228.917L70.831 225.964L72.3414 223.012ZM103.502 220.149L100.222 219.659C100.061 220.732 99.3931 221.955 97.8357 223.118L99.8207 225.775L101.806 228.432C104.437 226.466 106.308 223.807 106.782 220.639L103.502 220.149ZM99.8207 225.775L97.8357 223.118C96.2564 224.298 93.9311 225.274 90.9879 225.798L91.5692 229.063L92.1505 232.329C95.8294 231.674 99.1957 230.382 101.806 228.432L99.8207 225.775ZM91.5692 229.063L90.9879 225.798C88.0626 226.319 84.7665 226.348 81.4483 225.852L80.9582 229.133L80.4681 232.413C84.4306 233.005 88.4536 232.987 92.1505 232.329L91.5692 229.063ZM80.9582 229.133L81.4483 225.852C78.1302 225.357 74.9866 224.365 72.3414 223.012L70.831 225.964L69.3207 228.917C72.6637 230.627 76.5057 231.821 80.4681 232.413L80.9582 229.133Z" fill="#603813"/>
<path d="M197.082 227.254V274.739C197.082 281.343 191.729 286.689 185.133 286.689C178.529 286.689 173.184 281.336 173.184 274.739V227.254" fill="#DECAAD"/>
<path d="M197.082 227.254V274.739C197.082 281.343 191.729 286.689 185.133 286.689C178.529 286.689 173.184 281.336 173.184 274.739V227.254" stroke="#603813" stroke-width="6.63305" stroke-miterlimit="10"/>
<path d="M165.49 220.639C165.219 218.827 166.468 217.139 168.28 216.869C170.091 216.598 171.779 217.847 172.05 219.659L168.77 220.149L165.49 220.639ZM199.93 223.012C201.561 222.177 203.559 222.823 204.393 224.454C205.227 226.084 204.581 228.083 202.951 228.917L201.44 225.964L199.93 223.012ZM168.77 220.149L172.05 219.659C172.21 220.732 172.878 221.955 174.436 223.118L172.451 225.775L170.466 228.432C167.834 226.466 165.963 223.807 165.49 220.639L168.77 220.149ZM172.451 225.775L174.436 223.118C176.015 224.298 178.34 225.274 181.284 225.798L180.702 229.063L180.121 232.329C176.442 231.674 173.076 230.382 170.466 228.432L172.451 225.775ZM180.702 229.063L181.284 225.798C184.209 226.319 187.505 226.348 190.823 225.852L191.313 229.133L191.803 232.413C187.841 233.005 183.818 232.987 180.121 232.329L180.702 229.063ZM191.313 229.133L190.823 225.852C194.141 225.357 197.285 224.365 199.93 223.012L201.44 225.964L202.951 228.917C199.608 230.627 195.766 231.821 191.803 232.413L191.313 229.133Z" fill="#603813"/>
<path d="M8.43225 134.908C8.43225 123.077 27.2132 102.013 44.402 102.013L223.561 96.1992C245.081 96.1992 253.86 115.701 260.074 125.937C266.288 136.172 266.066 148.619 266.209 176.844C266.352 205.068 260.074 252.505 260.074 252.505C260.074 252.505 256.073 291.11 256.073 315.923C256.073 326.707 256.829 340.094 257.683 351.786V351.787C258.583 364.103 259.033 370.261 255.803 373.781C255.484 374.129 255.185 374.417 254.826 374.723C251.19 377.821 245.009 377.14 232.646 375.778C219.416 374.32 204.055 373.043 192.979 373.381C169.26 374.107 157.981 378.956 134.253 379.341C110.525 379.727 96.6563 373.381 71.3426 373.381C60.5405 373.381 47.5016 374.467 36.102 375.711C23.6114 377.074 17.3661 377.756 13.7361 374.668C13.3751 374.361 13.0812 374.079 12.7604 373.73C9.53483 370.222 9.97211 363.994 10.8467 351.539C11.6307 340.373 12.3028 327.442 12.3028 315.923C12.3028 288.28 8.43225 252.718 8.43225 252.718C8.43225 252.718 2.66602 216.633 2.66602 176.844C2.66602 137.054 8.43225 146.739 8.43225 134.908Z" fill="#FFF47B" stroke="#9B9444" stroke-width="5.33175" stroke-miterlimit="10" stroke-linejoin="round"/>
<path d="M100.603 198.304C100.825 196.849 99.8244 195.496 98.3677 195.283C96.911 195.07 95.5501 196.077 95.3279 197.533L97.9655 197.918L100.603 198.304ZM62.7128 201.89C61.3988 201.232 59.793 201.765 59.126 203.081C58.459 204.396 58.9835 205.996 60.2974 206.654L61.5051 204.272L62.7128 201.89ZM97.9655 197.918L95.3279 197.533C95.1056 198.989 94.1919 200.528 92.2889 201.92L93.8574 204.065L95.426 206.21C98.1982 204.183 100.118 201.482 100.603 198.304L97.9655 197.918ZM93.8574 204.065L92.2889 201.92C90.3686 203.325 87.6102 204.441 84.2051 205.034L84.6488 207.658L85.0925 210.281C89.0777 209.587 92.6712 208.225 95.426 206.21L93.8574 204.065ZM84.6488 207.658L84.2051 205.034C80.8155 205.625 77.0182 205.655 73.2092 205.098L72.807 207.733L72.4048 210.369C76.7209 211 81.0919 210.978 85.0925 210.281L84.6488 207.658ZM72.807 207.733L73.2092 205.098C69.4002 204.541 65.778 203.425 62.7128 201.89L61.5051 204.272L60.2974 206.654C63.9152 208.466 68.0887 209.737 72.4048 210.369L72.807 207.733Z" fill="#9B9444"/>
<path d="M168.166 198.304C167.944 196.849 168.945 195.496 170.402 195.283C171.859 195.07 173.219 196.077 173.442 197.533L170.804 197.918L168.166 198.304ZM206.057 201.89C207.371 201.232 208.977 201.765 209.644 203.081C210.311 204.396 209.786 205.996 208.472 206.654L207.264 204.272L206.057 201.89ZM170.804 197.918L173.442 197.533C173.664 198.989 174.578 200.528 176.481 201.92L174.912 204.065L173.344 206.21C170.571 204.183 168.651 201.482 168.166 198.304L170.804 197.918ZM174.912 204.065L176.481 201.92C178.401 203.324 181.159 204.441 184.564 205.034L184.121 207.658L183.677 210.281C179.692 209.587 176.098 208.225 173.344 206.21L174.912 204.065ZM184.121 207.658L184.564 205.034C187.954 205.625 191.751 205.655 195.56 205.098L195.963 207.733L196.365 210.369C192.049 211 187.678 210.978 183.677 210.281L184.121 207.658ZM195.963 207.733L195.56 205.098C199.369 204.541 202.992 203.425 206.057 201.89L207.264 204.272L208.472 206.654C204.854 208.465 200.681 209.737 196.365 210.369L195.963 207.733Z" fill="#9B9444"/>
<path d="M133.314 198.489L134.41 196.059C133.333 198.448 133.314 198.488 133.312 198.488C133.312 198.488 133.311 198.487 133.31 198.486C133.307 198.485 133.304 198.484 133.301 198.482C133.294 198.479 133.284 198.475 133.271 198.47C133.247 198.459 133.212 198.443 133.167 198.422C133.077 198.38 132.947 198.319 132.778 198.239C132.441 198.079 131.949 197.842 131.318 197.527C130.058 196.898 128.241 195.96 125.991 194.706C121.493 192.2 115.252 188.431 108.249 183.366C94.2612 173.251 77.1254 157.89 64.7979 136.986L64.7988 136.986C59.2775 127.766 55.6335 115.559 53.3643 104.384C51.0886 93.1771 50.1407 82.7348 50.1406 76.9014C50.1406 31.2867 91.9544 2.66796 133.935 2.66796C154.817 2.66803 174.782 7.6011 189.58 19.4785C204.475 31.4338 213.785 50.1453 213.785 76.9004C213.786 82.5347 213.5 92.9333 211.867 104.186C210.25 115.332 207.274 127.597 201.746 136.883C191.79 157.869 175.191 173.258 161.197 183.367C154.173 188.442 147.764 192.216 143.104 194.725C140.772 195.979 138.875 196.92 137.555 197.549C136.894 197.864 136.377 198.101 136.021 198.261C135.844 198.341 135.706 198.402 135.611 198.443C135.564 198.464 135.527 198.48 135.501 198.491C135.488 198.497 135.478 198.502 135.471 198.505C135.467 198.506 135.464 198.508 135.462 198.509C135.461 198.509 135.46 198.509 135.459 198.51C135.458 198.51 135.457 198.51 134.544 196.371L135.457 198.511L134.381 198.97L133.314 198.489ZM133.302 169.089C134.336 168.323 135.82 167.213 137.629 165.836C141.269 163.065 146.215 159.212 151.446 154.881C156.682 150.546 162.178 145.752 166.926 141.1C171.711 136.41 175.593 132.002 177.733 128.43C186.672 113.513 189.309 101.65 189.324 92.584C188.062 73.6696 182.592 61.4656 173.609 53.9102C164.555 46.2943 151.431 42.9707 133.935 42.9707C116.258 42.9707 102.8 45.2952 93.7344 52.3799C84.8337 59.336 79.5596 71.4003 79.5596 92.498C79.5596 101.665 82.3279 113.449 91.3047 128.43C93.435 131.985 97.1688 136.385 101.711 141.065C106.222 145.713 111.408 150.515 116.334 154.862C121.256 159.207 125.897 163.079 129.308 165.865C130.968 167.222 132.337 168.32 133.302 169.089Z" fill="#FFF47B" stroke="#9B9444" stroke-width="5.33175"/>
<path d="M46.9807 336.406L84.8658 314.992L89.9077 323.542L96.2862 334.358L81.6895 352.434L58.4011 355.772L52.0226 344.956L46.9807 336.406Z" fill="#FFF47B"/>
<path d="M46.9807 336.406L46.2675 335.197L45.0453 335.888L45.7585 337.097L46.9807 336.406ZM84.8658 314.992L86.0881 314.301L85.3749 313.092L84.1526 313.783L84.8658 314.992ZM96.2862 334.358L97.3972 335.23L97.9944 334.491L97.5085 333.667L96.2862 334.358ZM58.4011 355.772L57.1789 356.463L57.6648 357.286L58.6176 357.15L58.4011 355.772ZM81.6895 352.434L81.906 353.812L82.4558 353.733L82.8005 353.307L81.6895 352.434ZM52.0226 344.956L50.8003 345.647L50.8004 345.647L52.0226 344.956ZM46.9807 336.406L47.6939 337.615L85.579 316.202L84.8658 314.992L84.1526 313.783L46.2675 335.197L46.9807 336.406ZM96.2862 334.358L95.1753 333.485L80.5785 351.561L81.6895 352.434L82.8005 353.307L97.3972 335.23L96.2862 334.358ZM81.6895 352.434L81.473 351.056L58.1846 354.393L58.4011 355.772L58.6176 357.15L81.906 353.812L81.6895 352.434ZM84.8658 314.992L83.6436 315.683L88.6854 324.233L89.9077 323.542L91.13 322.851L86.0881 314.301L84.8658 314.992ZM89.9077 323.542L88.6854 324.233L95.064 335.049L96.2862 334.358L97.5085 333.667L91.1299 322.851L89.9077 323.542ZM58.4011 355.772L59.6234 355.081L53.2448 344.265L52.0226 344.956L50.8004 345.647L57.1789 356.463L58.4011 355.772ZM52.0226 344.956L53.2449 344.265L48.203 335.715L46.9807 336.406L45.7585 337.097L50.8003 345.647L52.0226 344.956ZM89.9077 323.542L89.1945 322.333L51.3094 343.747L52.0226 344.956L52.7358 346.166L90.6209 324.752L89.9077 323.542Z" fill="#9B9444"/>
<path d="M232.134 336.406L194.249 314.992L189.208 323.542L182.829 334.358L197.426 352.434L220.714 355.772L227.093 344.956L232.134 336.406Z" fill="#FFF47B"/>
<path d="M232.134 336.406L232.848 335.197L234.07 335.888L233.357 337.097L232.134 336.406ZM194.249 314.992L193.027 314.301L193.74 313.092L194.963 313.783L194.249 314.992ZM182.829 334.358L181.718 335.23L181.121 334.491L181.607 333.667L182.829 334.358ZM220.714 355.772L221.936 356.463L221.45 357.286L220.498 357.15L220.714 355.772ZM197.426 352.434L197.209 353.812L196.659 353.733L196.315 353.307L197.426 352.434ZM227.093 344.956L228.315 345.647L228.315 345.647L227.093 344.956ZM232.134 336.406L231.421 337.615L193.536 316.202L194.249 314.992L194.963 313.783L232.848 335.197L232.134 336.406ZM182.829 334.358L183.94 333.485L198.537 351.561L197.426 352.434L196.315 353.307L181.718 335.23L182.829 334.358ZM197.426 352.434L197.642 351.056L220.931 354.393L220.714 355.772L220.498 357.15L197.209 353.812L197.426 352.434ZM194.249 314.992L195.472 315.683L190.43 324.233L189.208 323.542L187.985 322.851L193.027 314.301L194.249 314.992ZM189.208 323.542L190.43 324.233L184.051 335.049L182.829 334.358L181.607 333.667L187.985 322.851L189.208 323.542ZM220.714 355.772L219.492 355.081L225.87 344.265L227.093 344.956L228.315 345.647L221.936 356.463L220.714 355.772ZM227.093 344.956L225.87 344.265L230.912 335.715L232.134 336.406L233.357 337.097L228.315 345.647L227.093 344.956ZM189.208 323.542L189.921 322.333L227.806 343.747L227.093 344.956L226.379 346.166L188.494 324.752L189.208 323.542Z" fill="#9B9444"/>
<path d="M140.795 208.008L140.795 389.332" stroke="#9B9444" stroke-width="3.57379" stroke-linecap="round"/>
<path d="M126.245 232.547C130.767 232.547 134.432 236.135 134.432 240.561C134.432 244.986 130.767 248.574 126.245 248.574C121.723 248.574 118.059 244.986 118.059 240.561C118.059 236.135 121.723 232.547 126.245 232.547Z" fill="#1A1A1A" stroke="#9B9444" stroke-width="0.0850901"/>
<path d="M126.245 272.152C130.767 272.153 134.432 275.741 134.432 280.166C134.432 284.591 130.767 288.179 126.245 288.18C121.723 288.18 118.059 284.591 118.059 280.166C118.059 275.741 121.723 272.152 126.245 272.152Z" fill="#1A1A1A" stroke="#9B9444" stroke-width="0.0850901"/>
<path d="M126.245 311.777C130.767 311.778 134.432 315.366 134.432 319.791C134.432 324.216 130.767 327.804 126.245 327.805C121.723 327.805 118.059 324.216 118.059 319.791C118.059 315.366 121.723 311.777 126.245 311.777Z" fill="#1A1A1A" stroke="#9B9444" stroke-width="0.0850901"/>
<path d="M126.245 351.371C130.767 351.371 134.432 354.96 134.432 359.385C134.432 363.81 130.767 367.398 126.245 367.398C121.723 367.398 118.059 363.81 118.059 359.385C118.059 354.96 121.723 351.371 126.245 351.371Z" fill="#1A1A1A" stroke="#9B9444" stroke-width="0.0850901"/>
<path d="M201.236 209.668V257.153C201.236 263.756 195.884 269.103 189.287 269.103C182.684 269.103 177.338 263.75 177.338 257.153V209.668" fill="#DECAAD"/>
<path d="M201.236 209.668V257.153C201.236 263.756 195.884 269.103 189.287 269.103C182.684 269.103 177.338 263.75 177.338 257.153V209.668" stroke="#603813" stroke-width="6.63305" stroke-miterlimit="10"/>
<path d="M169.65 203.061C169.379 201.249 170.628 199.561 172.44 199.29C174.251 199.02 175.939 200.269 176.21 202.08L172.93 202.571L169.65 203.061ZM204.09 205.433C205.721 204.599 207.719 205.245 208.553 206.876C209.387 208.506 208.742 210.504 207.111 211.339L205.601 208.386L204.09 205.433ZM172.93 202.571L176.21 202.08C176.37 203.154 177.038 204.376 178.596 205.54L176.611 208.197L174.626 210.854C171.994 208.888 170.123 206.229 169.65 203.061L172.93 202.571ZM176.611 208.197L178.596 205.54C180.175 206.72 182.5 207.696 185.444 208.22L184.862 211.485L184.281 214.75C180.602 214.095 177.236 212.804 174.626 210.854L176.611 208.197ZM184.862 211.485L185.444 208.22C188.369 208.741 191.665 208.77 194.983 208.274L195.473 211.554L195.963 214.834C192.001 215.427 187.978 215.408 184.281 214.75L184.862 211.485ZM195.473 211.554L194.983 208.274C198.301 207.778 201.445 206.787 204.09 205.433L205.601 208.386L207.111 211.339C203.768 213.049 199.926 214.242 195.963 214.834L195.473 211.554Z" fill="#603813"/>
<path d="M95.0979 197.655L64.202 161.599C59.9052 156.584 52.3621 156.008 47.3532 160.3C42.3391 164.598 41.7629 172.141 46.0552 177.151L76.9512 213.207" fill="#DECAAD"/>
<path d="M95.0979 197.655L92.5797 199.813L61.6837 163.757L64.202 161.599L66.7202 159.44L97.6162 195.497L95.0979 197.655ZM64.202 161.599L61.6837 163.757C58.5795 160.134 53.1302 159.717 49.5112 162.819L47.3532 160.3L45.1952 157.782C51.594 152.298 61.2308 153.034 66.7202 159.44L64.202 161.599ZM47.3532 160.3L49.5112 162.819C45.8888 165.923 45.4721 171.373 48.5735 174.992L46.0552 177.151L43.537 179.309C38.0537 172.91 38.7894 163.272 45.1952 157.782L47.3532 160.3ZM46.0552 177.151L48.5735 174.992L79.4694 211.049L76.9512 213.207L74.4329 215.365L43.537 179.309L46.0552 177.151Z" fill="#603813"/>
<path d="M75.4219 223.245C76.3951 224.797 78.4419 225.266 79.9935 224.293C81.5452 223.32 82.0141 221.273 81.0409 219.721L78.2314 221.483L75.4219 223.245ZM100.03 199.031C101.811 198.604 102.908 196.813 102.48 195.032C102.053 193.251 100.262 192.154 98.4812 192.581L99.2557 195.806L100.03 199.031ZM78.2314 221.483L81.0409 219.721C80.4642 218.801 80.1762 217.438 80.6018 215.541L77.3658 214.815L74.1299 214.089C73.4108 217.295 73.7198 220.531 75.4219 223.245L78.2314 221.483ZM77.3658 214.815L80.6018 215.541C81.0333 213.618 82.1638 211.363 84.0578 209.05L81.492 206.949L78.9261 204.847C76.5587 207.739 74.8431 210.91 74.1299 214.089L77.3658 214.815ZM81.492 206.949L84.0578 209.05C85.9403 206.751 88.424 204.583 91.2663 202.801L89.5042 199.991L87.7421 197.181C84.348 199.31 81.3051 201.942 78.9261 204.847L81.492 206.949ZM89.5042 199.991L91.2663 202.801C94.1086 201.018 97.141 199.725 100.03 199.031L99.2557 195.806L98.4812 192.581C94.8301 193.458 91.1361 195.052 87.7421 197.181L89.5042 199.991Z" fill="#603813"/>
<path d="M176.968 96.374C182.725 96.374 187.392 90.2794 187.392 82.7612C187.392 75.2431 182.725 69.1484 176.968 69.1484C171.212 69.1484 166.545 75.2431 166.545 82.7612C166.545 90.2794 171.212 96.374 176.968 96.374Z" fill="#D9AD7A" stroke="#603813" stroke-width="6.63305" stroke-miterlimit="10" stroke-linecap="round"/>
<path d="M94.7123 96.374C100.469 96.374 105.136 90.2794 105.136 82.7612C105.136 75.2431 100.469 69.1484 94.7123 69.1484C88.9557 69.1484 84.2891 75.2431 84.2891 82.7612C84.2891 90.2794 88.9557 96.374 94.7123 96.374Z" fill="#D9AD7A" stroke="#603813" stroke-width="6.63305" stroke-miterlimit="10" stroke-linecap="round"/>
<path d="M143.448 73.8115C144.245 61.174 150.739 47.3958 163.567 40.2283C178.746 31.1849 203.819 35.686 211.577 50.4675C214.607 55.9032 215.541 61.4351 215.899 67.2144C216.27 72.0729 216.366 76.9657 216.084 81.9684C215.239 92.8742 213.054 112.899 196.694 114.053C191.712 114.053 187.678 110.501 187.678 106.116C187.678 101.732 191.719 98.1793 196.694 98.1793C196.192 98.1381 195.649 98.2068 195.175 98.3717C194.77 98.4954 194.57 98.5229 194.295 98.6809C193.911 98.9489 193.876 98.8596 193.746 99.0383C193.78 98.9833 194.124 98.6603 194.453 98.1106C199.16 88.483 200.452 74.8148 195.024 65.572C187.781 53.23 172.301 60.26 174.781 73.8183C175.908 81.4255 169.82 88.4005 161.169 89.397C151.034 90.6889 146.107 82.6969 147.489 73.8183H143.441L143.448 73.8115Z" fill="#C69C6D" stroke="#603813" stroke-width="6.63305" stroke-miterlimit="10" stroke-linecap="round"/>
<path d="M203.492 53.6602C194.035 53.6602 185.668 58.5613 180.481 66.0908C179.222 67.9229 179.222 70.4739 180.481 72.3061C185.668 79.8433 194.035 84.7367 203.492 84.7367C212.95 84.7367 221.316 79.8356 226.503 72.3061C227.762 70.4739 227.762 67.9229 226.503 66.0908C221.316 58.5536 212.95 53.6602 203.492 53.6602Z" fill="#DECAAD" stroke="#603813" stroke-width="6.63305" stroke-miterlimit="10"/>
<path d="M128.231 73.8115C127.434 61.174 120.94 47.3958 108.112 40.2284C92.9333 31.1849 67.8601 35.686 60.1025 50.4675C57.0723 55.9032 56.1378 61.4351 55.7805 67.2144C55.4094 72.0729 55.3132 76.9657 55.5949 81.9684C56.4401 92.8742 58.6252 112.899 74.9856 114.053C79.9672 114.053 84.0006 110.501 84.0006 106.116C84.0006 101.732 79.9604 98.1793 74.9856 98.1793C75.4872 98.1381 76.03 98.2068 76.5041 98.3717C76.9095 98.4954 77.1088 98.5229 77.3836 98.681C77.7684 98.949 77.8028 98.8596 77.9333 99.0383C77.899 98.9833 77.5554 98.6603 77.2256 98.1106C72.5188 88.483 71.227 74.8148 76.6553 65.572C83.8976 53.23 99.3785 60.26 96.898 73.8183C95.7711 81.4255 101.859 88.4006 110.51 89.397C120.645 90.6889 125.572 82.6969 124.191 73.8183H128.238L128.231 73.8115Z" fill="#C69C6D" stroke="#603813" stroke-width="6.63305" stroke-miterlimit="10" stroke-linecap="round"/>
<path d="M68.2396 53.6602C77.7216 53.6602 86.1096 58.5613 91.3101 66.0908C92.5719 67.9229 92.5719 70.4739 91.3101 72.3061C86.1096 79.8433 77.7216 84.7367 68.2396 84.7367C58.7575 84.7367 50.3696 79.8356 45.169 72.3061C43.9072 70.4739 43.9072 67.9229 45.169 66.0908C50.3696 58.5536 58.7575 53.6602 68.2396 53.6602Z" fill="#DECAAD" stroke="#603813" stroke-width="6.63305" stroke-miterlimit="10"/>
<path d="M145.121 160.492H126.555C113.493 160.492 102.465 150.789 100.802 137.835L91.2578 63.5977H180.426L170.882 137.835C169.219 150.789 158.184 160.492 145.128 160.492H145.121Z" fill="#DECAAD" stroke="#603813" stroke-width="6.63305" stroke-miterlimit="10"/>
<path d="M178.804 46.1844C177.285 46.1844 175.836 46.4455 174.482 46.9128C171.953 40.2058 165.488 35.4229 157.895 35.4229C155.346 35.4229 152.927 35.9727 150.735 36.9416C146.812 33.3407 141.589 31.1211 135.845 31.1211C130.101 31.1211 124.879 33.3407 120.955 36.9416C118.763 35.9727 116.344 35.4229 113.795 35.4229C106.202 35.4229 99.7367 40.2058 97.208 46.9128C95.8475 46.4455 94.3977 46.1844 92.886 46.1844C85.5063 46.1844 79.5215 52.1698 79.5215 59.5502C79.5215 66.9307 85.5063 72.9161 92.886 72.9161C97.2287 72.9161 101.083 70.8339 103.523 67.6179C106.422 69.6863 109.968 70.9164 113.802 70.9164C116.351 70.9164 118.77 70.3667 120.962 69.3977C124.885 72.9986 130.108 75.2182 135.852 75.2182C141.596 75.2182 146.818 72.9986 150.742 69.3977C152.934 70.3667 155.352 70.9164 157.902 70.9164C161.736 70.9164 165.275 69.6863 168.181 67.6179C170.62 70.8339 174.468 72.9161 178.818 72.9161C186.197 72.9161 192.182 66.9307 192.182 59.5502C192.182 52.1698 186.197 46.1844 178.818 46.1844H178.804Z" fill="#D9AD7A" stroke="#603813" stroke-width="6.63305" stroke-miterlimit="10" stroke-linecap="round" stroke-linejoin="round"/>
<path d="M181.777 98.8083C181.912 95.9324 181.101 93.2976 179.697 91.401C173.312 84.385 166.97 93.4319 166.711 98.9636C166.589 101.542 168.076 104.864 168.076 104.864C164.066 106.934 161.517 111.56 161.262 116.975C161.002 122.5 165.738 124.86 169.586 125.041C176.821 125.381 181.129 121.025 181.389 115.493C181.558 111.892 180.92 108.538 178.814 106.673C180.868 104.952 181.618 102.189 181.777 98.8083Z" fill="#D9AD7A" stroke="#603813" stroke-width="6.63305" stroke-miterlimit="10" stroke-linecap="round" stroke-linejoin="round"/>
<path d="M89.9867 98.8083C89.8515 95.9324 90.6624 93.2976 92.0662 91.401C98.4517 84.385 104.793 93.4319 105.053 98.9636C105.174 101.542 103.688 104.864 103.688 104.864C107.698 106.934 110.247 111.56 110.502 116.975C110.761 122.5 106.026 124.86 102.178 125.041C94.9432 125.381 90.6347 121.025 90.3748 115.493C90.2055 111.892 90.8436 108.538 92.95 106.673C90.8958 104.952 90.1455 102.189 89.9867 98.8083Z" fill="#D9AD7A" stroke="#603813" stroke-width="6.63305" stroke-miterlimit="10" stroke-linecap="round" stroke-linejoin="round"/>
<path d="M118.779 91.4255C118.779 94.4078 117.323 95.7684 115.522 95.7684C113.722 95.7684 112.266 94.4078 112.266 91.4255C112.266 88.4432 113.722 86.0312 115.522 86.0312C117.323 86.0312 118.779 88.4501 118.779 91.4255Z" fill="black" stroke="black" stroke-width="6.63305" stroke-miterlimit="10" stroke-linecap="round"/>
<path d="M152.912 91.4216C152.912 94.4039 154.369 95.7645 156.169 95.7645C157.969 95.7645 159.426 94.4039 159.426 91.4216C159.426 88.4393 157.969 86.0273 156.169 86.0273C154.369 86.0273 152.912 88.4462 152.912 91.4216Z" fill="black" stroke="black" stroke-width="6.63305" stroke-miterlimit="10" stroke-linecap="round"/>
<path d="M136.902 119.101C135.94 120.097 134.36 120.097 133.398 119.101C127.846 113.349 122.377 113.384 122.377 117.61C122.377 122.283 128.101 126.062 135.15 126.062C142.2 126.062 147.93 122.276 147.93 117.61C147.93 113.384 142.461 113.349 136.902 119.101Z" fill="black" stroke="black" stroke-width="6.63305" stroke-miterlimit="10" stroke-linecap="round"/>
<path d="M135.072 128.691L135.072 143.122" stroke="black" stroke-width="6.63305" stroke-miterlimit="10" stroke-linecap="round"/>
<path d="M124.467 141.236C127.449 143.593 133.564 144.301 140.14 142.72C146.716 141.139 151.842 137.738 153.429 134.281" stroke="black" stroke-width="9.47951" stroke-miterlimit="10" stroke-linecap="round"/>
<path d="M201.637 99.877C201.328 96.2761 202.269 92.2972 203.376 88.6757C205.368 82.5116 208.735 76.5056 213.394 71.2623C214.404 70.1215 214.431 68.4723 213.346 67.2972C212.088 65.9365 209.807 65.7304 208.261 66.8368C201.63 71.5853 196.03 77.5501 191.763 84.3396C186.211 92.7645 178.577 112.212 196.003 114.047" fill="#C69C6D"/>
<path d="M201.637 99.877C201.328 96.2761 202.269 92.2972 203.376 88.6757C205.368 82.5116 208.735 76.5056 213.394 71.2623C214.404 70.1215 214.431 68.4723 213.346 67.2972C212.088 65.9365 209.807 65.7304 208.261 66.8368C201.63 71.5853 196.03 77.5501 191.763 84.3396C186.211 92.7645 178.577 112.212 196.003 114.047" stroke="#603813" stroke-width="6.63305" stroke-miterlimit="10" stroke-linecap="round"/>
<path d="M75.6803 114.047C93.1058 112.219 85.4718 92.7645 79.9199 84.3396C75.6528 77.5501 70.0528 71.5784 63.422 66.8368C61.8691 65.7304 59.5947 65.9365 58.3373 67.2972C57.2517 68.4723 57.2791 70.1147 58.2892 71.2623C62.9479 76.5056 66.3148 82.5116 68.3075 88.6757C69.4206 92.3041 70.3551 96.283 70.0459 99.877" fill="#C69C6D"/>
<path d="M75.6803 114.047C93.1058 112.219 85.4718 92.7645 79.9199 84.3396C75.6528 77.5501 70.0528 71.5784 63.422 66.8368C61.8691 65.7304 59.5947 65.9365 58.3373 67.2972C57.2517 68.4723 57.2791 70.1147 58.2892 71.2623C62.9479 76.5056 66.3148 82.5116 68.3075 88.6757C69.4206 92.3041 70.3551 96.283 70.0459 99.877" stroke="#603813" stroke-width="6.63305" stroke-miterlimit="10" stroke-linecap="round"/>
</svg>
