<svg width="322" height="497" viewBox="0 0 322 497" fill="none" xmlns="http://www.w3.org/2000/svg">
<path d="M198.9 386.238V462.873C198.9 473.531 207.577 482.159 218.269 482.159C228.972 482.159 237.638 473.52 237.638 462.873V386.238" fill="#DECAAD"/>
<path d="M198.9 386.238V462.873C198.9 473.531 207.577 482.159 218.269 482.159C228.972 482.159 237.638 473.52 237.638 462.873V386.238" stroke="#603813" stroke-width="6.63305" stroke-miterlimit="10"/>
<path d="M85.457 386.238V462.873C85.457 473.531 94.1333 482.159 104.826 482.159C115.529 482.159 124.194 473.52 124.194 462.873V386.238" fill="#DECAAD"/>
<path d="M85.457 386.238V462.873C85.457 473.531 94.1333 482.159 104.826 482.159C115.529 482.159 124.194 473.52 124.194 462.873V386.238" stroke="#603813" stroke-width="6.63305" stroke-miterlimit="10"/>
<path d="M216.694 416.64H216.777H217.09C233.397 416.557 247.139 405.738 251.631 390.935C265.826 397.124 282.962 393.665 293.587 381.315C304.157 369.021 305.015 351.691 296.935 338.612C309.396 332.894 318.065 320.267 318.065 305.658C318.065 294.424 312.965 284.38 304.932 277.721C312.965 271.089 318.065 261.027 318.065 249.821C318.065 238.578 312.965 228.515 304.932 221.884C312.965 215.243 318.065 205.181 318.065 193.947C318.065 182.16 312.402 171.645 303.65 165.042C313.518 155.92 317.918 141.679 313.795 127.964C309.11 112.35 294.842 102.232 279.337 102.149C281.237 86.7923 273.066 71.3159 258.207 64.6567C244.326 58.4127 228.601 61.6223 218.262 71.5741C211.713 62.0374 200.756 55.7656 188.323 55.7656C177.08 55.7656 167.046 60.9029 160.414 68.8994C153.746 60.8937 143.711 55.7656 132.477 55.7656C120.017 55.7656 109.004 62.065 102.484 71.6848C92.0615 61.7607 76.2254 58.6433 62.3722 65.0257C47.5691 71.8231 39.5357 87.3549 41.574 102.684C26.0699 102.933 11.8847 113.161 7.3377 128.831C3.34408 142.519 7.80809 156.658 17.6492 165.66C8.95175 172.291 3.31641 182.741 3.31641 194.537C3.31641 205.771 8.42603 215.806 16.4502 222.437C8.41681 229.106 3.31641 239.14 3.31641 250.374C3.31641 261.617 8.42603 271.652 16.4502 278.311C8.41681 284.952 3.31641 294.987 3.31641 306.22C3.31641 320.941 12.0968 333.595 24.668 339.285C16.6623 352.447 17.6953 369.786 28.3757 381.998C39.1114 394.256 56.2573 397.548 70.3871 391.249C75.0171 405.96 88.7596 416.64 104.983 416.64C116.217 416.64 126.261 411.503 132.92 403.479C139.551 411.512 149.586 416.64 160.82 416.64C172.063 416.64 182.126 411.503 188.757 403.479C195.398 411.512 205.46 416.64 216.694 416.64Z" fill="#FBF0D4"/>
<path opacity="0.1" d="M309.739 221.896C316.868 229.039 321.265 238.921 321.266 249.814C321.266 260.678 316.866 270.557 309.737 277.699C316.864 284.856 321.265 294.722 321.266 305.613C321.266 320.281 313.255 333.109 301.391 339.923C308.276 353.732 306.714 370.922 296.004 383.381L296.003 383.382C285.228 395.906 268.318 400.042 253.553 395.139C247.711 409.546 233.601 419.751 217.067 419.835H216.654C205.763 419.835 195.884 415.412 188.738 408.281C181.6 415.405 171.722 419.835 160.823 419.835C149.93 419.835 140.072 415.41 132.938 408.279C125.787 415.401 115.924 419.835 105.028 419.835C88.5738 419.835 74.4727 409.766 68.5117 395.467C53.8011 400.49 36.872 396.518 25.9844 384.086L25.9834 384.084C15.1611 371.709 13.4247 354.511 20.2295 340.623C18.4997 339.643 16.8511 338.535 15.2949 337.314L18.998 333.513C86.7883 364.871 280.474 401.764 299.843 221.912L310.056 221.57C309.95 221.679 309.846 221.788 309.739 221.896Z" fill="black"/>
<path d="M216.694 416.64H216.777H217.09C233.397 416.557 247.139 405.738 251.631 390.935C265.826 397.124 282.962 393.665 293.587 381.315C304.157 369.021 305.015 351.691 296.935 338.612C309.396 332.894 318.065 320.267 318.065 305.658C318.065 294.424 312.965 284.38 304.932 277.721C312.965 271.089 318.065 261.027 318.065 249.821C318.065 238.578 312.965 228.515 304.932 221.884C312.965 215.243 318.065 205.181 318.065 193.947C318.065 182.16 312.402 171.645 303.65 165.042C313.518 155.92 317.918 141.679 313.795 127.964C309.11 112.35 294.842 102.232 279.337 102.149C281.237 86.7923 273.066 71.3159 258.207 64.6567C244.326 58.4127 228.601 61.6223 218.262 71.5741C211.713 62.0374 200.756 55.7656 188.323 55.7656C177.08 55.7656 167.046 60.9029 160.414 68.8994C153.746 60.8937 143.711 55.7656 132.477 55.7656C120.017 55.7656 109.004 62.065 102.484 71.6848C92.0615 61.7607 76.2254 58.6433 62.3722 65.0257C47.5691 71.8231 39.5357 87.3549 41.574 102.684C26.0699 102.933 11.8847 113.161 7.3377 128.831C3.34408 142.519 7.80809 156.658 17.6492 165.66C8.95176 172.291 3.31641 182.741 3.31641 194.537C3.31641 205.771 8.42603 215.806 16.4502 222.437C8.41681 229.106 3.31641 239.14 3.31641 250.374C3.31641 261.617 8.42603 271.652 16.4502 278.311C8.41681 284.952 3.31641 294.987 3.31641 306.22C3.31641 320.941 12.0968 333.595 24.668 339.285C16.6623 352.447 17.6953 369.786 28.3757 381.998C39.1114 394.255 56.2573 397.548 70.3871 391.249C75.0171 405.96 88.7596 416.64 104.983 416.64C116.217 416.64 126.261 411.503 132.92 403.479C139.551 411.512 149.586 416.64 160.82 416.64C172.063 416.64 182.126 411.503 188.757 403.479C195.398 411.512 205.46 416.64 216.694 416.64Z" stroke="#603813" stroke-width="6.63305" stroke-miterlimit="10"/>
<path d="M78.8184 216.902V280.634C78.8184 289.498 86.0032 296.673 94.8574 296.673C103.721 296.673 110.896 289.489 110.896 280.634V216.902" fill="#DECAAD"/>
<path d="M78.8184 216.902V280.634C78.8184 289.498 86.0032 296.673 94.8574 296.673C103.721 296.673 110.896 289.489 110.896 280.634V216.902" stroke="#603813" stroke-width="6.63305" stroke-miterlimit="10"/>
<path d="M116.817 207.364C116.392 210.211 114.688 212.815 111.876 214.916C109.065 217.016 105.245 218.538 100.8 219.329C96.3559 220.12 91.4437 220.152 86.5574 219.422C81.6711 218.692 76.9828 217.225 72.9639 215.17" stroke="#603813" stroke-width="6.63305" stroke-linecap="round"/>
<path d="M242.428 216.902V280.634C242.428 289.498 235.243 296.673 226.389 296.673C217.525 296.673 210.35 289.489 210.35 280.634V216.902" fill="#DECAAD"/>
<path d="M242.428 216.902V280.634C242.428 289.498 235.243 296.673 226.389 296.673C217.525 296.673 210.35 289.489 210.35 280.634V216.902" stroke="#603813" stroke-width="6.63305" stroke-miterlimit="10"/>
<path d="M204.429 207.364C204.854 210.211 206.558 212.815 209.37 214.916C212.182 217.016 216.001 218.538 220.446 219.329C224.89 220.12 229.802 220.152 234.689 219.422C239.575 218.692 244.263 217.225 248.282 215.17" stroke="#603813" stroke-width="6.63305" stroke-linecap="round"/>
<path d="M98.3298 168.167C63.9505 139.719 54.6205 131.996 41.1783 107.121C22.0961 83.2162 76.5626 22.4962 79.0598 47.7843C68.5685 72.853 129.655 147.093 145.678 158.866C165.708 173.582 189.723 197.883 188.713 215.006C188.161 224.359 169.596 234.364 156.242 235.7C152.009 236.123 148.725 232.775 146.957 228.907C139.026 211.56 115.386 182.281 98.3298 168.167Z" fill="#C02C2C"/>
<path d="M126.818 276.511C126.861 277.062 127.341 277.474 127.892 277.432C128.442 277.389 128.855 276.909 128.812 276.358L127.815 276.434L126.818 276.511ZM128.308 260.19L127.308 260.19C127.309 261.625 127.069 263.995 126.88 266.956C126.695 269.863 126.568 273.241 126.818 276.511L127.815 276.434L128.812 276.358C128.572 273.229 128.692 269.961 128.876 267.083C129.056 264.259 129.309 261.706 129.308 260.19L128.308 260.19Z" fill="#DB3B3B"/>
<path d="M129.664 277.503C129.706 278.054 130.187 278.466 130.738 278.424C131.288 278.381 131.7 277.901 131.658 277.35L130.661 277.427L129.664 277.503ZM131.154 261.182L130.154 261.182C130.154 262.617 129.915 264.988 129.726 267.948C129.54 270.855 129.413 274.233 129.664 277.503L130.661 277.427L131.658 277.35C131.418 274.221 131.538 270.953 131.722 268.075C131.902 265.251 132.154 262.699 132.154 261.182L131.154 261.182Z" fill="#DB3B3B"/>
<path d="M132.512 278.495C132.554 279.046 133.035 279.458 133.585 279.416C134.136 279.374 134.548 278.893 134.506 278.342L133.509 278.419L132.512 278.495ZM134.002 262.174L133.002 262.175C133.002 263.609 132.762 265.98 132.573 268.94C132.388 271.847 132.261 275.225 132.512 278.495L133.509 278.419L134.506 278.342C134.266 275.213 134.386 271.945 134.569 269.067C134.75 266.243 135.002 263.691 135.002 262.174L134.002 262.174Z" fill="#DB3B3B"/>
<path d="M137.707 279.487C137.665 280.038 137.184 280.45 136.634 280.408C136.083 280.366 135.671 279.885 135.713 279.335L136.71 279.411L137.707 279.487ZM136.217 263.166L137.217 263.167C137.217 264.601 137.456 266.972 137.645 269.932C137.831 272.839 137.958 276.218 137.707 279.487L136.71 279.411L135.713 279.335C135.953 276.206 135.833 272.938 135.649 270.06C135.469 267.235 135.217 264.683 135.217 263.166L136.217 263.166Z" fill="#DB3B3B"/>
<path d="M140.555 280.48C140.513 281.03 140.032 281.443 139.481 281.4C138.931 281.358 138.518 280.877 138.561 280.327L139.558 280.403L140.555 280.48ZM139.065 264.159L140.065 264.159C140.064 265.594 140.304 267.964 140.493 270.924C140.679 273.831 140.806 277.21 140.555 280.48L139.558 280.403L138.561 280.327C138.801 277.198 138.681 273.93 138.497 271.052C138.317 268.227 138.064 265.675 138.065 264.158L139.065 264.159Z" fill="#DB3B3B"/>
<path d="M143.402 281.472C143.36 282.023 142.88 282.435 142.329 282.392C141.778 282.35 141.366 281.87 141.408 281.319L142.405 281.395L143.402 281.472ZM141.912 265.151L142.912 265.151C142.912 266.586 143.152 268.956 143.341 271.917C143.526 274.823 143.653 278.202 143.402 281.472L142.405 281.395L141.408 281.319C141.648 278.19 141.528 274.922 141.345 272.044C141.164 269.22 140.912 266.667 140.912 265.151L141.912 265.151Z" fill="#DB3B3B"/>
<path d="M146.248 282.464C146.206 283.015 145.725 283.427 145.175 283.385C144.624 283.342 144.212 282.862 144.254 282.311L145.251 282.388L146.248 282.464ZM144.758 266.143L145.758 266.143C145.758 267.578 145.997 269.949 146.186 272.909C146.372 275.816 146.499 279.194 146.248 282.464L145.251 282.388L144.254 282.311C144.494 279.182 144.374 275.914 144.19 273.036C144.01 270.212 143.758 267.66 143.758 266.143L144.758 266.143Z" fill="#DB3B3B"/>
<path d="M149.096 283.456C149.054 284.007 148.573 284.419 148.022 284.377C147.472 284.335 147.059 283.854 147.102 283.303L148.099 283.38L149.096 283.456ZM147.606 267.135L148.606 267.135C148.605 268.57 148.845 270.941 149.034 273.901C149.22 276.808 149.347 280.186 149.096 283.456L148.099 283.38L147.102 283.303C147.342 280.174 147.222 276.906 147.038 274.028C146.858 271.204 146.605 268.652 146.606 267.135L147.606 267.135Z" fill="#DB3B3B"/>
<path d="M151.941 283.464C151.899 284.015 151.419 284.427 150.868 284.385C150.317 284.342 149.905 283.862 149.947 283.311L150.944 283.388L151.941 283.464ZM150.451 267.143L151.451 267.143C151.451 268.578 151.691 270.949 151.88 273.909C152.065 276.816 152.192 280.194 151.941 283.464L150.944 283.388L149.947 283.311C150.187 280.182 150.067 276.914 149.884 274.036C149.703 271.212 149.451 268.66 149.451 267.143L150.451 267.143Z" fill="#DB3B3B"/>
<path d="M154.789 284.452C154.747 285.003 154.266 285.415 153.716 285.373C153.165 285.331 152.753 284.85 152.795 284.299L153.792 284.376L154.789 284.452ZM153.299 268.131L154.299 268.132C154.299 269.566 154.538 271.937 154.727 274.897C154.913 277.804 155.04 281.182 154.789 284.452L153.792 284.376L152.795 284.299C153.035 281.17 152.915 277.902 152.731 275.025C152.551 272.2 152.299 269.648 152.299 268.131L153.299 268.131Z" fill="#DB3B3B"/>
<path d="M157.604 284.394C157.561 284.944 157.081 285.357 156.53 285.314C155.979 285.272 155.567 284.791 155.609 284.241L156.607 284.317L157.604 284.394ZM156.114 268.073L157.114 268.073C157.113 269.508 157.353 271.878 157.542 274.838C157.727 277.745 157.854 281.124 157.604 284.394L156.607 284.317L155.609 284.241C155.849 281.112 155.73 277.844 155.546 274.966C155.365 272.141 155.113 269.589 155.114 268.072L156.114 268.073Z" fill="#DB3B3B"/>
<path d="M160.555 284.394C160.513 284.944 160.032 285.357 159.481 285.314C158.931 285.272 158.518 284.791 158.561 284.241L159.558 284.317L160.555 284.394ZM159.065 268.073L160.065 268.073C160.064 269.508 160.304 271.878 160.493 274.838C160.679 277.745 160.806 281.124 160.555 284.394L159.558 284.317L158.561 284.241C158.801 281.112 158.681 277.844 158.497 274.966C158.317 272.141 158.064 269.589 158.065 268.072L159.065 268.073Z" fill="#DB3B3B"/>
<path d="M163.33 283.491C163.288 284.042 162.807 284.454 162.257 284.412C161.706 284.37 161.294 283.889 161.336 283.338L162.333 283.415L163.33 283.491ZM161.84 267.17L162.84 267.171C162.84 268.605 163.079 270.976 163.268 273.936C163.454 276.843 163.581 280.221 163.33 283.491L162.333 283.415L161.336 283.338C161.576 280.209 161.456 276.941 161.272 274.064C161.092 271.239 160.84 268.687 160.84 267.17L161.84 267.17Z" fill="#DB3B3B"/>
<path d="M166.174 283.499C166.132 284.05 165.651 284.462 165.1 284.42C164.55 284.378 164.138 283.897 164.18 283.346L165.177 283.423L166.174 283.499ZM164.684 267.178L165.684 267.178C165.684 268.613 165.923 270.984 166.112 273.944C166.298 276.851 166.425 280.229 166.174 283.499L165.177 283.423L164.18 283.346C164.42 280.217 164.3 276.949 164.116 274.071C163.936 271.247 163.684 268.695 163.684 267.178L164.684 267.178Z" fill="#DB3B3B"/>
<path d="M169.414 283.409C169.372 283.96 168.891 284.372 168.341 284.33C167.79 284.288 167.378 283.807 167.42 283.256L168.417 283.333L169.414 283.409ZM167.924 267.088L168.924 267.089C168.924 268.523 169.163 270.894 169.352 273.854C169.538 276.761 169.665 280.139 169.414 283.409L168.417 283.333L167.42 283.256C167.66 280.127 167.54 276.859 167.356 273.982C167.176 271.157 166.924 268.605 166.924 267.088L167.924 267.088Z" fill="#DB3B3B"/>
<path d="M171 282.425C171.042 282.976 171.523 283.388 172.073 283.346C172.624 283.303 173.036 282.823 172.994 282.272L171.997 282.349L171 282.425ZM172.49 266.104L171.49 266.104C171.49 267.539 171.251 269.91 171.062 272.87C170.876 275.777 170.749 279.155 171 282.425L171.997 282.349L172.994 282.272C172.754 279.143 172.874 275.875 173.058 272.997C173.238 270.173 173.49 267.62 173.49 266.104L172.49 266.104Z" fill="#DB3B3B"/>
<path d="M173.524 278.444C173.511 278.996 173.949 279.454 174.501 279.467C175.053 279.479 175.511 279.042 175.524 278.49L174.524 278.467L173.524 278.444ZM176.631 262.352L175.636 262.253C175.494 263.68 175.019 266.015 174.537 268.942C174.063 271.816 173.6 275.165 173.524 278.444L174.524 278.467L175.524 278.49C175.596 275.353 176.041 272.113 176.51 269.268C176.971 266.475 177.476 263.961 177.626 262.451L176.631 262.352Z" fill="#DB3B3B"/>
<path d="M243.11 158.727C262.926 137.234 275.282 124.572 283.437 103.465C296.201 70.4277 226.477 0.51902 227.485 31.4741C243.061 60.132 188.459 163.38 169.35 176.154C150.241 188.928 123.943 243.254 127.662 263.791C129.081 271.627 154.497 273.981 170.21 271.067C174.341 270.302 177.014 266.634 177.827 262.512C180.953 246.655 190.459 220.32 204.265 200.461C215.096 184.882 230.248 172.677 243.11 158.727Z" fill="#DB3B3B"/>
<path d="M215.433 90.9054C223.16 90.9054 229.424 82.7252 229.424 72.6344C229.424 62.5435 223.16 54.3633 215.433 54.3633C207.706 54.3633 201.441 62.5435 201.441 72.6344C201.441 82.7252 207.706 90.9054 215.433 90.9054Z" fill="#D9AD7A" stroke="#603813" stroke-width="6.63305" stroke-miterlimit="10" stroke-linecap="round"/>
<path d="M105.011 90.9054C112.738 90.9054 119.003 82.7252 119.003 72.6344C119.003 62.5435 112.738 54.3633 105.011 54.3633C97.2837 54.3633 91.0195 62.5435 91.0195 72.6344C91.0195 82.7252 97.2837 90.9054 105.011 90.9054Z" fill="#D9AD7A" stroke="#603813" stroke-width="6.63305" stroke-miterlimit="10" stroke-linecap="round"/>
<path d="M170.429 60.6105C171.499 43.6491 180.215 25.1567 197.434 15.5369C217.808 3.39927 251.464 9.44043 261.877 29.2794C265.944 36.575 267.198 43.9996 267.678 51.7563C268.176 58.2771 268.305 64.8439 267.927 71.5584C266.793 86.1955 263.86 113.072 241.899 114.621C235.213 114.621 229.798 109.853 229.798 103.969C229.798 98.0842 235.222 93.3158 241.899 93.3158C241.226 93.2605 240.497 93.3527 239.861 93.5741C239.317 93.7401 239.049 93.777 238.68 93.9891C238.164 94.3488 238.118 94.2289 237.943 94.4687C237.989 94.3949 238.45 93.9614 238.893 93.2236C245.21 80.302 246.944 61.9571 239.658 49.5519C229.937 32.9872 209.157 42.4224 212.487 60.6197C213.999 70.8298 205.828 80.1913 194.216 81.5286C180.611 83.2626 173.998 72.5361 175.852 60.6197H170.42L170.429 60.6105Z" fill="#C69C6D" stroke="#603813" stroke-width="6.63305" stroke-miterlimit="10" stroke-linecap="round"/>
<path d="M251.033 33.5703C238.339 33.5703 227.109 40.1484 220.146 50.2541C218.457 52.713 218.457 56.137 220.146 58.5959C227.109 68.712 238.339 75.2797 251.033 75.2797C263.728 75.2797 274.958 68.7016 281.921 58.5959C283.61 56.137 283.61 52.713 281.921 50.2541C274.958 40.138 263.728 33.5703 251.033 33.5703Z" fill="#DECAAD" stroke="#603813" stroke-width="6.63305" stroke-miterlimit="10"/>
<path d="M150.008 60.6105C148.938 43.6491 140.222 25.1567 123.003 15.5369C102.629 3.39927 68.9735 9.44043 58.5606 29.2794C54.4932 36.575 53.2388 43.9996 52.7592 51.7563C52.2612 58.2771 52.1321 64.8439 52.5102 71.5584C53.6447 86.1955 56.5776 113.072 78.5379 114.621C85.2247 114.621 90.6387 109.853 90.6387 103.969C90.6387 98.0842 85.2155 93.3158 78.5379 93.3158C79.2112 93.2605 79.9398 93.3527 80.5762 93.5741C81.1204 93.7401 81.3879 93.777 81.7568 93.9891C82.2733 94.3488 82.3194 94.2289 82.4946 94.4687C82.4485 94.3949 81.9874 93.9615 81.5447 93.2236C75.2268 80.302 73.4929 61.9571 80.7791 49.5519C90.5003 32.9872 111.28 42.4224 107.951 60.6197C106.438 70.8298 114.61 80.1913 126.222 81.5286C139.826 83.2626 146.439 72.5361 144.585 60.6197H150.017L150.008 60.6105Z" fill="#C69C6D" stroke="#603813" stroke-width="6.63305" stroke-miterlimit="10" stroke-linecap="round"/>
<path d="M69.4875 33.5703C82.2151 33.5703 93.4741 40.1484 100.455 50.2541C102.148 52.713 102.148 56.137 100.455 58.5959C93.4741 68.712 82.2151 75.2797 69.4875 75.2797C56.7599 75.2797 45.5009 68.7016 38.5203 58.5959C36.8266 56.137 36.8266 52.713 38.5203 50.2541C45.5009 40.138 56.7599 33.5703 69.4875 33.5703Z" fill="#DECAAD" stroke="#603813" stroke-width="6.63305" stroke-miterlimit="10"/>
<path d="M172.681 176.953H147.76C130.227 176.953 115.424 163.93 113.192 146.544L100.381 46.9062H220.07L207.259 146.544C205.027 163.93 190.214 176.953 172.69 176.953H172.681Z" fill="#DECAAD" stroke="#603813" stroke-width="6.63305" stroke-miterlimit="10"/>
<path d="M217.892 23.5336C215.854 23.5336 213.908 23.884 212.091 24.5112C208.697 15.5094 200.018 9.0901 189.826 9.0901C186.404 9.0901 183.158 9.82796 180.216 11.1284C174.949 6.29549 167.94 3.31641 160.229 3.31641C152.518 3.31641 145.509 6.29549 140.243 11.1284C137.3 9.82796 134.054 9.0901 130.632 9.0901C120.44 9.0901 111.761 15.5094 108.367 24.5112C106.541 23.884 104.595 23.5336 102.566 23.5336C92.6603 23.5336 84.627 31.5669 84.627 41.4726C84.627 51.3783 92.6603 59.4117 102.566 59.4117C108.395 59.4117 113.569 56.617 116.843 52.3006C120.736 55.0768 125.495 56.7277 130.641 56.7277C134.063 56.7277 137.31 55.9899 140.252 54.6894C145.518 59.5223 152.528 62.5014 160.238 62.5014C167.949 62.5014 174.958 59.5223 180.225 54.6894C183.167 55.9899 186.414 56.7277 189.835 56.7277C194.982 56.7277 199.732 55.0768 203.633 52.3006C206.907 56.617 212.072 59.4117 217.911 59.4117C227.816 59.4117 235.85 51.3783 235.85 41.4726C235.85 31.5669 227.816 23.5336 217.911 23.5336H217.892Z" fill="#D9AD7A" stroke="#603813" stroke-width="6.63305" stroke-miterlimit="10" stroke-linecap="round" stroke-linejoin="round"/>
<path d="M221.882 94.1746C222.063 90.3147 220.975 86.7784 219.091 84.2329C210.52 74.8164 202.007 86.9587 201.659 94.383C201.496 97.8431 203.491 102.302 203.491 102.302C198.109 105.081 194.687 111.289 194.345 118.557C193.997 125.973 200.353 129.14 205.518 129.383C215.229 129.84 221.012 123.992 221.361 116.568C221.588 111.735 220.732 107.234 217.904 104.731C220.662 102.421 221.669 98.7127 221.882 94.1746Z" fill="#D9AD7A" stroke="#603813" stroke-width="6.63305" stroke-miterlimit="10" stroke-linecap="round" stroke-linejoin="round"/>
<path d="M98.6727 94.1746C98.4913 90.3147 99.5798 86.7784 101.464 84.2329C110.035 74.8164 118.547 86.9587 118.896 94.383C119.059 97.8431 117.064 102.302 117.064 102.302C122.446 105.081 125.868 111.289 126.21 118.557C126.558 125.973 120.202 129.14 115.037 129.383C105.326 129.84 99.5425 123.992 99.1936 116.568C98.9665 111.735 99.823 107.234 102.65 104.731C99.893 102.421 98.886 98.7127 98.6727 94.1746Z" fill="#D9AD7A" stroke="#603813" stroke-width="6.63305" stroke-miterlimit="10" stroke-linecap="round" stroke-linejoin="round"/>
<path d="M137.32 84.2597C137.32 88.2626 135.364 90.0887 132.948 90.0887C130.531 90.0887 128.576 88.2626 128.576 84.2597C128.576 80.2569 130.531 77.0195 132.948 77.0195C135.364 77.0195 137.32 80.2661 137.32 84.2597Z" fill="black" stroke="black" stroke-width="6.63305" stroke-miterlimit="10" stroke-linecap="round"/>
<path d="M183.133 84.2558C183.133 88.2587 185.088 90.0848 187.505 90.0848C189.921 90.0848 191.876 88.2587 191.876 84.2558C191.876 80.253 189.921 77.0156 187.505 77.0156C185.088 77.0156 183.133 80.2622 183.133 84.2558Z" fill="black" stroke="black" stroke-width="6.63305" stroke-miterlimit="10" stroke-linecap="round"/>
<path d="M161.648 121.401C160.357 122.739 158.236 122.739 156.944 121.401C149.492 113.681 142.15 113.727 142.15 119.4C142.15 125.671 149.833 130.744 159.296 130.744C168.759 130.744 176.451 125.662 176.451 119.4C176.451 113.727 169.11 113.681 161.648 121.401Z" fill="black" stroke="black" stroke-width="6.63305" stroke-miterlimit="10" stroke-linecap="round"/>
<path d="M159.191 134.285L159.191 153.654" stroke="black" stroke-width="6.63305" stroke-miterlimit="10" stroke-linecap="round"/>
<path d="M144.959 151.119C148.962 154.283 157.17 155.233 165.997 153.111C174.824 150.99 181.704 146.424 183.835 141.785" stroke="black" stroke-width="9.47951" stroke-miterlimit="10" stroke-linecap="round"/>
<path d="M248.539 95.601C248.124 90.7681 249.388 85.4279 250.873 80.5673C253.548 72.2941 258.067 64.2331 264.32 57.1958C265.676 55.6647 265.713 53.4512 264.256 51.874C262.568 50.0478 259.506 49.7711 257.431 51.2561C248.53 57.6293 241.013 65.635 235.286 74.7475C227.833 86.055 217.587 112.157 240.976 114.619" fill="#C69C6D"/>
<path d="M248.539 95.601C248.124 90.7681 249.388 85.4279 250.873 80.5673C253.548 72.2941 258.067 64.2331 264.32 57.1958C265.676 55.6647 265.713 53.4512 264.256 51.874C262.568 50.0478 259.506 49.7711 257.431 51.2561C248.53 57.6293 241.013 65.635 235.286 74.7475C227.833 86.055 217.587 112.157 240.976 114.619" stroke="#603813" stroke-width="6.63305" stroke-miterlimit="10" stroke-linecap="round"/>
<path d="M79.468 114.619C102.858 112.166 92.611 86.055 85.1587 74.7475C79.4311 65.635 71.9142 57.62 63.0139 51.2561C60.9295 49.7711 57.8766 50.0478 56.1888 51.874C54.7315 53.4512 54.7684 55.6555 56.1242 57.1958C62.3775 64.2331 66.8968 72.2941 69.5715 80.5673C71.0657 85.4371 72.32 90.7773 71.905 95.601" fill="#C69C6D"/>
<path d="M79.468 114.619C102.858 112.166 92.611 86.055 85.1587 74.7475C79.4311 65.635 71.9142 57.62 63.0139 51.2561C60.9295 49.7711 57.8766 50.0478 56.1888 51.874C54.7315 53.4512 54.7684 55.6555 56.1242 57.1958C62.3775 64.2331 66.8968 72.2941 69.5715 80.5673C71.0657 85.4371 72.32 90.7773 71.905 95.601" stroke="#603813" stroke-width="6.63305" stroke-miterlimit="10" stroke-linecap="round"/>
<path d="M192.743 390.149C204.956 393.429 226.767 397.518 240.045 394.045C241.683 393.616 243.421 394.789 243.421 396.483V409.226C243.421 410.282 242.722 411.213 241.7 411.475C241.465 411.536 241.224 411.596 240.979 411.656C239.759 425.724 240.568 454.894 253.188 458.062C269.113 462.06 279.32 460.475 282.489 470.127C284.371 475.858 284.931 487.168 276.385 489.431C268.217 491.593 236.634 495.132 221.063 483.857C220.089 483.152 218.648 483.597 218.353 484.763C218.033 486.031 216.786 486.835 215.505 486.571C208.594 485.148 197.901 482.367 197.028 479.779C195.807 476.159 197.028 462.888 197.028 460.475C197.028 458.062 198.249 451.486 198.249 447.204C198.249 441.052 192.145 418.37 192.145 409.864C191.728 409.668 191.316 409.464 190.91 409.253C190.156 408.862 189.703 408.072 189.703 407.223V392.461C189.703 390.88 191.216 389.739 192.743 390.149Z" fill="#F7D724"/>
<path d="M240.979 411.656C241.224 411.596 241.465 411.536 241.7 411.475C242.722 411.213 243.421 410.282 243.421 409.226V396.483C243.421 394.789 241.683 393.616 240.045 394.045C226.767 397.518 204.956 393.429 192.743 390.149C191.216 389.739 189.703 390.88 189.703 392.461V407.223C189.703 408.072 190.156 408.862 190.91 409.253C191.316 409.464 191.728 409.668 192.145 409.864M240.979 411.656C239.759 425.724 240.568 454.894 253.188 458.062C269.113 462.06 279.32 460.475 282.489 470.127C284.371 475.858 284.931 487.168 276.385 489.431C268.217 491.593 236.634 495.132 221.063 483.857C220.089 483.152 218.648 483.597 218.353 484.763C218.033 486.031 216.786 486.835 215.505 486.571C208.594 485.148 197.901 482.367 197.028 479.779C195.807 476.159 197.028 462.888 197.028 460.475C197.028 458.062 198.249 451.486 198.249 447.204C198.249 441.052 192.145 418.37 192.145 409.864M240.979 411.656C229.545 414.471 207.582 417.138 192.145 409.864" stroke="black" stroke-width="4.7302"/>
<path d="M198.334 470.412L220.754 477.039L236.903 480.81L260.887 481.535L274.696 477.899L281.965 474.266L284.145 477.903L279.058 487.348L263.07 490.981L249.987 490.981L228.91 486.016L223.096 485.167L218.1 486.016L195.68 479.389L198.334 470.412Z" fill="#A6994F"/>
<path d="M240.979 411.656C241.224 411.596 241.465 411.536 241.7 411.475C242.722 411.213 243.421 410.282 243.421 409.226V396.483C243.421 394.789 241.683 393.616 240.045 394.045C226.767 397.518 204.956 393.429 192.743 390.149C191.216 389.739 189.703 390.88 189.703 392.461V407.223C189.703 408.072 190.156 408.862 190.91 409.253C191.316 409.464 191.728 409.668 192.145 409.864M240.979 411.656C239.759 425.724 240.568 454.894 253.188 458.062C269.113 462.06 279.32 460.475 282.489 470.127C284.371 475.858 284.931 487.168 276.385 489.431C268.217 491.593 236.634 495.132 221.063 483.857C220.089 483.152 218.648 483.597 218.353 484.763C218.033 486.031 216.786 486.835 215.505 486.571C208.594 485.148 197.901 482.367 197.028 479.779C195.807 476.159 197.028 462.888 197.028 460.475C197.028 458.062 198.249 451.486 198.249 447.204C198.249 441.052 192.145 418.37 192.145 409.864M240.979 411.656C229.545 414.471 207.582 417.138 192.145 409.864" stroke="black" stroke-width="4.7302"/>
<path d="M196.686 468.438C215.307 476.972 258.37 490.085 281.647 474.257" stroke="black" stroke-width="2.3651"/>
<path d="M215.308 475.426C215.308 469.607 212.049 457.037 199.014 453.312" stroke="black" stroke-width="2.3651"/>
<path d="M199.014 391.629V411.415" stroke="black" stroke-width="2.3651"/>
<path d="M205.996 391.629V411.415" stroke="black" stroke-width="2.3651"/>
<path d="M212.982 393.949V413.735" stroke="black" stroke-width="2.3651"/>
<path d="M219.963 393.949V413.735" stroke="black" stroke-width="2.3651"/>
<path d="M226.943 393.949V413.735" stroke="black" stroke-width="2.3651"/>
<path d="M233.928 393.949V413.735" stroke="black" stroke-width="2.3651"/>
<path d="M131.433 390.149C119.22 393.429 97.4086 397.518 84.1308 394.045C82.4923 393.616 80.7546 394.789 80.7546 396.483V409.226C80.7546 410.282 81.4534 411.213 82.476 411.475C82.7112 411.536 82.9513 411.596 83.1963 411.656C84.4172 425.724 83.6077 454.894 70.9876 458.062C55.0624 462.06 44.8556 460.475 41.6869 470.127C39.8052 475.858 39.2451 487.168 47.7912 489.431C55.9585 491.593 87.5417 495.132 103.113 483.857C104.087 483.152 105.527 483.597 105.822 484.763C106.143 486.031 107.39 486.835 108.671 486.571C115.581 485.148 126.274 482.367 127.147 479.779C128.368 476.159 127.147 462.888 127.147 460.475C127.147 458.062 125.927 451.486 125.927 447.204C125.927 441.052 132.031 418.37 132.031 409.864C132.448 409.668 132.859 409.464 133.266 409.253C134.02 408.862 134.473 408.072 134.473 407.223V392.461C134.473 390.88 132.96 389.739 131.433 390.149Z" fill="#F7D724"/>
<path d="M83.1963 411.656C82.9513 411.596 82.7112 411.536 82.476 411.475C81.4534 411.213 80.7546 410.282 80.7546 409.226V396.483C80.7546 394.789 82.4923 393.616 84.1308 394.045C97.4086 397.518 119.22 393.429 131.433 390.149C132.96 389.739 134.473 390.88 134.473 392.461V407.223C134.473 408.072 134.02 408.862 133.266 409.253C132.859 409.464 132.448 409.668 132.031 409.864M83.1963 411.656C84.4172 425.724 83.6077 454.894 70.9876 458.062C55.0624 462.06 44.8555 460.475 41.6869 470.127C39.8052 475.858 39.2451 487.168 47.7912 489.431C55.9585 491.593 87.5417 495.132 103.113 483.857C104.087 483.152 105.527 483.597 105.822 484.763C106.143 486.031 107.39 486.835 108.671 486.571C115.581 485.148 126.274 482.367 127.147 479.779C128.368 476.159 127.147 462.888 127.147 460.475C127.147 458.062 125.927 451.486 125.927 447.204C125.927 441.052 132.031 418.37 132.031 409.864M83.1963 411.656C94.6312 414.471 116.594 417.138 132.031 409.864" stroke="black" stroke-width="4.7302"/>
<path d="M125.842 470.412L103.422 477.039L87.2726 480.81L63.2888 481.535L49.4796 477.899L42.211 474.266L40.0313 477.903L45.1181 487.348L61.1063 490.981L74.1892 490.981L95.2659 486.016L101.08 485.167L106.075 486.016L128.495 479.389L125.842 470.412Z" fill="#A6994F"/>
<path d="M83.1963 411.656C82.9513 411.596 82.7112 411.536 82.476 411.475C81.4534 411.213 80.7546 410.282 80.7546 409.226V396.483C80.7546 394.789 82.4923 393.616 84.1308 394.045C97.4086 397.518 119.22 393.429 131.433 390.149C132.96 389.739 134.473 390.88 134.473 392.461V407.223C134.473 408.072 134.02 408.862 133.266 409.253C132.859 409.464 132.448 409.668 132.031 409.864M83.1963 411.656C84.4172 425.724 83.6077 454.894 70.9876 458.062C55.0624 462.06 44.8555 460.475 41.6869 470.127C39.8052 475.858 39.2451 487.168 47.7912 489.431C55.9585 491.593 87.5417 495.132 103.113 483.857C104.087 483.152 105.527 483.597 105.822 484.763C106.143 486.031 107.39 486.835 108.671 486.571C115.581 485.148 126.274 482.367 127.147 479.779C128.368 476.159 127.147 462.888 127.147 460.475C127.147 458.062 125.927 451.486 125.927 447.204C125.927 441.052 132.031 418.37 132.031 409.864M83.1963 411.656C94.6312 414.471 116.594 417.138 132.031 409.864" stroke="black" stroke-width="4.7302"/>
<path d="M127.488 468.438C108.867 476.972 65.8038 490.085 42.5266 474.257" stroke="black" stroke-width="2.3651"/>
<path d="M108.866 475.426C108.866 469.607 112.125 457.037 125.16 453.312" stroke="black" stroke-width="2.3651"/>
<path d="M125.16 391.629V411.415" stroke="black" stroke-width="2.3651"/>
<path d="M118.18 391.629V411.415" stroke="black" stroke-width="2.3651"/>
<path d="M111.193 393.949V413.735" stroke="black" stroke-width="2.3651"/>
<path d="M104.211 393.949V413.735" stroke="black" stroke-width="2.3651"/>
<path d="M97.2305 393.949V413.735" stroke="black" stroke-width="2.3651"/>
<path d="M90.2461 393.949V413.735" stroke="black" stroke-width="2.3651"/>
</svg>
