<svg width="1080" height="1920" viewBox="0 0 1080 1920" fill="none" xmlns="http://www.w3.org/2000/svg">
<g clip-path="url(#clip0_3616_2374)">
<rect width="1080" height="1920" fill="white"/>
<rect x="-15" y="1499.79" width="1110" height="434.75" fill="#FFF5CC" stroke="#F7F7F7" stroke-width="30"/>
<rect x="-15" y="-21" width="1110" height="1666" fill="#F4971D" stroke="#F7F7F7" stroke-width="30"/>
<path d="M315.155 1721.24V1831.5C315.155 1846.83 327.638 1859.25 343.022 1859.25C358.422 1859.25 370.89 1846.82 370.89 1831.5V1721.24" fill="#DECAAD"/>
<path d="M315.155 1721.24V1831.5C315.155 1846.83 327.638 1859.25 343.022 1859.25C358.422 1859.25 370.89 1846.82 370.89 1831.5V1721.24" stroke="#603813" stroke-width="9.39275" stroke-miterlimit="10"/>
<path d="M151.929 1721.24V1831.5C151.929 1846.83 164.413 1859.25 179.797 1859.25C195.197 1859.25 207.664 1846.82 207.664 1831.5V1721.24" fill="#DECAAD"/>
<path d="M151.929 1721.24V1831.5C151.929 1846.83 164.413 1859.25 179.797 1859.25C195.197 1859.25 207.664 1846.82 207.664 1831.5V1721.24" stroke="#603813" stroke-width="9.39275" stroke-miterlimit="10"/>
<path d="M340.756 1764.98H340.876H341.327C364.788 1764.86 384.561 1749.29 391.024 1727.99C411.446 1736.9 436.103 1731.92 451.39 1714.15C466.597 1696.46 467.832 1671.53 456.207 1652.71C474.135 1644.48 486.609 1626.32 486.609 1605.3C486.609 1589.13 479.27 1574.68 467.712 1565.1C479.27 1555.56 486.609 1541.08 486.609 1524.96C486.609 1508.78 479.27 1494.3 467.712 1484.76C479.27 1475.21 486.609 1460.73 486.609 1444.57C486.609 1427.61 478.461 1412.48 465.868 1402.98C480.067 1389.86 486.397 1369.37 480.465 1349.63C473.724 1327.17 453.195 1312.61 430.887 1312.49C433.621 1290.39 421.864 1268.13 400.485 1258.55C380.514 1249.56 357.888 1254.18 343.012 1268.5C333.59 1254.78 317.825 1245.75 299.937 1245.75C283.761 1245.75 269.323 1253.15 259.781 1264.65C250.187 1253.13 235.749 1245.75 219.586 1245.75C201.658 1245.75 185.813 1254.82 176.431 1268.66C161.436 1254.38 138.651 1249.89 118.719 1259.08C97.4204 1268.86 85.8621 1291.2 88.7948 1313.26C66.4876 1313.62 46.078 1328.33 39.5358 1350.88C33.7898 1370.57 40.2126 1390.92 54.3719 1403.87C41.8581 1413.41 33.75 1428.44 33.75 1445.42C33.75 1461.58 41.1017 1476.02 52.6468 1485.56C41.0884 1495.15 33.75 1509.59 33.75 1525.76C33.75 1541.93 41.1017 1556.37 52.6468 1565.95C41.0884 1575.51 33.75 1589.94 33.75 1606.11C33.75 1627.29 46.3832 1645.49 64.4705 1653.68C52.952 1672.62 54.4382 1697.56 69.8051 1715.13C85.2516 1732.77 109.921 1737.51 130.251 1728.44C136.913 1749.61 156.685 1764.98 180.027 1764.98C196.191 1764.98 210.642 1757.59 220.223 1746.04C229.764 1757.6 244.202 1764.98 260.365 1764.98C276.542 1764.98 291.019 1757.59 300.561 1746.04C310.115 1757.6 324.593 1764.98 340.756 1764.98Z" fill="#FBF0D4"/>
<path opacity="0.1" d="M474.531 1484.77C484.803 1495.04 491.138 1509.27 491.138 1524.95C491.137 1540.58 484.799 1554.8 474.527 1565.06C484.797 1575.35 491.138 1589.55 491.138 1605.23C491.137 1626.33 479.601 1644.78 462.52 1654.56C472.449 1674.42 470.216 1699.15 454.811 1717.07L454.81 1717.07C439.312 1735.08 414.978 1741.02 393.746 1733.94C385.369 1754.68 365.076 1769.37 341.294 1769.49H340.7C325.026 1769.49 310.806 1763.12 300.535 1752.85C290.274 1763.11 276.055 1769.49 260.37 1769.49C244.693 1769.49 230.504 1763.12 220.25 1752.84C209.97 1763.1 195.775 1769.49 180.094 1769.49C156.426 1769.49 136.145 1754.99 127.596 1734.41C106.443 1741.67 82.0834 1735.96 66.4229 1718.08L66.4199 1718.08C50.8528 1700.28 48.3702 1675.54 58.1846 1655.57C55.6765 1654.15 53.2868 1652.55 51.0322 1650.78L56.3145 1645.36C153.85 1690.48 432.525 1743.56 460.393 1484.79L475.003 1484.3C474.847 1484.46 474.689 1484.62 474.531 1484.77Z" fill="black"/>
<path d="M340.756 1764.98H340.876H341.327C364.788 1764.86 384.561 1749.29 391.024 1727.99C411.446 1736.9 436.103 1731.92 451.39 1714.15C466.597 1696.46 467.832 1671.53 456.207 1652.71C474.135 1644.48 486.609 1626.32 486.609 1605.3C486.609 1589.13 479.27 1574.68 467.712 1565.1C479.27 1555.56 486.609 1541.08 486.609 1524.96C486.609 1508.78 479.27 1494.3 467.712 1484.76C479.27 1475.21 486.609 1460.73 486.609 1444.57C486.609 1427.61 478.461 1412.48 465.868 1402.98C480.067 1389.86 486.397 1369.37 480.465 1349.63C473.724 1327.17 453.195 1312.61 430.887 1312.49C433.621 1290.39 421.864 1268.13 400.485 1258.55C380.514 1249.56 357.888 1254.18 343.012 1268.5C333.59 1254.78 317.825 1245.75 299.937 1245.75C283.761 1245.75 269.323 1253.15 259.781 1264.65C250.187 1253.13 235.749 1245.75 219.586 1245.75C201.658 1245.75 185.813 1254.82 176.431 1268.66C161.436 1254.38 138.651 1249.89 118.719 1259.08C97.4204 1268.86 85.8621 1291.2 88.7948 1313.26C66.4876 1313.62 46.078 1328.33 39.5358 1350.88C33.7898 1370.57 40.2126 1390.92 54.3719 1403.87C41.8581 1413.41 33.75 1428.44 33.75 1445.42C33.75 1461.58 41.1017 1476.02 52.6468 1485.56C41.0884 1495.15 33.75 1509.59 33.75 1525.76C33.75 1541.93 41.1017 1556.37 52.6468 1565.95C41.0884 1575.51 33.75 1589.94 33.75 1606.11C33.75 1627.29 46.3832 1645.49 64.4705 1653.68C52.952 1672.62 54.4382 1697.56 69.8051 1715.13C85.2516 1732.77 109.921 1737.51 130.251 1728.44C136.913 1749.61 156.685 1764.98 180.027 1764.98C196.191 1764.98 210.642 1757.59 220.223 1746.04C229.764 1757.6 244.202 1764.98 260.365 1764.98C276.542 1764.98 291.019 1757.59 300.561 1746.04C310.115 1757.6 324.593 1764.98 340.756 1764.98Z" stroke="#603813" stroke-width="9.39275" stroke-miterlimit="10"/>
<path d="M142.378 1477.59V1569.29C142.378 1582.04 152.716 1592.37 165.455 1592.37C178.208 1592.37 188.532 1582.03 188.532 1569.29V1477.59" fill="#DECAAD"/>
<path d="M142.378 1477.59V1569.29C142.378 1582.04 152.716 1592.37 165.455 1592.37C178.208 1592.37 188.532 1582.03 188.532 1569.29V1477.59" stroke="#603813" stroke-width="9.39275" stroke-miterlimit="10"/>
<path d="M197.052 1463.87C196.44 1467.97 193.989 1471.71 189.943 1474.74C185.898 1477.76 180.402 1479.95 174.007 1481.09C167.613 1482.22 160.545 1482.27 153.515 1481.22C146.484 1480.17 139.739 1478.06 133.957 1475.1" stroke="#603813" stroke-width="9.39275" stroke-linecap="round"/>
<path d="M377.778 1477.59V1569.29C377.778 1582.04 367.441 1592.37 354.701 1592.37C341.949 1592.37 331.625 1582.03 331.625 1569.29V1477.59" fill="#DECAAD"/>
<path d="M377.778 1477.59V1569.29C377.778 1582.04 367.441 1592.37 354.701 1592.37C341.949 1592.37 331.625 1582.03 331.625 1569.29V1477.59" stroke="#603813" stroke-width="9.39275" stroke-miterlimit="10"/>
<path d="M323.104 1463.87C323.716 1467.97 326.168 1471.71 330.213 1474.74C334.258 1477.76 339.754 1479.95 346.149 1481.09C352.543 1482.22 359.611 1482.27 366.641 1481.22C373.672 1480.17 380.417 1478.06 386.2 1475.1" stroke="#603813" stroke-width="9.39275" stroke-linecap="round"/>
<path d="M338.943 1296.31C350.061 1296.31 359.074 1284.55 359.074 1270.03C359.074 1255.51 350.061 1243.74 338.943 1243.74C327.825 1243.74 318.812 1255.51 318.812 1270.03C318.812 1284.55 327.825 1296.31 338.943 1296.31Z" fill="#D9AD7A" stroke="#603813" stroke-width="9.39275" stroke-miterlimit="10" stroke-linecap="round"/>
<path d="M180.068 1296.31C191.186 1296.31 200.199 1284.55 200.199 1270.03C200.199 1255.51 191.186 1243.74 180.068 1243.74C168.95 1243.74 159.937 1255.51 159.937 1270.03C159.937 1284.55 168.95 1296.31 180.068 1296.31Z" fill="#D9AD7A" stroke="#603813" stroke-width="9.39275" stroke-miterlimit="10" stroke-linecap="round"/>
<path d="M274.195 1252.73C275.735 1228.32 288.275 1201.71 313.051 1187.87C342.364 1170.41 390.787 1179.1 405.769 1207.65C411.622 1218.14 413.426 1228.83 414.116 1239.99C414.833 1249.37 415.019 1258.82 414.475 1268.48C412.842 1289.54 408.622 1328.21 377.026 1330.44C367.405 1330.44 359.616 1323.57 359.616 1315.11C359.616 1306.64 367.419 1299.78 377.026 1299.78C376.057 1299.7 375.009 1299.83 374.093 1300.15C373.31 1300.39 372.926 1300.44 372.395 1300.75C371.652 1301.27 371.585 1301.1 371.333 1301.44C371.4 1301.33 372.063 1300.71 372.7 1299.65C381.79 1281.06 384.285 1254.66 373.801 1236.81C359.815 1212.98 329.917 1226.56 334.707 1252.74C336.884 1267.43 325.126 1280.9 308.419 1282.82C288.846 1285.32 279.331 1269.88 281.998 1252.74H274.182L274.195 1252.73Z" fill="#C69C6D" stroke="#603813" stroke-width="9.39275" stroke-miterlimit="10" stroke-linecap="round"/>
<path d="M390.165 1213.81C371.9 1213.81 355.743 1223.27 345.725 1237.81C343.294 1241.35 343.294 1246.28 345.725 1249.82C355.743 1264.37 371.9 1273.82 390.165 1273.82C408.431 1273.82 424.588 1264.36 434.606 1249.82C437.037 1246.28 437.037 1241.35 434.606 1237.81C424.588 1223.26 408.431 1213.81 390.165 1213.81Z" fill="#DECAAD" stroke="#603813" stroke-width="9.39275" stroke-miterlimit="10"/>
<path d="M244.816 1252.73C243.277 1228.32 230.736 1201.71 205.961 1187.87C176.647 1170.41 128.224 1179.1 113.242 1207.65C107.39 1218.14 105.585 1228.83 104.895 1239.99C104.178 1249.37 103.992 1258.82 104.537 1268.48C106.169 1289.54 110.389 1328.21 141.985 1330.44C151.606 1330.44 159.396 1323.57 159.396 1315.11C159.396 1306.64 151.593 1299.78 141.985 1299.78C142.954 1299.7 144.002 1299.83 144.918 1300.15C145.701 1300.39 146.086 1300.45 146.616 1300.75C147.36 1301.27 147.426 1301.1 147.678 1301.44C147.612 1301.33 146.948 1300.71 146.311 1299.65C137.221 1281.06 134.726 1254.66 145.21 1236.81C159.197 1212.98 189.094 1226.56 184.304 1252.74C182.127 1267.43 193.885 1280.9 210.592 1282.82C230.166 1285.32 239.68 1269.88 237.013 1252.74H244.829L244.816 1252.73Z" fill="#C69C6D" stroke="#603813" stroke-width="9.39275" stroke-miterlimit="10" stroke-linecap="round"/>
<path d="M128.962 1213.81C147.275 1213.81 163.474 1223.27 173.518 1237.81C175.955 1241.35 175.955 1246.28 173.518 1249.82C163.474 1264.37 147.275 1273.82 128.962 1273.82C110.65 1273.82 94.4504 1264.36 84.4068 1249.82C81.9699 1246.28 81.9699 1241.35 84.4068 1237.81C94.4504 1223.26 110.65 1213.81 128.962 1213.81Z" fill="#DECAAD" stroke="#603813" stroke-width="9.39275" stroke-miterlimit="10"/>
<path d="M277.433 1420.11H241.577C216.35 1420.11 195.051 1401.37 191.84 1376.36L173.408 1233H345.615L327.183 1376.36C323.971 1401.37 302.659 1420.11 277.446 1420.11H277.433Z" fill="#DECAAD" stroke="#603813" stroke-width="9.39275" stroke-miterlimit="10"/>
<path d="M342.485 1199.37C339.552 1199.37 336.752 1199.88 334.138 1200.78C329.254 1187.83 316.767 1178.59 302.104 1178.59C297.18 1178.59 292.509 1179.65 288.276 1181.53C280.699 1174.57 270.613 1170.29 259.519 1170.29C248.426 1170.29 238.34 1174.57 230.763 1181.53C226.53 1179.65 221.859 1178.59 216.935 1178.59C202.272 1178.59 189.785 1187.83 184.901 1200.78C182.274 1199.88 179.474 1199.37 176.554 1199.37C162.302 1199.37 150.744 1210.93 150.744 1225.18C150.744 1239.44 162.302 1250.99 176.554 1250.99C184.941 1250.99 192.386 1246.97 197.096 1240.76C202.696 1244.76 209.544 1247.13 216.949 1247.13C221.872 1247.13 226.543 1246.07 230.776 1244.2C238.353 1251.15 248.439 1255.44 259.533 1255.44C270.627 1255.44 280.712 1251.15 288.289 1244.2C292.522 1246.07 297.194 1247.13 302.117 1247.13C309.522 1247.13 316.356 1244.76 321.969 1240.76C326.68 1246.97 334.111 1250.99 342.511 1250.99C356.764 1250.99 368.322 1239.44 368.322 1225.18C368.322 1210.93 356.764 1199.37 342.511 1199.37H342.485Z" fill="#D9AD7A" stroke="#603813" stroke-width="9.39275" stroke-miterlimit="10" stroke-linecap="round" stroke-linejoin="round"/>
<path d="M348.227 1301.01C348.488 1295.45 346.922 1290.37 344.211 1286.7C331.879 1273.15 319.632 1290.62 319.13 1301.31C318.896 1306.28 321.766 1312.7 321.766 1312.7C314.023 1316.7 309.099 1325.63 308.608 1336.09C308.106 1346.76 317.252 1351.32 324.683 1351.66C338.655 1352.32 346.976 1343.91 347.478 1333.23C347.805 1326.27 346.572 1319.8 342.504 1316.19C346.472 1312.87 347.921 1307.54 348.227 1301.01Z" fill="#D9AD7A" stroke="#603813" stroke-width="9.39275" stroke-miterlimit="10" stroke-linecap="round" stroke-linejoin="round"/>
<path d="M170.955 1301.01C170.694 1295.45 172.26 1290.37 174.971 1286.7C187.303 1273.15 199.55 1290.62 200.052 1301.31C200.286 1306.28 197.416 1312.7 197.416 1312.7C205.159 1316.7 210.083 1325.63 210.575 1336.09C211.076 1346.76 201.93 1351.32 194.499 1351.66C180.527 1352.32 172.206 1343.91 171.704 1333.23C171.377 1326.27 172.61 1319.8 176.678 1316.19C172.711 1312.87 171.262 1307.54 170.955 1301.01Z" fill="#D9AD7A" stroke="#603813" stroke-width="9.39275" stroke-miterlimit="10" stroke-linecap="round" stroke-linejoin="round"/>
<path d="M226.558 1286.74C226.558 1292.5 223.744 1295.13 220.268 1295.13C216.791 1295.13 213.978 1292.5 213.978 1286.74C213.978 1280.98 216.791 1276.32 220.268 1276.32C223.744 1276.32 226.558 1281 226.558 1286.74Z" fill="black" stroke="black" stroke-width="9.39275" stroke-miterlimit="10" stroke-linecap="round"/>
<path d="M292.471 1286.74C292.471 1292.5 295.284 1295.13 298.761 1295.13C302.238 1295.13 305.051 1292.5 305.051 1286.74C305.051 1280.98 302.238 1276.32 298.761 1276.32C295.284 1276.32 292.471 1281 292.471 1286.74Z" fill="black" stroke="black" stroke-width="9.39275" stroke-miterlimit="10" stroke-linecap="round"/>
<path d="M261.559 1340.18C259.701 1342.1 256.649 1342.1 254.791 1340.18C244.069 1329.07 233.506 1329.14 233.506 1337.3C233.506 1346.32 244.56 1353.62 258.175 1353.62C271.79 1353.62 282.858 1346.31 282.858 1337.3C282.858 1329.14 272.295 1329.07 261.559 1340.18Z" fill="black" stroke="black" stroke-width="9.39275" stroke-miterlimit="10" stroke-linecap="round"/>
<path d="M258.022 1358.72L258.022 1386.59" stroke="black" stroke-width="9.39275" stroke-miterlimit="10" stroke-linecap="round"/>
<path d="M237.545 1382.94C243.305 1387.49 255.115 1388.86 267.815 1385.8C280.514 1382.75 290.414 1376.18 293.479 1369.51" stroke="black" stroke-width="13.4235" stroke-miterlimit="10" stroke-linecap="round"/>
<path d="M386.58 1303.07C385.983 1296.11 387.801 1288.43 389.937 1281.44C393.786 1269.53 400.288 1257.94 409.285 1247.81C411.236 1245.61 411.289 1242.42 409.192 1240.15C406.764 1237.53 402.358 1237.13 399.373 1239.27C386.567 1248.43 375.752 1259.95 367.511 1273.06C356.788 1289.33 342.045 1326.89 375.698 1330.43" fill="#C69C6D"/>
<path d="M386.58 1303.07C385.983 1296.11 387.801 1288.43 389.937 1281.44C393.786 1269.53 400.288 1257.94 409.285 1247.81C411.236 1245.61 411.289 1242.42 409.192 1240.15C406.764 1237.53 402.358 1237.13 399.373 1239.27C386.567 1248.43 375.752 1259.95 367.511 1273.06C356.788 1289.33 342.045 1326.89 375.698 1330.43" stroke="#603813" stroke-width="9.39275" stroke-miterlimit="10" stroke-linecap="round"/>
<path d="M143.326 1330.43C176.98 1326.9 162.236 1289.33 151.514 1273.06C143.273 1259.95 132.458 1248.42 119.652 1239.27C116.653 1237.13 112.261 1237.53 109.832 1240.15C107.736 1242.42 107.789 1245.59 109.739 1247.81C118.737 1257.94 125.239 1269.53 129.087 1281.44C131.237 1288.44 133.042 1296.13 132.445 1303.07" fill="#C69C6D"/>
<path d="M143.326 1330.43C176.98 1326.9 162.236 1289.33 151.514 1273.06C143.273 1259.95 132.458 1248.42 119.652 1239.27C116.653 1237.13 112.261 1237.53 109.832 1240.15C107.736 1242.42 107.789 1245.59 109.739 1247.81C118.737 1257.94 125.239 1269.53 129.087 1281.44C131.237 1288.44 133.042 1296.13 132.445 1303.07" stroke="#603813" stroke-width="9.39275" stroke-miterlimit="10" stroke-linecap="round"/>
<path d="M350.914 201.969L334.913 142.085L327.86 141.375V133.043H355.6V141.375L348.168 142.464L356.263 175.98L357.73 182.134H358.014L359.766 175.98L373.4 133.043H383.577L397.732 177.163L399.389 182.607H399.673L401.093 177.163L409.472 142.464L401.614 141.375V133.043H428.833V141.375L422.253 142.085L406.063 201.969H393.566L380.5 161.683L378.844 156.003H378.559L376.713 161.873L363.506 201.969H350.914ZM446.784 202.963C441.893 202.963 437.616 201.89 433.955 199.744C430.295 197.566 427.454 194.584 425.434 190.797C423.446 187.01 422.452 182.686 422.452 177.826V175.932C422.452 170.851 423.399 166.354 425.292 162.441C427.186 158.496 429.853 155.403 433.293 153.162C436.764 150.922 440.851 149.801 445.553 149.801C450.193 149.801 454.09 150.717 457.246 152.547C460.402 154.377 462.801 157.013 464.442 160.453C466.083 163.893 466.903 168.058 466.903 172.95V180.477H436.796L436.701 180.761C436.89 183.002 437.443 185.006 438.358 186.773C439.305 188.509 440.63 189.882 442.334 190.891C444.039 191.87 446.106 192.359 448.536 192.359C451.061 192.359 453.412 192.043 455.589 191.412C457.798 190.749 459.944 189.787 462.027 188.525L465.767 197.046C463.653 198.75 460.986 200.17 457.767 201.306C454.579 202.411 450.919 202.963 446.784 202.963ZM436.89 171.34H453.98V170.11C453.98 168.027 453.696 166.244 453.128 164.76C452.591 163.246 451.708 162.078 450.477 161.257C449.277 160.437 447.715 160.026 445.79 160.026C443.96 160.026 442.413 160.516 441.151 161.494C439.889 162.441 438.894 163.75 438.169 165.423C437.474 167.096 437.001 168.989 436.748 171.104L436.89 171.34ZM472.537 201.969V193.684L479.211 192.264V137.872L471.827 136.452V128.12H493.034V192.264L499.709 193.684V201.969H472.537ZM528.349 202.963C523.426 202.963 519.165 201.858 515.568 199.649C512.001 197.44 509.256 194.395 507.331 190.513C505.406 186.599 504.443 182.134 504.443 177.116V175.696C504.443 170.646 505.421 166.181 507.378 162.299C509.335 158.417 512.096 155.372 515.662 153.162C519.229 150.922 523.426 149.801 528.255 149.801C532.862 149.801 536.823 150.527 540.137 151.979C543.482 153.399 546.196 155.056 548.279 156.949L548.184 171.625H537.77L535.923 162.488C535.166 161.731 534.203 161.115 533.036 160.642C531.868 160.169 530.685 159.932 529.485 159.932C526.961 159.932 524.862 160.563 523.189 161.825C521.548 163.088 520.317 164.887 519.497 167.222C518.676 169.557 518.266 172.382 518.266 175.696V177.116C518.266 180.619 518.724 183.507 519.639 185.779C520.554 188.02 521.769 189.676 523.284 190.749C524.83 191.822 526.55 192.359 528.444 192.359C530.874 192.359 532.815 191.728 534.267 190.465C535.75 189.171 536.76 187.357 537.296 185.021H549.131L549.273 185.305C548.736 188.935 547.663 192.075 546.054 194.726C544.476 197.377 542.235 199.412 539.332 200.833C536.46 202.253 532.799 202.963 528.349 202.963ZM576.993 202.963C571.943 202.963 567.604 201.858 563.975 199.649C560.345 197.44 557.568 194.379 555.643 190.465C553.718 186.52 552.755 181.992 552.755 176.879V175.885C552.755 170.804 553.718 166.307 555.643 162.393C557.568 158.449 560.329 155.372 563.927 153.162C567.557 150.922 571.88 149.801 576.898 149.801C581.979 149.801 586.319 150.922 589.916 153.162C593.514 155.372 596.275 158.433 598.201 162.346C600.126 166.259 601.088 170.772 601.088 175.885V176.879C601.088 181.992 600.126 186.52 598.201 190.465C596.275 194.379 593.514 197.44 589.916 199.649C586.319 201.858 582.011 202.963 576.993 202.963ZM576.993 192.359C579.391 192.359 581.348 191.712 582.863 190.418C584.378 189.124 585.498 187.325 586.224 185.021C586.95 182.686 587.313 179.972 587.313 176.879V175.885C587.313 172.855 586.95 170.189 586.224 167.885C585.498 165.549 584.362 163.735 582.815 162.441C581.301 161.115 579.328 160.453 576.898 160.453C574.531 160.453 572.574 161.115 571.028 162.441C569.482 163.735 568.346 165.549 567.62 167.885C566.925 170.189 566.578 172.855 566.578 175.885V176.879C566.578 179.972 566.925 182.686 567.62 185.021C568.346 187.357 569.482 189.171 571.028 190.465C572.574 191.728 574.563 192.359 576.993 192.359ZM602.891 201.969V193.684L609.566 192.264V160.5L602.181 159.08V150.748H622.395L622.963 157.518C624.604 155.056 626.655 153.162 629.117 151.837C631.61 150.48 634.482 149.801 637.732 149.801C641.015 149.801 643.823 150.527 646.159 151.979C648.526 153.431 650.293 155.624 651.461 158.559C653.039 155.813 655.09 153.667 657.615 152.121C660.139 150.574 663.106 149.801 666.514 149.801C671.564 149.801 675.54 151.521 678.444 154.961C681.379 158.401 682.846 163.64 682.846 170.678V192.264L689.521 193.684V201.969H663.059V193.684L669.023 192.264V170.63C669.023 166.843 668.392 164.224 667.13 162.772C665.899 161.289 664.1 160.547 661.733 160.547C659.587 160.547 657.772 161.163 656.289 162.393C654.806 163.593 653.733 165.186 653.07 167.175V192.264L658.656 193.684V201.969H633.709V193.684L639.295 192.264V170.63C639.295 166.938 638.663 164.334 637.401 162.819C636.17 161.305 634.34 160.547 631.91 160.547C629.953 160.547 628.265 160.942 626.844 161.731C625.424 162.52 624.257 163.656 623.341 165.139V192.264L629.306 193.684V201.969H602.891ZM715.253 202.963C710.361 202.963 706.085 201.89 702.424 199.744C698.763 197.566 695.923 194.584 693.903 190.797C691.915 187.01 690.92 182.686 690.92 177.826V175.932C690.92 170.851 691.867 166.354 693.761 162.441C695.654 158.496 698.321 155.403 701.761 153.162C705.233 150.922 709.319 149.801 714.022 149.801C718.661 149.801 722.559 150.717 725.715 152.547C728.87 154.377 731.269 157.013 732.91 160.453C734.551 163.893 735.372 168.058 735.372 172.95V180.477H705.264L705.169 180.761C705.359 183.002 705.911 185.006 706.826 186.773C707.773 188.509 709.099 189.882 710.803 190.891C712.507 191.87 714.574 192.359 717.004 192.359C719.529 192.359 721.88 192.043 724.058 191.412C726.267 190.749 728.413 189.787 730.496 188.525L734.236 197.046C732.121 198.75 729.454 200.17 726.235 201.306C723.048 202.411 719.387 202.963 715.253 202.963ZM705.359 171.34H722.448V170.11C722.448 168.027 722.164 166.244 721.596 164.76C721.06 163.246 720.176 162.078 718.945 161.257C717.746 160.437 716.184 160.026 714.258 160.026C712.428 160.026 710.882 160.516 709.619 161.494C708.357 162.441 707.363 163.75 706.637 165.423C705.943 167.096 705.469 168.989 705.217 171.104L705.359 171.34Z" fill="black"/>
<path d="M340.963 287.285V280.7L346.833 279.571V240.963H336.862L336.259 247.511H327.943V232.497H376.824V247.511H368.47L367.868 240.963H357.821V279.571L363.729 280.7V287.285H340.963ZM388.304 288.075C384.265 288.075 381.054 286.997 378.671 284.839C376.288 282.657 375.096 279.697 375.096 275.959C375.096 272.12 376.652 269.01 379.762 266.627C382.873 264.218 387.426 263.014 393.422 263.014H398.803V260.004C398.803 258.047 398.226 256.467 397.072 255.262C395.943 254.033 394.237 253.419 391.954 253.419C390.775 253.419 389.722 253.569 388.793 253.87C387.865 254.146 387.012 254.547 386.234 255.074L385.369 260.455H377.467L377.316 249.881C379.449 248.677 381.757 247.699 384.24 246.946C386.724 246.194 389.496 245.817 392.556 245.817C397.875 245.817 402.077 247.059 405.162 249.543C408.248 252.001 409.791 255.526 409.791 260.117V276.899C409.791 277.451 409.791 278.003 409.791 278.555C409.816 279.082 409.866 279.596 409.941 280.098L414.193 280.7V287.285H400.571C400.295 286.583 400.019 285.83 399.744 285.027C399.468 284.225 399.267 283.422 399.141 282.619C397.837 284.275 396.294 285.604 394.513 286.608C392.757 287.586 390.687 288.075 388.304 288.075ZM391.239 279.947C392.769 279.947 394.225 279.609 395.604 278.931C396.984 278.229 398.05 277.313 398.803 276.184V269.75H393.384C390.976 269.75 389.145 270.302 387.89 271.405C386.661 272.509 386.046 273.839 386.046 275.394C386.046 276.849 386.498 277.978 387.401 278.781C388.329 279.559 389.609 279.947 391.239 279.947ZM414.761 302.939V296.316L420.066 295.187V254.322L414.196 253.193V246.57H430.151L430.678 251.311C431.882 249.555 433.337 248.201 435.043 247.247C436.749 246.294 438.781 245.817 441.139 245.817C444.425 245.817 447.235 246.721 449.568 248.527C451.901 250.308 453.682 252.804 454.911 256.015C456.166 259.226 456.793 262.976 456.793 267.266V268.056C456.793 272.07 456.166 275.582 454.911 278.593C453.682 281.578 451.889 283.911 449.53 285.592C447.197 287.248 444.375 288.075 441.064 288.075C438.881 288.075 436.95 287.687 435.269 286.909C433.613 286.106 432.196 284.94 431.017 283.409V295.187L436.322 296.316V302.939H414.761ZM437.79 279.646C440.6 279.646 442.632 278.605 443.886 276.523C445.165 274.441 445.805 271.619 445.805 268.056V267.266C445.805 264.682 445.517 262.437 444.94 260.531C444.363 258.599 443.472 257.094 442.268 256.015C441.089 254.911 439.571 254.359 437.715 254.359C436.21 254.359 434.88 254.698 433.726 255.375C432.597 256.053 431.694 257.018 431.017 258.273V276.109C431.694 277.263 432.597 278.141 433.726 278.743C434.88 279.345 436.235 279.646 437.79 279.646ZM496.567 288.075C492.779 288.075 489.857 287.034 487.8 284.952C485.768 282.87 484.752 279.571 484.752 275.056V254.284H479.145V246.57H484.752V236.598H495.702V246.57H503.19V254.284H495.702V275.018C495.702 276.598 496.028 277.727 496.68 278.405C497.358 279.082 498.273 279.421 499.427 279.421C500.054 279.421 500.707 279.383 501.384 279.308C502.086 279.207 502.688 279.107 503.19 279.007L504.131 286.946C503.002 287.273 501.773 287.536 500.443 287.737C499.139 287.962 497.847 288.075 496.567 288.075ZM523.701 288.075C519.687 288.075 516.238 287.197 513.353 285.441C510.468 283.685 508.261 281.252 506.73 278.141C505.2 275.005 504.435 271.405 504.435 267.341V266.551C504.435 262.512 505.2 258.938 506.73 255.827C508.261 252.691 510.456 250.245 513.315 248.489C516.2 246.708 519.637 245.817 523.626 245.817C527.665 245.817 531.114 246.708 533.974 248.489C536.834 250.245 539.029 252.679 540.559 255.789C542.09 258.9 542.855 262.487 542.855 266.551V267.341C542.855 271.405 542.09 275.005 540.559 278.141C539.029 281.252 536.834 283.685 533.974 285.441C531.114 287.197 527.69 288.075 523.701 288.075ZM523.701 279.646C525.608 279.646 527.163 279.132 528.367 278.104C529.571 277.075 530.462 275.645 531.039 273.814C531.616 271.957 531.904 269.8 531.904 267.341V266.551C531.904 264.143 531.616 262.023 531.039 260.192C530.462 258.335 529.559 256.893 528.33 255.864C527.126 254.811 525.558 254.284 523.626 254.284C521.744 254.284 520.189 254.811 518.96 255.864C517.731 256.893 516.828 258.335 516.251 260.192C515.699 262.023 515.423 264.143 515.423 266.551V267.341C515.423 269.8 515.699 271.957 516.251 273.814C516.828 275.67 517.731 277.113 518.96 278.141C520.189 279.145 521.77 279.646 523.701 279.646ZM588.763 288.075C584.724 288.075 581.049 287.624 577.737 286.721C574.426 285.818 571.165 284.25 567.954 282.017V268.771H576.458L577.624 276.561C578.753 277.514 580.309 278.292 582.29 278.894C584.272 279.471 586.43 279.759 588.763 279.759C590.745 279.759 592.413 279.483 593.767 278.931C595.147 278.379 596.188 277.602 596.891 276.598C597.618 275.57 597.982 274.366 597.982 272.986C597.982 271.681 597.656 270.527 597.004 269.524C596.376 268.495 595.323 267.567 593.843 266.739C592.388 265.886 590.406 265.071 587.897 264.294C583.557 263.014 579.957 261.622 577.098 260.117C574.263 258.586 572.13 256.768 570.701 254.66C569.296 252.528 568.593 249.969 568.593 246.984C568.593 244.024 569.409 241.415 571.039 239.157C572.695 236.874 574.978 235.08 577.888 233.776C580.798 232.471 584.159 231.794 587.972 231.744C592.187 231.694 595.912 232.196 599.148 233.249C602.41 234.303 605.219 235.77 607.577 237.652V249.994H599.337L597.907 242.468C596.953 241.866 595.661 241.339 594.031 240.888C592.425 240.436 590.594 240.211 588.537 240.211C586.781 240.211 585.226 240.474 583.871 241.001C582.541 241.528 581.488 242.293 580.71 243.296C579.932 244.3 579.543 245.516 579.543 246.946C579.543 248.176 579.882 249.254 580.559 250.182C581.237 251.086 582.366 251.951 583.946 252.779C585.552 253.582 587.759 254.447 590.569 255.375C596.615 257.056 601.193 259.276 604.304 262.036C607.44 264.795 609.007 268.42 609.007 272.911C609.007 276.021 608.167 278.718 606.486 281.001C604.805 283.259 602.447 285.002 599.412 286.232C596.376 287.461 592.827 288.075 588.763 288.075ZM627.316 288.075C623.528 288.075 620.606 287.034 618.549 284.952C616.517 282.87 615.501 279.571 615.501 275.056V254.284H609.894V246.57H615.501V236.598H626.451V246.57H633.939V254.284H626.451V275.018C626.451 276.598 626.777 277.727 627.429 278.405C628.107 279.082 629.022 279.421 630.176 279.421C630.803 279.421 631.456 279.383 632.133 279.308C632.835 279.207 633.438 279.107 633.939 279.007L634.88 286.946C633.751 287.273 632.522 287.536 631.192 287.737C629.888 287.962 628.596 288.075 627.316 288.075ZM650.329 288.075C646.29 288.075 643.079 286.997 640.696 284.839C638.313 282.657 637.121 279.697 637.121 275.959C637.121 272.12 638.677 269.01 641.787 266.627C644.898 264.218 649.451 263.014 655.447 263.014H660.828V260.004C660.828 258.047 660.251 256.467 659.097 255.262C657.968 254.033 656.262 253.419 653.979 253.419C652.8 253.419 651.747 253.569 650.818 253.87C649.89 254.146 649.037 254.547 648.26 255.074L647.394 260.455H639.492L639.341 249.881C641.474 248.677 643.782 247.699 646.265 246.946C648.749 246.194 651.521 245.817 654.581 245.817C659.9 245.817 664.102 247.059 667.187 249.543C670.273 252.001 671.816 255.526 671.816 260.117V276.899C671.816 277.451 671.816 278.003 671.816 278.555C671.841 279.082 671.891 279.596 671.966 280.098L676.218 280.7V287.285H662.596C662.32 286.583 662.044 285.83 661.769 285.027C661.493 284.225 661.292 283.422 661.166 282.619C659.862 284.275 658.319 285.604 656.538 286.608C654.782 287.586 652.712 288.075 650.329 288.075ZM653.264 279.947C654.795 279.947 656.25 279.609 657.629 278.931C659.009 278.229 660.075 277.313 660.828 276.184V269.75H655.409C653.001 269.75 651.17 270.302 649.915 271.405C648.686 272.509 648.071 273.839 648.071 275.394C648.071 276.849 648.523 277.978 649.426 278.781C650.354 279.559 651.634 279.947 653.264 279.947ZM680.189 287.285V280.7L685.457 279.571V254.322L679.625 253.193V246.57H695.692L696.106 251.612L696.182 252.515C697.185 250.308 698.427 248.64 699.907 247.511C701.387 246.382 703.156 245.817 705.213 245.817C705.865 245.817 706.58 245.88 707.357 246.006C708.135 246.106 708.825 246.244 709.427 246.419L708.261 256.542L702.804 256.241C701.249 256.166 699.982 256.429 699.004 257.031C698.05 257.633 697.198 258.499 696.445 259.627V279.571L701.713 280.7V287.285H680.189ZM729.597 288.075C725.808 288.075 722.886 287.034 720.829 284.952C718.797 282.87 717.781 279.571 717.781 275.056V254.284H712.174V246.57H717.781V236.598H728.731V246.57H736.219V254.284H728.731V275.018C728.731 276.598 729.057 277.727 729.709 278.405C730.387 279.082 731.302 279.421 732.456 279.421C733.084 279.421 733.736 279.383 734.413 279.308C735.116 279.207 735.718 279.107 736.219 279.007L737.16 286.946C736.031 287.273 734.802 287.536 733.472 287.737C732.168 287.962 730.876 288.075 729.597 288.075Z" fill="black"/>
<rect x="33.7334" y="504.227" width="1007.7" height="429.09" fill="url(#paint0_linear_3616_2374)"/>
<g filter="url(#filter0_dddddd_3616_2374)">
<circle cx="961.182" cy="718.771" r="47.5518" fill="#FFC549"/>
</g>
<path d="M1043.42 817.018C986.796 802.893 932.852 810.592 871.169 820.113C809.377 829.652 739.292 841.138 649.157 835.48C466.841 824.035 292.049 867.967 134.087 901.229C114.153 905.427 100.191 909.984 91.1183 914.912C82.2342 919.737 76.4172 925.888 76.6481 933.594C76.8575 940.576 82.1577 946.348 88.0551 950.882C94.2462 955.642 102.506 960.091 111.185 964.103C121.439 968.844 132.699 973.155 142.408 976.735C132.067 976.919 124.502 978.78 118.773 981.977C110.343 986.682 106.84 993.766 104.264 999.429C101.512 1005.48 99.9948 1009.09 96.3987 1011.37C92.8841 1013.6 86.1377 1015.17 71.422 1012.46L67.2408 1021.54L176.359 1095.62L177.55 1096.43L179.033 1096.43L1041.62 1096.43L1046.93 1096.43L1046.93 1091.14L1046.93 821.552L1046.93 817.893L1043.42 817.018Z" fill="#86CF70" stroke="#2DA522" stroke-width="9.98464"/>
<path d="M34.7317 910.697C299.075 878.372 237.794 953.616 617.835 973.918C997.875 994.221 1033.69 1014.19 1050.54 1117.2L662.516 1117.2L34.7319 1117.2L34.7317 910.697Z" fill="#8ED878" stroke="#2DA522" stroke-width="9.98464"/>
<rect x="35.2312" y="500.231" width="1008.2" height="625.538" stroke="white" stroke-width="24.4624"/>
</g>
<defs>
<filter id="filter0_dddddd_3616_2374" x="851.226" y="608.815" width="219.911" height="219.913" filterUnits="userSpaceOnUse" color-interpolation-filters="sRGB">
<feFlood flood-opacity="0" result="BackgroundImageFix"/>
<feColorMatrix in="SourceAlpha" type="matrix" values="0 0 0 0 0 0 0 0 0 0 0 0 0 0 0 0 0 0 127 0" result="hardAlpha"/>
<feOffset/>
<feGaussianBlur stdDeviation="1.82339"/>
<feColorMatrix type="matrix" values="0 0 0 0 1 0 0 0 0 0.772549 0 0 0 0 0.286275 0 0 0 1 0"/>
<feBlend mode="normal" in2="BackgroundImageFix" result="effect1_dropShadow_3616_2374"/>
<feColorMatrix in="SourceAlpha" type="matrix" values="0 0 0 0 0 0 0 0 0 0 0 0 0 0 0 0 0 0 127 0" result="hardAlpha"/>
<feOffset/>
<feGaussianBlur stdDeviation="3.64678"/>
<feColorMatrix type="matrix" values="0 0 0 0 1 0 0 0 0 0.772549 0 0 0 0 0.286275 0 0 0 1 0"/>
<feBlend mode="normal" in2="effect1_dropShadow_3616_2374" result="effect2_dropShadow_3616_2374"/>
<feColorMatrix in="SourceAlpha" type="matrix" values="0 0 0 0 0 0 0 0 0 0 0 0 0 0 0 0 0 0 127 0" result="hardAlpha"/>
<feOffset/>
<feGaussianBlur stdDeviation="12.7637"/>
<feColorMatrix type="matrix" values="0 0 0 0 1 0 0 0 0 0.772549 0 0 0 0 0.286275 0 0 0 1 0"/>
<feBlend mode="normal" in2="effect2_dropShadow_3616_2374" result="effect3_dropShadow_3616_2374"/>
<feColorMatrix in="SourceAlpha" type="matrix" values="0 0 0 0 0 0 0 0 0 0 0 0 0 0 0 0 0 0 127 0" result="hardAlpha"/>
<feOffset/>
<feGaussianBlur stdDeviation="25.5275"/>
<feColorMatrix type="matrix" values="0 0 0 0 1 0 0 0 0 0.772549 0 0 0 0 0.286275 0 0 0 1 0"/>
<feBlend mode="normal" in2="effect3_dropShadow_3616_2374" result="effect4_dropShadow_3616_2374"/>
<feColorMatrix in="SourceAlpha" type="matrix" values="0 0 0 0 0 0 0 0 0 0 0 0 0 0 0 0 0 0 127 0" result="hardAlpha"/>
<feOffset/>
<feGaussianBlur stdDeviation="31.202"/>
<feColorMatrix type="matrix" values="0 0 0 0 1 0 0 0 0 0.772549 0 0 0 0 0.286275 0 0 0 1 0"/>
<feBlend mode="normal" in2="effect4_dropShadow_3616_2374" result="effect5_dropShadow_3616_2374"/>
<feColorMatrix in="SourceAlpha" type="matrix" values="0 0 0 0 0 0 0 0 0 0 0 0 0 0 0 0 0 0 127 0" result="hardAlpha"/>
<feOffset/>
<feGaussianBlur stdDeviation="31.202"/>
<feColorMatrix type="matrix" values="0 0 0 0 1 0 0 0 0 0.772549 0 0 0 0 0.286275 0 0 0 1 0"/>
<feBlend mode="normal" in2="effect5_dropShadow_3616_2374" result="effect6_dropShadow_3616_2374"/>
<feBlend mode="normal" in="SourceGraphic" in2="effect6_dropShadow_3616_2374" result="shape"/>
</filter>
<linearGradient id="paint0_linear_3616_2374" x1="81.6597" y1="1172.32" x2="609.722" y2="441.074" gradientUnits="userSpaceOnUse">
<stop stop-color="#76A8F9"/>
<stop offset="1" stop-color="#F59547"/>
</linearGradient>
<clipPath id="clip0_3616_2374">
<rect width="1080" height="1920" fill="white"/>
</clipPath>
</defs>
</svg>
