<svg width="500" height="500" viewBox="0 0 500 500" fill="none" xmlns="http://www.w3.org/2000/svg">
<path d="M192.572 125.805C159.881 112.65 280.207 108.551 315.17 106.734C386.912 107.455 465.963 112.959 442.534 126.486C413.247 143.395 362.845 146.656 313.126 146.919C271.747 147.137 227.164 139.724 192.572 125.805Z" fill="#EDC24B" stroke="#B39133" stroke-width="8.21788" stroke-linecap="round"/>
<path d="M276.74 84.7273C281.08 76.8746 289.344 72 298.316 72H331.804C340.985 72 349.406 77.1022 353.656 85.2407L373.064 122.401C373.064 122.401 378.513 130.574 314.49 130.574C250.467 130.574 255.916 122.401 255.916 122.401L276.74 84.7273Z" fill="#EDC24B"/>
<path d="M373.744 121.039C373.744 121.039 358.76 127.85 315.852 127.85C272.943 127.85 258.64 122.401 255.234 121.039" stroke="#377FE4" stroke-width="12.3268"/>
<path d="M368.977 112.867C368.977 112.867 355.198 119.678 315.742 119.678C276.286 119.678 263.133 114.229 260.002 112.867" stroke="#D7AD39" stroke-width="2.05447"/>
<path d="M366.252 104.695C366.252 104.695 353.163 111.506 315.679 111.506C278.196 111.506 265.701 106.058 262.727 104.695" stroke="#D7AD39" stroke-width="2.05447"/>
<path d="M362.167 96.5196C362.167 96.5196 350.111 103.33 315.587 103.33C281.063 103.33 269.554 97.8817 266.814 96.5195" stroke="#D7AD39" stroke-width="2.05447"/>
<path d="M358.08 88.3477C358.08 88.3477 347.057 95.1586 315.492 95.1586C283.927 95.1586 273.406 89.7099 270.9 88.3477" stroke="#D7AD39" stroke-width="2.05447"/>
<path d="M352.628 80.1719C352.628 80.1719 342.983 86.9828 315.364 86.9828C287.744 86.9828 278.538 81.5341 276.346 80.1719" stroke="#D7AD39" stroke-width="2.05447"/>
<path d="M347.182 72.0001C347.182 72.0001 338.915 78.8109 315.241 78.8109C291.567 78.8109 283.676 73.3622 281.797 72" stroke="#D7AD39" stroke-width="2.05447"/>
<path d="M331.804 68.918C342.133 68.918 351.606 74.6587 356.388 83.8145L375.763 120.913C375.771 120.928 375.781 120.943 375.789 120.959C375.846 121.065 375.907 121.191 375.965 121.334C376.081 121.621 376.191 121.988 376.237 122.424C376.337 123.352 376.129 124.371 375.512 125.337C374.402 127.074 372.158 128.366 368.691 129.433C361.568 131.624 346.514 133.655 314.49 133.655C282.466 133.655 267.411 131.624 260.288 129.433C256.821 128.366 254.578 127.074 253.468 125.337C252.851 124.371 252.644 123.352 252.743 122.424C252.79 121.988 252.898 121.621 253.015 121.334C253.073 121.191 253.134 121.065 253.191 120.959C253.201 120.942 253.211 120.926 253.22 120.91H253.219L274.042 83.2363C278.925 74.4021 288.222 68.918 298.316 68.918H331.804Z" stroke="#B39133" stroke-width="6.16341"/>
</svg>
