<svg width="500" height="500" viewBox="0 0 500 500" fill="none" xmlns="http://www.w3.org/2000/svg">
<path d="M388.102 84.9156C384.725 192.232 356.013 100.78 317.083 99.5548C278.153 98.3297 243.748 187.796 247.125 80.4792C248.172 47.2322 280.184 33.8174 319.113 35.0425C358.043 36.2676 389.148 51.6686 388.102 84.9156Z" fill="#506FC8"/>
<path d="M388.102 84.9156C384.725 192.232 356.013 100.78 317.083 99.5548C278.153 98.3297 243.748 187.796 247.125 80.4792C248.172 47.2322 280.184 33.8174 319.113 35.0425C358.043 36.2676 389.148 51.6686 388.102 84.9156Z" fill="#010000" fill-opacity="0.25"/>
<path d="M388.1 84.917C389.147 51.67 358.041 36.2687 319.112 35.0437C280.182 33.8186 248.17 47.2335 247.124 80.4805L247.052 82.9599C244.285 186.405 278.456 98.3405 317.082 99.556C355.707 100.772 384.274 190.81 388.016 87.396L388.1 84.917ZM394.074 85.105C393.648 98.6337 392.819 109.207 391.584 117.308C390.37 125.272 388.687 131.407 386.221 135.653C384.952 137.837 383.324 139.789 381.187 141.152C378.966 142.568 376.525 143.135 374.08 143C369.61 142.752 365.524 140.176 362.276 137.674C358.843 135.03 355.204 131.535 351.609 128.049C347.922 124.474 344.174 120.8 340.229 117.408C332.157 110.465 324.428 105.766 316.894 105.529C309.359 105.292 301.349 109.496 292.857 115.917C288.707 119.055 284.736 122.485 280.831 125.822C277.024 129.074 273.172 132.334 269.58 134.757C266.181 137.05 261.941 139.364 257.464 139.33C255.016 139.311 252.615 138.591 250.488 137.039C248.44 135.544 246.938 133.494 245.809 131.234C243.615 126.842 242.321 120.613 241.61 112.589C240.887 104.426 240.724 93.8212 241.15 80.2925C241.745 61.3844 251.333 47.9156 265.968 39.6337C280.278 31.5359 299.239 28.439 319.3 29.0703C339.36 29.7016 358.089 33.9846 371.861 42.9661C385.947 52.1519 394.669 66.1968 394.074 85.105Z" fill="#282828"/>
<path d="M386.632 131.513C385.586 164.759 355.746 109.147 316.817 107.922C277.887 106.697 244.61 160.323 245.656 127.076C246.308 106.373 278.301 93.5556 317.23 94.7807C356.16 96.0058 387.284 110.81 386.632 131.513Z" fill="#506FC8"/>
<path d="M316.819 107.919C355.445 109.135 385.122 163.891 386.605 132.273L386.635 131.51C387.286 110.807 356.162 96.0031 317.233 94.778C278.303 93.5529 246.31 106.371 245.658 127.073L245.64 127.837C245.133 159.486 278.194 106.704 316.819 107.919ZM392.608 131.698C392.472 136.039 391.879 140.119 390.06 143.159C389.06 144.832 387.599 146.341 385.569 147.244C383.568 148.134 381.552 148.196 379.833 147.926C376.677 147.431 373.599 145.662 371.033 143.951C368.309 142.134 365.301 139.774 362.215 137.32C355.891 132.295 348.83 126.561 340.978 121.951C333.146 117.353 324.98 114.156 316.631 113.893C308.283 113.63 299.932 116.307 291.826 120.405C283.7 124.512 276.292 129.79 269.665 134.408C266.43 136.662 263.28 138.829 260.447 140.471C257.779 142.018 254.596 143.589 251.415 143.885C249.682 144.046 247.674 143.858 245.733 142.843C243.764 141.814 242.4 140.216 241.507 138.484C239.884 135.336 239.548 131.227 239.685 126.885C240.12 113.063 250.971 103.205 264.704 97.2235C278.681 91.1354 297.347 88.173 317.421 88.8047C337.494 89.4364 355.937 93.5666 369.503 100.521C382.833 107.355 393.043 117.875 392.608 131.698Z" fill="#282828"/>
<path d="M327.512 34.1192C327.491 34.779 324.399 35.2171 320.605 35.0977C316.811 34.9783 313.752 34.3467 313.773 33.6869C313.794 33.0271 316.886 32.589 320.68 32.7084C324.474 32.8278 327.533 33.4594 327.512 34.1192Z" fill="#506FC8"/>
<path d="M327.512 34.1192C327.491 34.779 324.399 35.2171 320.605 35.0977C316.811 34.9783 313.752 34.3467 313.773 33.6869C313.794 33.0271 316.886 32.589 320.68 32.7084C324.474 32.8278 327.533 33.4594 327.512 34.1192Z" fill="#010000" fill-opacity="0.2"/>
<path d="M327.513 34.1087C327.533 33.4489 324.475 32.8172 320.681 32.6978C316.887 32.5785 313.794 33.0165 313.773 33.6763C313.753 34.3361 316.811 34.9678 320.605 35.0872C324.399 35.2066 327.492 34.7685 327.513 34.1087ZM333.486 34.2967C333.405 36.8809 331.835 38.425 331.091 39.0182C330.298 39.6501 329.504 39.9851 329.056 40.1529C328.107 40.5086 327.105 40.6953 326.312 40.8075C324.629 41.0459 322.549 41.1276 320.417 41.0606C318.286 40.9935 316.215 40.7811 314.55 40.4374C313.766 40.2755 312.778 40.0262 311.853 39.6115C311.417 39.416 310.645 39.0316 309.894 38.3511C309.188 37.7124 307.718 36.0725 307.8 33.4884C307.881 30.9042 309.451 29.36 310.195 28.7669C310.988 28.135 311.782 27.7999 312.23 27.6321C313.179 27.2765 314.181 27.0898 314.974 26.9775C316.657 26.7391 318.737 26.6574 320.869 26.7245C323 26.7916 325.071 27.0039 326.736 27.3476C327.52 27.5095 328.508 27.7589 329.433 28.1735C329.869 28.3691 330.641 28.7535 331.392 29.4339C332.098 30.0727 333.568 31.7125 333.486 34.2967Z" fill="#282828"/>
</svg>
