<svg width="500" height="500" viewBox="0 0 500 500" fill="none" xmlns="http://www.w3.org/2000/svg">
<path d="M345.764 135.268C345.768 135.277 345.774 135.29 345.779 135.309L350.282 150.021C351.127 152.781 353.675 154.665 356.561 154.665H371.534C371.553 154.665 371.567 154.667 371.576 154.668C371.583 154.678 371.59 154.692 371.596 154.709C371.601 154.726 371.603 154.741 371.604 154.753C371.597 154.76 371.589 154.77 371.574 154.781L359.125 164.384C356.961 166.053 356.057 168.89 356.857 171.504L361.531 186.773C361.537 186.791 361.538 186.805 361.54 186.814C361.532 186.824 361.521 186.836 361.506 186.847C361.49 186.857 361.475 186.863 361.464 186.867C361.455 186.862 361.443 186.856 361.429 186.845L349.728 177.818C347.365 175.996 344.071 175.996 341.708 177.818L330.006 186.845C329.991 186.856 329.978 186.862 329.97 186.867C329.959 186.863 329.944 186.857 329.93 186.847C329.914 186.836 329.903 186.824 329.895 186.815C329.896 186.806 329.899 186.791 329.904 186.773L334.578 171.504C335.378 168.89 334.474 166.053 332.31 164.384L319.86 154.781C319.846 154.77 319.837 154.76 319.83 154.753C319.831 154.741 319.833 154.726 319.839 154.709C319.845 154.692 319.852 154.678 319.858 154.668C319.868 154.667 319.882 154.665 319.9 154.665H334.875C337.761 154.665 340.308 152.781 341.152 150.021L345.655 135.309C345.661 135.29 345.667 135.277 345.671 135.268C345.683 135.265 345.699 135.263 345.718 135.263C345.736 135.263 345.752 135.265 345.764 135.268Z" fill="#CD1EEC" fill-opacity="0.5" stroke="#CD1EEC" stroke-width="6.5"/>
<path d="M383.302 154.069L379.066 152.048C376.459 150.804 373.742 153.301 374.701 156.059L383.436 157.105L383.302 154.069Z" fill="#CD1EEC"/>
<path d="M286.996 135.268C286.992 135.277 286.986 135.29 286.98 135.309L282.478 150.021C281.633 152.781 279.085 154.665 276.199 154.665H261.226C261.207 154.665 261.193 154.667 261.184 154.668C261.177 154.678 261.17 154.692 261.164 154.709C261.158 154.726 261.157 154.741 261.156 154.753C261.163 154.76 261.171 154.77 261.186 154.781L273.635 164.384C275.799 166.053 276.702 168.89 275.902 171.504L271.229 186.773C271.223 186.791 271.222 186.805 271.22 186.814C271.228 186.824 271.238 186.836 271.254 186.847C271.269 186.857 271.285 186.863 271.296 186.867C271.304 186.862 271.317 186.856 271.331 186.845L283.032 177.818C285.395 175.996 288.689 175.996 291.052 177.818L302.754 186.845C302.769 186.856 302.782 186.862 302.79 186.867C302.801 186.863 302.815 186.857 302.83 186.847C302.845 186.836 302.857 186.824 302.865 186.815C302.863 186.806 302.861 186.791 302.855 186.773L298.182 171.504C297.382 168.89 298.286 166.053 300.45 164.384L312.899 154.781C312.914 154.77 312.923 154.76 312.93 154.753C312.929 154.741 312.927 154.726 312.921 154.709C312.915 154.692 312.908 154.678 312.901 154.668C312.892 154.667 312.878 154.665 312.859 154.665H297.885C294.999 154.665 292.452 152.781 291.607 150.021L287.104 135.309C287.099 135.29 287.093 135.277 287.089 135.268C287.077 135.265 287.061 135.263 287.042 135.263C287.024 135.263 287.008 135.265 286.996 135.268Z" fill="#CD1EEC" fill-opacity="0.5" stroke="#CD1EEC" stroke-width="6.5"/>
<path d="M251.452 154.069L256.177 151.945C258.82 150.758 261.587 153.341 260.584 156.059L251.31 157.105L251.452 154.069Z" fill="#CD1EEC"/>
</svg>
