<svg width="500" height="500" viewBox="0 0 500 500" fill="none" xmlns="http://www.w3.org/2000/svg">
<path d="M346.512 401.551V461.701C346.512 470.066 353.322 476.838 361.714 476.838C370.115 476.838 376.916 470.057 376.916 461.701V401.551" fill="#DECAAD"/>
<path d="M346.512 401.551V461.701C346.512 470.066 353.322 476.838 361.714 476.838C370.115 476.838 376.916 470.057 376.916 461.701V401.551" stroke="#603813" stroke-width="6.63305" stroke-miterlimit="10"/>
<path d="M257.471 401.551V461.701C257.471 470.066 264.281 476.838 272.673 476.838C281.074 476.838 287.875 470.057 287.875 461.701V401.551" fill="#DECAAD"/>
<path d="M257.471 401.551V461.701C257.471 470.066 264.281 476.838 272.673 476.838C281.074 476.838 287.875 470.057 287.875 461.701V401.551" stroke="#603813" stroke-width="6.63305" stroke-miterlimit="10"/>
<path opacity="0.1" d="M434.504 272.561C438.687 276.942 441.621 282.531 442.751 288.746V300.187C441.621 306.391 438.685 311.979 434.502 316.36C438.684 320.749 441.62 326.334 442.751 332.547V343.995C441.089 353.106 435.533 360.869 427.884 365.479C433.074 376.461 431.714 389.948 423.268 399.773L423.267 399.774C414.768 409.653 401.517 413.032 389.812 409.417C384.976 420.661 373.814 428.568 360.773 428.635L360.766 428.636H360.446C351.954 428.636 344.228 425.285 338.535 419.85C332.847 425.28 325.122 428.636 316.625 428.636C308.131 428.636 300.421 425.284 294.737 419.849C289.041 425.277 281.328 428.636 272.832 428.636C259.853 428.636 248.7 420.833 243.772 409.677C232.11 413.388 218.842 410.138 210.255 400.332L210.253 400.33C201.719 390.571 200.221 377.077 205.347 366.034C204.145 365.319 202.994 364.526 201.9 363.664L205.307 360.167C258.515 384.78 410.536 413.736 425.738 272.572L434.774 272.27C434.684 272.367 434.595 272.465 434.504 272.561Z" fill="black"/>
<path d="M360.478 428.247H360.543H360.789C373.588 428.182 384.374 419.69 387.9 408.071C399.041 412.929 412.491 410.214 420.831 400.521C429.127 390.871 429.8 377.269 423.458 367.003C433.239 362.515 440.043 352.605 440.043 341.138C440.043 332.321 436.04 324.437 429.735 319.21C436.04 314.005 440.043 306.108 440.043 297.312C440.043 288.487 436.04 280.59 429.735 275.385C436.04 270.172 440.043 262.274 440.043 253.457C440.043 244.205 435.599 235.953 428.729 230.77C436.474 223.61 439.928 212.433 436.692 201.668C433.014 189.412 421.815 181.471 409.646 181.406C411.137 169.353 404.723 157.205 393.061 151.979C382.166 147.078 369.824 149.597 361.708 157.408C356.569 149.923 347.969 145 338.21 145C329.386 145 321.509 149.032 316.305 155.309C311.071 149.025 303.194 145 294.377 145C284.597 145 275.953 149.944 270.835 157.495C262.655 149.705 250.226 147.259 239.352 152.268C227.733 157.603 221.428 169.794 223.028 181.826C210.859 182.021 199.725 190.049 196.156 202.349C193.022 213.092 196.525 224.189 204.25 231.255C197.423 236.46 193 244.662 193 253.92C193 262.738 197.01 270.614 203.309 275.819C197.003 281.053 193 288.929 193 297.746C193 306.571 197.01 314.447 203.309 319.674C197.003 324.886 193 332.762 193 341.579C193 353.133 199.892 363.065 209.759 367.532C203.475 377.862 204.286 391.472 212.669 401.056C221.095 410.677 234.553 413.262 245.643 408.317C249.277 419.864 260.064 428.247 272.797 428.247C281.614 428.247 289.498 424.215 294.725 417.916C299.93 424.222 307.806 428.247 316.623 428.247C325.448 428.247 333.345 424.215 338.55 417.916C343.763 424.222 351.661 428.247 360.478 428.247Z" stroke="#603813" stroke-width="6.63305" stroke-miterlimit="10"/>
<path d="M252.264 268.641V318.663C252.264 325.62 257.903 331.252 264.853 331.252C271.809 331.252 277.441 325.613 277.441 318.663V268.641" fill="#DECAAD"/>
<path d="M252.264 268.641V318.663C252.264 325.62 257.903 331.252 264.853 331.252C271.809 331.252 277.441 325.613 277.441 318.663V268.641" stroke="#603813" stroke-width="6.63305" stroke-miterlimit="10"/>
<path d="M282.084 261.156C281.75 263.39 280.413 265.434 278.206 267.083C275.999 268.731 273.001 269.926 269.513 270.547C266.025 271.168 262.169 271.193 258.334 270.62C254.499 270.047 250.819 268.896 247.664 267.282" stroke="#603813" stroke-width="6.63305" stroke-linecap="round"/>
<path d="M380.676 268.645V318.667C380.676 325.624 375.037 331.256 368.087 331.256C361.13 331.256 355.498 325.617 355.498 318.667V268.645" fill="#DECAAD"/>
<path d="M380.676 268.645V318.667C380.676 325.624 375.037 331.256 368.087 331.256C361.13 331.256 355.498 325.617 355.498 318.667V268.645" stroke="#603813" stroke-width="6.63305" stroke-miterlimit="10"/>
<path d="M350.852 261.156C351.186 263.39 352.524 265.434 354.73 267.083C356.937 268.731 359.935 269.926 363.424 270.547C366.912 271.168 370.768 271.193 374.603 270.62C378.438 270.047 382.118 268.896 385.272 267.282" stroke="#603813" stroke-width="6.63305" stroke-linecap="round"/>
<path d="M360.735 431.486H360.796H361.025C372.951 431.425 383.002 423.512 386.287 412.686C396.669 417.212 409.202 414.682 416.973 405.65C424.703 396.658 425.331 383.983 419.422 374.418C428.535 370.236 434.876 361.001 434.876 350.316C434.876 342.1 431.146 334.754 425.27 329.883C431.146 325.033 434.876 317.674 434.876 309.478C434.876 301.255 431.146 293.896 425.27 289.046C431.146 284.189 434.876 276.829 434.876 268.613C434.876 259.992 430.734 252.302 424.332 247.473C431.55 240.801 434.768 230.386 431.753 220.355C428.326 208.935 417.89 201.535 406.551 201.474C407.941 190.243 401.964 178.924 391.097 174.054C380.945 169.487 369.444 171.834 361.882 179.113C357.092 172.138 349.079 167.551 339.986 167.551C331.763 167.551 324.424 171.308 319.573 177.157C314.696 171.301 307.357 167.551 299.141 167.551C290.028 167.551 281.974 172.158 277.204 179.194C269.582 171.935 258 169.655 247.868 174.323C237.041 179.295 231.166 190.654 232.657 201.866C221.317 202.048 210.942 209.529 207.617 220.989C204.696 231 207.961 241.341 215.158 247.925C208.797 252.775 204.676 260.417 204.676 269.045C204.676 277.261 208.413 284.6 214.282 289.45C208.406 294.327 204.676 301.667 204.676 309.883C204.676 318.106 208.413 325.445 214.282 330.315C208.406 335.172 204.676 342.511 204.676 350.727C204.676 361.493 211.098 370.748 220.292 374.91C214.437 384.536 215.192 397.218 223.004 406.149C230.855 415.114 243.395 417.522 253.73 412.915C257.116 423.674 267.167 431.486 279.032 431.486C287.249 431.486 294.595 427.728 299.465 421.86C304.315 427.735 311.654 431.486 319.87 431.486C328.093 431.486 335.453 427.728 340.303 421.86C345.159 427.735 352.519 431.486 360.735 431.486Z" fill="#FBF0D4"/>
<path d="M360.735 431.486H360.796H361.025C372.951 431.425 383.002 423.512 386.287 412.686C396.669 417.212 409.202 414.682 416.973 405.65C424.703 396.658 425.331 383.983 419.422 374.418C428.535 370.236 434.876 361.001 434.876 350.316C434.876 342.1 431.146 334.754 425.27 329.883C431.146 325.033 434.876 317.674 434.876 309.478C434.876 301.255 431.146 293.896 425.27 289.046C431.146 284.189 434.876 276.829 434.876 268.613C434.876 259.992 430.734 252.302 424.332 247.473C431.55 240.801 434.768 230.386 431.753 220.355C428.326 208.935 417.89 201.535 406.551 201.474C407.941 190.243 401.964 178.924 391.097 174.054C380.945 169.487 369.444 171.834 361.882 179.113C357.092 172.138 349.079 167.551 339.986 167.551C331.763 167.551 324.424 171.308 319.573 177.157C314.696 171.301 307.357 167.551 299.141 167.551C290.028 167.551 281.974 172.158 277.204 179.194C269.582 171.935 258 169.655 247.868 174.323C237.041 179.295 231.166 190.654 232.657 201.866C221.317 202.048 210.942 209.529 207.617 220.989C204.696 231 207.961 241.341 215.158 247.925C208.797 252.775 204.676 260.417 204.676 269.045C204.676 277.261 208.413 284.6 214.282 289.45C208.406 294.327 204.676 301.667 204.676 309.883C204.676 318.106 208.413 325.445 214.282 330.315C208.406 335.172 204.676 342.511 204.676 350.727C204.676 361.493 211.098 370.748 220.292 374.91C214.437 384.536 215.192 397.218 223.004 406.149C230.855 415.114 243.395 417.522 253.73 412.915C257.116 423.674 267.167 431.486 279.032 431.486C287.249 431.486 294.595 427.728 299.465 421.86C304.315 427.735 311.654 431.486 319.87 431.486C328.093 431.486 335.453 427.728 340.303 421.86C345.159 427.735 352.519 431.486 360.735 431.486Z" stroke="#603813" stroke-width="4.77458" stroke-miterlimit="10"/>
<path d="M259.898 285.398V332.01C259.898 338.493 265.153 343.741 271.629 343.741C278.111 343.741 283.359 338.486 283.359 332.01V285.398" fill="#DECAAD"/>
<path d="M259.898 285.398V332.01C259.898 338.493 265.153 343.741 271.629 343.741C278.111 343.741 283.359 338.486 283.359 332.01V285.398" stroke="#603813" stroke-width="4.77458" stroke-miterlimit="10"/>
<path d="M287.691 278.423C287.38 280.505 286.133 282.409 284.077 283.946C282.021 285.482 279.227 286.595 275.976 287.173C272.726 287.752 269.133 287.775 265.559 287.241C261.986 286.707 258.557 285.635 255.617 284.131" stroke="#603813" stroke-width="4.77458" stroke-linecap="round"/>
<path d="M379.553 285.398V332.01C379.553 338.493 374.298 343.741 367.822 343.741C361.34 343.741 356.092 338.486 356.092 332.01V285.398" fill="#DECAAD"/>
<path d="M379.553 285.398V332.01C379.553 338.493 374.298 343.741 367.822 343.741C361.34 343.741 356.092 338.486 356.092 332.01V285.398" stroke="#603813" stroke-width="4.77458" stroke-miterlimit="10"/>
<path d="M351.76 278.423C352.072 280.505 353.318 282.409 355.374 283.946C357.431 285.482 360.224 286.595 363.475 287.173C366.725 287.752 370.318 287.775 373.892 287.241C377.465 286.707 380.894 285.635 383.834 284.131" stroke="#603813" stroke-width="4.77458" stroke-linecap="round"/>
<path d="M359.813 193.249C365.465 193.249 370.046 187.267 370.046 179.886C370.046 172.506 365.465 166.523 359.813 166.523C354.162 166.523 349.58 172.506 349.58 179.886C349.58 187.267 354.162 193.249 359.813 193.249Z" fill="#D9AD7A" stroke="#603813" stroke-width="4.77458" stroke-miterlimit="10" stroke-linecap="round"/>
<path d="M279.053 193.249C284.705 193.249 289.286 187.267 289.286 179.886C289.286 172.506 284.705 166.523 279.053 166.523C273.402 166.523 268.82 172.506 268.82 179.886C268.82 187.267 273.402 193.249 279.053 193.249Z" fill="#D9AD7A" stroke="#603813" stroke-width="4.77458" stroke-miterlimit="10" stroke-linecap="round"/>
<path d="M363.261 163.512C362.025 165.31 362.025 167.814 363.261 169.613C368.353 177.011 376.566 181.815 385.851 181.815C395.136 181.815 403.349 177.004 408.441 169.613C409.677 167.814 409.677 165.31 408.441 163.512" stroke="#603813" stroke-width="4.77458" stroke-miterlimit="10"/>
<path d="M328.547 256.175H310.32C297.497 256.175 286.67 246.651 285.038 233.935L275.668 161.062H363.206L353.836 233.935C352.203 246.651 341.37 256.175 328.553 256.175H328.547Z" fill="#DECAAD" stroke="#603813" stroke-width="4.77458" stroke-miterlimit="10"/>
<path d="M364.532 195.642C364.665 192.819 363.869 190.232 362.49 188.371C356.222 181.484 349.996 190.364 349.741 195.794C349.622 198.325 351.081 201.586 351.081 201.586C347.145 203.618 344.642 208.159 344.392 213.475C344.137 218.898 348.786 221.215 352.564 221.392C359.666 221.726 363.896 217.45 364.151 212.02C364.317 208.485 363.691 205.193 361.623 203.362C363.639 201.673 364.376 198.961 364.532 195.642Z" fill="#D9AD7A" stroke="#603813" stroke-width="4.77458" stroke-miterlimit="10" stroke-linecap="round" stroke-linejoin="round"/>
<path d="M274.419 195.642C274.286 192.819 275.083 190.232 276.461 188.371C282.729 181.484 288.955 190.364 289.21 195.794C289.329 198.325 287.87 201.586 287.87 201.586C291.806 203.618 294.309 208.159 294.559 213.475C294.814 218.898 290.165 221.215 286.388 221.392C279.285 221.726 275.055 217.45 274.8 212.02C274.634 208.485 275.26 205.193 277.328 203.362C275.312 201.673 274.575 198.961 274.419 195.642Z" fill="#D9AD7A" stroke="#603813" stroke-width="4.77458" stroke-miterlimit="10" stroke-linecap="round" stroke-linejoin="round"/>
<path d="M302.684 188.389C302.684 191.317 301.254 192.652 299.486 192.652C297.719 192.652 296.289 191.317 296.289 188.389C296.289 185.461 297.719 183.094 299.486 183.094C301.254 183.094 302.684 185.468 302.684 188.389Z" fill="black" stroke="black" stroke-width="4.77458" stroke-miterlimit="10" stroke-linecap="round"/>
<path d="M336.191 188.381C336.191 191.309 337.621 192.644 339.389 192.644C341.156 192.644 342.586 191.309 342.586 188.381C342.586 185.454 341.156 183.086 339.389 183.086C337.621 183.086 336.191 185.46 336.191 188.381Z" fill="black" stroke="black" stroke-width="4.77458" stroke-miterlimit="10" stroke-linecap="round"/>
<path d="M320.479 215.553C319.535 216.532 317.983 216.532 317.039 215.553C311.588 209.907 306.219 209.941 306.219 214.09C306.219 218.677 311.838 222.387 318.759 222.387C325.68 222.387 331.306 218.67 331.306 214.09C331.306 209.941 325.936 209.907 320.479 215.553Z" fill="black" stroke="black" stroke-width="4.77458" stroke-miterlimit="10" stroke-linecap="round"/>
<path d="M318.68 224.973L318.68 239.138" stroke="black" stroke-width="4.77458" stroke-miterlimit="10" stroke-linecap="round"/>
<path d="M384.028 196.682C383.725 193.148 384.649 189.242 385.735 185.687C387.691 179.636 390.997 173.741 395.57 168.594C396.562 167.474 396.589 165.855 395.523 164.701C394.288 163.366 392.049 163.163 390.531 164.249C384.022 168.911 378.524 174.766 374.335 181.43C368.885 189.701 361.39 208.791 378.497 210.592" fill="#C69C6D"/>
<path d="M384.028 196.682C383.725 193.148 384.649 189.242 385.735 185.687C387.691 179.636 390.997 173.741 395.57 168.594C396.562 167.474 396.589 165.855 395.523 164.701C394.288 163.366 392.049 163.163 390.531 164.249C384.022 168.911 378.524 174.766 374.335 181.43C368.885 189.701 361.39 208.791 378.497 210.592" stroke="#603813" stroke-width="4.77458" stroke-miterlimit="10" stroke-linecap="round"/>
<path d="M260.374 210.592C277.481 208.797 269.986 189.701 264.536 181.43C260.347 174.766 254.849 168.904 248.34 164.249C246.815 163.163 244.582 163.366 243.348 164.701C242.282 165.855 242.309 167.467 243.301 168.594C247.874 173.741 251.18 179.636 253.136 185.687C254.229 189.249 255.146 193.154 254.842 196.682" fill="#C69C6D"/>
<path d="M260.374 210.592C277.481 208.797 269.986 189.701 264.536 181.43C260.347 174.766 254.849 168.904 248.34 164.249C246.815 163.163 244.582 163.366 243.348 164.701C242.282 165.855 242.309 167.467 243.301 168.594C247.874 173.741 251.18 179.636 253.136 185.687C254.229 189.249 255.146 193.154 254.842 196.682" stroke="#603813" stroke-width="4.77458" stroke-miterlimit="10" stroke-linecap="round"/>
<path d="M196.591 196.321C196.591 184.607 214.801 161.221 231.468 161.221L405.183 155.465C426.049 155.465 434.561 177.304 440.586 187.438C446.612 197.573 446.397 209.897 446.535 237.843C446.674 265.79 440.586 312.76 440.586 312.76C440.586 312.76 436.708 350.984 436.708 375.553C436.708 388.605 437.802 405.51 438.829 418.491C439.529 427.35 439.879 431.78 437.519 434.337C437.288 434.587 437.065 434.801 436.806 435.02C434.147 437.266 429.715 436.72 420.85 435.627C406.808 433.896 388.253 432.048 375.53 432.445C352.532 433.163 341.595 437.965 318.589 438.346C295.582 438.728 282.134 432.445 257.59 432.445C244.849 432.445 228.898 434.035 216.503 435.565C207.548 436.67 203.071 437.222 200.413 434.98C200.152 434.76 199.931 434.549 199.7 434.298C197.339 431.744 197.687 427.27 198.382 418.322C199.348 405.891 200.344 389.654 200.344 375.553C200.344 348.182 196.591 312.97 196.591 312.97C196.591 312.97 191 277.241 191 237.843C191 198.446 196.591 208.036 196.591 196.321Z" fill="#FFF47B" stroke="#9B9444" stroke-width="3.83788" stroke-miterlimit="10" stroke-linejoin="round"/>
<path d="M285.301 258.988C285.457 257.94 284.735 256.963 283.687 256.807C282.638 256.65 281.662 257.373 281.505 258.421L283.403 258.704L285.301 258.988ZM248.924 263.287C247.981 262.804 246.825 263.178 246.342 264.122C245.859 265.065 246.233 266.221 247.177 266.704L248.05 264.995L248.924 263.287ZM283.403 258.704L281.505 258.421C281.253 260.109 280.227 261.793 278.272 263.253L279.42 264.791L280.568 266.328C283.145 264.403 284.867 261.888 285.301 258.988L283.403 258.704ZM279.42 264.791L278.272 263.253C276.303 264.723 273.525 265.859 270.155 266.459L270.491 268.348L270.827 270.237C274.622 269.561 278.003 268.243 280.568 266.328L279.42 264.791ZM270.491 268.348L270.155 266.459C266.795 267.056 263.045 267.086 259.292 266.525L259.009 268.423L258.725 270.32C262.851 270.937 267.021 270.914 270.827 270.237L270.491 268.348ZM259.009 268.423L259.292 266.525C255.54 265.964 251.962 264.841 248.924 263.287L248.05 264.995L247.177 266.704C250.618 268.464 254.6 269.704 258.725 270.32L259.009 268.423Z" fill="#9B9444"/>
<path d="M352.135 258.988C351.978 257.94 352.701 256.963 353.749 256.807C354.797 256.65 355.774 257.373 355.93 258.421L354.033 258.704L352.135 258.988ZM388.511 263.287C389.455 262.804 390.611 263.178 391.094 264.122C391.576 265.065 391.202 266.221 390.259 266.704L389.385 264.995L388.511 263.287ZM354.033 258.704L355.93 258.421C356.183 260.109 357.208 261.793 359.164 263.253L358.016 264.791L356.868 266.328C354.29 264.403 352.568 261.888 352.135 258.988L354.033 258.704ZM358.016 264.791L359.164 263.253C361.132 264.723 363.911 265.859 367.281 266.459L366.945 268.348L366.609 270.237C362.813 269.561 359.433 268.243 356.868 266.328L358.016 264.791ZM366.945 268.348L367.281 266.459C370.641 267.056 374.39 267.085 378.143 266.525L378.427 268.423L378.71 270.32C374.585 270.937 370.415 270.914 366.609 270.237L366.945 268.348ZM378.427 268.423L378.143 266.525C381.896 265.964 385.473 264.841 388.511 263.287L389.385 264.995L390.259 266.704C386.817 268.464 382.836 269.704 378.71 270.32L378.427 268.423Z" fill="#9B9444"/>
<path d="M317.938 258.591L318.741 256.848C317.939 258.591 317.937 258.59 317.937 258.59L317.927 258.585C317.92 258.582 317.911 258.579 317.899 258.573C317.877 258.563 317.844 258.546 317.802 258.526C317.716 258.486 317.591 258.427 317.43 258.349C317.106 258.192 316.633 257.96 316.026 257.65C314.812 257.032 313.06 256.106 310.888 254.87C306.544 252.399 300.515 248.682 293.749 243.686C280.232 233.704 263.702 218.564 251.815 197.987L251.323 197.133C246.299 188.213 242.935 176.618 240.809 165.925C238.61 154.868 237.698 144.58 237.698 138.864C237.698 94.2574 277.773 66.083 318.279 66.083C338.443 66.083 357.641 70.9497 371.833 82.582C385.866 94.0843 394.757 111.999 395.031 137.637L395.038 138.864C395.039 144.422 394.763 154.678 393.187 165.771C391.621 176.788 388.747 188.833 383.448 197.905C373.868 218.544 357.867 233.706 344.34 243.686C337.557 248.689 331.368 252.411 326.869 254.884C324.619 256.121 322.79 257.047 321.518 257.666C320.882 257.975 320.385 258.209 320.044 258.365C319.874 258.444 319.742 258.503 319.652 258.543C319.607 258.563 319.572 258.578 319.548 258.589C319.536 258.594 319.526 258.599 319.52 258.602C319.516 258.603 319.514 258.605 319.512 258.605C319.511 258.606 319.509 258.606 319.509 258.606C319.507 258.605 319.488 258.56 318.871 257.145L319.508 258.606L318.72 258.95L317.938 258.591ZM318.03 230.746C319.036 229.986 320.483 228.881 322.25 227.508C325.784 224.76 330.588 220.94 335.669 216.644C340.753 212.345 346.097 207.585 350.72 202.959C355.368 198.307 359.186 193.89 361.31 190.271C370.041 175.391 372.642 163.506 372.652 154.369C371.424 135.504 366.072 123.188 357.162 115.535C348.209 107.845 335.303 104.548 318.279 104.548C301.123 104.548 287.882 106.842 278.906 114.005C270.038 121.082 264.892 133.298 264.892 154.308C264.892 163.548 267.626 175.347 276.383 190.27C280.656 197.553 291.144 207.919 300.788 216.611C305.569 220.92 310.076 224.76 313.388 227.522C315.043 228.903 316.4 230.014 317.341 230.779C317.45 230.868 317.554 230.952 317.651 231.031C317.769 230.942 317.896 230.847 318.03 230.746Z" fill="#FFF47B" stroke="#9B9444" stroke-width="3.83788"/>
<path d="M233.965 395.832L270.699 374.629L275.588 383.095L281.772 393.804L267.619 411.702L245.038 415.007L238.854 404.298L233.965 395.832Z" fill="#FFF47B"/>
<path d="M233.965 395.832L233.46 394.957L232.584 395.462L233.09 396.337L233.965 395.832ZM270.699 374.629L271.574 374.124L271.069 373.248L270.194 373.754L270.699 374.629ZM281.772 393.804L282.565 394.43L282.991 393.892L282.648 393.298L281.772 393.804ZM245.038 415.007L244.163 415.512L244.506 416.106L245.185 416.007L245.038 415.007ZM267.619 411.702L267.766 412.702L268.163 412.643L268.412 412.329L267.619 411.702ZM238.854 404.298L237.978 404.803L237.978 404.803L238.854 404.298ZM233.965 395.832L234.471 396.707L271.204 375.504L270.699 374.629L270.194 373.754L233.46 394.957L233.965 395.832ZM281.772 393.804L280.98 393.177L266.826 411.075L267.619 411.702L268.412 412.329L282.565 394.43L281.772 393.804ZM267.619 411.702L267.473 410.702L244.892 414.007L245.038 415.007L245.185 416.007L267.766 412.702L267.619 411.702ZM270.699 374.629L269.824 375.134L274.712 383.6L275.588 383.095L276.463 382.59L271.574 374.124L270.699 374.629ZM275.588 383.095L274.712 383.6L280.897 394.309L281.772 393.804L282.648 393.298L276.463 382.589L275.588 383.095ZM245.038 415.007L245.914 414.501L239.729 403.792L238.854 404.298L237.978 404.803L244.163 415.512L245.038 415.007ZM238.854 404.298L239.729 403.793L234.84 395.327L233.965 395.832L233.09 396.337L237.978 404.803L238.854 404.298ZM275.588 383.095L275.082 382.22L238.348 403.423L238.854 404.298L239.359 405.173L276.093 383.97L275.588 383.095Z" fill="#9B9444"/>
<path d="M413.494 395.832L376.76 374.629L371.871 383.095L365.687 393.804L379.84 411.702L402.421 415.007L408.605 404.298L413.494 395.832Z" fill="#FFF47B"/>
<path d="M413.494 395.832L413.999 394.957L414.875 395.462L414.369 396.337L413.494 395.832ZM376.76 374.629L375.885 374.124L376.39 373.249L377.265 373.754L376.76 374.629ZM365.687 393.804L364.894 394.43L364.468 393.892L364.811 393.298L365.687 393.804ZM402.421 415.007L403.296 415.512L402.953 416.106L402.274 416.007L402.421 415.007ZM379.84 411.702L379.693 412.702L379.296 412.643L379.047 412.329L379.84 411.702ZM408.605 404.298L409.481 404.803L409.48 404.803L408.605 404.298ZM413.494 395.832L412.988 396.707L376.255 375.504L376.76 374.629L377.265 373.754L413.999 394.957L413.494 395.832ZM365.687 393.804L366.479 393.177L380.633 411.075L379.84 411.702L379.047 412.329L364.894 394.43L365.687 393.804ZM379.84 411.702L379.986 410.702L402.567 414.007L402.421 415.007L402.274 416.007L379.693 412.702L379.84 411.702ZM376.76 374.629L377.635 375.134L372.747 383.6L371.871 383.095L370.996 382.59L375.885 374.124L376.76 374.629ZM371.871 383.095L372.747 383.6L366.562 394.309L365.687 393.804L364.811 393.298L370.996 382.59L371.871 383.095ZM402.421 415.007L401.545 414.501L407.73 403.792L408.605 404.298L409.48 404.803L403.296 415.512L402.421 415.007ZM408.605 404.298L407.73 403.793L412.619 395.327L413.494 395.832L414.369 396.337L409.481 404.803L408.605 404.298ZM371.871 383.095L372.377 382.22L409.111 403.423L408.605 404.298L408.1 405.173L371.366 383.97L371.871 383.095Z" fill="#9B9444"/>
<path d="M324.932 268.695L324.932 448.233" stroke="#9B9444" stroke-width="2.57247" stroke-linecap="round"/>
<path d="M310.823 292.987C315.213 292.987 318.771 296.546 318.771 300.935C318.771 305.324 315.213 308.882 310.823 308.882C306.433 308.882 302.874 305.324 302.874 300.935C302.874 296.546 306.433 292.987 310.823 292.987Z" fill="#1A1A1A" stroke="#9B9444" stroke-width="0.0612493"/>
<path d="M310.823 332.202C315.213 332.202 318.771 335.76 318.771 340.149C318.771 344.538 315.213 348.097 310.823 348.097C306.433 348.097 302.874 344.538 302.874 340.149C302.874 335.76 306.433 332.202 310.823 332.202Z" fill="#1A1A1A" stroke="#9B9444" stroke-width="0.0612493"/>
<path d="M310.823 371.429C315.213 371.429 318.771 374.987 318.771 379.376C318.771 383.765 315.213 387.323 310.823 387.323C306.433 387.323 302.874 383.765 302.874 379.376C302.874 374.987 306.433 371.429 310.823 371.429Z" fill="#1A1A1A" stroke="#9B9444" stroke-width="0.0612493"/>
<path d="M310.823 410.64C315.213 410.64 318.771 414.198 318.771 418.587C318.771 422.976 315.213 426.534 310.823 426.534C306.433 426.534 302.874 422.976 302.874 418.587C302.874 414.198 306.433 410.64 310.823 410.64Z" fill="#1A1A1A" stroke="#9B9444" stroke-width="0.0612493"/>
<path d="M383.629 268.133V314.745C383.629 321.227 378.374 326.475 371.899 326.475C365.416 326.475 360.168 321.221 360.168 314.745V268.133" fill="#DECAAD"/>
<path d="M383.629 268.133V314.745C383.629 321.227 378.374 326.475 371.899 326.475C365.416 326.475 360.168 321.221 360.168 314.745V268.133" stroke="#603813" stroke-width="4.77458" stroke-miterlimit="10"/>
<path d="M253.824 268.133V314.745C253.824 321.227 259.079 326.475 265.555 326.475C272.037 326.475 277.285 321.221 277.285 314.745V268.133" fill="#DECAAD"/>
<path d="M253.824 268.133V314.745C253.824 321.227 259.079 326.475 265.555 326.475C272.037 326.475 277.285 321.221 277.285 314.745V268.133" stroke="#603813" stroke-width="4.77458" stroke-miterlimit="10"/>
</svg>
