<svg width="500" height="500" viewBox="0 0 500 500" fill="none" xmlns="http://www.w3.org/2000/svg">
<path d="M346.512 401.551V461.701C346.512 470.066 353.322 476.838 361.714 476.838C370.115 476.838 376.916 470.057 376.916 461.701V401.551" fill="#DECAAD"/>
<path d="M346.512 401.551V461.701C346.512 470.066 353.322 476.838 361.714 476.838C370.115 476.838 376.916 470.057 376.916 461.701V401.551" stroke="#603813" stroke-width="6.63305" stroke-miterlimit="10"/>
<path d="M257.471 401.551V461.701C257.471 470.066 264.281 476.838 272.673 476.838C281.074 476.838 287.875 470.057 287.875 461.701V401.551" fill="#DECAAD"/>
<path d="M257.471 401.551V461.701C257.471 470.066 264.281 476.838 272.673 476.838C281.074 476.838 287.875 470.057 287.875 461.701V401.551" stroke="#603813" stroke-width="6.63305" stroke-miterlimit="10"/>
<path opacity="0.1" d="M434.504 272.561C438.687 276.942 441.621 282.531 442.751 288.746V300.187C441.621 306.391 438.685 311.979 434.502 316.36C438.684 320.749 441.62 326.334 442.751 332.547V343.995C441.089 353.106 435.533 360.869 427.884 365.479C433.074 376.461 431.714 389.948 423.268 399.773L423.267 399.774C414.768 409.653 401.517 413.032 389.812 409.417C384.976 420.661 373.814 428.568 360.773 428.635L360.766 428.636H360.446C351.954 428.636 344.228 425.285 338.535 419.85C332.847 425.28 325.122 428.636 316.625 428.636C308.131 428.636 300.421 425.284 294.737 419.849C289.041 425.277 281.328 428.636 272.832 428.636C259.853 428.636 248.7 420.833 243.772 409.677C232.11 413.388 218.842 410.138 210.255 400.332L210.253 400.33C201.719 390.571 200.221 377.077 205.347 366.034C204.145 365.319 202.994 364.526 201.9 363.664L205.307 360.167C258.515 384.78 410.536 413.736 425.738 272.572L434.774 272.27C434.684 272.367 434.595 272.465 434.504 272.561Z" fill="black"/>
<path d="M360.478 428.247H360.543H360.789C373.588 428.182 384.374 419.69 387.9 408.071C399.041 412.929 412.491 410.214 420.831 400.521C429.127 390.871 429.8 377.269 423.458 367.003C433.239 362.515 440.043 352.605 440.043 341.138C440.043 332.321 436.04 324.437 429.735 319.21C436.04 314.005 440.043 306.108 440.043 297.312C440.043 288.487 436.04 280.59 429.735 275.385C436.04 270.172 440.043 262.274 440.043 253.457C440.043 244.205 435.599 235.953 428.729 230.77C436.474 223.61 439.928 212.433 436.692 201.668C433.014 189.412 421.815 181.471 409.646 181.406C411.137 169.353 404.723 157.205 393.061 151.979C382.166 147.078 369.824 149.597 361.708 157.408C356.569 149.923 347.969 145 338.21 145C329.386 145 321.509 149.032 316.305 155.309C311.071 149.025 303.194 145 294.377 145C284.597 145 275.953 149.944 270.835 157.495C262.655 149.705 250.226 147.259 239.352 152.268C227.733 157.603 221.428 169.794 223.028 181.826C210.859 182.021 199.725 190.049 196.156 202.349C193.022 213.092 196.525 224.189 204.25 231.255C197.423 236.46 193 244.662 193 253.92C193 262.738 197.01 270.614 203.309 275.819C197.003 281.053 193 288.929 193 297.746C193 306.571 197.01 314.447 203.309 319.674C197.003 324.886 193 332.762 193 341.579C193 353.133 199.892 363.065 209.759 367.532C203.475 377.862 204.286 391.472 212.669 401.056C221.095 410.677 234.553 413.262 245.643 408.317C249.277 419.864 260.064 428.247 272.797 428.247C281.614 428.247 289.498 424.215 294.725 417.916C299.93 424.222 307.806 428.247 316.623 428.247C325.448 428.247 333.345 424.215 338.55 417.916C343.763 424.222 351.661 428.247 360.478 428.247Z" stroke="#603813" stroke-width="6.63305" stroke-miterlimit="10"/>
<path d="M252.264 268.641V318.663C252.264 325.62 257.903 331.252 264.853 331.252C271.809 331.252 277.441 325.613 277.441 318.663V268.641" fill="#DECAAD"/>
<path d="M252.264 268.641V318.663C252.264 325.62 257.903 331.252 264.853 331.252C271.809 331.252 277.441 325.613 277.441 318.663V268.641" stroke="#603813" stroke-width="6.63305" stroke-miterlimit="10"/>
<path d="M282.085 261.155C281.751 263.389 280.414 265.433 278.207 267.082C276 268.73 273.002 269.925 269.514 270.546C266.026 271.167 262.17 271.192 258.335 270.619C254.5 270.046 250.82 268.895 247.665 267.281" stroke="#603813" stroke-width="6.63305" stroke-linecap="round"/>
<path d="M380.676 268.645V318.667C380.676 325.624 375.037 331.256 368.087 331.256C361.13 331.256 355.498 325.617 355.498 318.667V268.645" fill="#DECAAD"/>
<path d="M380.676 268.645V318.667C380.676 325.624 375.037 331.256 368.087 331.256C361.13 331.256 355.498 325.617 355.498 318.667V268.645" stroke="#603813" stroke-width="6.63305" stroke-miterlimit="10"/>
<path d="M350.852 261.155C351.186 263.389 352.524 265.433 354.73 267.082C356.937 268.73 359.935 269.925 363.424 270.546C366.912 271.167 370.768 271.192 374.603 270.619C378.438 270.046 382.118 268.895 385.272 267.281" stroke="#603813" stroke-width="6.63305" stroke-linecap="round"/>
</svg>
