<svg width="500" height="500" viewBox="0 0 500 500" fill="none" xmlns="http://www.w3.org/2000/svg">
<path d="M346.512 401.551V461.701C346.512 470.066 353.322 476.838 361.714 476.838C370.115 476.838 376.916 470.057 376.916 461.701V401.551" fill="#DECAAD"/>
<path d="M346.512 401.551V461.701C346.512 470.066 353.322 476.838 361.714 476.838C370.115 476.838 376.916 470.057 376.916 461.701V401.551" stroke="#603813" stroke-width="6.63305" stroke-miterlimit="10"/>
<path d="M257.471 401.551V461.701C257.471 470.066 264.281 476.838 272.673 476.838C281.074 476.838 287.875 470.057 287.875 461.701V401.551" fill="#DECAAD"/>
<path d="M257.471 401.551V461.701C257.471 470.066 264.281 476.838 272.673 476.838C281.074 476.838 287.875 470.057 287.875 461.701V401.551" stroke="#603813" stroke-width="6.63305" stroke-miterlimit="10"/>
<path opacity="0.1" d="M434.504 272.561C438.687 276.942 441.621 282.531 442.751 288.746V300.187C441.621 306.391 438.685 311.979 434.502 316.36C438.684 320.749 441.62 326.334 442.751 332.547V343.995C441.089 353.106 435.533 360.869 427.884 365.479C433.074 376.461 431.714 389.948 423.268 399.773L423.267 399.774C414.768 409.653 401.517 413.032 389.812 409.417C384.976 420.661 373.814 428.568 360.773 428.635L360.766 428.636H360.446C351.954 428.636 344.228 425.285 338.535 419.85C332.847 425.28 325.122 428.636 316.625 428.636C308.131 428.636 300.421 425.284 294.737 419.849C289.041 425.277 281.328 428.636 272.832 428.636C259.853 428.636 248.7 420.833 243.772 409.677C232.11 413.388 218.842 410.138 210.255 400.332L210.253 400.33C201.719 390.571 200.221 377.077 205.347 366.034C204.145 365.319 202.994 364.526 201.9 363.664L205.307 360.167C258.515 384.78 410.536 413.736 425.738 272.572L434.774 272.27C434.684 272.367 434.595 272.465 434.504 272.561Z" fill="black"/>
<path d="M360.478 428.247H360.543H360.789C373.588 428.182 384.374 419.69 387.9 408.071C399.041 412.929 412.491 410.214 420.831 400.521C429.127 390.871 429.8 377.269 423.458 367.003C433.239 362.515 440.043 352.605 440.043 341.138C440.043 332.321 436.04 324.437 429.735 319.21C436.04 314.005 440.043 306.108 440.043 297.312C440.043 288.487 436.04 280.59 429.735 275.385C436.04 270.172 440.043 262.274 440.043 253.457C440.043 244.205 435.599 235.953 428.729 230.77C436.474 223.61 439.928 212.433 436.692 201.668C433.014 189.412 421.815 181.471 409.646 181.406C411.137 169.353 404.723 157.205 393.061 151.979C382.166 147.078 369.824 149.597 361.708 157.408C356.569 149.923 347.969 145 338.21 145C329.386 145 321.509 149.032 316.305 155.309C311.071 149.025 303.194 145 294.377 145C284.597 145 275.953 149.944 270.835 157.495C262.655 149.705 250.226 147.259 239.352 152.268C227.733 157.603 221.428 169.794 223.028 181.826C210.859 182.021 199.725 190.049 196.156 202.349C193.022 213.092 196.525 224.189 204.25 231.255C197.423 236.46 193 244.662 193 253.92C193 262.738 197.01 270.614 203.309 275.819C197.003 281.053 193 288.929 193 297.746C193 306.571 197.01 314.447 203.309 319.674C197.003 324.886 193 332.762 193 341.579C193 353.133 199.892 363.065 209.759 367.532C203.475 377.862 204.286 391.472 212.669 401.056C221.095 410.677 234.553 413.262 245.643 408.317C249.277 419.864 260.064 428.247 272.797 428.247C281.614 428.247 289.498 424.215 294.725 417.916C299.93 424.222 307.806 428.247 316.623 428.247C325.448 428.247 333.345 424.215 338.55 417.916C343.763 424.222 351.661 428.247 360.478 428.247Z" stroke="#603813" stroke-width="6.63305" stroke-miterlimit="10"/>
<path d="M252.264 268.641V318.663C252.264 325.62 257.903 331.252 264.853 331.252C271.809 331.252 277.441 325.613 277.441 318.663V268.641" fill="#DECAAD"/>
<path d="M252.264 268.641V318.663C252.264 325.62 257.903 331.252 264.853 331.252C271.809 331.252 277.441 325.613 277.441 318.663V268.641" stroke="#603813" stroke-width="6.63305" stroke-miterlimit="10"/>
<path d="M282.084 261.156C281.75 263.39 280.413 265.434 278.206 267.083C275.999 268.731 273.001 269.926 269.513 270.547C266.025 271.168 262.169 271.193 258.334 270.62C254.499 270.047 250.819 268.896 247.664 267.282" stroke="#603813" stroke-width="6.63305" stroke-linecap="round"/>
<path d="M380.676 268.645V318.667C380.676 325.624 375.037 331.256 368.087 331.256C361.13 331.256 355.498 325.617 355.498 318.667V268.645" fill="#DECAAD"/>
<path d="M380.676 268.645V318.667C380.676 325.624 375.037 331.256 368.087 331.256C361.13 331.256 355.498 325.617 355.498 318.667V268.645" stroke="#603813" stroke-width="6.63305" stroke-miterlimit="10"/>
<path d="M350.852 261.156C351.186 263.39 352.524 265.434 354.73 267.083C356.937 268.73 359.935 269.926 363.424 270.547C366.912 271.168 370.768 271.193 374.603 270.62C378.438 270.046 382.118 268.895 385.272 267.282" stroke="#603813" stroke-width="6.63305" stroke-linecap="round"/>
<path d="M360.735 431.486H360.796H361.025C372.951 431.425 383.002 423.512 386.287 412.686C396.669 417.212 409.202 414.682 416.973 405.65C424.703 396.658 425.331 383.983 419.422 374.418C428.535 370.236 434.876 361.001 434.876 350.316C434.876 342.1 431.146 334.754 425.27 329.883C431.146 325.033 434.876 317.674 434.876 309.478C434.876 301.255 431.146 293.896 425.27 289.046C431.146 284.189 434.876 276.829 434.876 268.613C434.876 259.992 430.734 252.302 424.332 247.473C431.55 240.801 434.768 230.386 431.753 220.355C428.326 208.935 417.89 201.535 406.551 201.474C407.941 190.243 401.964 178.924 391.097 174.054C380.945 169.487 369.444 171.834 361.882 179.113C357.092 172.138 349.079 167.551 339.986 167.551C331.763 167.551 324.424 171.308 319.573 177.157C314.696 171.301 307.357 167.551 299.141 167.551C290.028 167.551 281.974 172.158 277.204 179.194C269.582 171.935 258 169.655 247.868 174.323C237.041 179.295 231.166 190.654 232.657 201.866C221.317 202.048 210.942 209.529 207.617 220.989C204.696 231 207.961 241.341 215.158 247.925C208.797 252.775 204.676 260.417 204.676 269.045C204.676 277.261 208.413 284.6 214.282 289.45C208.406 294.327 204.676 301.667 204.676 309.883C204.676 318.106 208.413 325.445 214.282 330.315C208.406 335.172 204.676 342.511 204.676 350.727C204.676 361.493 211.098 370.748 220.292 374.91C214.437 384.536 215.192 397.218 223.004 406.149C230.855 415.114 243.395 417.522 253.73 412.915C257.116 423.674 267.167 431.486 279.032 431.486C287.249 431.486 294.595 427.728 299.465 421.86C304.315 427.735 311.654 431.486 319.87 431.486C328.093 431.486 335.453 427.728 340.303 421.86C345.159 427.735 352.519 431.486 360.735 431.486Z" fill="#FBF0D4"/>
<path d="M360.735 431.486H360.796H361.025C372.951 431.425 383.002 423.512 386.287 412.686C396.669 417.212 409.202 414.682 416.973 405.65C424.703 396.658 425.331 383.983 419.422 374.418C428.535 370.236 434.876 361.001 434.876 350.316C434.876 342.1 431.146 334.754 425.27 329.883C431.146 325.033 434.876 317.674 434.876 309.478C434.876 301.255 431.146 293.896 425.27 289.046C431.146 284.189 434.876 276.829 434.876 268.613C434.876 259.992 430.734 252.302 424.332 247.473C431.55 240.801 434.768 230.386 431.753 220.355C428.326 208.935 417.89 201.535 406.551 201.474C407.941 190.243 401.964 178.924 391.097 174.054C380.945 169.487 369.444 171.834 361.882 179.113C357.092 172.138 349.079 167.551 339.986 167.551C331.763 167.551 324.424 171.308 319.573 177.157C314.696 171.301 307.357 167.551 299.141 167.551C290.028 167.551 281.974 172.158 277.204 179.194C269.582 171.935 258 169.655 247.868 174.323C237.041 179.295 231.166 190.654 232.657 201.866C221.317 202.048 210.942 209.529 207.617 220.989C204.696 231 207.961 241.341 215.158 247.925C208.797 252.775 204.676 260.417 204.676 269.045C204.676 277.261 208.413 284.6 214.282 289.45C208.406 294.327 204.676 301.667 204.676 309.883C204.676 318.106 208.413 325.445 214.282 330.315C208.406 335.172 204.676 342.511 204.676 350.727C204.676 361.493 211.098 370.748 220.292 374.91C214.437 384.536 215.192 397.218 223.004 406.149C230.855 415.114 243.395 417.522 253.73 412.915C257.116 423.674 267.167 431.486 279.032 431.486C287.249 431.486 294.595 427.728 299.465 421.86C304.315 427.735 311.654 431.486 319.87 431.486C328.093 431.486 335.453 427.728 340.303 421.86C345.159 427.735 352.519 431.486 360.735 431.486Z" stroke="#603813" stroke-width="4.77458" stroke-miterlimit="10"/>
<path d="M259.898 285.398V332.01C259.898 338.493 265.153 343.741 271.629 343.741C278.111 343.741 283.359 338.486 283.359 332.01V285.398" fill="#DECAAD"/>
<path d="M259.898 285.398V332.01C259.898 338.493 265.153 343.741 271.629 343.741C278.111 343.741 283.359 338.486 283.359 332.01V285.398" stroke="#603813" stroke-width="4.77458" stroke-miterlimit="10"/>
<path d="M287.691 278.423C287.38 280.505 286.133 282.409 284.077 283.946C282.021 285.482 279.227 286.595 275.976 287.173C272.726 287.752 269.133 287.775 265.559 287.241C261.986 286.707 258.557 285.635 255.617 284.131" stroke="#603813" stroke-width="4.77458" stroke-linecap="round"/>
<path d="M379.553 285.398V332.01C379.553 338.493 374.298 343.741 367.822 343.741C361.34 343.741 356.092 338.486 356.092 332.01V285.398" fill="#DECAAD"/>
<path d="M379.553 285.398V332.01C379.553 338.493 374.298 343.741 367.822 343.741C361.34 343.741 356.092 338.486 356.092 332.01V285.398" stroke="#603813" stroke-width="4.77458" stroke-miterlimit="10"/>
<path d="M351.76 278.423C352.072 280.505 353.318 282.409 355.374 283.946C357.431 285.482 360.224 286.595 363.475 287.173C366.725 287.752 370.318 287.775 373.892 287.241C377.465 286.707 380.894 285.635 383.834 284.131" stroke="#603813" stroke-width="4.77458" stroke-linecap="round"/>
<path d="M359.813 193.249C365.465 193.249 370.046 187.267 370.046 179.886C370.046 172.506 365.465 166.523 359.813 166.523C354.162 166.523 349.58 172.506 349.58 179.886C349.58 187.267 354.162 193.249 359.813 193.249Z" fill="#D9AD7A" stroke="#603813" stroke-width="4.77458" stroke-miterlimit="10" stroke-linecap="round"/>
<path d="M279.053 193.249C284.705 193.249 289.286 187.267 289.286 179.886C289.286 172.506 284.705 166.523 279.053 166.523C273.402 166.523 268.82 172.506 268.82 179.886C268.82 187.267 273.402 193.249 279.053 193.249Z" fill="#D9AD7A" stroke="#603813" stroke-width="4.77458" stroke-miterlimit="10" stroke-linecap="round"/>
<path d="M363.261 163.512C362.025 165.31 362.025 167.814 363.261 169.613C368.353 177.011 376.566 181.815 385.851 181.815C395.136 181.815 403.349 177.004 408.441 169.613C409.677 167.814 409.677 165.31 408.441 163.512" stroke="#603813" stroke-width="4.77458" stroke-miterlimit="10"/>
<path d="M328.547 256.175H310.32C297.497 256.175 286.67 246.651 285.038 233.935L275.668 161.062H363.206L353.836 233.935C352.203 246.651 341.37 256.175 328.553 256.175H328.547Z" fill="#DECAAD" stroke="#603813" stroke-width="4.77458" stroke-miterlimit="10"/>
<path d="M364.532 195.642C364.665 192.819 363.869 190.232 362.49 188.371C356.222 181.484 349.996 190.364 349.741 195.794C349.622 198.325 351.081 201.586 351.081 201.586C347.145 203.618 344.642 208.159 344.392 213.475C344.137 218.898 348.786 221.215 352.564 221.392C359.666 221.726 363.896 217.45 364.151 212.02C364.317 208.485 363.691 205.193 361.623 203.362C363.639 201.673 364.376 198.961 364.532 195.642Z" fill="#D9AD7A" stroke="#603813" stroke-width="4.77458" stroke-miterlimit="10" stroke-linecap="round" stroke-linejoin="round"/>
<path d="M274.419 195.642C274.286 192.819 275.083 190.232 276.461 188.371C282.729 181.484 288.955 190.364 289.21 195.794C289.329 198.325 287.87 201.586 287.87 201.586C291.806 203.618 294.309 208.159 294.559 213.475C294.814 218.898 290.165 221.215 286.388 221.392C279.285 221.726 275.055 217.45 274.8 212.02C274.634 208.485 275.26 205.193 277.328 203.362C275.312 201.673 274.575 198.961 274.419 195.642Z" fill="#D9AD7A" stroke="#603813" stroke-width="4.77458" stroke-miterlimit="10" stroke-linecap="round" stroke-linejoin="round"/>
<path d="M302.684 188.389C302.684 191.317 301.254 192.652 299.486 192.652C297.719 192.652 296.289 191.317 296.289 188.389C296.289 185.461 297.719 183.094 299.486 183.094C301.254 183.094 302.684 185.468 302.684 188.389Z" fill="black" stroke="black" stroke-width="4.77458" stroke-miterlimit="10" stroke-linecap="round"/>
<path d="M336.191 188.381C336.191 191.309 337.621 192.644 339.389 192.644C341.156 192.644 342.586 191.309 342.586 188.381C342.586 185.454 341.156 183.086 339.389 183.086C337.621 183.086 336.191 185.46 336.191 188.381Z" fill="black" stroke="black" stroke-width="4.77458" stroke-miterlimit="10" stroke-linecap="round"/>
<path d="M320.479 215.553C319.535 216.532 317.983 216.532 317.039 215.553C311.588 209.907 306.219 209.941 306.219 214.09C306.219 218.677 311.838 222.387 318.759 222.387C325.68 222.387 331.306 218.67 331.306 214.09C331.306 209.941 325.936 209.907 320.479 215.553Z" fill="black" stroke="black" stroke-width="4.77458" stroke-miterlimit="10" stroke-linecap="round"/>
<path d="M318.68 224.973L318.68 239.138" stroke="black" stroke-width="4.77458" stroke-miterlimit="10" stroke-linecap="round"/>
<path d="M384.028 196.682C383.725 193.148 384.649 189.242 385.735 185.687C387.691 179.636 390.997 173.741 395.57 168.594C396.562 167.474 396.589 165.855 395.523 164.701C394.288 163.366 392.049 163.163 390.531 164.249C384.022 168.911 378.524 174.766 374.335 181.43C368.885 189.701 361.39 208.791 378.497 210.592" fill="#C69C6D"/>
<path d="M384.028 196.682C383.725 193.148 384.649 189.242 385.735 185.687C387.691 179.636 390.997 173.741 395.57 168.594C396.562 167.474 396.589 165.855 395.523 164.701C394.288 163.366 392.049 163.163 390.531 164.249C384.022 168.911 378.524 174.766 374.335 181.43C368.885 189.701 361.39 208.791 378.497 210.592" stroke="#603813" stroke-width="4.77458" stroke-miterlimit="10" stroke-linecap="round"/>
<path d="M260.374 210.592C277.481 208.797 269.986 189.701 264.536 181.43C260.347 174.766 254.849 168.904 248.34 164.249C246.815 163.163 244.582 163.366 243.348 164.701C242.282 165.855 242.309 167.467 243.301 168.594C247.874 173.741 251.18 179.636 253.136 185.687C254.229 189.249 255.146 193.154 254.842 196.682" fill="#C69C6D"/>
<path d="M260.374 210.592C277.481 208.797 269.986 189.701 264.536 181.43C260.347 174.766 254.849 168.904 248.34 164.249C246.815 163.163 244.582 163.366 243.348 164.701C242.282 165.855 242.309 167.467 243.301 168.594C247.874 173.741 251.18 179.636 253.136 185.687C254.229 189.249 255.146 193.154 254.842 196.682" stroke="#603813" stroke-width="4.77458" stroke-miterlimit="10" stroke-linecap="round"/>
<path d="M383.629 268.133V314.745C383.629 321.227 378.374 326.475 371.899 326.475C365.416 326.475 360.168 321.221 360.168 314.745V268.133" fill="#DECAAD"/>
<path d="M383.629 268.133V314.745C383.629 321.227 378.374 326.475 371.899 326.475C365.416 326.475 360.168 321.221 360.168 314.745V268.133" stroke="#603813" stroke-width="4.77458" stroke-miterlimit="10"/>
<path d="M253.824 268.133V314.745C253.824 321.227 259.079 326.475 265.555 326.475C272.037 326.475 277.285 321.221 277.285 314.745V268.133" fill="#DECAAD"/>
<path d="M253.824 268.133V314.745C253.824 321.227 259.079 326.475 265.555 326.475C272.037 326.475 277.285 321.221 277.285 314.745V268.133" stroke="#603813" stroke-width="4.77458" stroke-miterlimit="10"/>
</svg>