<svg width="500" height="500" viewBox="0 0 500 500" fill="none" xmlns="http://www.w3.org/2000/svg">
<path d="M360.478 425.415H360.543H360.789C373.588 425.35 384.374 416.858 387.9 405.239C399.041 410.097 412.491 407.382 420.831 397.689C429.127 388.039 429.8 374.437 423.458 364.171C433.239 359.683 440.043 349.773 440.043 338.306C440.043 329.489 436.04 321.605 429.735 316.378C436.04 311.173 440.043 303.276 440.043 294.48C440.043 285.655 436.04 277.758 429.735 272.553C436.04 267.34 440.043 259.442 440.043 250.625C440.043 241.373 435.599 233.121 428.729 227.938C436.474 220.778 439.928 209.601 436.692 198.836C433.014 186.58 421.815 178.639 409.646 178.574C411.137 166.521 404.723 154.373 393.061 149.147C382.166 144.246 369.824 146.765 361.708 154.576C356.569 147.091 347.969 142.168 338.21 142.168C329.386 142.168 321.509 146.2 316.304 152.477C311.071 146.193 303.194 142.168 294.377 142.168C284.597 142.168 275.953 147.112 270.835 154.663C262.655 146.873 250.226 144.427 239.352 149.436C227.733 154.771 221.428 166.962 223.028 178.994C210.859 179.189 199.725 187.217 196.156 199.517C193.022 210.26 196.525 221.357 204.25 228.423C197.423 233.628 193 241.83 193 251.088C193 259.906 197.01 267.782 203.309 272.987C197.003 278.221 193 286.097 193 294.914C193 303.739 197.01 311.615 203.309 316.842C197.003 322.054 193 329.93 193 338.747C193 350.301 199.892 360.233 209.759 364.7C203.475 375.03 204.286 388.64 212.669 398.224C221.095 407.845 234.553 410.43 245.643 405.485C249.277 417.032 260.064 425.415 272.797 425.415C281.614 425.415 289.498 421.382 294.725 415.084C299.93 421.39 307.806 425.415 316.623 425.415C325.448 425.415 333.345 421.382 338.55 415.084C343.763 421.39 351.661 425.415 360.478 425.415Z" fill="white"/>
</svg>
