<svg width="500" height="500" viewBox="0 0 500 500" fill="none" xmlns="http://www.w3.org/2000/svg">
<path d="M346.512 401.551V461.701C346.512 470.066 353.322 476.838 361.714 476.838C370.115 476.838 376.916 470.057 376.916 461.701V401.551" fill="#DECAAD"/>
<path d="M346.512 401.551V461.701C346.512 470.066 353.322 476.838 361.714 476.838C370.115 476.838 376.916 470.057 376.916 461.701V401.551" stroke="#603813" stroke-width="6.63305" stroke-miterlimit="10"/>
<path d="M257.471 401.551V461.701C257.471 470.066 264.281 476.838 272.673 476.838C281.074 476.838 287.875 470.057 287.875 461.701V401.551" fill="#DECAAD"/>
<path d="M257.471 401.551V461.701C257.471 470.066 264.281 476.838 272.673 476.838C281.074 476.838 287.875 470.057 287.875 461.701V401.551" stroke="#603813" stroke-width="6.63305" stroke-miterlimit="10"/>
<path d="M360.478 425.415H360.543H360.789C373.588 425.35 384.374 416.858 387.9 405.239C399.041 410.097 412.491 407.382 420.831 397.689C429.127 388.039 429.8 374.437 423.458 364.171C433.239 359.683 440.043 349.773 440.043 338.306C440.043 329.489 436.04 321.605 429.735 316.378C436.04 311.173 440.043 303.276 440.043 294.48C440.043 285.655 436.04 277.757 429.735 272.553C436.04 267.34 440.043 259.442 440.043 250.625C440.043 241.373 435.598 233.121 428.729 227.938C436.474 220.778 439.928 209.601 436.692 198.836C433.014 186.58 421.815 178.639 409.646 178.574C411.137 166.521 404.723 154.373 393.061 149.147C382.166 144.246 369.824 146.765 361.708 154.576C356.569 147.091 347.969 142.168 338.21 142.168C329.386 142.168 321.509 146.2 316.304 152.477C311.071 146.193 303.194 142.168 294.377 142.168C284.597 142.168 275.953 147.112 270.835 154.663C262.655 146.873 250.226 144.427 239.352 149.436C227.733 154.771 221.428 166.962 223.028 178.994C210.859 179.189 199.725 187.217 196.156 199.517C193.022 210.26 196.525 221.357 204.25 228.423C197.423 233.628 193 241.83 193 251.088C193 259.906 197.01 267.782 203.309 272.987C197.003 278.221 193 286.097 193 294.914C193 303.739 197.01 311.615 203.309 316.842C197.003 322.054 193 329.93 193 338.747C193 350.301 199.892 360.233 209.759 364.7C203.475 375.03 204.286 388.64 212.669 398.224C221.095 407.845 234.553 410.43 245.643 405.485C249.277 417.032 260.064 425.415 272.797 425.415C281.614 425.415 289.498 421.382 294.725 415.084C299.93 421.39 307.806 425.415 316.623 425.415C325.448 425.415 333.345 421.382 338.55 415.084C343.763 421.39 351.661 425.415 360.478 425.415Z" fill="white"/>
<path d="M360.478 428.247H360.543H360.789C373.588 428.182 384.374 419.69 387.9 408.071C399.041 412.929 412.491 410.214 420.831 400.521C429.127 390.871 429.8 377.269 423.458 367.003C433.239 362.515 440.043 352.605 440.043 341.138C440.043 332.321 436.04 324.437 429.735 319.21C436.04 314.005 440.043 306.108 440.043 297.312C440.043 288.487 436.04 280.59 429.735 275.385C436.04 270.172 440.043 262.274 440.043 253.457C440.043 244.205 435.599 235.953 428.729 230.77C436.474 223.61 439.928 212.433 436.692 201.668C433.014 189.412 421.815 181.471 409.646 181.406C411.137 169.353 404.723 157.205 393.061 151.979C382.166 147.078 369.824 149.597 361.708 157.408C356.569 149.923 347.969 145 338.21 145C329.386 145 321.509 149.032 316.305 155.309C311.071 149.025 303.194 145 294.377 145C284.597 145 275.953 149.944 270.835 157.495C262.655 149.705 250.226 147.259 239.352 152.268C227.733 157.603 221.428 169.794 223.028 181.826C210.859 182.021 199.725 190.049 196.156 202.349C193.022 213.092 196.525 224.189 204.25 231.255C197.423 236.46 193 244.662 193 253.92C193 262.738 197.01 270.614 203.309 275.819C197.003 281.053 193 288.929 193 297.746C193 306.571 197.01 314.447 203.309 319.674C197.003 324.886 193 332.762 193 341.579C193 353.133 199.892 363.065 209.759 367.532C203.475 377.862 204.286 391.472 212.669 401.056C221.095 410.677 234.553 413.262 245.643 408.317C249.277 419.864 260.064 428.247 272.797 428.247C281.614 428.247 289.498 424.215 294.725 417.916C299.93 424.222 307.806 428.247 316.623 428.247C325.448 428.247 333.345 424.215 338.55 417.916C343.763 424.222 351.661 428.247 360.478 428.247Z" stroke="#603813" stroke-width="6.63305" stroke-miterlimit="10"/>
<path d="M252.264 268.641V318.663C252.264 325.62 257.903 331.252 264.853 331.252C271.809 331.252 277.441 325.613 277.441 318.663V268.641" fill="#DECAAD"/>
<path d="M252.264 268.641V318.663C252.264 325.62 257.903 331.252 264.853 331.252C271.809 331.252 277.441 325.613 277.441 318.663V268.641" stroke="#603813" stroke-width="6.63305" stroke-miterlimit="10"/>
<path d="M282.087 261.155C281.753 263.389 280.416 265.433 278.209 267.082C276.002 268.73 273.004 269.925 269.516 270.546C266.027 271.167 262.172 271.192 258.337 270.619C254.501 270.046 250.822 268.895 247.667 267.281" stroke="#603813" stroke-width="6.63305" stroke-linecap="round"/>
<path d="M380.678 268.645V318.667C380.678 325.624 375.038 331.256 368.089 331.256C361.132 331.256 355.5 325.617 355.5 318.667V268.645" fill="#DECAAD"/>
<path d="M380.678 268.645V318.667C380.678 325.624 375.038 331.256 368.089 331.256C361.132 331.256 355.5 325.617 355.5 318.667V268.645" stroke="#603813" stroke-width="6.63305" stroke-miterlimit="10"/>
<path d="M350.854 261.155C351.188 263.389 352.526 265.433 354.732 267.082C356.939 268.73 359.937 269.925 363.426 270.546C366.914 271.167 370.769 271.192 374.605 270.619C378.44 270.046 382.12 268.895 385.274 267.281" stroke="#603813" stroke-width="6.63305" stroke-linecap="round"/>
</svg>
