<svg width="500" height="500" viewBox="0 0 500 500" fill="none" xmlns="http://www.w3.org/2000/svg">
<path d="M321.357 154.569C321.353 152.965 322.692 151.661 324.348 151.656L363.943 151.54C365.599 151.535 366.946 152.831 366.951 154.436L367.014 175.931C367.026 180.102 363.544 183.494 359.237 183.506L330.441 183.591C325.472 183.605 321.431 179.716 321.417 174.903L321.357 154.569Z" fill="#B4DCDE" fill-opacity="0.33"/>
<path d="M309.959 154.603C309.954 152.999 308.608 151.702 306.951 151.707L267.357 151.823C265.7 151.828 264.361 153.133 264.366 154.737L264.429 176.232C264.441 180.403 267.943 183.774 272.25 183.762L301.046 183.677C306.016 183.663 310.033 179.749 310.019 174.936L309.959 154.603Z" fill="#B4DCDE" fill-opacity="0.33"/>
<path d="M321.357 154.569L321.417 174.903C321.431 179.716 325.472 183.605 330.441 183.591L359.237 183.506C363.544 183.494 367.026 180.102 367.014 175.931L366.951 154.436C366.946 152.831 365.599 151.535 363.943 151.54L324.348 151.656C322.692 151.661 321.353 152.965 321.357 154.569ZM321.357 154.569C321.357 154.569 318.654 153.125 315.608 153.134C312.562 153.143 309.959 154.603 309.959 154.603M309.959 154.603L310.019 174.936C310.033 179.749 306.016 183.663 301.046 183.677L272.25 183.762C267.943 183.774 264.441 180.403 264.429 176.232L264.366 154.737C264.361 153.133 265.7 151.828 267.357 151.823L306.951 151.707C308.608 151.702 309.954 152.999 309.959 154.603Z" stroke="black" stroke-width="10"/>
<path d="M255.967 156.616C259.846 153.794 265.328 156.176 265.913 160.937L266.074 162.241L256.545 161.94L255.967 156.616Z" fill="black"/>
<path d="M375.089 156.264C371.193 153.466 365.725 155.88 365.167 160.643L365.015 161.948L374.541 161.591L375.089 156.264Z" fill="black"/>
</svg>
