<svg width="500" height="500" viewBox="0 0 500 500" fill="none" xmlns="http://www.w3.org/2000/svg">
<path d="M255.454 76.2521C260.582 71.2808 268.976 73.8278 273.569 78.5085C276.412 81.1892 278.41 84.8347 279.388 88.9109C279.539 89.5376 279.662 90.1693 279.749 90.7957C279.758 90.855 279.759 90.9172 279.744 90.9745C279.728 91.0319 279.698 91.08 279.657 91.1099C279.616 91.1397 279.567 91.1501 279.515 91.1413C279.464 91.1325 279.416 91.1049 279.373 91.0707C278.925 90.7175 278.478 90.3616 278.034 90.0057C275.134 87.7228 272.575 85.547 270.198 83.3012C266.056 79.4998 261.701 76.1896 255.966 77.5096C255.462 77.6302 254.985 77.7631 254.474 77.9478C254.423 77.966 254.367 77.9707 254.315 77.9534C254.262 77.9361 254.218 77.8987 254.191 77.8474C254.163 77.796 254.154 77.7338 254.164 77.6719C254.174 77.6101 254.203 77.5545 254.24 77.5097C254.628 77.0563 255.008 76.6493 255.454 76.2521Z" fill="#FB1515" stroke="#282828" stroke-width="10" stroke-linecap="round"/>
<path d="M259.005 75.3782C259.43 75.2345 259.86 75.1229 260.301 75.0426C265.48 74.1543 270.506 77.4212 274.174 81.2712C276.327 83.5418 278.068 86.3045 279.259 89.3742C279.437 89.8396 279.608 90.3234 279.749 90.7942C279.767 90.8532 279.772 90.9185 279.758 90.9799C279.744 91.0411 279.711 91.093 279.667 91.1255C279.622 91.1581 279.567 91.1697 279.513 91.1582C279.459 91.1467 279.411 91.1127 279.372 91.0687C279.07 90.727 278.755 90.3732 278.445 90.0335C276.393 87.7983 274.373 85.6642 272.376 83.5552C268.899 79.9737 265.076 76.578 260.327 75.9545C259.912 75.9067 259.496 75.8835 259.071 75.8876C259.016 75.8881 258.96 75.8687 258.915 75.8286C258.871 75.7885 258.841 75.7316 258.833 75.6687C258.825 75.6057 258.838 75.541 258.871 75.4876C258.903 75.4341 258.952 75.3965 259.005 75.3782Z" fill="#FF5353"/>
<path d="M266.831 64.7246C273.437 63.4692 279.534 70.6056 281.419 77.3376C282.682 81.3189 282.792 85.6315 281.834 89.7144C281.688 90.3426 281.515 90.9582 281.313 91.5486C281.294 91.6045 281.268 91.6586 281.23 91.699C281.191 91.7394 281.144 91.7632 281.096 91.7648C281.047 91.7663 281 91.7458 280.96 91.7081C280.919 91.6702 280.89 91.618 280.868 91.5633C280.639 90.9958 280.411 90.4262 280.187 89.8586C278.699 86.1861 277.458 82.8071 276.405 79.4749C274.519 73.7645 272.233 68.3513 266.717 66.1083C266.23 65.9149 265.762 65.7487 265.241 65.6065C265.189 65.5919 265.138 65.563 265.101 65.5173C265.063 65.4715 265.042 65.4133 265.041 65.353C265.04 65.2928 265.06 65.2337 265.096 65.1865C265.132 65.1392 265.181 65.1084 265.233 65.0918C265.766 64.9298 266.273 64.8041 266.831 64.7246Z" fill="#12CD82" stroke="#282828" stroke-width="10" stroke-linecap="round"/>
<path d="M270.271 66.0653C270.7 66.1918 271.119 66.3492 271.534 66.5401C276.381 68.8267 279.263 74.5981 280.719 80.071C281.569 83.2924 281.848 86.6949 281.517 90.0369C281.466 90.5425 281.399 91.0591 281.313 91.5472C281.302 91.6085 281.278 91.668 281.238 91.7124C281.199 91.7566 281.148 91.7821 281.096 91.7839C281.043 91.7855 280.99 91.7632 280.949 91.7215C280.908 91.6798 280.881 91.622 280.867 91.5615C280.758 91.0895 280.643 90.5994 280.526 90.1247C279.748 86.9931 278.952 83.9672 278.164 80.9763C276.755 75.8475 274.964 70.674 271.154 67.3399C270.818 67.0544 270.471 66.7895 270.103 66.5426C270.055 66.5103 270.016 66.4606 269.995 66.3999C269.974 66.3392 269.974 66.2727 269.995 66.2138C270.016 66.1548 270.056 66.1073 270.107 66.0804C270.159 66.0535 270.217 66.0497 270.271 66.0653Z" fill="#3AD39B"/>
<path d="M320.663 65.1758C335.869 65.1758 348.981 73.6442 355.003 85.8607C377.999 83.9201 417.26 85.5819 423.958 105.708C425.559 110.521 381.529 123.757 340.304 131.525C334.578 134.814 327.855 136.708 320.663 136.708C314.061 136.708 307.853 135.111 302.449 132.304C261.589 124.421 218.458 111.262 220.042 106.445C226.473 86.9106 262.926 84.5836 286.175 86.1658C292.128 73.7853 305.332 65.1759 320.663 65.1758Z" fill="#5B3123" stroke="#282828" stroke-width="10"/>
<path d="M370.105 136.985C326.641 150.838 304.872 149.827 269.441 136.985V124.355C307.594 135.023 329.673 134.672 370.105 124.355V136.985Z" fill="#E50C0C" stroke="#282828" stroke-width="10"/>
<mask id="path-7-outside-1_4534_1496" maskUnits="userSpaceOnUse" x="290.619" y="83.9961" width="60" height="50" fill="black">
<rect fill="white" x="290.619" y="83.9961" width="60" height="50"/>
<path d="M336.254 93.9961C337.238 93.9964 338.035 94.918 338.035 96.0547C338.035 96.0592 338.034 96.0638 338.034 96.0684C338.108 96.06 338.183 96.0547 338.259 96.0547C339.365 96.0551 340.263 96.9767 340.263 98.1133C340.262 99.2497 339.365 100.171 338.259 100.172C337.728 100.172 337.246 99.9591 336.888 99.6133C331.927 106.195 327.637 110.678 322.929 113.832C326.706 115.684 330.934 116.878 336.199 117.828C336.327 117.208 336.699 116.665 337.247 116.401C338.155 115.964 339.199 116.46 339.577 117.51C339.955 118.559 339.526 119.764 338.618 120.201L338.619 120.202C338.997 121.252 338.476 122.501 337.454 122.993C336.432 123.485 335.297 123.033 334.919 121.983C334.71 121.403 334.776 120.761 335.05 120.221C329.324 119.138 324.681 117.713 320.44 115.354C316.199 117.713 311.557 119.139 305.831 120.222C306.104 120.762 306.171 121.403 305.962 121.983C305.583 123.033 304.449 123.485 303.427 122.993C302.405 122.501 301.883 121.252 302.262 120.202V120.201C301.355 119.763 300.926 118.559 301.304 117.51C301.682 116.46 302.725 115.964 303.634 116.401C304.182 116.665 304.553 117.208 304.681 117.828C309.947 116.878 314.175 115.684 317.953 113.832C313.245 110.678 308.954 106.194 303.993 99.6113C303.635 99.9572 303.154 100.172 302.623 100.172C301.516 100.172 300.619 99.2499 300.619 98.1133C300.619 96.9765 301.516 96.0549 302.623 96.0547C302.699 96.0547 302.773 96.06 302.847 96.0684C302.847 96.0638 302.847 96.0592 302.847 96.0547C302.847 94.9178 303.644 93.9961 304.628 93.9961C305.612 93.9961 306.409 94.9178 306.409 96.0547C306.409 96.7877 306.077 97.4293 305.577 97.7939C310.589 104.46 314.78 108.791 319.319 111.773C319.69 112.017 320.064 112.251 320.44 112.478C320.818 112.251 321.192 112.017 321.563 111.773C326.102 108.791 330.292 104.461 335.303 97.7969C334.803 97.4322 334.473 96.7878 334.473 96.0547C334.473 94.9178 335.27 93.9961 336.254 93.9961Z"/>
</mask>
<path d="M336.254 93.9961C337.238 93.9964 338.035 94.918 338.035 96.0547C338.035 96.0592 338.034 96.0638 338.034 96.0684C338.108 96.06 338.183 96.0547 338.259 96.0547C339.365 96.0551 340.263 96.9767 340.263 98.1133C340.262 99.2497 339.365 100.171 338.259 100.172C337.728 100.172 337.246 99.9591 336.888 99.6133C331.927 106.195 327.637 110.678 322.929 113.832C326.706 115.684 330.934 116.878 336.199 117.828C336.327 117.208 336.699 116.665 337.247 116.401C338.155 115.964 339.199 116.46 339.577 117.51C339.955 118.559 339.526 119.764 338.618 120.201L338.619 120.202C338.997 121.252 338.476 122.501 337.454 122.993C336.432 123.485 335.297 123.033 334.919 121.983C334.71 121.403 334.776 120.761 335.05 120.221C329.324 119.138 324.681 117.713 320.44 115.354C316.199 117.713 311.557 119.139 305.831 120.222C306.104 120.762 306.171 121.403 305.962 121.983C305.583 123.033 304.449 123.485 303.427 122.993C302.405 122.501 301.883 121.252 302.262 120.202V120.201C301.355 119.763 300.926 118.559 301.304 117.51C301.682 116.46 302.725 115.964 303.634 116.401C304.182 116.665 304.553 117.208 304.681 117.828C309.947 116.878 314.175 115.684 317.953 113.832C313.245 110.678 308.954 106.194 303.993 99.6113C303.635 99.9572 303.154 100.172 302.623 100.172C301.516 100.172 300.619 99.2499 300.619 98.1133C300.619 96.9765 301.516 96.0549 302.623 96.0547C302.699 96.0547 302.773 96.06 302.847 96.0684C302.847 96.0638 302.847 96.0592 302.847 96.0547C302.847 94.9178 303.644 93.9961 304.628 93.9961C305.612 93.9961 306.409 94.9178 306.409 96.0547C306.409 96.7877 306.077 97.4293 305.577 97.7939C310.589 104.46 314.78 108.791 319.319 111.773C319.69 112.017 320.064 112.251 320.44 112.478C320.818 112.251 321.192 112.017 321.563 111.773C326.102 108.791 330.292 104.461 335.303 97.7969C334.803 97.4322 334.473 96.7878 334.473 96.0547C334.473 94.9178 335.27 93.9961 336.254 93.9961Z" fill="white"/>
<path d="M336.254 93.9961L336.257 83.9961H336.254V93.9961ZM338.035 96.0547L348.035 96.055V96.0545L338.035 96.0547ZM338.034 96.0684L328.034 96.0007L327.958 107.285L339.169 106.004L338.034 96.0684ZM338.259 96.0547L338.263 86.0547H338.259V96.0547ZM340.263 98.1133L350.263 98.1151V98.1131L340.263 98.1133ZM338.259 100.172V110.172H338.263L338.259 100.172ZM336.888 99.6133L343.829 92.4152L335.7 84.5752L328.902 93.5943L336.888 99.6133ZM322.929 113.832L317.363 105.524L302.953 115.177L318.527 122.811L322.929 113.832ZM336.199 117.828L334.424 127.669L344.031 129.403L345.995 119.84L336.199 117.828ZM337.247 116.401L332.911 107.39L332.911 107.391L337.247 116.401ZM339.577 117.51L348.984 114.118L348.984 114.118L339.577 117.51ZM338.618 120.201L334.275 111.193L321.586 117.311L331.547 127.272L338.618 120.201ZM338.619 120.202L348.026 116.811L347.269 114.71L345.69 113.131L338.619 120.202ZM337.454 122.993L341.791 132.004L341.791 132.004L337.454 122.993ZM334.919 121.983L325.512 125.375L325.512 125.377L334.919 121.983ZM335.05 120.221L343.972 124.737L349.98 112.866L336.907 110.395L335.05 120.221ZM320.44 115.354L325.3 106.615L320.441 103.912L315.581 106.615L320.44 115.354ZM305.831 120.222L303.974 110.396L290.905 112.866L296.907 124.734L305.831 120.222ZM305.962 121.983L315.369 125.377L315.369 125.375L305.962 121.983ZM303.427 122.993L299.09 132.004L299.09 132.004L303.427 122.993ZM302.262 120.202L311.669 123.594L312.262 121.95V120.202H302.262ZM302.262 120.201H312.262V113.925L306.609 111.196L302.262 120.201ZM301.304 117.51L291.897 114.118L291.896 114.118L301.304 117.51ZM303.634 116.401L307.97 107.391L307.97 107.39L303.634 116.401ZM304.681 117.828L294.885 119.841L296.85 129.402L306.456 127.669L304.681 117.828ZM317.953 113.832L322.354 122.811L337.929 115.177L323.519 105.524L317.953 113.832ZM303.993 99.6113L311.979 93.5925L305.18 84.5719L297.051 92.4141L303.993 99.6113ZM302.623 100.172L302.621 110.172H302.623V100.172ZM300.619 98.1133H290.619V98.1151L300.619 98.1133ZM302.623 96.0547V86.0547H302.621L302.623 96.0547ZM302.847 96.0684L301.715 106.004L312.91 107.279L312.847 96.0118L302.847 96.0684ZM302.847 96.0547H292.847V96.055L302.847 96.0547ZM304.628 93.9961V83.9961H304.628L304.628 93.9961ZM306.409 96.0547L316.409 96.055V96.0547H306.409ZM305.577 97.7939L299.68 89.7182L291.49 95.6987L297.584 103.804L305.577 97.7939ZM319.319 111.773L313.828 120.131L313.828 120.131L319.319 111.773ZM320.44 112.478L315.286 121.047L320.44 124.147L325.594 121.047L320.44 112.478ZM321.563 111.773L327.055 120.131L327.055 120.131L321.563 111.773ZM335.303 97.7969L343.295 103.807L349.39 95.7016L341.2 89.721L335.303 97.7969ZM334.473 96.0547L324.473 96.0545V96.055L334.473 96.0547ZM336.254 93.9961L336.251 103.996C330.406 103.995 328.035 99.0352 328.035 96.0548L338.035 96.0547L348.035 96.0545C348.035 90.8008 344.069 83.9982 336.257 83.9961L336.254 93.9961ZM338.035 96.0547L328.035 96.0544C328.035 95.8826 328.04 95.7301 328.045 95.6016C328.051 95.4734 328.059 95.3636 328.065 95.2784C328.072 95.1939 328.079 95.1255 328.083 95.0832C328.085 95.0616 328.087 95.0441 328.088 95.033C328.089 95.0224 328.09 95.0141 328.09 95.014C328.09 95.0111 328.089 95.0187 328.088 95.0262C328.087 95.035 328.086 95.0505 328.084 95.0698C328.08 95.1074 328.074 95.1716 328.067 95.2514C328.061 95.332 328.053 95.4374 328.047 95.5611C328.041 95.685 328.036 95.8332 328.034 96.0007L338.034 96.0684L348.034 96.136C348.033 96.3024 348.028 96.4494 348.021 96.5722C348.015 96.6947 348.008 96.799 348.001 96.8785C347.995 96.9572 347.989 97.0203 347.985 97.0567C347.983 97.0754 347.982 97.0903 347.981 97.0985C347.98 97.1055 347.979 97.1126 347.98 97.1091C347.98 97.1084 347.981 97.0995 347.982 97.0884C347.983 97.0767 347.985 97.0586 347.987 97.0364C347.991 96.993 347.998 96.9234 348.005 96.8378C348.011 96.7515 348.019 96.6405 348.025 96.5112C348.031 96.3816 348.035 96.2279 348.035 96.055L338.035 96.0547ZM338.034 96.0684L339.169 106.004C338.953 106.028 338.641 106.055 338.259 106.055V96.0547V86.0547C337.726 86.0547 337.263 86.0914 336.899 86.133L338.034 96.0684ZM338.259 96.0547L338.255 106.055C333.592 106.053 330.263 102.247 330.263 98.1134L340.263 98.1133L350.263 98.1131C350.263 91.7067 345.139 86.0573 338.263 86.0547L338.259 96.0547ZM340.263 98.1133L330.263 98.1115C330.263 93.981 333.59 90.1736 338.255 90.1719L338.259 100.172L338.263 110.172C345.14 110.169 350.262 104.518 350.263 98.1151L340.263 98.1133ZM338.259 100.172V90.1719C340.471 90.1719 342.438 91.073 343.829 92.4152L336.888 99.6133L329.946 106.811C332.055 108.845 334.985 110.172 338.259 110.172V100.172ZM336.888 99.6133L328.902 93.5943C324.249 99.767 320.745 103.258 317.363 105.524L322.929 113.832L328.494 122.14C334.528 118.098 339.605 112.623 344.873 105.632L336.888 99.6133ZM322.929 113.832L318.527 122.811C323.448 125.223 328.668 126.631 334.424 127.669L336.199 117.828L337.975 107.987C333.2 107.126 329.965 106.144 327.33 104.853L322.929 113.832ZM336.199 117.828L345.995 119.84C345.611 121.707 344.334 124.089 341.584 125.412L337.247 116.401L332.911 107.391C329.065 109.241 327.042 112.71 326.404 115.816L336.199 117.828ZM337.247 116.401L341.583 125.412C339.199 126.56 336.511 126.473 334.316 125.429C332.184 124.415 330.808 122.671 330.17 120.902L339.577 117.51L348.984 114.118C346.982 108.564 340.136 103.914 332.911 107.39L337.247 116.401ZM339.577 117.51L330.17 120.901C329.542 119.159 329.587 117.335 330.16 115.728C330.729 114.133 332.006 112.288 334.275 111.193L338.618 120.201L342.961 129.209C349.2 126.201 350.817 119.202 348.984 114.118L339.577 117.51ZM338.618 120.201L331.547 127.272L331.548 127.273L338.619 120.202L345.69 113.131L345.689 113.13L338.618 120.201ZM338.619 120.202L329.212 123.594C327.807 119.698 329.638 115.657 333.117 113.982L337.454 122.993L341.791 132.004C347.314 129.346 350.188 122.805 348.026 116.811L338.619 120.202ZM337.454 122.993L333.118 113.982C337.276 111.981 342.633 113.898 344.326 118.59L334.919 121.983L325.512 125.377C327.962 132.167 335.589 134.989 341.791 132.004L337.454 122.993ZM334.919 121.983L344.326 118.592C345.15 120.876 344.803 123.094 343.972 124.737L335.05 120.221L326.128 115.705C324.749 118.429 324.27 121.93 325.512 125.375L334.919 121.983ZM335.05 120.221L336.907 110.395C331.779 109.425 328.271 108.267 325.3 106.615L320.44 115.354L315.58 124.094C321.091 127.159 326.87 128.852 333.192 130.047L335.05 120.221ZM320.44 115.354L315.581 106.615C312.608 108.268 309.101 109.427 303.974 110.396L305.831 120.222L307.688 130.048C314.014 128.852 319.791 127.158 325.3 124.094L320.44 115.354ZM305.831 120.222L296.907 124.734C296.079 123.097 295.73 120.88 296.555 118.592L305.962 121.983L315.369 125.375C316.612 121.927 316.13 118.428 314.755 115.709L305.831 120.222ZM305.962 121.983L296.555 118.59C298.248 113.898 303.605 111.981 307.763 113.982L303.427 122.993L299.09 132.004C305.292 134.989 312.919 132.167 315.369 125.377L305.962 121.983ZM303.427 122.993L307.764 113.982C311.242 115.657 313.074 119.698 311.669 123.594L302.262 120.202L292.854 116.811C290.693 122.806 293.567 129.346 299.09 132.004L303.427 122.993ZM302.262 120.202H312.262V120.201H302.262H292.262V120.202H302.262ZM302.262 120.201L306.609 111.196C308.878 112.291 310.154 114.137 310.722 115.731C311.293 117.337 311.339 119.16 310.711 120.901L301.304 117.51L291.896 114.118C290.065 119.198 291.678 126.196 297.914 129.207L302.262 120.201ZM301.304 117.51L310.711 120.902C310.073 122.671 308.697 124.415 306.565 125.429C304.369 126.473 301.682 126.56 299.298 125.412L303.634 116.401L307.97 107.39C300.745 103.914 293.899 108.564 291.897 114.118L301.304 117.51ZM303.634 116.401L299.297 125.412C296.538 124.084 295.267 121.696 294.885 119.841L304.681 117.828L314.476 115.815C313.84 112.72 311.825 109.246 307.97 107.391L303.634 116.401ZM304.681 117.828L306.456 127.669C312.212 126.631 317.433 125.224 322.354 122.811L317.953 113.832L313.552 104.853C310.917 106.144 307.681 107.125 302.905 107.987L304.681 117.828ZM317.953 113.832L323.519 105.524C320.136 103.258 316.632 99.7664 311.979 93.5925L303.993 99.6113L296.007 105.63C301.276 112.621 306.353 118.098 312.388 122.14L317.953 113.832ZM303.993 99.6113L297.051 92.4141C298.42 91.0932 300.381 90.1719 302.623 90.1719V100.172V110.172C305.927 110.172 308.849 108.821 310.936 106.809L303.993 99.6113ZM302.623 100.172L302.625 90.1719C307.293 90.1727 310.618 93.9831 310.619 98.1115L300.619 98.1133L290.619 98.1151C290.62 104.517 295.74 110.171 302.621 110.172L302.623 100.172ZM300.619 98.1133H310.619C310.619 102.245 307.291 106.054 302.625 106.055L302.623 96.0547L302.621 86.0547C295.742 86.056 290.619 91.7083 290.619 98.1133H300.619ZM302.623 96.0547V106.055C302.235 106.055 301.921 106.028 301.715 106.004L302.847 96.0684L303.978 86.1326C303.626 86.0924 303.163 86.0547 302.623 86.0547V96.0547ZM302.847 96.0684L312.847 96.0118C312.847 96.0294 312.847 96.044 312.847 96.0544C312.847 96.0647 312.847 96.0726 312.847 96.0757C312.847 96.0774 312.847 96.0785 312.847 96.0784C312.847 96.0782 312.847 96.0784 312.847 96.0777C312.847 96.0773 312.847 96.0766 312.847 96.0757C312.847 96.0727 312.847 96.0645 312.847 96.0544L302.847 96.0547L292.847 96.055C292.847 96.0471 292.847 96.0412 292.847 96.0405C292.847 96.0405 292.847 96.0395 292.847 96.0412C292.847 96.0423 292.847 96.0445 292.847 96.0473C292.847 96.0568 292.847 96.087 292.847 96.1249L302.847 96.0684ZM302.847 96.0547H312.847C312.847 99.0325 310.477 103.996 304.628 103.996L304.628 93.9961L304.628 83.9961C296.811 83.9963 292.847 90.8031 292.847 96.0547H302.847ZM304.628 93.9961V103.996C298.779 103.996 296.409 99.0322 296.409 96.0547H306.409H316.409C316.409 90.8034 312.445 83.9961 304.628 83.9961V93.9961ZM306.409 96.0547L296.409 96.0544C296.409 93.8237 297.422 91.3671 299.68 89.7182L305.577 97.7939L311.475 105.87C314.731 103.491 316.409 99.7517 316.409 96.055L306.409 96.0547ZM305.577 97.7939L297.584 103.804C302.905 110.88 307.907 116.24 313.828 120.131L319.319 111.773L324.811 103.416C321.653 101.341 318.274 98.04 313.57 91.7842L305.577 97.7939ZM319.319 111.773L313.828 120.131C314.32 120.454 314.807 120.759 315.286 121.047L320.44 112.478L325.594 103.908C325.32 103.743 325.06 103.58 324.811 103.416L319.319 111.773ZM320.44 112.478L325.594 121.047C326.06 120.767 326.551 120.462 327.055 120.131L321.563 111.773L316.072 103.416C315.834 103.572 315.575 103.734 315.287 103.908L320.44 112.478ZM321.563 111.773L327.055 120.131C332.975 116.241 337.976 110.881 343.295 103.807L335.303 97.7969L327.31 91.7869C322.607 98.0414 319.229 101.342 316.072 103.416L321.563 111.773ZM335.303 97.7969L341.2 89.721C343.485 91.3894 344.473 93.8591 344.473 96.0544L334.473 96.0547L324.473 96.055C324.473 99.7166 326.122 103.475 329.405 105.873L335.303 97.7969ZM334.473 96.0547L344.473 96.0548C344.473 99.0321 342.103 103.996 336.254 103.996V93.9961V83.9961C328.437 83.9961 324.473 90.8036 324.473 96.0545L334.473 96.0547Z" fill="#282828" mask="url(#path-7-outside-1_4534_1496)"/>
</svg>
