<svg width="200" height="143" viewBox="0 0 200 143" fill="none" xmlns="http://www.w3.org/2000/svg">
<path d="M143.169 72.0644C149.234 72.0644 154.151 65.6438 154.151 57.7236C154.151 49.8034 149.234 43.3828 143.169 43.3828C137.104 43.3828 132.188 49.8034 132.188 57.7236C132.188 65.6438 137.104 72.0644 143.169 72.0644Z" fill="#D9AD7A" stroke="#603813" stroke-width="6.63305" stroke-miterlimit="10" stroke-linecap="round"/>
<path d="M56.5013 72.0644C62.5664 72.0644 67.4831 65.6438 67.4831 57.7236C67.4831 49.8034 62.5664 43.3828 56.5013 43.3828C50.4362 43.3828 45.5195 49.8034 45.5195 57.7236C45.5195 65.6438 50.4362 72.0644 56.5013 72.0644Z" fill="#D9AD7A" stroke="#603813" stroke-width="6.63305" stroke-miterlimit="10" stroke-linecap="round"/>
<path d="M107.847 48.2847C108.687 34.9719 115.528 20.4574 129.043 12.907C145.035 3.38023 171.45 8.12188 179.623 23.6933C182.816 29.4195 183.8 35.247 184.177 41.3352C184.568 46.4532 184.669 51.6075 184.372 56.8776C183.482 68.3662 181.18 89.4611 163.943 90.6773C158.695 90.6773 154.445 86.9346 154.445 82.3161C154.445 77.6975 158.702 73.9548 163.943 73.9548C163.415 73.9114 162.843 73.9838 162.343 74.1575C161.916 74.2878 161.706 74.3168 161.417 74.4833C161.011 74.7656 160.975 74.6715 160.838 74.8597C160.874 74.8018 161.236 74.4616 161.583 73.8824C166.542 63.7404 167.903 49.3417 162.184 39.605C154.554 26.6035 138.244 34.0091 140.858 48.292C142.045 56.3057 135.631 63.6535 126.517 64.7032C115.839 66.0641 110.649 57.645 112.104 48.292H107.84L107.847 48.2847Z" fill="#C69C6D" stroke="#603813" stroke-width="6.63305" stroke-miterlimit="10" stroke-linecap="round"/>
<path d="M171.113 27.0586C161.149 27.0586 152.334 32.2216 146.869 40.1535C145.544 42.0835 145.544 44.7709 146.869 46.701C152.334 54.641 161.149 59.7959 171.113 59.7959C181.077 59.7959 189.891 54.6328 195.356 46.701C196.682 44.7709 196.682 42.0835 195.356 40.1535C189.891 32.2135 181.077 27.0586 171.113 27.0586Z" fill="#DECAAD" stroke="#603813" stroke-width="6.63305" stroke-miterlimit="10"/>
<path d="M91.8182 48.2847C90.9785 34.9719 84.1375 20.4574 70.622 12.907C54.6307 3.38023 28.215 8.12188 20.042 23.6933C16.8496 29.4195 15.865 35.247 15.4886 41.3352C15.0977 46.4532 14.9963 51.6075 15.2931 56.8776C16.1836 68.3662 18.4856 89.4611 35.722 90.6773C40.9704 90.6773 45.2198 86.9346 45.2198 82.3161C45.2198 77.6975 40.9632 73.9548 35.722 73.9548C36.2505 73.9114 36.8224 73.9838 37.3219 74.1575C37.749 74.2878 37.9589 74.3168 38.2485 74.4833C38.6539 74.7656 38.6901 74.6715 38.8276 74.8597C38.7914 74.8018 38.4295 74.4616 38.082 73.8824C33.1232 63.7404 31.7622 49.3417 37.4811 39.605C45.1112 26.6035 61.421 34.0091 58.8077 48.292C57.6205 56.3057 64.0344 63.6535 73.1484 64.7032C83.8262 66.0641 89.0167 57.645 87.5616 48.292H91.8255L91.8182 48.2847Z" fill="#C69C6D" stroke="#603813" stroke-width="6.63305" stroke-miterlimit="10" stroke-linecap="round"/>
<path d="M28.6193 27.0586C38.609 27.0586 47.4461 32.2216 52.9251 40.1535C54.2545 42.0835 54.2545 44.7709 52.9251 46.701C47.4461 54.641 38.609 59.7959 28.6193 59.7959C18.6295 59.7959 9.79245 54.6328 4.31346 46.701C2.98406 44.7709 2.98406 42.0835 4.31346 40.1535C9.79245 32.2135 18.6295 27.0586 28.6193 27.0586Z" fill="#DECAAD" stroke="#603813" stroke-width="6.63305" stroke-miterlimit="10"/>
<path d="M109.615 139.603H90.0547C76.2931 139.603 64.6742 129.382 62.9224 115.736L52.8672 37.5312H146.81L136.754 115.736C135.003 129.382 123.377 139.603 109.622 139.603H109.615Z" fill="#DECAAD" stroke="#603813" stroke-width="6.63305" stroke-miterlimit="10"/>
<path d="M145.1 19.1847C143.501 19.1847 141.973 19.4597 140.547 19.952C137.883 12.8866 131.071 7.84812 123.072 7.84812C120.386 7.84812 117.838 8.42726 115.529 9.44798C111.395 5.65466 105.893 3.31641 99.8413 3.31641C93.7893 3.31641 88.2876 5.65466 84.154 9.44798C81.8448 8.42726 79.2966 7.84812 76.6108 7.84812C68.6116 7.84812 61.7995 12.8866 59.1355 19.952C57.7022 19.4597 56.1747 19.1847 54.5821 19.1847C46.8073 19.1847 40.502 25.49 40.502 33.2648C40.502 41.0397 46.8073 47.345 54.5821 47.345C59.1572 47.345 63.2184 45.1515 65.7883 41.7636C68.8432 43.9426 72.5786 45.2384 76.6181 45.2384C79.3038 45.2384 81.852 44.6593 84.1613 43.6385C88.2948 47.4319 93.7966 49.7701 99.8485 49.7701C105.9 49.7701 111.402 47.4319 115.536 43.6385C117.845 44.6593 120.393 45.2384 123.079 45.2384C127.118 45.2384 130.847 43.9426 133.909 41.7636C136.479 45.1515 140.533 47.345 145.115 47.345C152.89 47.345 159.195 41.0397 159.195 33.2648C159.195 25.49 152.89 19.1847 145.115 19.1847H145.1Z" fill="#D9AD7A" stroke="#603813" stroke-width="6.63305" stroke-miterlimit="10" stroke-linecap="round" stroke-linejoin="round"/>
<path d="M148.231 74.6258C148.373 71.5962 147.519 68.8206 146.04 66.8226C139.313 59.4317 132.632 68.9621 132.358 74.7894C132.23 77.5051 133.796 81.0048 133.796 81.0048C129.572 83.186 126.886 88.0589 126.618 93.7634C126.344 99.5838 131.333 102.07 135.387 102.261C143.009 102.619 147.548 98.0295 147.822 92.2023C148 88.4084 147.328 84.8756 145.109 82.9112C147.273 81.0981 148.064 78.1877 148.231 74.6258Z" fill="#D9AD7A" stroke="#603813" stroke-width="6.63305" stroke-miterlimit="10" stroke-linecap="round" stroke-linejoin="round"/>
<path d="M51.5249 74.6258C51.3825 71.5962 52.2369 68.8206 53.7158 66.8226C60.4432 59.4317 67.1242 68.9621 67.3981 74.7894C67.5257 77.5051 65.96 81.0048 65.96 81.0048C70.1842 83.186 72.8702 88.0589 73.1383 93.7634C73.4118 99.5838 68.4227 102.07 64.369 102.261C56.7468 102.619 52.2076 98.0295 51.9338 92.2023C51.7555 88.4084 52.4278 84.8756 54.6469 82.9112C52.4828 81.0981 51.6923 78.1877 51.5249 74.6258Z" fill="#D9AD7A" stroke="#603813" stroke-width="6.63305" stroke-miterlimit="10" stroke-linecap="round" stroke-linejoin="round"/>
<path d="M81.8588 66.8468C81.8588 69.9886 80.3241 71.422 78.4275 71.422C76.5308 71.422 74.9961 69.9886 74.9961 66.8468C74.9961 63.705 76.5308 61.1641 78.4275 61.1641C80.3241 61.1641 81.8588 63.7123 81.8588 66.8468Z" fill="black" stroke="black" stroke-width="6.63305" stroke-miterlimit="10" stroke-linecap="round"/>
<path d="M117.818 66.8468C117.818 69.9886 119.353 71.422 121.25 71.422C123.146 71.422 124.681 69.9886 124.681 66.8468C124.681 63.705 123.146 61.1641 121.25 61.1641C119.353 61.1641 117.818 63.7123 117.818 66.8468Z" fill="black" stroke="black" stroke-width="6.63305" stroke-miterlimit="10" stroke-linecap="round"/>
<path d="M100.954 95.9983C99.9405 97.0479 98.2755 97.0479 97.262 95.9983C91.4128 89.9391 85.6504 89.9753 85.6504 94.4274C85.6504 99.35 91.6806 103.332 99.108 103.332C106.535 103.332 112.573 99.3428 112.573 94.4274C112.573 89.9753 106.81 89.9391 100.954 95.9983Z" fill="black" stroke="black" stroke-width="6.63305" stroke-miterlimit="10" stroke-linecap="round"/>
<path d="M99.0254 106.109L99.0254 121.312" stroke="black" stroke-width="6.63305" stroke-miterlimit="10" stroke-linecap="round"/>
<path d="M87.8555 119.326C90.9973 121.809 97.4401 122.555 104.368 120.89C111.296 119.225 116.696 115.641 118.368 112" stroke="black" stroke-width="9.47951" stroke-miterlimit="10" stroke-linecap="round"/>
<path d="M169.155 75.751C168.829 71.9577 169.821 67.7662 170.986 63.9512C173.086 57.4576 176.633 51.1306 181.541 45.6071C182.605 44.4054 182.634 42.668 181.49 41.4301C180.166 39.9968 177.762 39.7796 176.133 40.9451C169.148 45.9474 163.248 52.231 158.752 59.3833C152.903 68.2585 144.86 88.7453 163.219 90.6782" fill="#C69C6D"/>
<path d="M169.155 75.751C168.829 71.9577 169.821 67.7662 170.986 63.9512C173.086 57.4576 176.633 51.1306 181.541 45.6071C182.605 44.4054 182.634 42.668 181.49 41.4301C180.166 39.9968 177.762 39.7796 176.133 40.9451C169.148 45.9474 163.248 52.231 158.752 59.3833C152.903 68.2585 144.86 88.7453 163.219 90.6782" stroke="#603813" stroke-width="6.63305" stroke-miterlimit="10" stroke-linecap="round"/>
<path d="M36.4531 90.6782C54.8116 88.7525 46.7689 68.2585 40.9196 59.3833C36.4241 52.231 30.5242 45.9401 23.5384 40.9451C21.9024 39.7796 19.5062 39.9968 18.1815 41.4301C17.0377 42.668 17.0666 44.3982 18.1308 45.6071C23.0389 51.1306 26.5861 57.4576 28.6855 63.9512C29.8582 67.7734 30.8427 71.9649 30.517 75.751" fill="#C69C6D"/>
<path d="M36.4531 90.6782C54.8116 88.7525 46.7689 68.2585 40.9196 59.3833C36.4241 52.231 30.5242 45.9401 23.5384 40.9451C21.9024 39.7796 19.5062 39.9968 18.1815 41.4301C17.0377 42.668 17.0666 44.3982 18.1308 45.6071C23.0389 51.1306 26.5861 57.4576 28.6855 63.9512C29.8582 67.7734 30.8427 71.9649 30.517 75.751" stroke="#603813" stroke-width="6.63305" stroke-miterlimit="10" stroke-linecap="round"/>
</svg>
