<svg width="500" height="500" viewBox="0 0 500 500" fill="none" xmlns="http://www.w3.org/2000/svg">
<g clip-path="url(#clip0_4561_2166)">
<path d="M357.074 168.882C362.896 168.882 367.616 162.719 367.616 155.117C367.616 147.515 362.896 141.352 357.074 141.352C351.253 141.352 346.533 147.515 346.533 155.117C346.533 162.719 351.253 168.882 357.074 168.882Z" fill="#D9AD7A" stroke="#603813" stroke-width="4" stroke-miterlimit="10" stroke-linecap="round"/>
<path d="M273.885 168.882C279.707 168.882 284.426 162.719 284.426 155.117C284.426 147.515 279.707 141.352 273.885 141.352C268.063 141.352 263.344 147.515 263.344 155.117C263.344 162.719 268.063 168.882 273.885 168.882Z" fill="#D9AD7A" stroke="#603813" stroke-width="4" stroke-miterlimit="10" stroke-linecap="round"/>
<path d="M323.173 146.055C323.979 133.276 330.546 119.344 343.519 112.097C358.868 102.952 384.224 107.504 392.069 122.45C395.134 127.947 396.079 133.541 396.44 139.384C396.815 144.297 396.913 149.245 396.628 154.303C395.773 165.331 393.563 185.579 377.019 186.747C371.981 186.747 367.902 183.154 367.902 178.721C367.902 174.288 371.988 170.695 377.019 170.695C376.511 170.654 375.962 170.723 375.483 170.89C375.073 171.015 374.871 171.043 374.593 171.203C374.204 171.474 374.17 171.383 374.038 171.564C374.072 171.508 374.42 171.182 374.753 170.626C379.513 160.891 380.819 147.07 375.33 137.724C368.006 125.244 352.351 132.352 354.859 146.062C355.999 153.754 349.842 160.807 341.094 161.815C330.844 163.121 325.862 155.04 327.259 146.062H323.166L323.173 146.055Z" fill="#C69C6D" stroke="#603813" stroke-width="4" stroke-miterlimit="10" stroke-linecap="round"/>
<path d="M383.897 125.68C374.333 125.68 365.872 130.636 360.626 138.249C359.354 140.102 359.354 142.681 360.626 144.534C365.872 152.155 374.333 157.103 383.897 157.103C393.461 157.103 401.922 152.148 407.168 144.534C408.44 142.681 408.44 140.102 407.168 138.249C401.922 130.628 393.461 125.68 383.897 125.68Z" fill="#DECAAD" stroke="#603813" stroke-width="4" stroke-miterlimit="10"/>
<path d="M307.788 146.055C306.982 133.276 300.415 119.344 287.442 112.097C272.092 102.952 246.737 107.504 238.891 122.45C235.827 127.947 234.882 133.541 234.521 139.384C234.145 144.297 234.048 149.245 234.333 154.303C235.188 165.331 237.397 185.579 253.942 186.747C258.98 186.747 263.059 183.154 263.059 178.721C263.059 174.288 258.973 170.695 253.942 170.695C254.45 170.654 254.999 170.723 255.478 170.89C255.888 171.015 256.09 171.043 256.367 171.203C256.757 171.474 256.791 171.383 256.923 171.564C256.889 171.508 256.541 171.182 256.208 170.626C251.448 160.891 250.141 147.07 255.631 137.724C262.955 125.244 278.61 132.352 276.102 146.062C274.962 153.754 281.119 160.807 289.867 161.815C300.117 163.121 305.099 155.04 303.702 146.062H307.795L307.788 146.055Z" fill="#C69C6D" stroke="#603813" stroke-width="4" stroke-miterlimit="10" stroke-linecap="round"/>
<path d="M247.124 125.68C256.713 125.68 265.195 130.636 270.454 138.249C271.73 140.102 271.73 142.681 270.454 144.534C265.195 152.155 256.713 157.103 247.124 157.103C237.535 157.103 229.052 152.148 223.793 144.534C222.517 142.681 222.517 140.102 223.793 138.249C229.052 130.628 237.535 125.68 247.124 125.68Z" fill="#DECAAD" stroke="#603813" stroke-width="4" stroke-miterlimit="10"/>
<path d="M324.869 233.707H306.094C292.884 233.707 281.732 223.896 280.05 210.797L270.398 135.73H360.572L350.92 210.797C349.239 223.896 338.079 233.707 324.876 233.707H324.869Z" fill="#DECAAD" stroke="#603813" stroke-width="4" stroke-miterlimit="10"/>
<path d="M358.929 118.118C357.394 118.118 355.928 118.382 354.559 118.855C352.001 112.073 345.463 107.237 337.784 107.237C335.206 107.237 332.76 107.793 330.544 108.772C326.576 105.131 321.295 102.887 315.486 102.887C309.677 102.887 304.396 105.131 300.428 108.772C298.211 107.793 295.766 107.237 293.188 107.237C285.509 107.237 278.97 112.073 276.413 118.855C275.037 118.382 273.571 118.118 272.043 118.118C264.58 118.118 258.527 124.171 258.527 131.634C258.527 139.096 264.58 145.149 272.043 145.149C276.434 145.149 280.332 143.043 282.799 139.791C285.732 141.883 289.317 143.127 293.194 143.127C295.772 143.127 298.218 142.571 300.435 141.591C304.403 145.232 309.684 147.477 315.493 147.477C321.302 147.477 326.583 145.232 330.551 141.591C332.767 142.571 335.213 143.127 337.791 143.127C341.669 143.127 345.247 141.883 348.187 139.791C350.653 143.043 354.545 145.149 358.943 145.149C366.406 145.149 372.459 139.096 372.459 131.634C372.459 124.171 366.406 118.118 358.943 118.118H358.929Z" fill="#D9AD7A" stroke="#603813" stroke-width="4" stroke-miterlimit="10" stroke-linecap="round" stroke-linejoin="round"/>
<path d="M361.936 171.344C362.073 168.436 361.253 165.772 359.833 163.854C353.376 156.76 346.963 165.908 346.7 171.501C346.578 174.108 348.081 177.467 348.081 177.467C344.026 179.561 341.448 184.238 341.19 189.714C340.928 195.301 345.717 197.687 349.608 197.87C356.924 198.214 361.281 193.809 361.544 188.215C361.715 184.574 361.07 181.183 358.94 179.297C361.017 177.557 361.776 174.763 361.936 171.344Z" fill="#D9AD7A" stroke="#603813" stroke-width="4" stroke-miterlimit="10" stroke-linecap="round" stroke-linejoin="round"/>
<path d="M269.11 171.344C268.974 168.436 269.794 165.772 271.213 163.854C277.671 156.76 284.084 165.908 284.347 171.501C284.469 174.108 282.966 177.467 282.966 177.467C287.021 179.561 289.599 184.238 289.857 189.714C290.119 195.301 285.33 197.687 281.439 197.87C274.123 198.214 269.766 193.809 269.503 188.215C269.332 184.574 269.977 181.183 272.107 179.297C270.03 177.557 269.271 174.763 269.11 171.344Z" fill="#D9AD7A" stroke="#603813" stroke-width="4" stroke-miterlimit="10" stroke-linecap="round" stroke-linejoin="round"/>
<path d="M298.228 163.873C298.228 166.888 296.755 168.264 294.934 168.264C293.114 168.264 291.641 166.888 291.641 163.873C291.641 160.857 293.114 158.418 294.934 158.418C296.755 158.418 298.228 160.864 298.228 163.873Z" fill="black" stroke="black" stroke-width="4" stroke-miterlimit="10" stroke-linecap="round"/>
<path d="M332.742 163.873C332.742 166.888 334.215 168.264 336.036 168.264C337.856 168.264 339.33 166.888 339.33 163.873C339.33 160.857 337.856 158.418 336.036 158.418C334.215 158.418 332.742 160.864 332.742 163.873Z" fill="black" stroke="black" stroke-width="4" stroke-miterlimit="10" stroke-linecap="round"/>
<path d="M316.557 191.855C315.584 192.862 313.986 192.862 313.013 191.855C307.398 186.039 301.867 186.073 301.867 190.347C301.867 195.072 307.655 198.894 314.785 198.894C321.914 198.894 327.709 195.065 327.709 190.347C327.709 186.073 322.178 186.039 316.557 191.855Z" fill="black" stroke="black" stroke-width="4" stroke-miterlimit="10" stroke-linecap="round"/>
<path d="M314.703 201.562L314.703 216.155" stroke="black" stroke-width="4" stroke-miterlimit="10" stroke-linecap="round"/>
<path d="M303.982 214.243C306.998 216.626 313.183 217.342 319.832 215.744C326.482 214.146 331.666 210.706 333.271 207.211" stroke="black" stroke-width="4" stroke-miterlimit="10" stroke-linecap="round"/>
<path d="M382.02 172.418C381.707 168.777 382.659 164.754 383.778 161.092C385.793 154.859 389.198 148.786 393.909 143.484C394.93 142.33 394.958 140.663 393.86 139.474C392.589 138.098 390.282 137.89 388.718 139.009C382.013 143.81 376.349 149.842 372.034 156.707C366.42 165.226 358.7 184.891 376.322 186.746" fill="#C69C6D"/>
<path d="M382.02 172.418C381.707 168.777 382.659 164.754 383.778 161.092C385.793 154.859 389.198 148.786 393.909 143.484C394.93 142.33 394.958 140.663 393.86 139.474C392.589 138.098 390.282 137.89 388.718 139.009C382.013 143.81 376.349 149.842 372.034 156.707C366.42 165.226 358.7 184.891 376.322 186.746" stroke="#603813" stroke-width="4" stroke-miterlimit="10" stroke-linecap="round"/>
<path d="M254.643 186.746C272.265 184.898 264.545 165.226 258.93 156.707C254.615 149.842 248.952 143.803 242.246 139.009C240.676 137.89 238.376 138.098 237.104 139.474C236.006 140.663 236.034 142.323 237.056 143.484C241.767 148.786 245.172 154.859 247.187 161.092C248.313 164.761 249.258 168.784 248.945 172.418" fill="#C69C6D"/>
<path d="M254.643 186.746C272.265 184.898 264.545 165.226 258.93 156.707C254.615 149.842 248.952 143.803 242.246 139.009C240.676 137.89 238.376 138.098 237.104 139.474C236.006 140.663 236.034 142.323 237.056 143.484C241.767 148.786 245.172 154.859 247.187 161.092C248.313 164.761 249.258 168.784 248.945 172.418" stroke="#603813" stroke-width="4" stroke-miterlimit="10" stroke-linecap="round"/>
<path d="M358.849 168.021C364.914 168.021 369.831 161.601 369.831 153.681C369.831 145.76 364.914 139.34 358.849 139.34C352.784 139.34 347.867 145.76 347.867 153.681C347.867 161.601 352.784 168.021 358.849 168.021Z" fill="#D9AD7A" stroke="#603813" stroke-width="4.47024" stroke-miterlimit="10" stroke-linecap="round"/>
<path d="M272.183 168.021C278.248 168.021 283.165 161.601 283.165 153.681C283.165 145.76 278.248 139.34 272.183 139.34C266.118 139.34 261.201 145.76 261.201 153.681C261.201 161.601 266.118 168.021 272.183 168.021Z" fill="#D9AD7A" stroke="#603813" stroke-width="4.47024" stroke-miterlimit="10" stroke-linecap="round"/>
<path d="M323.531 144.238C324.37 130.925 331.211 116.411 344.727 108.86C360.718 99.3334 387.134 104.075 395.307 119.646C398.499 125.373 399.484 131.2 399.86 137.288C400.251 142.406 400.352 147.561 400.056 152.831C399.165 164.319 396.863 185.414 379.627 186.63C374.378 186.63 370.129 182.888 370.129 178.269C370.129 173.65 374.386 169.908 379.627 169.908C379.098 169.864 378.526 169.937 378.027 170.11C377.6 170.241 377.39 170.27 377.1 170.436C376.695 170.719 376.659 170.624 376.521 170.813C376.557 170.755 376.919 170.415 377.267 169.835C382.226 159.693 383.587 145.295 377.868 135.558C370.238 122.557 353.928 129.962 356.541 144.245C357.728 152.259 351.315 159.606 342.2 160.656C331.523 162.017 326.332 153.598 327.787 144.245H323.523L323.531 144.238Z" fill="#C69C6D" stroke="#603813" stroke-width="4.47024" stroke-miterlimit="10" stroke-linecap="round"/>
<path d="M386.792 123.016C376.828 123.016 368.014 128.179 362.549 136.111C361.223 138.041 361.223 140.728 362.549 142.658C368.014 150.598 376.828 155.753 386.792 155.753C396.756 155.753 405.571 150.59 411.035 142.658C412.361 140.728 412.361 138.041 411.035 136.111C405.571 128.171 396.756 123.016 386.792 123.016Z" fill="#DECAAD" stroke="#603813" stroke-width="4.47024" stroke-miterlimit="10"/>
<path d="M307.504 144.238C306.664 130.925 299.823 116.411 286.307 108.86C270.316 99.3334 243.901 104.075 235.728 119.646C232.535 125.373 231.551 131.2 231.174 137.288C230.783 142.406 230.682 147.561 230.979 152.831C231.869 164.319 234.171 185.414 251.408 186.63C256.656 186.63 260.905 182.888 260.905 178.269C260.905 173.65 256.649 169.908 251.408 169.908C251.936 169.864 252.508 169.937 253.007 170.11C253.435 170.241 253.644 170.27 253.934 170.436C254.339 170.719 254.376 170.624 254.513 170.813C254.477 170.755 254.115 170.415 253.768 169.835C248.809 159.693 247.448 145.295 253.167 135.558C260.797 122.557 277.107 129.962 274.493 144.245C273.306 152.259 279.72 159.606 288.834 160.656C299.512 162.017 304.702 153.598 303.247 144.245H307.511L307.504 144.238Z" fill="#C69C6D" stroke="#603813" stroke-width="4.47024" stroke-miterlimit="10" stroke-linecap="round"/>
<path d="M244.303 123.016C254.293 123.016 263.13 128.179 268.609 136.111C269.938 138.041 269.938 140.728 268.609 142.658C263.13 150.598 254.293 155.753 244.303 155.753C234.313 155.753 225.476 150.59 219.997 142.658C218.668 140.728 218.668 138.041 219.997 136.111C225.476 128.171 234.313 123.016 244.303 123.016Z" fill="#DECAAD" stroke="#603813" stroke-width="4.47024" stroke-miterlimit="10"/>
<path d="M325.296 235.556H305.736C291.975 235.556 280.356 225.335 278.604 211.689L268.549 133.484H362.491L352.436 211.689C350.684 225.335 339.058 235.556 325.304 235.556H325.296Z" fill="#DECAAD" stroke="#603813" stroke-width="4.47024" stroke-miterlimit="10"/>
<path d="M363.915 170.587C364.057 167.557 363.203 164.782 361.724 162.784C354.996 155.393 348.315 164.923 348.041 170.75C347.914 173.466 349.479 176.966 349.479 176.966C345.255 179.147 342.569 184.02 342.301 189.724C342.028 195.545 347.017 198.031 351.07 198.221C358.693 198.58 363.232 193.99 363.506 188.163C363.684 184.369 363.012 180.836 360.793 178.872C362.957 177.059 363.747 174.149 363.915 170.587Z" fill="#D9AD7A" stroke="#603813" stroke-width="4.47024" stroke-miterlimit="10" stroke-linecap="round" stroke-linejoin="round"/>
<path d="M267.209 170.587C267.066 167.557 267.92 164.782 269.399 162.784C276.127 155.393 282.808 164.923 283.082 170.75C283.209 173.466 281.644 176.966 281.644 176.966C285.868 179.147 288.554 184.02 288.822 189.724C289.095 195.545 284.106 198.031 280.053 198.221C272.43 198.58 267.891 193.99 267.617 188.163C267.439 184.369 268.111 180.836 270.331 178.872C268.166 177.059 267.376 174.149 267.209 170.587Z" fill="#D9AD7A" stroke="#603813" stroke-width="4.47024" stroke-miterlimit="10" stroke-linecap="round" stroke-linejoin="round"/>
<path d="M297.544 162.804C297.544 165.946 296.01 167.379 294.113 167.379C292.216 167.379 290.682 165.946 290.682 162.804C290.682 159.662 292.216 157.121 294.113 157.121C296.01 157.121 297.544 159.669 297.544 162.804Z" fill="black" stroke="black" stroke-width="4.47024" stroke-miterlimit="10" stroke-linecap="round"/>
<path d="M333.5 162.8C333.5 165.942 335.035 167.375 336.931 167.375C338.828 167.375 340.363 165.942 340.363 162.8C340.363 159.658 338.828 157.117 336.931 157.117C335.035 157.117 333.5 159.665 333.5 162.8Z" fill="black" stroke="black" stroke-width="4.47024" stroke-miterlimit="10" stroke-linecap="round"/>
<path d="M316.638 191.951C315.624 193.001 313.959 193.001 312.946 191.951C307.096 185.892 301.334 185.928 301.334 190.38C301.334 195.303 307.364 199.285 314.792 199.285C322.219 199.285 328.256 195.296 328.256 190.38C328.256 185.928 322.494 185.892 316.638 191.951Z" fill="black" stroke="black" stroke-width="4.47024" stroke-miterlimit="10" stroke-linecap="round"/>
<path d="M314.707 202.066L314.707 217.269" stroke="black" stroke-width="4.47024" stroke-miterlimit="10" stroke-linecap="round"/>
<path d="M303.539 215.279C306.681 217.762 313.124 218.508 320.052 216.843C326.979 215.178 332.38 211.594 334.052 207.953" stroke="black" stroke-width="4.47024" stroke-miterlimit="10" stroke-linecap="round"/>
<path d="M384.838 171.704C384.513 167.911 385.504 163.719 386.67 159.904C388.769 153.411 392.316 147.084 397.225 141.56C398.289 140.359 398.318 138.621 397.174 137.383C395.849 135.95 393.446 135.733 391.817 136.898C384.831 141.9 378.931 148.184 374.436 155.336C368.587 164.212 360.544 184.698 378.902 186.631" fill="#C69C6D"/>
<path d="M384.838 171.704C384.513 167.911 385.504 163.719 386.67 159.904C388.769 153.411 392.316 147.084 397.225 141.56C398.289 140.359 398.318 138.621 397.174 137.383C395.849 135.95 393.446 135.733 391.817 136.898C384.831 141.9 378.931 148.184 374.436 155.336C368.587 164.212 360.544 184.698 378.902 186.631" stroke="#603813" stroke-width="4.47024" stroke-miterlimit="10" stroke-linecap="round"/>
<path d="M252.135 186.631C270.493 184.706 262.45 164.212 256.601 155.336C252.106 148.184 246.206 141.893 239.22 136.898C237.584 135.733 235.188 135.95 233.863 137.383C232.719 138.621 232.748 140.351 233.812 141.56C238.721 147.084 242.268 153.411 244.367 159.904C245.54 163.727 246.524 167.918 246.199 171.704" fill="#C69C6D"/>
<path d="M252.135 186.631C270.493 184.706 262.45 164.212 256.601 155.336C252.106 148.184 246.206 141.893 239.22 136.898C237.584 135.733 235.188 135.95 233.863 137.383C232.719 138.621 232.748 140.351 233.812 141.56C238.721 147.084 242.268 153.411 244.367 159.904C245.54 163.727 246.524 167.918 246.199 171.704" stroke="#603813" stroke-width="4.47024" stroke-miterlimit="10" stroke-linecap="round"/>
<path d="M289.661 116.598C288.12 115.231 286.484 113.819 284.745 112.347C280.706 112.915 276.313 113.712 271.386 114.723L271.013 114.8C270.755 114.853 270.497 114.907 270.236 114.961L307.713 66.9015C307.813 68.7255 307.923 70.4728 308.046 72.1521C310.402 67.5496 312.547 62.5754 314.634 57C316.615 62.4831 318.685 67.3872 320.991 71.942C321.108 70.3272 321.213 68.6495 321.309 66.9015L358.786 114.961C358.512 114.904 358.241 114.848 357.971 114.792C352.991 113.766 348.558 112.956 344.485 112.376C342.752 113.837 341.124 115.239 339.59 116.598C326.443 128.247 320.226 136.717 314.634 151.463C309.32 136.953 303.075 128.496 289.661 116.598Z" fill="#D9AD7A"/>
<path d="M314.634 151.463C309.32 136.953 303.075 128.496 289.661 116.598C288.505 115.573 287.297 114.522 286.03 113.44L284.745 112.347C280.706 112.915 276.313 113.712 271.386 114.723L271.013 114.8C270.755 114.853 270.497 114.907 270.236 114.961L307.713 66.9015C307.813 68.7255 307.923 70.4728 308.046 72.1521C310.402 67.5496 312.547 62.5754 314.634 57C316.615 62.4831 318.685 67.3872 320.991 71.942C321.108 70.3272 321.213 68.6495 321.309 66.9015L358.786 114.961C358.512 114.904 358.241 114.848 357.971 114.792C353.303 113.83 349.114 113.058 345.253 112.487L344.485 112.376C343.185 113.471 341.944 114.534 340.758 115.57L339.59 116.598C326.443 128.247 320.226 136.717 314.634 151.463ZM314.674 140.614C319.763 130.365 326.151 122.801 336.758 113.402C338.323 112.016 339.979 110.59 341.733 109.112C342.662 108.328 343.882 107.977 345.086 108.149C346.188 108.306 347.312 108.479 348.464 108.667L324.811 78.3345L324.14 87.6114L317.182 73.871C316.282 72.0934 315.419 70.2693 314.585 68.388C313.702 70.3518 312.792 72.2509 311.847 74.0974L304.899 87.6715L304.217 78.3287L280.559 108.667C281.784 108.467 282.98 108.283 284.149 108.119C285.354 107.949 286.574 108.301 287.503 109.087C289.262 110.577 290.924 112.011 292.494 113.404C303.244 122.938 309.698 130.514 314.674 140.614Z" fill="#D9AD7A"/>
<path d="M314.633 151.465C309.32 136.955 303.074 128.498 289.661 116.6C288.505 115.575 287.296 114.524 286.03 113.442L284.744 112.348C280.705 112.917 276.313 113.714 271.385 114.725L271.012 114.802C270.755 114.855 270.496 114.909 270.236 114.963L307.712 66.9035C307.812 68.7274 307.923 70.4749 308.046 72.1543C310.401 67.5517 312.547 62.5773 314.633 57.002C316.615 62.4851 318.684 67.3893 320.991 71.9441C321.107 70.3293 321.213 68.6515 321.309 66.9035L358.785 114.963C358.512 114.906 358.24 114.849 357.97 114.794C353.302 113.832 349.114 113.06 345.252 112.489L344.484 112.378C343.185 113.473 341.944 114.536 340.758 115.572L339.589 116.6C326.442 128.249 320.226 136.719 314.633 151.465ZM314.673 140.616C319.763 130.367 326.151 122.803 336.758 113.404C338.323 112.018 339.978 110.592 341.732 109.114C342.662 108.33 343.882 107.979 345.086 108.151C346.187 108.308 347.312 108.481 348.463 108.669L324.81 78.3365L324.14 87.6134L317.181 73.873C316.281 72.0954 315.419 70.2713 314.585 68.39C313.701 70.3538 312.791 72.2529 311.846 74.0994L304.899 87.6735L304.216 78.3307L280.558 108.669C281.783 108.469 282.979 108.285 284.149 108.121C285.354 107.951 286.573 108.303 287.502 109.089C289.262 110.579 290.923 112.013 292.494 113.406C303.243 122.94 309.697 130.516 314.673 140.616Z" fill="#603813"/>
</g>
<defs>
<clipPath id="clip0_4561_2166">
<rect width="200" height="200" fill="white" transform="translate(213 66)"/>
</clipPath>
</defs>
</svg>
