<svg width="500" height="500" viewBox="0 0 500 500" fill="none" xmlns="http://www.w3.org/2000/svg">
<path d="M359.488 169.748C365.553 169.748 370.469 163.327 370.469 155.407C370.469 147.487 365.553 141.066 359.488 141.066C353.423 141.066 348.506 147.487 348.506 155.407C348.506 163.327 353.423 169.748 359.488 169.748Z" fill="#D9AD7A" stroke="#603813" stroke-width="6.63305" stroke-miterlimit="10" stroke-linecap="round"/>
<path d="M272.82 169.748C278.885 169.748 283.801 163.327 283.801 155.407C283.801 147.487 278.885 141.066 272.82 141.066C266.755 141.066 261.838 147.487 261.838 155.407C261.838 163.327 266.755 169.748 272.82 169.748Z" fill="#D9AD7A" stroke="#603813" stroke-width="6.63305" stroke-miterlimit="10" stroke-linecap="round"/>
<path d="M324.165 145.968C325.005 132.656 331.846 118.141 345.362 110.591C361.353 101.064 387.769 105.805 395.942 121.377C399.134 127.103 400.119 132.931 400.495 139.019C400.886 144.137 400.987 149.291 400.691 154.561C399.8 166.05 397.498 187.145 380.262 188.361C375.013 188.361 370.764 184.618 370.764 180C370.764 175.381 375.02 171.638 380.262 171.638C379.733 171.595 379.161 171.667 378.662 171.841C378.235 171.971 378.025 172 377.735 172.167C377.33 172.449 377.294 172.355 377.156 172.543C377.192 172.485 377.554 172.145 377.902 171.566C382.86 161.424 384.221 147.025 378.503 137.289C370.872 124.287 354.563 131.693 357.176 145.976C358.363 153.989 351.949 161.337 342.835 162.387C332.157 163.748 326.967 155.329 328.422 145.976H324.158L324.165 145.968Z" fill="#C69C6D" stroke="#603813" stroke-width="6.63305" stroke-miterlimit="10" stroke-linecap="round"/>
<path d="M387.431 124.742C377.467 124.742 368.653 129.905 363.188 137.837C361.862 139.767 361.862 142.455 363.188 144.385C368.653 152.325 377.467 157.479 387.431 157.479C397.395 157.479 406.209 152.316 411.674 144.385C413 142.455 413 139.767 411.674 137.837C406.209 129.897 397.395 124.742 387.431 124.742Z" fill="#DECAAD" stroke="#603813" stroke-width="6.63305" stroke-miterlimit="10"/>
<path d="M308.137 145.968C307.297 132.656 300.456 118.141 286.94 110.591C270.949 101.064 244.533 105.805 236.36 121.377C233.168 127.103 232.183 132.931 231.807 139.019C231.416 144.137 231.315 149.291 231.611 154.561C232.502 166.05 234.804 187.145 252.04 188.361C257.289 188.361 261.538 184.618 261.538 180C261.538 175.381 257.282 171.638 252.04 171.638C252.569 171.595 253.141 171.667 253.64 171.841C254.067 171.971 254.277 172 254.567 172.167C254.972 172.449 255.008 172.355 255.146 172.543C255.11 172.485 254.748 172.145 254.4 171.566C249.442 161.424 248.081 147.025 253.799 137.289C261.43 124.287 277.739 131.693 275.126 145.976C273.939 153.989 280.353 161.337 289.467 162.387C300.145 163.748 305.335 155.329 303.88 145.976H308.144L308.137 145.968Z" fill="#C69C6D" stroke="#603813" stroke-width="6.63305" stroke-miterlimit="10" stroke-linecap="round"/>
<path d="M244.938 124.742C254.927 124.742 263.764 129.905 269.243 137.837C270.573 139.767 270.573 142.455 269.243 144.385C263.764 152.325 254.927 157.479 244.938 157.479C234.948 157.479 226.111 152.316 220.632 144.385C219.302 142.455 219.302 139.767 220.632 137.837C226.111 129.897 234.948 124.742 244.938 124.742Z" fill="#DECAAD" stroke="#603813" stroke-width="6.63305" stroke-miterlimit="10"/>
<path d="M325.933 237.287H306.373C292.611 237.287 280.993 227.065 279.241 213.42L269.186 135.215H363.128L353.073 213.42C351.321 227.065 339.695 237.287 325.941 237.287H325.933Z" fill="#DECAAD" stroke="#603813" stroke-width="6.63305" stroke-miterlimit="10"/>
<path d="M361.419 116.868C359.819 116.868 358.291 117.143 356.865 117.636C354.201 110.57 347.389 105.532 339.39 105.532C336.704 105.532 334.156 106.111 331.847 107.132C327.713 103.338 322.212 101 316.16 101C310.108 101 304.606 103.338 300.472 107.132C298.163 106.111 295.615 105.532 292.929 105.532C284.93 105.532 278.118 110.57 275.454 117.636C274.021 117.143 272.493 116.868 270.9 116.868C263.126 116.868 256.82 123.174 256.82 130.948C256.82 138.723 263.126 145.029 270.9 145.029C275.476 145.029 279.537 142.835 282.107 139.447C285.162 141.626 288.897 142.922 292.936 142.922C295.622 142.922 298.17 142.343 300.48 141.322C304.613 145.115 310.115 147.454 316.167 147.454C322.219 147.454 327.721 145.115 331.854 141.322C334.163 142.343 336.712 142.922 339.397 142.922C343.437 142.922 347.165 141.626 350.227 139.447C352.797 142.835 356.851 145.029 361.433 145.029C369.208 145.029 375.513 138.723 375.513 130.948C375.513 123.174 369.208 116.868 361.433 116.868H361.419Z" fill="#D9AD7A" stroke="#603813" stroke-width="6.63305" stroke-miterlimit="10" stroke-linecap="round" stroke-linejoin="round"/>
<path d="M364.549 172.309C364.692 169.28 363.837 166.504 362.358 164.506C355.631 157.115 348.95 166.646 348.676 172.473C348.549 175.189 350.114 178.688 350.114 178.688C345.89 180.87 343.204 185.743 342.936 191.447C342.662 197.267 347.652 199.754 351.705 199.944C359.327 200.302 363.867 195.713 364.14 189.886C364.319 186.092 363.646 182.559 361.427 180.595C363.591 178.782 364.382 175.871 364.549 172.309Z" fill="#D9AD7A" stroke="#603813" stroke-width="6.63305" stroke-miterlimit="10" stroke-linecap="round" stroke-linejoin="round"/>
<path d="M267.843 172.309C267.701 169.28 268.555 166.504 270.034 164.506C276.762 157.115 283.443 166.646 283.716 172.473C283.844 175.189 282.278 178.688 282.278 178.688C286.503 180.87 289.189 185.743 289.457 191.447C289.73 197.267 284.741 199.754 280.687 199.944C273.065 200.302 268.526 195.713 268.252 189.886C268.074 186.092 268.746 182.559 270.965 180.595C268.801 178.782 268.011 175.871 267.843 172.309Z" fill="#D9AD7A" stroke="#603813" stroke-width="6.63305" stroke-miterlimit="10" stroke-linecap="round" stroke-linejoin="round"/>
<path d="M298.177 164.53C298.177 167.672 296.642 169.106 294.746 169.106C292.849 169.106 291.314 167.672 291.314 164.53C291.314 161.389 292.849 158.848 294.746 158.848C296.642 158.848 298.177 161.396 298.177 164.53Z" fill="black" stroke="black" stroke-width="6.63305" stroke-miterlimit="10" stroke-linecap="round"/>
<path d="M334.137 164.53C334.137 167.672 335.671 169.106 337.568 169.106C339.465 169.106 340.999 167.672 340.999 164.53C340.999 161.389 339.465 158.848 337.568 158.848C335.671 158.848 334.137 161.396 334.137 164.53Z" fill="black" stroke="black" stroke-width="6.63305" stroke-miterlimit="10" stroke-linecap="round"/>
<path d="M317.272 193.682C316.259 194.732 314.594 194.732 313.58 193.682C307.731 187.623 301.969 187.659 301.969 192.111C301.969 197.034 307.999 201.015 315.426 201.015C322.854 201.015 328.891 197.026 328.891 192.111C328.891 187.659 323.129 187.623 317.272 193.682Z" fill="black" stroke="black" stroke-width="6.63305" stroke-miterlimit="10" stroke-linecap="round"/>
<path d="M315.344 203.793L315.344 218.995" stroke="black" stroke-width="6.63305" stroke-miterlimit="10" stroke-linecap="round"/>
<path d="M304.174 217.01C307.316 219.493 313.758 220.238 320.686 218.573C327.614 216.908 333.015 213.325 334.687 209.684" stroke="black" stroke-width="9.47951" stroke-miterlimit="10" stroke-linecap="round"/>
<path d="M385.473 173.435C385.147 169.641 386.139 165.45 387.305 161.635C389.404 155.141 392.951 148.814 397.859 143.291C398.924 142.089 398.952 140.352 397.809 139.114C396.484 137.68 394.081 137.463 392.452 138.629C385.466 143.631 379.566 149.915 375.071 157.067C369.221 165.942 361.179 186.429 379.537 188.362" fill="#C69C6D"/>
<path d="M385.473 173.435C385.147 169.641 386.139 165.45 387.305 161.635C389.404 155.141 392.951 148.814 397.859 143.291C398.924 142.089 398.952 140.352 397.809 139.114C396.484 137.68 394.081 137.463 392.452 138.629C385.466 143.631 379.566 149.915 375.071 157.067C369.221 165.942 361.179 186.429 379.537 188.362" stroke="#603813" stroke-width="6.63305" stroke-miterlimit="10" stroke-linecap="round"/>
<path d="M252.771 188.362C271.13 186.436 263.087 165.942 257.238 157.067C252.742 149.915 246.843 143.624 239.857 138.629C238.221 137.463 235.825 137.68 234.5 139.114C233.356 140.352 233.385 142.082 234.449 143.291C239.357 148.814 242.904 155.141 245.004 161.635C246.177 165.457 247.161 169.649 246.835 173.435" fill="#C69C6D"/>
<path d="M252.771 188.362C271.13 186.436 263.087 165.942 257.238 157.067C252.742 149.915 246.843 143.624 239.857 138.629C238.221 137.463 235.825 137.68 234.5 139.114C233.356 140.352 233.385 142.082 234.449 143.291C239.357 148.814 242.904 155.141 245.004 161.635C246.177 165.457 247.161 169.649 246.835 173.435" stroke="#603813" stroke-width="6.63305" stroke-miterlimit="10" stroke-linecap="round"/>
</svg>
