<svg width="500" height="500" viewBox="0 0 500 500" fill="none" xmlns="http://www.w3.org/2000/svg">
<g clip-path="url(#clip0_4530_1302)">
<path d="M316.975 244.016C316.975 241.168 318.816 238.646 321.529 237.778L362.62 224.636C369.586 222.408 377.053 226.256 378.616 233.4C379.707 238.38 380.639 243.976 380.639 248.552C380.639 253.38 379.6 259.346 378.434 264.524C376.901 271.329 369.97 275.192 363.201 273.508L321.943 263.245C319.024 262.519 316.975 259.897 316.975 256.889L316.975 244.016Z" fill="#5C5454" stroke="#312C2C" stroke-width="3.98639"/>
<path d="M329.615 257.968V253.727C350.645 254.124 354.597 263.468 352.137 261.811C348.203 259.161 335.992 257.04 329.615 257.968Z" fill="#312C2C" stroke="#312C2C" stroke-width="0.527044" stroke-linecap="round"/>
<path d="M329.615 243.274V247.516C350.645 247.118 354.597 237.774 352.137 239.431C348.203 242.082 335.992 244.202 329.615 243.274Z" fill="#312C2C" stroke="#312C2C" stroke-width="0.527044" stroke-linecap="round"/>
<path d="M317.451 244.016C317.451 241.168 315.61 238.646 312.897 237.778L271.805 224.636C264.84 222.408 257.373 226.256 255.809 233.4C254.719 238.38 253.787 243.976 253.787 248.552C253.787 253.38 254.825 259.346 255.992 264.524C257.525 271.329 264.456 275.192 271.225 273.508L312.483 263.245C315.402 262.519 317.451 259.897 317.451 256.889L317.451 244.016Z" fill="#5C5454" stroke="#312C2C" stroke-width="3.98639"/>
<path d="M304.814 257.968V253.727C283.785 254.124 279.833 263.468 282.293 261.811C286.227 259.161 298.438 257.04 304.814 257.968Z" fill="#312C2C" stroke="#312C2C" stroke-width="0.527044" stroke-linecap="round"/>
<path d="M304.814 243.274V247.516C283.785 247.118 279.833 237.774 282.293 239.431C286.227 242.082 298.438 244.202 304.814 243.274Z" fill="#312C2C" stroke="#312C2C" stroke-width="0.527044" stroke-linecap="round"/>
<rect width="21.062" height="31.0555" rx="8.00442" transform="matrix(-1 0 0 1 327.508 235.102)" fill="#5C5454" stroke="#312C2C" stroke-width="4.87225"/>
<path d="M359.464 168.586C365.524 168.586 370.436 162.171 370.436 154.258C370.436 146.345 365.524 139.93 359.464 139.93C353.405 139.93 348.492 146.345 348.492 154.258C348.492 162.171 353.405 168.586 359.464 168.586Z" fill="#D9AD7A" stroke="#603813" stroke-width="4.26587" stroke-miterlimit="10" stroke-linecap="round"/>
<path d="M272.874 168.586C278.934 168.586 283.846 162.171 283.846 154.258C283.846 146.345 278.934 139.93 272.874 139.93C266.815 139.93 261.902 146.345 261.902 154.258C261.902 162.171 266.815 168.586 272.874 168.586Z" fill="#D9AD7A" stroke="#603813" stroke-width="4.26587" stroke-miterlimit="10" stroke-linecap="round"/>
<path d="M324.177 144.823C325.016 131.522 331.851 117.021 345.355 109.477C361.332 99.9585 387.724 104.696 395.89 120.254C399.079 125.975 400.063 131.797 400.439 137.88C400.83 142.993 400.931 148.143 400.634 153.408C399.745 164.887 397.445 185.963 380.224 187.178C374.98 187.178 370.734 183.439 370.734 178.824C370.734 174.21 374.987 170.47 380.224 170.47C379.696 170.427 379.124 170.499 378.625 170.673C378.198 170.803 377.989 170.832 377.699 170.998C377.294 171.281 377.258 171.186 377.121 171.375C377.157 171.317 377.519 170.977 377.866 170.398C382.82 160.265 384.18 145.879 378.466 136.151C370.843 123.161 354.547 130.56 357.158 144.83C358.345 152.837 351.936 160.178 342.83 161.227C332.162 162.587 326.976 154.175 328.43 144.83H324.17L324.177 144.823Z" fill="#C69C6D" stroke="#603813" stroke-width="4.26587" stroke-miterlimit="10" stroke-linecap="round"/>
<path d="M387.381 123.613C377.426 123.613 368.62 128.772 363.16 136.697C361.835 138.625 361.835 141.31 363.16 143.238C368.62 151.171 377.426 156.321 387.381 156.321C397.336 156.321 406.143 151.163 411.603 143.238C412.928 141.31 412.928 138.625 411.603 136.697C406.143 128.764 397.336 123.613 387.381 123.613Z" fill="#DECAAD" stroke="#603813" stroke-width="4.26587" stroke-miterlimit="10"/>
<path d="M308.162 144.823C307.323 131.522 300.488 117.021 286.985 109.477C271.008 99.9585 244.616 104.696 236.45 120.254C233.26 125.975 232.276 131.797 231.9 137.88C231.51 142.993 231.409 148.143 231.705 153.408C232.595 164.887 234.895 185.963 252.116 187.178C257.36 187.178 261.605 183.439 261.605 178.824C261.605 174.21 257.352 170.47 252.116 170.47C252.644 170.427 253.215 170.499 253.714 170.673C254.141 170.803 254.351 170.832 254.64 170.998C255.045 171.281 255.081 171.186 255.219 171.375C255.183 171.317 254.821 170.977 254.474 170.398C249.519 160.265 248.16 145.879 253.873 136.151C261.497 123.161 277.792 130.56 275.181 144.83C273.995 152.837 280.403 160.178 289.509 161.227C300.177 162.587 305.363 154.175 303.909 144.83H308.17L308.162 144.823Z" fill="#C69C6D" stroke="#603813" stroke-width="4.26587" stroke-miterlimit="10" stroke-linecap="round"/>
<path d="M245.019 123.613C255 123.613 263.829 128.772 269.303 136.697C270.631 138.625 270.631 141.31 269.303 143.238C263.829 151.171 255 156.321 245.019 156.321C235.038 156.321 226.209 151.163 220.734 143.238C219.406 141.31 219.406 138.625 220.734 136.697C226.209 128.764 235.038 123.613 245.019 123.613Z" fill="#DECAAD" stroke="#603813" stroke-width="4.26587" stroke-miterlimit="10"/>
<path d="M325.942 236.056H306.399C292.649 236.056 281.041 225.843 279.29 212.209L269.244 134.074H363.103L353.057 212.209C351.307 225.843 339.691 236.056 325.949 236.056H325.942Z" fill="#DECAAD" stroke="#603813" stroke-width="4.26587" stroke-miterlimit="10"/>
<path d="M361.394 115.749C359.796 115.749 358.27 116.024 356.845 116.515C354.183 109.456 347.377 104.422 339.385 104.422C336.702 104.422 334.156 105.001 331.849 106.021C327.719 102.231 322.222 99.8945 316.175 99.8945C310.129 99.8945 304.632 102.231 300.502 106.021C298.195 105.001 295.649 104.422 292.966 104.422C284.973 104.422 278.167 109.456 275.506 116.515C274.074 116.024 272.548 115.749 270.956 115.749C263.188 115.749 256.889 122.048 256.889 129.816C256.889 137.584 263.188 143.884 270.956 143.884C275.527 143.884 279.585 141.692 282.153 138.308C285.205 140.485 288.937 141.779 292.973 141.779C295.656 141.779 298.202 141.201 300.509 140.181C304.639 143.971 310.136 146.307 316.183 146.307C322.229 146.307 327.726 143.971 331.856 140.181C334.163 141.201 336.709 141.779 339.392 141.779C343.428 141.779 347.153 140.485 350.213 138.308C352.78 141.692 356.831 143.884 361.409 143.884C369.177 143.884 375.477 137.584 375.477 129.816C375.477 122.048 369.177 115.749 361.409 115.749H361.394Z" fill="#D9AD7A" stroke="#603813" stroke-width="4.26587" stroke-miterlimit="10" stroke-linecap="round" stroke-linejoin="round"/>
<path d="M364.524 171.143C364.666 168.116 363.812 165.343 362.335 163.347C355.613 155.963 348.938 165.485 348.665 171.307C348.537 174.02 350.101 177.517 350.101 177.517C345.881 179.696 343.197 184.564 342.929 190.264C342.656 196.079 347.641 198.563 351.691 198.754C359.306 199.111 363.841 194.526 364.115 188.704C364.293 184.914 363.622 181.384 361.404 179.421C363.567 177.61 364.356 174.702 364.524 171.143Z" fill="#D9AD7A" stroke="#603813" stroke-width="4.26587" stroke-miterlimit="10" stroke-linecap="round" stroke-linejoin="round"/>
<path d="M267.904 171.143C267.762 168.116 268.615 165.343 270.093 163.347C276.815 155.963 283.49 165.485 283.763 171.307C283.891 174.02 282.326 177.517 282.326 177.517C286.547 179.696 289.231 184.564 289.498 190.264C289.772 196.079 284.787 198.563 280.737 198.754C273.121 199.111 268.586 194.526 268.313 188.704C268.135 184.914 268.806 181.384 271.023 179.421C268.861 177.61 268.071 174.702 267.904 171.143Z" fill="#D9AD7A" stroke="#603813" stroke-width="4.26587" stroke-miterlimit="10" stroke-linecap="round" stroke-linejoin="round"/>
<path d="M298.212 163.369C298.212 166.508 296.679 167.94 294.784 167.94C292.889 167.94 291.355 166.508 291.355 163.369C291.355 160.23 292.889 157.691 294.784 157.691C296.679 157.691 298.212 160.237 298.212 163.369Z" fill="black" stroke="black" stroke-width="4.26587" stroke-miterlimit="10" stroke-linecap="round"/>
<path d="M334.137 163.369C334.137 166.508 335.67 167.94 337.565 167.94C339.46 167.94 340.993 166.508 340.993 163.369C340.993 160.23 339.46 157.691 337.565 157.691C335.67 157.691 334.137 160.237 334.137 163.369Z" fill="black" stroke="black" stroke-width="4.26587" stroke-miterlimit="10" stroke-linecap="round"/>
<path d="M317.288 192.494C316.275 193.543 314.612 193.543 313.599 192.494C307.755 186.44 301.998 186.476 301.998 190.925C301.998 195.843 308.023 199.821 315.444 199.821C322.864 199.821 328.897 195.836 328.897 190.925C328.897 186.476 323.139 186.44 317.288 192.494Z" fill="black" stroke="black" stroke-width="4.26587" stroke-miterlimit="10" stroke-linecap="round"/>
<path d="M315.359 202.602L315.359 217.79" stroke="black" stroke-width="4.26587" stroke-miterlimit="10" stroke-linecap="round"/>
<path d="M304.201 215.8C307.34 218.281 313.777 219.026 320.699 217.362C327.621 215.699 333.016 212.119 334.687 208.48" stroke="black" stroke-width="4.26587" stroke-miterlimit="10" stroke-linecap="round"/>
<path d="M385.429 172.266C385.103 168.476 386.094 164.289 387.258 160.477C389.356 153.989 392.9 147.668 397.804 142.149C398.867 140.949 398.896 139.213 397.753 137.976C396.43 136.544 394.028 136.327 392.401 137.491C385.421 142.489 379.527 148.767 375.035 155.913C369.191 164.78 361.156 185.249 379.498 187.18" fill="#C69C6D"/>
<path d="M385.429 172.266C385.103 168.476 386.094 164.289 387.258 160.477C389.356 153.989 392.9 147.668 397.804 142.149C398.867 140.949 398.896 139.213 397.753 137.976C396.43 136.544 394.028 136.327 392.401 137.491C385.421 142.489 379.527 148.767 375.035 155.913C369.191 164.78 361.156 185.249 379.498 187.18" stroke="#603813" stroke-width="4.26587" stroke-miterlimit="10" stroke-linecap="round"/>
<path d="M252.844 187.18C271.187 185.256 263.151 164.78 257.307 155.913C252.815 148.767 246.921 142.482 239.941 137.491C238.307 136.327 235.912 136.544 234.589 137.976C233.446 139.213 233.475 140.941 234.538 142.149C239.442 147.668 242.986 153.989 245.084 160.477C246.255 164.296 247.239 168.484 246.913 172.266" fill="#C69C6D"/>
<path d="M252.844 187.18C271.187 185.256 263.151 164.78 257.307 155.913C252.815 148.767 246.921 142.482 239.941 137.491C238.307 136.327 235.912 136.544 234.589 137.976C233.446 139.213 233.475 140.941 234.538 142.149C239.442 147.668 242.986 153.989 245.084 160.477C246.255 164.296 247.239 168.484 246.913 172.266" stroke="#603813" stroke-width="4.26587" stroke-miterlimit="10" stroke-linecap="round"/>
</g>
<rect x="209.543" y="61.543" width="214.914" height="214.914" stroke="black" stroke-width="0.086"/>
<defs>
<clipPath id="clip0_4530_1302">
<rect x="209.5" y="61.5" width="215" height="215" fill="white"/>
</clipPath>
</defs>
</svg>
