<svg width="500" height="500" viewBox="0 0 500 500" fill="none" xmlns="http://www.w3.org/2000/svg">
<g clip-path="url(#clip0_4561_2166)">
<path d="M357.074 168.882C362.896 168.882 367.616 162.719 367.616 155.117C367.616 147.515 362.896 141.352 357.074 141.352C351.253 141.352 346.533 147.515 346.533 155.117C346.533 162.719 351.253 168.882 357.074 168.882Z" fill="#D9AD7A" stroke="#603813" stroke-width="4" stroke-miterlimit="10" stroke-linecap="round"/>
<path d="M273.885 168.882C279.707 168.882 284.426 162.719 284.426 155.117C284.426 147.515 279.707 141.352 273.885 141.352C268.063 141.352 263.344 147.515 263.344 155.117C263.344 162.719 268.063 168.882 273.885 168.882Z" fill="#D9AD7A" stroke="#603813" stroke-width="4" stroke-miterlimit="10" stroke-linecap="round"/>
<path d="M323.173 146.055C323.979 133.276 330.546 119.344 343.519 112.097C358.868 102.952 384.224 107.504 392.069 122.45C395.134 127.947 396.079 133.541 396.44 139.384C396.815 144.297 396.913 149.245 396.628 154.303C395.773 165.331 393.563 185.579 377.019 186.747C371.981 186.747 367.902 183.154 367.902 178.721C367.902 174.288 371.988 170.695 377.019 170.695C376.511 170.654 375.962 170.723 375.483 170.89C375.073 171.015 374.871 171.043 374.593 171.203C374.204 171.474 374.17 171.383 374.038 171.564C374.072 171.508 374.42 171.182 374.753 170.626C379.513 160.891 380.819 147.07 375.33 137.724C368.006 125.244 352.351 132.352 354.859 146.062C355.999 153.754 349.842 160.807 341.094 161.815C330.844 163.121 325.862 155.04 327.259 146.062H323.166L323.173 146.055Z" fill="#C69C6D" stroke="#603813" stroke-width="4" stroke-miterlimit="10" stroke-linecap="round"/>
<path d="M383.897 125.68C374.333 125.68 365.872 130.636 360.626 138.249C359.354 140.102 359.354 142.681 360.626 144.534C365.872 152.155 374.333 157.103 383.897 157.103C393.461 157.103 401.922 152.148 407.168 144.534C408.44 142.681 408.44 140.102 407.168 138.249C401.922 130.628 393.461 125.68 383.897 125.68Z" fill="#DECAAD" stroke="#603813" stroke-width="4" stroke-miterlimit="10"/>
<path d="M307.788 146.055C306.982 133.276 300.415 119.344 287.442 112.097C272.092 102.952 246.737 107.504 238.891 122.45C235.827 127.947 234.882 133.541 234.521 139.384C234.145 144.297 234.048 149.245 234.333 154.303C235.188 165.331 237.397 185.579 253.942 186.747C258.98 186.747 263.059 183.154 263.059 178.721C263.059 174.288 258.973 170.695 253.942 170.695C254.45 170.654 254.999 170.723 255.478 170.89C255.888 171.015 256.09 171.043 256.367 171.203C256.757 171.474 256.791 171.383 256.923 171.564C256.889 171.508 256.541 171.182 256.208 170.626C251.448 160.891 250.141 147.07 255.631 137.724C262.955 125.244 278.61 132.352 276.102 146.062C274.962 153.754 281.119 160.807 289.867 161.815C300.117 163.121 305.099 155.04 303.702 146.062H307.795L307.788 146.055Z" fill="#C69C6D" stroke="#603813" stroke-width="4" stroke-miterlimit="10" stroke-linecap="round"/>
<path d="M247.124 125.68C256.713 125.68 265.195 130.636 270.454 138.249C271.73 140.102 271.73 142.681 270.454 144.534C265.195 152.155 256.713 157.103 247.124 157.103C237.535 157.103 229.052 152.148 223.793 144.534C222.517 142.681 222.517 140.102 223.793 138.249C229.052 130.628 237.535 125.68 247.124 125.68Z" fill="#DECAAD" stroke="#603813" stroke-width="4" stroke-miterlimit="10"/>
<path d="M324.869 233.707H306.094C292.884 233.707 281.732 223.896 280.05 210.797L270.398 135.73H360.572L350.92 210.797C349.239 223.896 338.079 233.707 324.876 233.707H324.869Z" fill="#DECAAD" stroke="#603813" stroke-width="4" stroke-miterlimit="10"/>
<path d="M358.929 118.118C357.394 118.118 355.928 118.382 354.559 118.855C352.001 112.073 345.463 107.237 337.784 107.237C335.206 107.237 332.76 107.793 330.544 108.772C326.576 105.131 321.295 102.887 315.486 102.887C309.677 102.887 304.396 105.131 300.428 108.772C298.211 107.793 295.766 107.237 293.188 107.237C285.509 107.237 278.97 112.073 276.413 118.855C275.037 118.382 273.571 118.118 272.043 118.118C264.58 118.118 258.527 124.171 258.527 131.634C258.527 139.096 264.58 145.149 272.043 145.149C276.434 145.149 280.332 143.043 282.799 139.791C285.732 141.883 289.317 143.127 293.194 143.127C295.772 143.127 298.218 142.571 300.435 141.591C304.403 145.232 309.684 147.477 315.493 147.477C321.302 147.477 326.583 145.232 330.551 141.591C332.767 142.571 335.213 143.127 337.791 143.127C341.669 143.127 345.247 141.883 348.187 139.791C350.653 143.043 354.545 145.149 358.943 145.149C366.406 145.149 372.459 139.096 372.459 131.634C372.459 124.171 366.406 118.118 358.943 118.118H358.929Z" fill="#D9AD7A" stroke="#603813" stroke-width="4" stroke-miterlimit="10" stroke-linecap="round" stroke-linejoin="round"/>
<path d="M361.936 171.344C362.073 168.436 361.253 165.772 359.833 163.854C353.376 156.76 346.963 165.908 346.7 171.501C346.578 174.108 348.081 177.467 348.081 177.467C344.026 179.561 341.448 184.238 341.19 189.714C340.928 195.301 345.717 197.687 349.608 197.87C356.924 198.214 361.281 193.809 361.544 188.215C361.715 184.574 361.07 181.183 358.94 179.297C361.017 177.557 361.776 174.763 361.936 171.344Z" fill="#D9AD7A" stroke="#603813" stroke-width="4" stroke-miterlimit="10" stroke-linecap="round" stroke-linejoin="round"/>
<path d="M269.11 171.344C268.974 168.436 269.794 165.772 271.213 163.854C277.671 156.76 284.084 165.908 284.347 171.501C284.469 174.108 282.966 177.467 282.966 177.467C287.021 179.561 289.599 184.238 289.857 189.714C290.119 195.301 285.33 197.687 281.439 197.87C274.123 198.214 269.766 193.809 269.503 188.215C269.332 184.574 269.977 181.183 272.107 179.297C270.03 177.557 269.271 174.763 269.11 171.344Z" fill="#D9AD7A" stroke="#603813" stroke-width="4" stroke-miterlimit="10" stroke-linecap="round" stroke-linejoin="round"/>
<path d="M298.228 163.873C298.228 166.888 296.755 168.264 294.934 168.264C293.114 168.264 291.641 166.888 291.641 163.873C291.641 160.857 293.114 158.418 294.934 158.418C296.755 158.418 298.228 160.864 298.228 163.873Z" fill="black" stroke="black" stroke-width="4" stroke-miterlimit="10" stroke-linecap="round"/>
<path d="M332.742 163.873C332.742 166.888 334.215 168.264 336.036 168.264C337.856 168.264 339.33 166.888 339.33 163.873C339.33 160.857 337.856 158.418 336.036 158.418C334.215 158.418 332.742 160.864 332.742 163.873Z" fill="black" stroke="black" stroke-width="4" stroke-miterlimit="10" stroke-linecap="round"/>
<path d="M316.557 191.855C315.584 192.862 313.986 192.862 313.013 191.855C307.398 186.039 301.867 186.073 301.867 190.347C301.867 195.072 307.655 198.894 314.785 198.894C321.914 198.894 327.709 195.065 327.709 190.347C327.709 186.073 322.178 186.039 316.557 191.855Z" fill="black" stroke="black" stroke-width="4" stroke-miterlimit="10" stroke-linecap="round"/>
<path d="M314.703 201.562L314.703 216.155" stroke="black" stroke-width="4" stroke-miterlimit="10" stroke-linecap="round"/>
<path d="M303.982 214.243C306.998 216.626 313.183 217.342 319.832 215.744C326.482 214.146 331.666 210.706 333.271 207.211" stroke="black" stroke-width="4" stroke-miterlimit="10" stroke-linecap="round"/>
<path d="M382.02 172.418C381.707 168.777 382.659 164.754 383.778 161.092C385.793 154.859 389.198 148.786 393.909 143.484C394.93 142.33 394.958 140.663 393.86 139.474C392.589 138.098 390.282 137.89 388.718 139.009C382.013 143.81 376.349 149.842 372.034 156.707C366.42 165.226 358.7 184.891 376.322 186.746" fill="#C69C6D"/>
<path d="M382.02 172.418C381.707 168.777 382.659 164.754 383.778 161.092C385.793 154.859 389.198 148.786 393.909 143.484C394.93 142.33 394.958 140.663 393.86 139.474C392.589 138.098 390.282 137.89 388.718 139.009C382.013 143.81 376.349 149.842 372.034 156.707C366.42 165.226 358.7 184.891 376.322 186.746" stroke="#603813" stroke-width="4" stroke-miterlimit="10" stroke-linecap="round"/>
<path d="M254.643 186.746C272.265 184.898 264.545 165.226 258.93 156.707C254.615 149.842 248.952 143.803 242.246 139.009C240.676 137.89 238.376 138.098 237.104 139.474C236.006 140.663 236.034 142.323 237.056 143.484C241.767 148.786 245.172 154.859 247.187 161.092C248.313 164.761 249.258 168.784 248.945 172.418" fill="#C69C6D"/>
<path d="M254.643 186.746C272.265 184.898 264.545 165.226 258.93 156.707C254.615 149.842 248.952 143.803 242.246 139.009C240.676 137.89 238.376 138.098 237.104 139.474C236.006 140.663 236.034 142.323 237.056 143.484C241.767 148.786 245.172 154.859 247.187 161.092C248.313 164.761 249.258 168.784 248.945 172.418" stroke="#603813" stroke-width="4" stroke-miterlimit="10" stroke-linecap="round"/>
<path d="M357.653 166.672C363.623 166.672 368.462 160.353 368.462 152.557C368.462 144.761 363.623 138.441 357.653 138.441C351.683 138.441 346.844 144.761 346.844 152.557C346.844 160.353 351.683 166.672 357.653 166.672Z" fill="#D9AD7A" stroke="#603813" stroke-width="4.12195" stroke-miterlimit="10" stroke-linecap="round"/>
<path d="M272.346 166.672C278.316 166.672 283.156 160.353 283.156 152.557C283.156 144.761 278.316 138.441 272.346 138.441C266.377 138.441 261.537 144.761 261.537 152.557C261.537 160.353 266.377 166.672 272.346 166.672Z" fill="#D9AD7A" stroke="#603813" stroke-width="4.12195" stroke-miterlimit="10" stroke-linecap="round"/>
<path d="M322.89 143.261C323.716 130.158 330.45 115.871 343.753 108.439C359.493 99.0622 385.494 103.729 393.539 119.056C396.681 124.692 397.65 130.428 398.021 136.421C398.406 141.459 398.505 146.532 398.213 151.719C397.337 163.027 395.071 183.791 378.105 184.988C372.939 184.988 368.757 181.304 368.757 176.758C368.757 172.212 372.946 168.528 378.105 168.528C377.585 168.485 377.022 168.557 376.53 168.728C376.11 168.856 375.903 168.884 375.618 169.048C375.219 169.326 375.184 169.234 375.048 169.419C375.084 169.362 375.44 169.027 375.782 168.457C380.663 158.474 382.003 144.302 376.374 134.718C368.863 121.921 352.81 129.21 355.382 143.268C356.551 151.156 350.237 158.389 341.266 159.422C330.756 160.761 325.647 152.475 327.08 143.268H322.883L322.89 143.261Z" fill="#C69C6D" stroke="#603813" stroke-width="4.12195" stroke-miterlimit="10" stroke-linecap="round"/>
<path d="M385.158 122.371C375.35 122.371 366.674 127.453 361.295 135.26C359.99 137.16 359.99 139.805 361.295 141.705C366.674 149.52 375.35 154.594 385.158 154.594C394.965 154.594 403.641 149.512 409.02 141.705C410.325 139.805 410.325 137.16 409.02 135.26C403.641 127.445 394.965 122.371 385.158 122.371Z" fill="#DECAAD" stroke="#603813" stroke-width="4.12195" stroke-miterlimit="10"/>
<path d="M307.114 143.261C306.287 130.158 299.554 115.871 286.25 108.439C270.51 99.0622 244.509 103.729 236.465 119.056C233.322 124.692 232.353 130.428 231.983 136.421C231.598 141.459 231.498 146.532 231.79 151.719C232.667 163.027 234.933 183.791 251.898 184.988C257.064 184.988 261.247 181.304 261.247 176.758C261.247 172.212 257.057 168.528 251.898 168.528C252.419 168.485 252.982 168.557 253.473 168.728C253.894 168.856 254.1 168.884 254.385 169.048C254.784 169.326 254.82 169.234 254.955 169.419C254.92 169.362 254.563 169.027 254.221 168.457C249.34 158.474 248.001 144.302 253.63 134.718C261.14 121.921 277.194 129.21 274.622 143.268C273.453 151.156 279.766 158.389 288.737 159.422C299.247 160.761 304.356 152.475 302.924 143.268H307.121L307.114 143.261Z" fill="#C69C6D" stroke="#603813" stroke-width="4.12195" stroke-miterlimit="10" stroke-linecap="round"/>
<path d="M244.905 122.371C254.738 122.371 263.437 127.453 268.83 135.26C270.138 137.16 270.138 139.805 268.83 141.705C263.437 149.52 254.738 154.594 244.905 154.594C235.073 154.594 226.374 149.512 220.981 141.705C219.673 139.805 219.673 137.16 220.981 135.26C226.374 127.445 235.073 122.371 244.905 122.371Z" fill="#DECAAD" stroke="#603813" stroke-width="4.12195" stroke-miterlimit="10"/>
<path d="M324.628 233.145H305.375C291.829 233.145 280.393 223.083 278.669 209.652L268.771 132.676H361.239L351.341 209.652C349.617 223.083 338.173 233.145 324.635 233.145H324.628Z" fill="#DECAAD" stroke="#603813" stroke-width="4.12195" stroke-miterlimit="10"/>
<path d="M359.553 114.619C357.979 114.619 356.475 114.89 355.072 115.374C352.449 108.42 345.744 103.461 337.871 103.461C335.227 103.461 332.719 104.031 330.446 105.035C326.377 101.302 320.962 99 315.005 99C309.048 99 303.633 101.302 299.564 105.035C297.291 104.031 294.783 103.461 292.139 103.461C284.266 103.461 277.561 108.42 274.939 115.374C273.528 114.89 272.024 114.619 270.457 114.619C262.804 114.619 256.598 120.825 256.598 128.478C256.598 136.131 262.804 142.337 270.457 142.337C274.96 142.337 278.957 140.178 281.487 136.843C284.494 138.988 288.171 140.263 292.147 140.263C294.79 140.263 297.298 139.693 299.571 138.689C303.64 142.422 309.055 144.724 315.012 144.724C320.969 144.724 326.384 142.422 330.453 138.689C332.726 139.693 335.234 140.263 337.878 140.263C341.854 140.263 345.523 138.988 348.538 136.843C351.067 140.178 355.057 142.337 359.568 142.337C367.22 142.337 373.427 136.131 373.427 128.478C373.427 120.825 367.22 114.619 359.568 114.619H359.553Z" fill="#D9AD7A" stroke="#603813" stroke-width="4.12195" stroke-miterlimit="10" stroke-linecap="round" stroke-linejoin="round"/>
<path d="M362.638 169.193C362.779 166.211 361.938 163.479 360.482 161.513C353.86 154.238 347.284 163.619 347.015 169.354C346.889 172.028 348.43 175.472 348.43 175.472C344.272 177.619 341.628 182.416 341.364 188.03C341.095 193.759 346.006 196.207 349.996 196.394C357.499 196.747 361.966 192.23 362.236 186.494C362.411 182.76 361.75 179.282 359.565 177.349C361.696 175.564 362.474 172.699 362.638 169.193Z" fill="#D9AD7A" stroke="#603813" stroke-width="4.12195" stroke-miterlimit="10" stroke-linecap="round" stroke-linejoin="round"/>
<path d="M267.451 169.193C267.311 166.211 268.152 163.479 269.608 161.513C276.23 154.238 282.806 163.619 283.075 169.354C283.201 172.028 281.66 175.472 281.66 175.472C285.818 177.619 288.461 182.416 288.725 188.03C288.995 193.759 284.084 196.207 280.094 196.394C272.591 196.747 268.123 192.23 267.854 186.494C267.678 182.76 268.34 179.282 270.524 177.349C268.394 175.564 267.616 172.699 267.451 169.193Z" fill="#D9AD7A" stroke="#603813" stroke-width="4.12195" stroke-miterlimit="10" stroke-linecap="round" stroke-linejoin="round"/>
<path d="M297.31 161.531C297.31 164.623 295.799 166.034 293.932 166.034C292.065 166.034 290.555 164.623 290.555 161.531C290.555 158.439 292.065 155.938 293.932 155.938C295.799 155.938 297.31 158.446 297.31 161.531Z" fill="black" stroke="black" stroke-width="4.12195" stroke-miterlimit="10" stroke-linecap="round"/>
<path d="M332.701 161.531C332.701 164.623 334.212 166.034 336.079 166.034C337.946 166.034 339.456 164.623 339.456 161.531C339.456 158.439 337.946 155.938 336.079 155.938C334.212 155.938 332.701 158.446 332.701 161.531Z" fill="black" stroke="black" stroke-width="4.12195" stroke-miterlimit="10" stroke-linecap="round"/>
<path d="M314.205 200.184L314.205 215.147" stroke="black" stroke-width="4.12195" stroke-miterlimit="10" stroke-linecap="round"/>
<path d="M383.233 170.302C382.912 166.568 383.888 162.442 385.036 158.687C387.102 152.296 390.593 146.068 395.424 140.631C396.472 139.449 396.5 137.739 395.375 136.52C394.071 135.109 391.705 134.896 390.102 136.043C383.226 140.966 377.418 147.151 372.994 154.191C367.236 162.927 359.32 183.092 377.39 184.995" fill="#C69C6D"/>
<path d="M383.233 170.302C382.912 166.568 383.888 162.442 385.036 158.687C387.102 152.296 390.593 146.068 395.424 140.631C396.472 139.449 396.5 137.739 395.375 136.52C394.071 135.109 391.705 134.896 390.102 136.043C383.226 140.966 377.418 147.151 372.994 154.191C367.236 162.927 359.32 183.092 377.39 184.995" stroke="#603813" stroke-width="4.12195" stroke-miterlimit="10" stroke-linecap="round"/>
<path d="M252.614 184.995C270.684 183.099 262.767 162.927 257.01 154.191C252.585 147.151 246.778 140.959 239.902 136.043C238.291 134.896 235.933 135.109 234.629 136.52C233.503 137.739 233.532 139.442 234.579 140.631C239.41 146.068 242.902 152.296 244.968 158.687C246.122 162.45 247.091 166.575 246.771 170.302" fill="#C69C6D"/>
<path d="M252.614 184.995C270.684 183.099 262.767 162.927 257.01 154.191C252.585 147.151 246.778 140.959 239.902 136.043C238.291 134.896 235.933 135.109 234.629 136.52C233.503 137.739 233.532 139.442 234.579 140.631C239.41 146.068 242.902 152.296 244.968 158.687C246.122 162.45 247.091 166.575 246.771 170.302" stroke="#603813" stroke-width="4.12195" stroke-miterlimit="10" stroke-linecap="round"/>
<path d="M284.011 247.141C277.863 238.374 275.343 220.305 275.343 209.64C290.798 204.494 302.765 201.87 314.348 201.762C325.932 201.87 337.899 204.49 353.354 209.636C353.354 220.301 350.834 238.371 344.686 247.137C342.979 249.571 340.281 239.946 338.185 242.39C333.737 251.302 325.929 262.161 314.348 269.074C302.768 262.161 294.96 251.305 290.512 242.394C288.416 239.949 285.718 249.575 284.011 247.141Z" fill="#D9AD7A"/>
<path d="M314.367 199.863C326.255 199.974 338.452 202.665 353.997 207.841L355.324 208.283V209.636C355.324 215.09 354.682 222.395 353.259 229.46C351.847 236.475 349.62 243.492 346.318 248.201C345.866 248.846 345.015 249.549 343.788 249.42C342.83 249.318 342.163 248.73 341.831 248.402C341.116 247.692 340.419 246.56 339.905 245.757C339.64 245.343 339.407 244.988 339.2 244.693C334.543 253.508 326.75 263.904 315.386 270.688L314.348 271.307L313.311 270.688C301.947 263.905 294.154 253.512 289.497 244.696C289.29 244.992 289.057 245.347 288.792 245.76C288.278 246.563 287.581 247.695 286.865 248.405C286.534 248.734 285.867 249.322 284.909 249.423C283.682 249.553 282.831 248.849 282.379 248.204C279.077 243.496 276.85 236.478 275.438 229.464C274.015 222.399 273.373 215.094 273.373 209.64V208.286L274.7 207.845C290.244 202.669 302.442 199.974 314.33 199.863H314.367ZM314.348 203.661C303.406 203.765 292.03 206.174 277.326 210.992C277.422 216.036 278.046 222.487 279.305 228.74C280.549 234.916 282.375 240.706 284.794 244.761C284.983 244.477 285.196 244.146 285.439 243.766C285.969 242.938 286.697 241.793 287.502 241.063C287.901 240.702 288.587 240.187 289.521 240.105C290.556 240.014 291.374 240.48 291.924 241.066L292.03 241.184L292.183 241.362L292.287 241.571C296.501 250.012 303.758 260.143 314.348 266.823C324.939 260.143 332.196 250.009 336.41 241.567L336.514 241.359L336.666 241.181C337.215 240.542 338.072 240.004 339.176 240.102C340.11 240.184 340.796 240.698 341.195 241.06C342 241.789 342.728 242.935 343.258 243.763C343.501 244.142 343.714 244.474 343.902 244.758C346.322 240.702 348.148 234.912 349.392 228.737C350.651 222.484 351.274 216.033 351.37 210.988C336.667 206.171 325.291 203.765 314.348 203.661Z" fill="#D9AD7A"/>
<path d="M314.367 199.863C326.255 199.974 338.452 202.665 353.997 207.841L355.324 208.283V209.636C355.324 215.09 354.682 222.395 353.259 229.46C351.847 236.475 349.62 243.492 346.318 248.201C345.866 248.846 345.015 249.549 343.788 249.42C342.83 249.318 342.163 248.73 341.831 248.402C341.116 247.692 340.419 246.56 339.905 245.757C339.64 245.343 339.407 244.988 339.2 244.693C334.543 253.508 326.75 263.904 315.386 270.688L314.348 271.307L313.311 270.688C301.947 263.905 294.154 253.512 289.497 244.696C289.29 244.992 289.057 245.347 288.792 245.76C288.278 246.563 287.581 247.695 286.865 248.405C286.534 248.734 285.867 249.322 284.909 249.423C283.682 249.553 282.831 248.849 282.379 248.204C279.077 243.496 276.85 236.478 275.438 229.464C274.015 222.399 273.373 215.094 273.373 209.64V208.286L274.7 207.845C290.244 202.669 302.442 199.974 314.33 199.863H314.367ZM314.348 203.661C303.406 203.765 292.03 206.174 277.326 210.992C277.422 216.036 278.046 222.487 279.305 228.74C280.549 234.916 282.375 240.706 284.794 244.761C284.983 244.477 285.196 244.146 285.439 243.766C285.969 242.938 286.697 241.793 287.502 241.063C287.901 240.702 288.587 240.187 289.521 240.105C290.556 240.014 291.374 240.48 291.924 241.066L292.03 241.184L292.183 241.362L292.287 241.571C296.501 250.012 303.758 260.143 314.348 266.823C324.939 260.143 332.196 250.009 336.41 241.567L336.514 241.359L336.666 241.181C337.215 240.542 338.072 240.004 339.176 240.102C340.11 240.184 340.796 240.698 341.195 241.06C342 241.789 342.728 242.935 343.258 243.763C343.501 244.142 343.714 244.474 343.902 244.758C346.322 240.702 348.148 234.912 349.392 228.737C350.651 222.484 351.274 216.033 351.37 210.988C336.667 206.171 325.291 203.765 314.348 203.661Z" fill="#603813"/>
<path d="M316.104 191.486C315.107 192.519 313.468 192.519 312.47 191.486C306.713 185.522 301.041 185.558 301.041 189.94C301.041 194.785 306.977 198.704 314.287 198.704C321.598 198.704 327.541 194.778 327.541 189.94C327.541 185.558 321.869 185.522 316.104 191.486Z" fill="black" stroke="black" stroke-width="4.12195" stroke-miterlimit="10" stroke-linecap="round"/>
<path d="M303.211 214.449C306.303 216.893 312.645 217.627 319.464 215.988C326.283 214.349 331.599 210.822 333.245 207.238" stroke="black" stroke-width="4.12195" stroke-miterlimit="10" stroke-linecap="round"/>
</g>
<defs>
<clipPath id="clip0_4561_2166">
<rect width="200" height="200" fill="white" transform="translate(213 66)"/>
</clipPath>
</defs>
</svg>
