<svg width="500" height="500" viewBox="0 0 500 500" fill="none" xmlns="http://www.w3.org/2000/svg">
<path d="M359.488 169.748C365.553 169.748 370.469 163.327 370.469 155.407C370.469 147.487 365.553 141.066 359.488 141.066C353.423 141.066 348.506 147.487 348.506 155.407C348.506 163.327 353.423 169.748 359.488 169.748Z" fill="#D9AD7A" stroke="#603813" stroke-width="6.63305" stroke-miterlimit="10" stroke-linecap="round"/>
<path d="M272.82 169.748C278.885 169.748 283.801 163.327 283.801 155.407C283.801 147.487 278.885 141.066 272.82 141.066C266.755 141.066 261.838 147.487 261.838 155.407C261.838 163.327 266.755 169.748 272.82 169.748Z" fill="#D9AD7A" stroke="#603813" stroke-width="6.63305" stroke-miterlimit="10" stroke-linecap="round"/>
<path d="M324.165 145.968C325.005 132.656 331.846 118.141 345.362 110.591C361.353 101.064 387.769 105.805 395.942 121.377C399.134 127.103 400.119 132.931 400.495 139.019C400.886 144.137 400.987 149.291 400.691 154.561C399.8 166.05 397.498 187.145 380.262 188.361C375.013 188.361 370.764 184.618 370.764 180C370.764 175.381 375.02 171.638 380.262 171.638C379.733 171.595 379.161 171.667 378.662 171.841C378.235 171.971 378.025 172 377.735 172.167C377.33 172.449 377.294 172.355 377.156 172.543C377.192 172.485 377.554 172.145 377.902 171.566C382.86 161.424 384.221 147.025 378.503 137.289C370.872 124.287 354.563 131.693 357.176 145.976C358.363 153.989 351.949 161.337 342.835 162.387C332.157 163.748 326.967 155.329 328.422 145.976H324.158L324.165 145.968Z" fill="#C69C6D" stroke="#603813" stroke-width="6.63305" stroke-miterlimit="10" stroke-linecap="round"/>
<path d="M387.431 124.742C377.467 124.742 368.653 129.905 363.188 137.837C361.862 139.767 361.862 142.455 363.188 144.385C368.653 152.325 377.467 157.479 387.431 157.479C397.395 157.479 406.209 152.316 411.674 144.385C413 142.455 413 139.767 411.674 137.837C406.209 129.897 397.395 124.742 387.431 124.742Z" fill="#DECAAD" stroke="#603813" stroke-width="6.63305" stroke-miterlimit="10"/>
<path d="M308.137 145.968C307.297 132.656 300.456 118.141 286.94 110.591C270.949 101.064 244.533 105.805 236.36 121.377C233.168 127.103 232.183 132.931 231.807 139.019C231.416 144.137 231.315 149.291 231.611 154.561C232.502 166.05 234.804 187.145 252.04 188.361C257.289 188.361 261.538 184.618 261.538 180C261.538 175.381 257.282 171.638 252.04 171.638C252.569 171.595 253.141 171.667 253.64 171.841C254.067 171.971 254.277 172 254.567 172.167C254.972 172.449 255.008 172.355 255.146 172.543C255.11 172.485 254.748 172.145 254.4 171.566C249.442 161.424 248.081 147.025 253.799 137.289C261.43 124.287 277.739 131.693 275.126 145.976C273.939 153.989 280.353 161.337 289.467 162.387C300.145 163.748 305.335 155.329 303.88 145.976H308.144L308.137 145.968Z" fill="#C69C6D" stroke="#603813" stroke-width="6.63305" stroke-miterlimit="10" stroke-linecap="round"/>
<path d="M244.938 124.742C254.927 124.742 263.764 129.905 269.243 137.837C270.573 139.767 270.573 142.455 269.243 144.385C263.764 152.325 254.927 157.479 244.938 157.479C234.948 157.479 226.111 152.316 220.632 144.385C219.302 142.455 219.302 139.767 220.632 137.837C226.111 129.897 234.948 124.742 244.938 124.742Z" fill="#DECAAD" stroke="#603813" stroke-width="6.63305" stroke-miterlimit="10"/>
<path d="M325.933 237.287H306.373C292.611 237.287 280.993 227.065 279.241 213.42L269.186 135.215H363.128L353.073 213.42C351.321 227.065 339.695 237.287 325.941 237.287H325.933Z" fill="#DECAAD" stroke="#603813" stroke-width="6.63305" stroke-miterlimit="10"/>
<path d="M361.419 116.868C359.819 116.868 358.291 117.143 356.865 117.636C354.201 110.57 347.389 105.532 339.39 105.532C336.704 105.532 334.156 106.111 331.847 107.132C327.713 103.338 322.212 101 316.16 101C310.108 101 304.606 103.338 300.472 107.132C298.163 106.111 295.615 105.532 292.929 105.532C284.93 105.532 278.118 110.57 275.454 117.636C274.021 117.143 272.493 116.868 270.9 116.868C263.126 116.868 256.82 123.174 256.82 130.948C256.82 138.723 263.126 145.029 270.9 145.029C275.476 145.029 279.537 142.835 282.107 139.447C285.162 141.626 288.897 142.922 292.936 142.922C295.622 142.922 298.17 142.343 300.48 141.322C304.613 145.115 310.115 147.454 316.167 147.454C322.219 147.454 327.721 145.115 331.854 141.322C334.163 142.343 336.712 142.922 339.397 142.922C343.437 142.922 347.165 141.626 350.227 139.447C352.797 142.835 356.851 145.029 361.433 145.029C369.208 145.029 375.513 138.723 375.513 130.948C375.513 123.174 369.208 116.868 361.433 116.868H361.419Z" fill="#D9AD7A" stroke="#603813" stroke-width="6.63305" stroke-miterlimit="10" stroke-linecap="round" stroke-linejoin="round"/>
<path d="M364.549 172.309C364.692 169.28 363.837 166.504 362.358 164.506C355.631 157.115 348.95 166.646 348.676 172.473C348.549 175.189 350.114 178.688 350.114 178.688C345.89 180.87 343.204 185.743 342.936 191.447C342.662 197.267 347.652 199.754 351.705 199.944C359.327 200.302 363.867 195.713 364.14 189.886C364.319 186.092 363.646 182.559 361.427 180.595C363.591 178.782 364.382 175.871 364.549 172.309Z" fill="#D9AD7A" stroke="#603813" stroke-width="6.63305" stroke-miterlimit="10" stroke-linecap="round" stroke-linejoin="round"/>
<path d="M267.843 172.309C267.701 169.28 268.555 166.504 270.034 164.506C276.762 157.115 283.443 166.646 283.716 172.473C283.844 175.189 282.278 178.688 282.278 178.688C286.503 180.87 289.189 185.743 289.457 191.447C289.73 197.267 284.741 199.754 280.687 199.944C273.065 200.302 268.526 195.713 268.252 189.886C268.074 186.092 268.746 182.559 270.965 180.595C268.801 178.782 268.011 175.871 267.843 172.309Z" fill="#D9AD7A" stroke="#603813" stroke-width="6.63305" stroke-miterlimit="10" stroke-linecap="round" stroke-linejoin="round"/>
<path d="M298.177 164.53C298.177 167.672 296.642 169.106 294.746 169.106C292.849 169.106 291.314 167.672 291.314 164.53C291.314 161.389 292.849 158.848 294.746 158.848C296.642 158.848 298.177 161.396 298.177 164.53Z" fill="black" stroke="black" stroke-width="6.63305" stroke-miterlimit="10" stroke-linecap="round"/>
<path d="M334.137 164.53C334.137 167.672 335.671 169.106 337.568 169.106C339.465 169.106 340.999 167.672 340.999 164.53C340.999 161.389 339.465 158.848 337.568 158.848C335.671 158.848 334.137 161.396 334.137 164.53Z" fill="black" stroke="black" stroke-width="6.63305" stroke-miterlimit="10" stroke-linecap="round"/>
<path d="M317.272 193.682C316.259 194.732 314.594 194.732 313.58 193.682C307.731 187.623 301.969 187.659 301.969 192.111C301.969 197.034 307.999 201.015 315.426 201.015C322.854 201.015 328.891 197.026 328.891 192.111C328.891 187.659 323.129 187.623 317.272 193.682Z" fill="black" stroke="black" stroke-width="6.63305" stroke-miterlimit="10" stroke-linecap="round"/>
<path d="M315.344 203.793L315.344 218.995" stroke="black" stroke-width="6.63305" stroke-miterlimit="10" stroke-linecap="round"/>
<path d="M304.174 217.01C307.316 219.493 313.758 220.238 320.686 218.573C327.614 216.908 333.015 213.325 334.687 209.684" stroke="black" stroke-width="9.47951" stroke-miterlimit="10" stroke-linecap="round"/>
<path d="M385.473 173.435C385.147 169.641 386.139 165.45 387.305 161.635C389.404 155.141 392.951 148.814 397.859 143.291C398.924 142.089 398.952 140.352 397.809 139.114C396.484 137.68 394.081 137.463 392.452 138.629C385.466 143.631 379.566 149.915 375.071 157.067C369.221 165.942 361.179 186.429 379.537 188.362" fill="#C69C6D"/>
<path d="M385.473 173.435C385.147 169.641 386.139 165.45 387.305 161.635C389.404 155.141 392.951 148.814 397.859 143.291C398.924 142.089 398.952 140.352 397.809 139.114C396.484 137.68 394.081 137.463 392.452 138.629C385.466 143.631 379.566 149.915 375.071 157.067C369.221 165.942 361.179 186.429 379.537 188.362" stroke="#603813" stroke-width="6.63305" stroke-miterlimit="10" stroke-linecap="round"/>
<path d="M252.771 188.362C271.13 186.436 263.087 165.942 257.238 157.067C252.742 149.915 246.843 143.624 239.857 138.629C238.221 137.463 235.825 137.68 234.5 139.114C233.356 140.352 233.385 142.082 234.449 143.291C239.357 148.814 242.904 155.141 245.004 161.635C246.177 165.457 247.161 169.649 246.835 173.435" fill="#C69C6D"/>
<path d="M252.771 188.362C271.13 186.436 263.087 165.942 257.238 157.067C252.742 149.915 246.843 143.624 239.857 138.629C238.221 137.463 235.825 137.68 234.5 139.114C233.356 140.352 233.385 142.082 234.449 143.291C239.357 148.814 242.904 155.141 245.004 161.635C246.177 165.457 247.161 169.649 246.835 173.435" stroke="#603813" stroke-width="6.63305" stroke-miterlimit="10" stroke-linecap="round"/>
<path d="M360.277 167.149C366.404 167.149 371.371 160.663 371.371 152.663C371.371 144.662 366.404 138.176 360.277 138.176C354.15 138.176 349.184 144.662 349.184 152.663C349.184 160.663 354.15 167.149 360.277 167.149Z" fill="#D9AD7A" stroke="#603813" stroke-width="7" stroke-miterlimit="10" stroke-linecap="round"/>
<path d="M272.725 167.149C278.852 167.149 283.819 160.663 283.819 152.663C283.819 144.662 278.852 138.176 272.725 138.176C266.598 138.176 261.631 144.662 261.631 152.663C261.631 160.663 266.598 167.149 272.725 167.149Z" fill="#D9AD7A" stroke="#603813" stroke-width="7" stroke-miterlimit="10" stroke-linecap="round"/>
<path d="M324.599 143.129C325.447 129.68 332.358 115.018 346.012 107.391C362.166 97.7668 388.851 102.557 397.108 118.287C400.333 124.071 401.327 129.958 401.707 136.108C402.102 141.278 402.205 146.485 401.905 151.809C401.005 163.414 398.68 184.724 381.268 185.953C375.966 185.953 371.673 182.172 371.673 177.506C371.673 172.841 375.973 169.06 381.268 169.06C380.734 169.016 380.156 169.089 379.651 169.265C379.22 169.396 379.008 169.426 378.715 169.594C378.306 169.879 378.269 169.784 378.13 169.974C378.167 169.916 378.532 169.572 378.884 168.987C383.893 158.742 385.268 144.196 379.49 134.36C371.783 121.226 355.306 128.708 357.946 143.136C359.146 151.231 352.666 158.654 343.459 159.714C332.673 161.089 327.429 152.584 328.899 143.136H324.592L324.599 143.129Z" fill="#C69C6D" stroke="#603813" stroke-width="7" stroke-miterlimit="10" stroke-linecap="round"/>
<path d="M388.505 121.688C378.439 121.688 369.535 126.903 364.014 134.916C362.675 136.865 362.675 139.58 364.014 141.53C369.535 149.551 378.439 154.758 388.505 154.758C398.571 154.758 407.475 149.543 412.995 141.53C414.335 139.58 414.335 136.865 412.995 134.916C407.475 126.895 398.571 121.688 388.505 121.688Z" fill="#DECAAD" stroke="#603813" stroke-width="7" stroke-miterlimit="10"/>
<path d="M308.405 143.129C307.557 129.68 300.646 115.018 286.993 107.391C270.838 97.7668 244.153 102.557 235.897 118.287C232.672 124.071 231.677 129.958 231.297 136.108C230.902 141.278 230.8 146.485 231.1 151.809C231.999 163.414 234.325 184.724 251.737 185.953C257.039 185.953 261.332 182.172 261.332 177.506C261.332 172.841 257.031 169.06 251.737 169.06C252.271 169.016 252.848 169.089 253.353 169.265C253.785 169.396 253.997 169.426 254.289 169.594C254.699 169.879 254.735 169.784 254.874 169.974C254.838 169.916 254.472 169.572 254.121 168.987C249.111 158.742 247.737 144.196 253.514 134.36C261.222 121.226 277.698 128.708 275.058 143.136C273.859 151.231 280.338 158.654 289.545 159.714C300.332 161.089 305.575 152.584 304.105 143.136H308.413L308.405 143.129Z" fill="#C69C6D" stroke="#603813" stroke-width="7" stroke-miterlimit="10" stroke-linecap="round"/>
<path d="M244.561 121.688C254.653 121.688 263.58 126.903 269.115 134.916C270.458 136.865 270.458 139.58 269.115 141.53C263.58 149.551 254.653 154.758 244.561 154.758C234.469 154.758 225.542 149.543 220.007 141.53C218.664 139.58 218.664 136.865 220.007 134.916C225.542 126.895 234.469 121.688 244.561 121.688Z" fill="#DECAAD" stroke="#603813" stroke-width="7" stroke-miterlimit="10"/>
<path d="M326.381 235.377H306.622C292.72 235.377 280.982 225.051 279.212 211.267L269.055 132.266H363.956L353.798 211.267C352.028 225.051 340.283 235.377 326.389 235.377H326.381Z" fill="#DECAAD" stroke="#603813" stroke-width="7" stroke-miterlimit="10"/>
<path d="M365.394 169.743C365.538 166.682 364.675 163.879 363.181 161.86C356.385 154.394 349.636 164.021 349.359 169.908C349.23 172.652 350.812 176.187 350.812 176.187C346.544 178.39 343.831 183.313 343.56 189.075C343.284 194.955 348.324 197.467 352.419 197.659C360.119 198.021 364.704 193.385 364.981 187.498C365.161 183.666 364.482 180.097 362.24 178.113C364.426 176.281 365.225 173.341 365.394 169.743Z" fill="#D9AD7A" stroke="#603813" stroke-width="7" stroke-miterlimit="10" stroke-linecap="round" stroke-linejoin="round"/>
<path d="M267.7 169.743C267.556 166.682 268.419 163.879 269.913 161.86C276.709 154.394 283.458 164.021 283.735 169.908C283.864 172.652 282.282 176.187 282.282 176.187C286.549 178.39 289.263 183.313 289.534 189.075C289.81 194.955 284.77 197.467 280.675 197.659C272.975 198.021 268.389 193.385 268.113 187.498C267.933 183.666 268.612 180.097 270.854 178.113C268.667 176.281 267.869 173.341 267.7 169.743Z" fill="#D9AD7A" stroke="#603813" stroke-width="7" stroke-miterlimit="10" stroke-linecap="round" stroke-linejoin="round"/>
<path d="M298.345 161.877C298.345 165.051 296.794 166.499 294.878 166.499C292.962 166.499 291.412 165.051 291.412 161.877C291.412 158.704 292.962 156.137 294.878 156.137C296.794 156.137 298.345 158.711 298.345 161.877Z" fill="black" stroke="black" stroke-width="7" stroke-miterlimit="10" stroke-linecap="round"/>
<path d="M334.668 161.873C334.668 165.047 336.218 166.495 338.134 166.495C340.05 166.495 341.601 165.047 341.601 161.873C341.601 158.7 340.05 156.133 338.134 156.133C336.218 156.133 334.668 158.707 334.668 161.873Z" fill="black" stroke="black" stroke-width="7" stroke-miterlimit="10" stroke-linecap="round"/>
<path d="M317.634 191.328C316.61 192.388 314.928 192.388 313.904 191.328C307.995 185.207 302.174 185.244 302.174 189.741C302.174 194.714 308.266 198.736 315.769 198.736C323.272 198.736 329.371 194.706 329.371 189.741C329.371 185.244 323.55 185.207 317.634 191.328Z" fill="black" stroke="black" stroke-width="7" stroke-miterlimit="10" stroke-linecap="round"/>
<path d="M315.682 201.547L315.682 216.904" stroke="black" stroke-width="7" stroke-miterlimit="10" stroke-linecap="round"/>
<path d="M304.4 214.889C307.574 217.397 314.083 218.15 321.081 216.468C328.08 214.787 333.535 211.167 335.225 207.488" stroke="black" stroke-width="7" stroke-miterlimit="10" stroke-linecap="round"/>
<path d="M386.53 170.875C386.201 167.043 387.203 162.809 388.381 158.955C390.501 152.395 394.085 146.004 399.043 140.424C400.118 139.21 400.147 137.455 398.992 136.204C397.654 134.756 395.226 134.537 393.58 135.714C386.523 140.768 380.563 147.115 376.022 154.34C370.113 163.306 361.988 184.001 380.534 185.954" fill="#C69C6D"/>
<path d="M386.53 170.875C386.201 167.043 387.203 162.809 388.381 158.955C390.501 152.395 394.085 146.004 399.043 140.424C400.118 139.21 400.147 137.455 398.992 136.204C397.654 134.756 395.226 134.537 393.58 135.714C386.523 140.768 380.563 147.115 376.022 154.34C370.113 163.306 361.988 184.001 380.534 185.954" stroke="#603813" stroke-width="7" stroke-miterlimit="10" stroke-linecap="round"/>
<path d="M252.474 185.954C271.02 184.009 262.895 163.306 256.986 154.34C252.445 147.115 246.485 140.76 239.428 135.714C237.775 134.537 235.355 134.756 234.016 136.204C232.861 137.455 232.89 139.203 233.965 140.424C238.923 146.004 242.507 152.395 244.628 158.955C245.812 162.816 246.807 167.05 246.478 170.875" fill="#C69C6D"/>
<path d="M252.474 185.954C271.02 184.009 262.895 163.306 256.986 154.34C252.445 147.115 246.485 140.76 239.428 135.714C237.775 134.537 235.355 134.756 234.016 136.204C232.861 137.455 232.89 139.203 233.965 140.424C238.923 146.004 242.507 152.395 244.628 158.955C245.812 162.816 246.807 167.05 246.478 170.875" stroke="#603813" stroke-width="7" stroke-miterlimit="10" stroke-linecap="round"/>
<path d="M290.385 115.205C288.828 113.824 287.176 112.397 285.418 110.91C281.338 111.485 276.901 112.29 271.923 113.311L271.546 113.389C271.286 113.442 271.025 113.496 270.762 113.551L308.62 65.0024C308.722 66.8449 308.833 68.61 308.957 70.3065C311.337 65.6571 313.504 60.6321 315.612 55C317.614 60.539 319.705 65.493 322.035 70.0942C322.152 68.4629 322.259 66.7682 322.356 65.0024L360.215 113.551C359.938 113.494 359.664 113.437 359.391 113.381C354.361 112.344 349.882 111.525 345.767 110.94C344.017 112.415 342.372 113.832 340.823 115.205C327.542 126.973 321.262 135.529 315.612 150.425C310.245 135.767 303.935 127.224 290.385 115.205Z" fill="#D9AD7A"/>
<path d="M315.612 150.425C310.245 135.767 303.935 127.224 290.385 115.205C289.217 114.169 287.996 113.108 286.717 112.014L285.418 110.91C281.338 111.485 276.901 112.29 271.923 113.311L271.546 113.389C271.286 113.442 271.025 113.496 270.762 113.551L308.62 65.0024C308.722 66.8449 308.833 68.61 308.957 70.3065C311.337 65.6571 313.504 60.6321 315.612 55C317.614 60.539 319.705 65.493 322.035 70.0942C322.152 68.4629 322.259 66.7682 322.356 65.0024L360.215 113.551C359.938 113.494 359.664 113.437 359.391 113.381C354.675 112.409 350.444 111.629 346.543 111.052L345.767 110.94C344.455 112.046 343.201 113.12 342.003 114.167L340.823 115.205C327.542 126.973 321.262 135.529 315.612 150.425ZM315.652 139.466C320.794 129.112 327.247 121.471 337.962 111.977C339.543 110.576 341.216 109.136 342.987 107.642C343.927 106.85 345.159 106.497 346.375 106.67C347.488 106.828 348.624 107.003 349.787 107.193L325.893 76.5518L325.216 85.9232L318.186 72.0428C317.277 70.2471 316.406 68.4045 315.563 66.504C314.67 68.4878 313.751 70.4062 312.797 72.2715L305.778 85.9839L305.089 76.5459L281.189 107.194C282.427 106.991 283.635 106.806 284.817 106.639C286.034 106.468 287.266 106.824 288.204 107.618C289.982 109.122 291.66 110.571 293.247 111.978C304.106 121.61 310.626 129.263 315.652 139.466Z" fill="#D9AD7A"/>
<path d="M315.611 150.426C310.243 135.768 303.934 127.225 290.383 115.206C289.215 114.17 287.994 113.109 286.715 112.015L285.417 110.911C281.336 111.485 276.899 112.291 271.921 113.312L271.544 113.39C271.284 113.443 271.023 113.497 270.76 113.552L308.619 65.0032C308.72 66.8457 308.832 68.611 308.956 70.3074C311.335 65.658 313.503 60.633 315.611 55.0008C317.612 60.5398 319.703 65.4939 322.033 70.0951C322.151 68.4638 322.257 66.769 322.354 65.0032L360.213 113.552C359.937 113.495 359.662 113.437 359.389 113.381C354.674 112.409 350.443 111.629 346.542 111.053L345.766 110.941C344.453 112.047 343.2 113.121 342.001 114.168L340.821 115.206C327.54 126.974 321.26 135.53 315.611 150.426ZM315.651 139.466C320.792 129.113 327.245 121.472 337.961 111.978C339.541 110.577 341.214 109.137 342.986 107.643C343.925 106.851 345.157 106.497 346.374 106.671C347.486 106.829 348.623 107.004 349.785 107.194L325.891 76.5527L325.214 85.9241L318.185 72.0436C317.275 70.248 316.404 68.4053 315.561 66.5048C314.669 68.4886 313.75 70.407 312.795 72.2724L305.777 85.9847L305.087 76.5468L281.188 107.195C282.426 106.992 283.633 106.807 284.815 106.64C286.032 106.469 287.264 106.825 288.202 107.619C289.98 109.123 291.659 110.572 293.245 111.979C304.104 121.611 310.624 129.264 315.651 139.466Z" fill="#603813"/>
</svg>
