<svg width="500" height="500" viewBox="0 0 500 500" fill="none" xmlns="http://www.w3.org/2000/svg">
<path d="M357.074 168.882C362.896 168.882 367.616 162.719 367.616 155.117C367.616 147.515 362.896 141.352 357.074 141.352C351.253 141.352 346.533 147.515 346.533 155.117C346.533 162.719 351.253 168.882 357.074 168.882Z" fill="#D9AD7A" stroke="#603813" stroke-width="4" stroke-miterlimit="10" stroke-linecap="round"/>
<path d="M273.885 168.882C279.707 168.882 284.426 162.719 284.426 155.117C284.426 147.515 279.707 141.352 273.885 141.352C268.063 141.352 263.344 147.515 263.344 155.117C263.344 162.719 268.063 168.882 273.885 168.882Z" fill="#D9AD7A" stroke="#603813" stroke-width="4" stroke-miterlimit="10" stroke-linecap="round"/>
<path d="M323.173 146.055C323.979 133.276 330.546 119.344 343.519 112.097C358.868 102.952 384.224 107.504 392.069 122.45C395.134 127.947 396.079 133.541 396.44 139.384C396.815 144.297 396.913 149.245 396.628 154.303C395.773 165.331 393.563 185.579 377.019 186.747C371.981 186.747 367.902 183.154 367.902 178.721C367.902 174.288 371.988 170.695 377.019 170.695C376.511 170.654 375.962 170.723 375.483 170.89C375.073 171.015 374.871 171.043 374.593 171.203C374.204 171.474 374.17 171.383 374.038 171.564C374.072 171.508 374.42 171.182 374.753 170.626C379.513 160.891 380.819 147.07 375.33 137.724C368.006 125.244 352.351 132.352 354.859 146.062C355.999 153.754 349.842 160.807 341.094 161.815C330.844 163.121 325.862 155.04 327.259 146.062H323.166L323.173 146.055Z" fill="#C69C6D" stroke="#603813" stroke-width="4" stroke-miterlimit="10" stroke-linecap="round"/>
<path d="M383.897 125.68C374.333 125.68 365.872 130.636 360.626 138.249C359.354 140.102 359.354 142.681 360.626 144.534C365.872 152.155 374.333 157.103 383.897 157.103C393.461 157.103 401.922 152.148 407.168 144.534C408.44 142.681 408.44 140.102 407.168 138.249C401.922 130.628 393.461 125.68 383.897 125.68Z" fill="#DECAAD" stroke="#603813" stroke-width="4" stroke-miterlimit="10"/>
<path d="M307.788 146.055C306.982 133.276 300.415 119.344 287.442 112.097C272.092 102.952 246.737 107.504 238.891 122.45C235.827 127.947 234.882 133.541 234.521 139.384C234.145 144.297 234.048 149.245 234.333 154.303C235.188 165.331 237.397 185.579 253.942 186.747C258.98 186.747 263.059 183.154 263.059 178.721C263.059 174.288 258.973 170.695 253.942 170.695C254.45 170.654 254.999 170.723 255.478 170.89C255.888 171.015 256.09 171.043 256.367 171.203C256.757 171.474 256.791 171.383 256.923 171.564C256.889 171.508 256.541 171.182 256.208 170.626C251.448 160.891 250.141 147.07 255.631 137.724C262.955 125.244 278.61 132.352 276.102 146.062C274.962 153.754 281.119 160.807 289.867 161.815C300.117 163.121 305.099 155.04 303.702 146.062H307.795L307.788 146.055Z" fill="#C69C6D" stroke="#603813" stroke-width="4" stroke-miterlimit="10" stroke-linecap="round"/>
<path d="M247.124 125.68C256.713 125.68 265.195 130.636 270.454 138.249C271.73 140.102 271.73 142.681 270.454 144.534C265.195 152.155 256.713 157.103 247.124 157.103C237.535 157.103 229.052 152.148 223.793 144.534C222.517 142.681 222.517 140.102 223.793 138.249C229.052 130.628 237.535 125.68 247.124 125.68Z" fill="#DECAAD" stroke="#603813" stroke-width="4" stroke-miterlimit="10"/>
<path d="M324.869 233.707H306.094C292.884 233.707 281.732 223.896 280.05 210.797L270.398 135.73H360.572L350.92 210.797C349.239 223.896 338.079 233.707 324.876 233.707H324.869Z" fill="#DECAAD" stroke="#603813" stroke-width="4" stroke-miterlimit="10"/>
<path d="M358.929 118.118C357.394 118.118 355.928 118.382 354.559 118.855C352.001 112.073 345.463 107.237 337.784 107.237C335.206 107.237 332.76 107.793 330.544 108.772C326.576 105.131 321.295 102.887 315.486 102.887C309.677 102.887 304.396 105.131 300.428 108.772C298.211 107.793 295.766 107.237 293.188 107.237C285.509 107.237 278.97 112.073 276.413 118.855C275.037 118.382 273.571 118.118 272.043 118.118C264.58 118.118 258.527 124.171 258.527 131.634C258.527 139.096 264.58 145.149 272.043 145.149C276.434 145.149 280.332 143.043 282.799 139.791C285.732 141.883 289.317 143.127 293.194 143.127C295.772 143.127 298.218 142.571 300.435 141.591C304.403 145.232 309.684 147.477 315.493 147.477C321.302 147.477 326.583 145.232 330.551 141.591C332.767 142.571 335.213 143.127 337.791 143.127C341.669 143.127 345.247 141.883 348.187 139.791C350.653 143.043 354.545 145.149 358.943 145.149C366.406 145.149 372.459 139.096 372.459 131.634C372.459 124.171 366.406 118.118 358.943 118.118H358.929Z" fill="#D9AD7A" stroke="#603813" stroke-width="4" stroke-miterlimit="10" stroke-linecap="round" stroke-linejoin="round"/>
<path d="M361.936 171.344C362.073 168.436 361.253 165.772 359.833 163.854C353.376 156.76 346.963 165.908 346.7 171.501C346.578 174.108 348.081 177.467 348.081 177.467C344.026 179.561 341.448 184.238 341.19 189.714C340.928 195.301 345.717 197.687 349.608 197.87C356.924 198.214 361.281 193.809 361.544 188.215C361.715 184.574 361.07 181.183 358.94 179.297C361.017 177.557 361.776 174.763 361.936 171.344Z" fill="#D9AD7A" stroke="#603813" stroke-width="4" stroke-miterlimit="10" stroke-linecap="round" stroke-linejoin="round"/>
<path d="M269.11 171.344C268.974 168.436 269.794 165.772 271.213 163.854C277.671 156.76 284.084 165.908 284.347 171.501C284.469 174.108 282.966 177.467 282.966 177.467C287.021 179.561 289.599 184.238 289.857 189.714C290.119 195.301 285.33 197.687 281.439 197.87C274.123 198.214 269.766 193.809 269.503 188.215C269.332 184.574 269.977 181.183 272.107 179.297C270.03 177.557 269.271 174.763 269.11 171.344Z" fill="#D9AD7A" stroke="#603813" stroke-width="4" stroke-miterlimit="10" stroke-linecap="round" stroke-linejoin="round"/>
<path d="M298.228 163.873C298.228 166.888 296.755 168.264 294.934 168.264C293.114 168.264 291.641 166.888 291.641 163.873C291.641 160.857 293.114 158.418 294.934 158.418C296.755 158.418 298.228 160.864 298.228 163.873Z" fill="black" stroke="black" stroke-width="4" stroke-miterlimit="10" stroke-linecap="round"/>
<path d="M332.742 163.873C332.742 166.888 334.215 168.264 336.036 168.264C337.856 168.264 339.33 166.888 339.33 163.873C339.33 160.857 337.856 158.418 336.036 158.418C334.215 158.418 332.742 160.864 332.742 163.873Z" fill="black" stroke="black" stroke-width="4" stroke-miterlimit="10" stroke-linecap="round"/>
<path d="M316.557 191.855C315.584 192.862 313.986 192.862 313.013 191.855C307.398 186.039 301.867 186.073 301.867 190.347C301.867 195.072 307.655 198.894 314.785 198.894C321.914 198.894 327.709 195.065 327.709 190.347C327.709 186.073 322.178 186.039 316.557 191.855Z" fill="black" stroke="black" stroke-width="4" stroke-miterlimit="10" stroke-linecap="round"/>
<path d="M314.703 201.562L314.703 216.155" stroke="black" stroke-width="4" stroke-miterlimit="10" stroke-linecap="round"/>
<path d="M303.982 214.243C306.998 216.626 313.183 217.342 319.832 215.744C326.482 214.146 331.666 210.706 333.271 207.211" stroke="black" stroke-width="4" stroke-miterlimit="10" stroke-linecap="round"/>
<path d="M382.02 172.418C381.707 168.777 382.659 164.754 383.778 161.092C385.793 154.859 389.198 148.786 393.909 143.484C394.93 142.33 394.958 140.663 393.86 139.474C392.589 138.098 390.282 137.89 388.718 139.009C382.013 143.81 376.349 149.842 372.034 156.707C366.42 165.226 358.7 184.891 376.322 186.746" fill="#C69C6D"/>
<path d="M382.02 172.418C381.707 168.777 382.659 164.754 383.778 161.092C385.793 154.859 389.198 148.786 393.909 143.484C394.93 142.33 394.958 140.663 393.86 139.474C392.589 138.098 390.282 137.89 388.718 139.009C382.013 143.81 376.349 149.842 372.034 156.707C366.42 165.226 358.7 184.891 376.322 186.746" stroke="#603813" stroke-width="4" stroke-miterlimit="10" stroke-linecap="round"/>
<path d="M254.643 186.746C272.265 184.898 264.545 165.226 258.93 156.707C254.615 149.842 248.952 143.803 242.246 139.009C240.676 137.89 238.376 138.098 237.104 139.474C236.006 140.663 236.034 142.323 237.056 143.484C241.767 148.786 245.172 154.859 247.187 161.092C248.313 164.761 249.258 168.784 248.945 172.418" fill="#C69C6D"/>
<path d="M254.643 186.746C272.265 184.898 264.545 165.226 258.93 156.707C254.615 149.842 248.952 143.803 242.246 139.009C240.676 137.89 238.376 138.098 237.104 139.474C236.006 140.663 236.034 142.323 237.056 143.484C241.767 148.786 245.172 154.859 247.187 161.092C248.313 164.761 249.258 168.784 248.945 172.418" stroke="#603813" stroke-width="4" stroke-miterlimit="10" stroke-linecap="round"/>
<path d="M312.21 198.402C330.272 198.402 343.748 201.26 350.169 202.9L349.064 210.988C347.473 222.646 336.863 231.542 324.117 231.542H304.696C291.943 231.542 281.34 222.646 279.749 210.988L278.648 202.935C285.959 201.301 298.529 198.402 312.21 198.402Z" fill="#603813" fill-opacity="0.5"/>
</svg>
