<svg width="500" height="500" viewBox="0 0 500 500" fill="none" xmlns="http://www.w3.org/2000/svg">
<path d="M255.958 311.984V364.725C255.958 372.06 261.904 377.999 269.231 377.999C276.566 377.999 282.504 372.053 282.504 364.725V311.984" fill="#DECAAD"/>
<path d="M255.958 311.984V364.725C255.958 372.06 261.904 377.999 269.231 377.999C276.566 377.999 282.504 372.053 282.504 364.725V311.984" stroke="#603813" stroke-width="5.4024" stroke-miterlimit="10"/>
<path d="M287.402 304.089C287.05 306.445 285.639 308.6 283.313 310.338C280.986 312.076 277.825 313.336 274.147 313.99C270.469 314.645 266.404 314.672 262.36 314.067C258.317 313.463 254.437 312.249 251.111 310.548" stroke="#603813" stroke-width="5.4024" stroke-linecap="round"/>
<path d="M391.349 311.984V364.725C391.349 372.06 385.403 377.999 378.076 377.999C370.741 377.999 364.803 372.053 364.803 364.725V311.984" fill="#DECAAD"/>
<path d="M391.349 311.984V364.725C391.349 372.06 385.403 377.999 378.076 377.999C370.741 377.999 364.803 372.053 364.803 364.725V311.984" stroke="#603813" stroke-width="5.4024" stroke-miterlimit="10"/>
<path d="M359.905 304.089C360.257 306.445 361.667 308.6 363.994 310.338C366.321 312.076 369.482 313.336 373.16 313.99C376.838 314.645 380.903 314.672 384.946 314.067C388.99 313.463 392.87 312.249 396.196 310.548" stroke="#603813" stroke-width="5.4024" stroke-linecap="round"/>
<path d="M274.7 202.195C273.14 204.301 272.24 207.228 272.39 210.422C272.566 214.177 273.4 217.246 275.681 219.157C273.342 221.229 272.633 224.953 272.821 228.953C273.11 235.097 277.896 239.936 285.932 239.558C290.206 239.358 295.466 236.736 295.178 230.599" stroke="#603813" stroke-width="5.4024" stroke-miterlimit="10" stroke-linecap="round" stroke-linejoin="round"/>
<path d="M304.369 202.218C304.369 205.531 302.75 207.042 300.751 207.042C298.751 207.042 297.133 205.531 297.133 202.218C297.133 198.906 298.751 196.227 300.751 196.227C302.75 196.227 304.369 198.913 304.369 202.218Z" fill="black" stroke="black" stroke-width="5.4024" stroke-miterlimit="10" stroke-linecap="round"/>
<path d="M342.281 202.21C342.281 205.523 343.899 207.034 345.899 207.034C347.899 207.034 349.517 205.523 349.517 202.21C349.517 198.898 347.899 196.219 345.899 196.219C343.899 196.219 342.281 198.905 342.281 202.21Z" fill="black" stroke="black" stroke-width="5.4024" stroke-miterlimit="10" stroke-linecap="round"/>
<path d="M324.504 232.956C323.436 234.062 321.68 234.062 320.612 232.956C314.445 226.567 308.369 226.605 308.369 231.299C308.369 236.489 314.727 240.687 322.558 240.687C330.389 240.687 336.755 236.482 336.755 231.299C336.755 226.605 330.679 226.567 324.504 232.956Z" fill="black" stroke="black" stroke-width="5.4024" stroke-miterlimit="10" stroke-linecap="round"/>
<path d="M322.469 243.613L322.469 259.642" stroke="black" stroke-width="5.4024" stroke-miterlimit="10" stroke-linecap="round"/>
<path d="M396.409 211.601C396.066 207.602 397.111 203.183 398.34 199.16C400.554 192.314 404.294 185.643 409.469 179.819C410.591 178.552 410.621 176.72 409.415 175.415C408.018 173.904 405.484 173.675 403.767 174.904C396.402 180.178 390.181 186.803 385.441 194.344C379.274 203.702 370.794 225.302 390.151 227.34" fill="#C69C6D"/>
<path d="M396.409 211.601C396.066 207.602 397.111 203.183 398.34 199.16C400.554 192.314 404.294 185.643 409.469 179.819C410.591 178.552 410.621 176.72 409.415 175.415C408.018 173.904 405.484 173.675 403.767 174.904C396.402 180.178 390.181 186.803 385.441 194.344C379.274 203.702 370.794 225.302 390.151 227.34" stroke="#603813" stroke-width="5.4024" stroke-miterlimit="10" stroke-linecap="round"/>
<path d="M256.496 227.34C275.853 225.309 267.373 203.702 261.206 194.344C256.466 186.803 250.245 180.17 242.88 174.904C241.155 173.675 238.629 173.904 237.232 175.415C236.026 176.72 236.056 178.545 237.178 179.819C242.353 185.643 246.093 192.314 248.307 199.16C249.543 203.19 250.581 207.609 250.238 211.601" fill="#C69C6D"/>
<path d="M256.496 227.34C275.853 225.309 267.373 203.702 261.206 194.344C256.466 186.803 250.245 180.17 242.88 174.904C241.155 173.675 238.629 173.904 237.232 175.415C236.026 176.72 236.056 178.545 237.178 179.819C242.353 185.643 246.093 192.314 248.307 199.16C249.543 203.19 250.581 207.609 250.238 211.601" stroke="#603813" stroke-width="5.4024" stroke-miterlimit="10" stroke-linecap="round"/>
<path d="M184.326 211.193C184.326 201.767 194.747 185.663 207.549 177.146C210.379 175.262 211.795 174.321 219.021 174.672C219.421 174.692 220.719 174.817 221.115 174.875C228.275 175.916 230.914 178.526 236.192 183.748L291.443 238.408C305.43 252.246 312.424 259.164 320.97 259.491C321.788 259.522 322.608 259.507 323.424 259.447C331.954 258.819 338.699 251.658 352.188 237.335L407.78 178.308C413.472 172.265 416.317 169.243 423.701 168.054C424.114 167.987 425.44 167.84 425.858 167.815C433.323 167.359 434.751 168.325 437.608 170.257C449.297 178.162 455.561 192.995 460.405 201.142C467.223 212.61 466.979 226.554 467.136 258.176C467.293 289.797 460.405 342.943 460.405 342.943C460.405 342.943 456.016 386.193 456.016 413.993C456.016 428.761 457.255 447.889 458.416 462.577C459.208 472.601 459.605 477.613 456.934 480.507C456.673 480.789 456.421 481.031 456.127 481.279C453.119 483.821 448.104 483.202 438.073 481.966C422.185 480.007 401.19 477.916 386.794 478.366C360.772 479.178 348.398 484.611 322.366 485.043C296.334 485.475 281.118 478.366 253.346 478.366C238.929 478.366 220.881 480.165 206.857 481.896C196.724 483.146 191.658 483.771 188.65 481.234C188.355 480.985 188.106 480.746 187.843 480.463C185.173 477.573 185.566 472.51 186.353 462.385C187.446 448.321 188.573 429.948 188.573 413.993C188.573 383.023 184.326 343.181 184.326 343.181C184.326 343.181 178 302.754 178 258.176C178 213.597 184.326 224.448 184.326 211.193Z" fill="#FFF47B" stroke="#9B9444" stroke-width="4.34253" stroke-miterlimit="10" stroke-linejoin="round"/>
<path d="M284.701 282.097C284.878 280.911 284.06 279.806 282.875 279.629C281.689 279.451 280.584 280.269 280.406 281.455L282.554 281.776L284.701 282.097ZM243.541 286.961C242.474 286.415 241.166 286.838 240.62 287.905C240.073 288.973 240.496 290.281 241.564 290.827L242.552 288.894L243.541 286.961ZM282.554 281.776L280.406 281.455C280.121 283.365 278.96 285.27 276.748 286.923L278.047 288.662L279.346 290.402C282.262 288.224 284.21 285.378 284.701 282.097L282.554 281.776ZM278.047 288.662L276.748 286.923C274.52 288.586 271.377 289.871 267.563 290.55L267.944 292.687L268.324 294.825C272.619 294.06 276.444 292.569 279.346 290.402L278.047 288.662ZM267.944 292.687L267.563 290.55C263.762 291.226 259.519 291.259 255.273 290.625L254.952 292.772L254.631 294.919C259.299 295.616 264.017 295.591 268.324 294.825L267.944 292.687ZM254.952 292.772L255.273 290.625C251.027 289.99 246.979 288.719 243.541 286.961L242.552 288.894L241.564 290.827C245.458 292.818 249.963 294.222 254.631 294.919L254.952 292.772Z" fill="#9B9444"/>
<path d="M360.323 282.096C360.145 280.911 360.963 279.806 362.149 279.628C363.335 279.451 364.44 280.269 364.617 281.455L362.47 281.776L360.323 282.096ZM401.482 286.961C402.55 286.415 403.858 286.838 404.404 287.905C404.95 288.973 404.527 290.281 403.46 290.827L402.471 288.894L401.482 286.961ZM362.47 281.776L364.617 281.455C364.903 283.365 366.063 285.27 368.276 286.923L366.977 288.662L365.678 290.402C362.761 288.224 360.813 285.378 360.323 282.096L362.47 281.776ZM366.977 288.662L368.276 286.923C370.503 288.586 373.647 289.871 377.46 290.55L377.08 292.687L376.7 294.825C372.405 294.06 368.58 292.569 365.678 290.402L366.977 288.662ZM377.08 292.687L377.46 290.55C381.261 291.226 385.504 291.259 389.751 290.625L390.072 292.772L390.392 294.919C385.725 295.616 381.006 295.591 376.7 294.825L377.08 292.687ZM390.072 292.772L389.751 290.625C393.997 289.99 398.045 288.719 401.482 286.961L402.471 288.894L403.46 290.827C399.565 292.818 395.06 294.222 390.392 294.919L390.072 292.772Z" fill="#9B9444"/>
<path d="M321.629 281.652L322.537 279.68C321.629 281.652 321.628 281.652 321.627 281.651C321.626 281.651 321.625 281.65 321.624 281.649C321.622 281.648 321.619 281.647 321.615 281.646C321.608 281.642 321.598 281.638 321.585 281.632C321.559 281.62 321.522 281.602 321.474 281.579C321.377 281.533 321.236 281.466 321.053 281.378C320.687 281.201 320.152 280.938 319.465 280.588C318.091 279.888 316.108 278.841 313.65 277.442C308.736 274.646 301.914 270.44 294.259 264.787C278.965 253.493 260.26 236.363 246.811 213.08L246.255 212.112C240.571 202.019 236.763 188.9 234.357 176.802C231.87 164.291 230.838 152.649 230.838 146.182C230.838 95.7096 276.182 63.8311 322.015 63.831C344.83 63.831 366.552 69.3371 382.61 82.499C398.741 95.7204 408.866 116.43 408.866 146.182L408.862 147.422C408.822 153.924 408.443 164.86 406.771 176.627C405 189.092 401.749 202.718 395.755 212.983C384.915 236.338 366.809 253.495 351.502 264.787C343.827 270.449 336.824 274.66 331.733 277.458C329.188 278.858 327.118 279.905 325.679 280.605C324.959 280.956 324.397 281.219 324.012 281.396C323.819 281.485 323.67 281.552 323.568 281.598C323.517 281.62 323.478 281.638 323.45 281.65C323.437 281.656 323.426 281.661 323.418 281.664C323.414 281.666 323.411 281.667 323.409 281.668C323.408 281.668 323.407 281.669 323.406 281.669C323.403 281.664 323.364 281.577 322.684 280.016L323.404 281.67L322.513 282.059L321.629 281.652ZM321.732 250.146C322.87 249.286 324.509 248.036 326.508 246.482C330.507 243.374 335.942 239.05 341.691 234.188C347.444 229.324 353.49 223.939 358.721 218.705C363.981 213.442 368.3 208.444 370.703 204.349C380.585 187.508 383.527 174.056 383.537 163.717C382.146 142.376 376.091 128.443 366.011 119.785C355.881 111.084 341.277 107.354 322.015 107.354C302.603 107.354 287.62 109.949 277.465 118.054C267.431 126.062 261.606 139.884 261.606 163.656C261.607 174.111 264.701 187.463 274.609 204.349C279.445 212.589 291.312 224.317 302.224 234.152C307.633 239.028 312.732 243.373 316.479 246.499C318.353 248.062 319.887 249.318 320.952 250.184C321.076 250.284 321.193 250.379 321.304 250.469C321.437 250.368 321.581 250.26 321.732 250.146Z" fill="#FFF47B" stroke="#9B9444" stroke-width="4.34253"/>
<path d="M226.616 436.937L268.18 412.946L273.711 422.525L280.709 434.642L264.695 454.894L239.145 458.633L232.147 446.516L226.616 436.937Z" fill="#FFF47B"/>
<path d="M226.616 436.937L226.044 435.947L225.053 436.519L225.625 437.509L226.616 436.937ZM268.18 412.946L269.17 412.375L268.598 411.384L267.608 411.956L268.18 412.946ZM280.709 434.642L281.606 435.352L282.088 434.743L281.699 434.071L280.709 434.642ZM239.145 458.633L238.155 459.205L238.543 459.877L239.311 459.765L239.145 458.633ZM264.695 454.894L264.861 456.025L265.31 455.96L265.592 455.603L264.695 454.894ZM232.147 446.516L231.157 447.088L231.157 447.088L232.147 446.516ZM226.616 436.937L227.187 437.928L268.752 413.937L268.18 412.946L267.608 411.956L226.044 435.947L226.616 436.937ZM280.709 434.642L279.812 433.933L263.798 454.185L264.695 454.894L265.592 455.603L281.606 435.352L280.709 434.642ZM264.695 454.894L264.529 453.763L238.979 457.502L239.145 458.633L239.311 459.765L264.861 456.025L264.695 454.894ZM268.18 412.946L267.189 413.518L272.721 423.097L273.711 422.525L274.702 421.954L269.17 412.375L268.18 412.946ZM273.711 422.525L272.721 423.097L279.719 435.214L280.709 434.642L281.699 434.071L274.701 421.954L273.711 422.525ZM239.145 458.633L240.135 458.062L233.137 445.945L232.147 446.516L231.157 447.088L238.155 459.205L239.145 458.633ZM232.147 446.516L233.137 445.945L227.606 436.366L226.616 436.937L225.625 437.509L231.157 447.088L232.147 446.516ZM273.711 422.525L273.139 421.535L231.575 445.526L232.147 446.516L232.719 447.507L274.283 423.516L273.711 422.525Z" fill="#9B9444"/>
<path d="M429.75 436.937L388.186 412.946L382.654 422.525L375.656 434.642L391.67 454.894L417.22 458.633L424.218 446.516L429.75 436.937Z" fill="#FFF47B"/>
<path d="M429.75 436.937L430.322 435.947L431.312 436.519L430.74 437.509L429.75 436.937ZM388.186 412.946L387.195 412.375L387.767 411.384L388.757 411.956L388.186 412.946ZM375.656 434.642L374.759 435.352L374.278 434.743L374.666 434.071L375.656 434.642ZM417.22 458.633L418.211 459.205L417.822 459.877L417.055 459.765L417.22 458.633ZM391.67 454.894L391.505 456.025L391.055 455.96L390.773 455.603L391.67 454.894ZM424.218 446.516L425.209 447.088L425.209 447.088L424.218 446.516ZM429.75 436.937L429.178 437.928L387.614 413.937L388.186 412.946L388.757 411.956L430.322 435.947L429.75 436.937ZM375.656 434.642L376.553 433.933L392.567 454.185L391.67 454.894L390.773 455.603L374.759 435.352L375.656 434.642ZM391.67 454.894L391.836 453.763L417.386 457.502L417.22 458.633L417.055 459.765L391.505 456.025L391.67 454.894ZM388.186 412.946L389.176 413.518L383.644 423.097L382.654 422.525L381.664 421.954L387.195 412.375L388.186 412.946ZM382.654 422.525L383.644 423.097L376.646 435.214L375.656 434.642L374.666 434.071L381.664 421.954L382.654 422.525ZM417.22 458.633L416.23 458.062L423.228 445.945L424.218 446.516L425.209 447.088L418.211 459.205L417.22 458.633ZM424.218 446.516L423.228 445.945L428.759 436.366L429.75 436.937L430.74 437.509L425.209 447.088L424.218 446.516ZM382.654 422.525L383.226 421.535L424.79 445.526L424.218 446.516L423.646 447.507L382.082 423.516L382.654 422.525Z" fill="#9B9444"/>
<path d="M329.543 293.082L329.543 496.227" stroke="#9B9444" stroke-width="2.91073" stroke-linecap="round"/>
<path d="M313.577 320.569C318.544 320.569 322.571 324.596 322.571 329.562C322.571 334.528 318.544 338.554 313.577 338.554C308.61 338.554 304.583 334.528 304.583 329.562C304.583 324.596 308.61 320.569 313.577 320.569Z" fill="#1A1A1A" stroke="#9B9444" stroke-width="0.0693031"/>
<path d="M313.577 364.944C318.544 364.944 322.571 368.971 322.571 373.937C322.571 378.903 318.544 382.929 313.577 382.929C308.61 382.929 304.583 378.903 304.583 373.937C304.583 368.971 308.61 364.944 313.577 364.944Z" fill="#1A1A1A" stroke="#9B9444" stroke-width="0.0693031"/>
<path d="M313.577 409.327C318.544 409.327 322.571 413.353 322.571 418.319C322.571 423.285 318.544 427.312 313.577 427.312C308.61 427.311 304.583 423.285 304.583 418.319C304.583 413.353 308.61 409.327 313.577 409.327Z" fill="#1A1A1A" stroke="#9B9444" stroke-width="0.0693031"/>
<path d="M313.577 453.69C318.544 453.69 322.571 457.717 322.571 462.683C322.571 467.649 318.544 471.675 313.577 471.675C308.61 471.675 304.583 467.649 304.583 462.683C304.583 457.717 308.61 453.691 313.577 453.69Z" fill="#1A1A1A" stroke="#9B9444" stroke-width="0.0693031"/>
<path d="M395.958 292.453V345.194C395.958 352.529 390.012 358.467 382.685 358.467C375.35 358.467 369.412 352.522 369.412 345.194V292.453" fill="#DECAAD"/>
<path d="M395.958 292.453V345.194C395.958 352.529 390.012 358.467 382.685 358.467C375.35 358.467 369.412 352.522 369.412 345.194V292.453" stroke="#603813" stroke-width="5.4024" stroke-miterlimit="10"/>
<path d="M249.085 292.453V345.194C249.085 352.529 255.031 358.467 262.358 358.467C269.693 358.467 275.631 352.522 275.631 345.194V292.453" fill="#DECAAD"/>
<path d="M249.085 292.453V345.194C249.085 352.529 255.031 358.467 262.358 358.467C269.693 358.467 275.631 352.522 275.631 345.194V292.453" stroke="#603813" stroke-width="5.4024" stroke-miterlimit="10"/>
</svg>
