<svg width="500" height="500" viewBox="0 0 500 500" fill="none" xmlns="http://www.w3.org/2000/svg">
<path d="M286.772 309.43C287.688 321.162 278.725 331.429 266.753 332.363C254.782 333.298 244.335 324.545 243.419 312.813L228.364 119.895" stroke="#5C260B" stroke-width="6.86662" stroke-linecap="round"/>
<path d="M223.275 61.5856C237.985 60.4377 252.772 62.1403 266.792 66.596C280.812 71.0516 293.791 78.1731 304.988 87.554C316.184 96.9348 325.379 108.392 332.047 121.27C336.147 129.186 339.24 137.546 341.278 146.16C334.337 141.698 325.883 139.378 316.954 140.075C305.117 140.999 294.927 147.029 288.459 155.781C280.711 148.138 269.709 143.761 257.871 144.685C247.171 145.52 237.816 150.526 231.34 157.944C223.674 150.984 213.171 147.068 201.913 147.947C190.074 148.871 179.883 154.902 173.415 163.656C165.668 156.011 154.664 151.633 142.825 152.557C133.986 153.247 126.066 156.785 119.927 162.176C120.67 153.781 122.392 145.474 125.079 137.421C129.669 123.665 136.975 110.92 146.581 99.9159C156.186 88.9117 167.903 79.8629 181.063 73.2862C194.222 66.7095 208.566 62.7336 223.275 61.5856Z" fill="#C24D4D"/>
<path d="M222.477 51.3787C237.187 50.2308 251.974 51.9333 265.994 56.389C280.014 60.8447 292.993 67.9661 304.19 77.347C315.386 86.7279 324.581 98.1847 331.25 111.063C335.348 118.977 338.44 127.334 340.478 135.945C333.537 131.483 325.082 129.163 316.152 129.86C304.313 130.784 294.121 136.814 287.654 145.568C279.906 137.925 268.905 133.549 257.068 134.473C246.368 135.308 237.012 140.313 230.536 147.731C222.871 140.771 212.368 136.856 201.11 137.735C189.271 138.659 179.08 144.69 172.612 153.444C164.864 145.798 153.861 141.421 142.022 142.345C133.185 143.034 125.267 146.57 119.129 151.959C119.873 143.567 121.596 135.263 124.281 127.214C128.871 113.458 136.177 100.713 145.783 89.709C155.388 78.7048 167.106 69.656 180.265 63.0793C193.424 56.5025 207.768 52.5266 222.477 51.3787Z" fill="#E46262"/>
<path d="M222.553 52.3269C220.491 52.4124 218.431 52.6865 216.406 53.1414C210.729 54.4092 205.391 57.1164 200.761 60.6834C193.37 66.3792 187.72 74.066 183.494 82.2991C183.441 82.403 183.388 82.5071 183.335 82.6115C178.288 92.5873 175.148 103.416 173.395 114.383C171.714 125.332 171.483 136.411 172.119 147.401C172.246 149.46 172.413 151.522 172.625 153.57C172.517 151.514 172.452 149.448 172.421 147.389C172.298 136.406 172.922 125.388 174.834 114.629C176.823 103.824 180.044 93.2163 184.988 83.4505C185.04 83.3484 185.092 83.2465 185.144 83.1448C189.286 75.0822 194.616 67.5297 201.582 61.7098C205.951 58.065 210.993 55.1606 216.512 53.5502C218.48 52.9739 220.503 52.5618 222.553 52.3269Z" fill="black" fill-opacity="0.2"/>
<path d="M229.935 142.911C229.891 141.403 229.843 139.895 229.792 138.388C229.313 124.338 228.528 110.311 227.435 96.3082C226.418 83.2741 225.098 70.2637 223.475 57.277C223.288 55.7804 223.097 54.2841 222.902 52.7881C222.942 54.2962 222.985 55.804 223.032 57.3115C223.444 70.3928 224.159 83.4504 225.176 96.4845C226.269 110.487 227.668 124.466 229.375 138.421C229.558 139.918 229.745 141.414 229.935 142.911Z" fill="black" fill-opacity="0.2"/>
<path d="M222.65 52.3215C224.7 52.0861 226.778 52.0373 228.849 52.1726C234.654 52.5443 240.348 54.3906 245.475 57.1962C253.66 61.6765 260.434 68.3937 265.885 75.8716C265.954 75.966 266.023 76.0606 266.091 76.1555C272.625 85.2276 277.406 95.4378 280.84 106C284.199 116.556 286.146 127.465 287.223 138.42C287.417 140.474 287.572 142.537 287.68 144.593C287.467 142.545 287.212 140.495 286.923 138.456C285.341 127.587 283.015 116.798 279.457 106.467C275.815 96.1012 270.987 86.1214 264.588 77.2408C264.521 77.148 264.454 77.0554 264.387 76.963C259.045 69.6405 252.608 63.0063 244.823 58.3375C239.941 55.4146 234.51 53.3276 228.808 52.5929C226.774 52.3289 224.712 52.2355 222.65 52.3215Z" fill="black" fill-opacity="0.2"/>
<path d="M256.125 62.4375C264.243 61.804 272.427 63.0436 280.209 66.0855C287.992 69.1274 295.222 73.9121 301.485 80.1662C307.748 86.4203 312.922 94.0215 316.712 102.536C319.042 107.77 320.819 113.288 322.016 118.964C318.144 115.975 313.453 114.382 308.525 114.766C307.538 114.843 306.573 114.998 305.634 115.223C304.999 114.444 304.449 113.583 304.017 112.613C300.453 104.607 297.746 100.81 292.196 94.059C282.126 83.6346 279.95 82.9517 272.872 77.6857C266.285 74.1103 263.573 72.9881 256.462 66.7525L256.125 62.4375Z" fill="white" fill-opacity="0.1"/>
<path d="M225.212 35.3891C224.955 34.7272 224.366 34.1192 223.69 33.6897C223.007 33.2607 222.294 33.0455 221.59 33.1004C220.885 33.1554 220.214 33.4787 219.606 34.0084C219.005 34.5375 218.517 35.2296 218.366 35.9234C218.366 35.9234 218.366 35.9234 218.366 35.9234C218.306 36.207 218.245 36.4907 218.185 36.7744C217.095 41.8804 216.006 46.9864 214.917 52.0924C214.856 52.3761 214.796 52.6598 214.735 52.9434C214.243 55.2104 214.706 57.3116 216.405 58.7548C218.083 60.1997 220.859 60.8683 223.739 60.6435C226.62 60.4188 229.258 59.3275 230.691 57.6399C232.146 55.9505 232.277 53.803 231.439 51.6399C231.335 51.369 231.232 51.0982 231.128 50.8274C229.26 45.9521 227.391 41.0769 225.523 36.2017C225.42 35.9308 225.316 35.66 225.212 35.3891Z" fill="#5C260B"/>
</svg>
